<svg width="68" height="50" viewBox="0 0 68 50" fill="none" xmlns="http://www.w3.org/2000/svg">
<g clip-path="url(#clip0_1559_672)">
<path d="M54.8496 39.0946V6.53404L60.7359 0.740601L62.5024 14.615L60.7359 33.3011L54.8496 39.0946Z" fill="#701EB3"/>
<path d="M54.7041 39.4419V6.4723L60.6768 0.592896H60.864L62.6486 14.6111L60.8757 33.3669L54.7041 39.4419ZM54.9948 6.59532V38.7472L60.5963 33.234L62.3564 14.617L60.6292 1.0504L54.9948 6.59532Z" fill="#1F191A"/>
<path d="M67.2851 0.740601H60.7363V33.3011H67.2851V0.740601Z" fill="#FFEA00"/>
<path d="M67.4299 33.3629L67.2933 33.4474H60.5908V0.67934L60.6768 0.59436H67.4299V33.3629ZM60.8811 33.1549H67.1391V0.889319H60.8811V33.1549Z" fill="#1F191A"/>
<path d="M60.7359 33.3011L54.8496 39.0946H61.3984L67.2847 33.3011H60.7359Z" fill="#FF3E0C"/>
<path d="M61.4579 39.2408H54.4941L60.6776 33.1549H67.4307V33.3629L61.4579 39.2408ZM55.2067 38.9483H61.3386L66.9293 33.4484H60.7984L55.2067 38.9483Z" fill="#1F191A"/>
<path d="M63.3702 43.2808H64.6638L58.7613 49.0742H57.4766L63.3702 43.2808Z" fill="#FF3E0C"/>
<path d="M58.8201 49.2204H57.3434L57.3252 49.0189L63.3107 43.135H64.8169L64.8086 43.343L58.8201 49.2204ZM57.833 48.9279H58.7017L64.3067 43.4285H63.4291L57.833 48.9279Z" fill="#1F191A"/>
<path d="M63.37 35.1569L54.2803 44.3673L60.9828 38.7645C60.9828 38.7645 63.4943 38.0081 63.4943 37.9597C63.4943 37.9113 63.6382 35.9157 63.6382 35.9157L63.37 35.1569Z" fill="#701EB3"/>
<path d="M54.3732 44.4784L54.1768 44.263L63.3112 35.0106H63.4742L63.7876 35.8945V35.9251C63.7311 36.7097 63.6461 37.9014 63.6442 37.9612C63.6442 38.0808 63.5783 38.1025 63.1531 38.2433C62.9438 38.3125 62.6526 38.4049 62.2873 38.5185C61.7411 38.688 61.1887 38.855 61.0595 38.8945L54.3732 44.4784ZM63.3112 35.4242L56.5252 42.3006L60.9146 38.6316L60.9426 38.6227C61.7559 38.3757 63.0455 37.9805 63.3559 37.8634C63.3775 37.5368 63.4541 36.4637 63.4929 35.9365L63.3112 35.4242ZM63.3505 37.9469C63.3502 37.9506 63.3502 37.9544 63.3505 37.9582C63.3505 37.9582 63.3485 37.9523 63.3515 37.9469H63.3505Z" fill="#1F191A"/>
<path d="M60.1784 39.8698L54.2803 45.6632V44.3658L60.1784 38.5729V39.8698Z" fill="#FF3E0C"/>
<path d="M54.1357 46.01V44.3044L60.3236 38.2274V39.9329L54.1357 46.01ZM54.426 44.429V45.3183L60.0338 39.8104V38.9211L54.426 44.429Z" fill="#1F191A"/>
<path d="M67.855 39.8713L64.3584 43.2804L64.2783 41.1119C64.2783 41.1119 65.3165 39.7458 65.3656 39.7616C65.4147 39.7774 67.855 39.8713 67.855 39.8713Z" fill="#701EB3"/>
<path d="M64.4172 43.4285L64.1309 41.0668L64.1628 41.0248C65.2265 39.6276 65.2869 39.5861 65.3979 39.6197C65.5452 39.6335 66.9404 39.6899 67.8603 39.7249L68.0002 39.7304V39.9329L64.4172 43.4285ZM64.4255 41.1612L64.4913 42.9492L67.5096 40.0041C66.0584 39.9483 65.5791 39.9245 65.4146 39.9127C65.281 40.0545 64.8326 40.6251 64.4255 41.1597V41.1612ZM65.3242 39.9028C65.3381 39.9069 65.3525 39.9089 65.367 39.9087C65.3525 39.9077 65.3382 39.9052 65.3242 39.9013V39.9028Z" fill="#1F191A"/>
<path d="M54.2803 45.6631C54.2803 45.6631 57.2008 45.9645 57.4763 49.0722L63.3695 43.2788C63.3695 43.2788 64.8374 41.2714 64.5177 41.0461C64.198 40.8208 61.7022 39.4206 61.6384 39.4369C61.5746 39.4532 60.1779 39.8628 60.1779 39.8628L54.2803 45.6631Z" fill="#701EB3"/>
<path d="M57.3436 49.2205L57.3318 49.0876C57.2223 47.8524 56.6767 46.9245 55.7112 46.3336C55.2694 46.0638 54.7786 45.8853 54.2674 45.8084L53.96 45.7758L54.181 45.5584L60.1051 39.7349L60.1399 39.7245C60.2829 39.6825 61.5406 39.3134 61.6054 39.2971C61.6702 39.2808 61.7085 39.2709 63.0551 40.0249C63.7004 40.3865 64.4302 40.806 64.6031 40.928C64.6312 40.9482 64.6548 40.9739 64.6726 41.0037C64.6903 41.0334 64.7018 41.0665 64.7062 41.101C64.7808 41.5575 63.7932 42.9512 63.4888 43.3677L63.473 43.3855L57.5371 49.2205H57.3436ZM54.5851 45.5683C55.0312 45.6692 55.4584 45.841 55.8507 46.0772C56.5318 46.4912 57.3638 47.2882 57.5857 48.7625L63.2599 43.1849C63.9258 42.2734 64.4474 41.3569 64.4199 41.1593C64.0702 40.9226 61.9575 39.7358 61.6349 39.5936C61.4581 39.643 60.7538 39.8505 60.2544 39.9972L54.5851 45.5683Z" fill="#1F191A"/>
<path d="M67.83 38.5679C65.0268 38.0788 64.7007 35.6825 64.6639 35.2305V35.1569H63.3704V35.2305C63.3335 35.6825 63.0069 38.0788 60.2038 38.5679H60.1787V39.8713H60.2038C63.0069 40.3604 63.3335 42.7566 63.3704 43.2087V43.2803H64.6639V43.2067C64.7007 42.7546 65.0268 40.3584 67.83 39.8693H67.8551V38.5679H67.83Z" fill="#FFEA00"/>
<path d="M64.8082 43.3431L64.6608 43.4271H63.2288L63.2244 43.2131C63.1851 42.7477 62.858 40.4883 60.1904 40.016H60.0332V38.4266L60.1904 38.4222C62.858 37.9493 63.1861 35.69 63.2244 35.2246V35.0966L63.3088 35.0106H64.8037L64.8086 35.2246C64.8474 35.69 65.175 37.9493 67.8422 38.4222H67.9998V39.9315L67.8422 40.016C65.175 40.4883 64.8465 42.7477 64.8086 43.2131L64.8082 43.3431ZM63.5087 43.1351H64.5238C64.5857 42.5363 64.9987 40.2695 67.7091 39.7433V38.6944C64.9987 38.1707 64.5857 35.9014 64.5238 35.3031H63.5087C63.4468 35.9014 63.0338 38.1687 60.3234 38.6944V39.7433C63.0338 40.2665 63.4468 42.5363 63.5087 43.1351Z" fill="#1F191A"/>
<path d="M46.0645 49.0723V46.1755L46.8757 6.41597L52.6133 5.45056L52.2823 43.2788H51.9508L46.0645 49.0723Z" fill="#FFEA00"/>
<path d="M45.918 49.218V46.1755L46.7332 6.29191L52.7604 5.27759L52.4265 43.425H52.0105L46.1242 49.218H45.918ZM47.017 6.54042L46.2126 46.1785V48.7244L51.8922 43.132H52.1377L52.4663 5.62294L47.017 6.54042Z" fill="#1F191A"/>
<path d="M46.0645 49.0722H52.6133L58.4996 43.2788H51.9508L46.0645 49.0722Z" fill="#701EB3"/>
<path d="M52.6725 49.218H45.918V49.0115L51.8907 43.1321H58.6438V43.3396L52.6725 49.218ZM46.4213 48.926H52.5542L58.1463 43.4251H52.0105L46.4213 48.926Z" fill="#1F191A"/>
<path d="M49.0386 43.2788L43.1518 49.0722H36.6035L42.4898 43.2788H49.0386Z" fill="#701EB3"/>
<path d="M43.2111 49.218H36.458V49.012L42.4308 43.1321H49.1843V43.3396L43.2111 49.218ZM36.9594 48.926H43.0928L48.6819 43.4251H42.5491L36.9594 48.926Z" fill="#1F191A"/>
<path d="M36.6035 49.0723V14.4303C36.6035 14.4303 36.4006 12.2149 37.6873 10.0237C37.6873 10.0237 37.982 9.23316 40.0446 7.26924L43.5314 3.87352L45.0508 2.37402L45.2301 3.21147L43.6144 24.3734V43.2803H42.4898L36.6035 49.0723Z" fill="#FFEA00"/>
<path d="M36.4581 49.218V14.4357C36.4444 14.2722 36.2906 12.1215 37.5567 9.95747C37.6058 9.83889 38.0016 9.01133 39.9454 7.16203L43.4322 3.7673L45.1402 2.08203L45.3755 3.20307V3.22382L43.7568 24.3813V43.4251H42.5492L36.6624 49.218H36.4581ZM44.9644 2.66503L43.634 3.97777L40.1472 7.37399C38.1514 9.27318 37.8268 10.0681 37.8238 10.076L37.813 10.0978C36.5652 12.2223 36.7469 14.3962 36.7488 14.4169V14.4303V48.7245L42.4308 43.1321H43.4671V24.3645L45.0828 3.22333L44.9644 2.66503Z" fill="#1F191A"/>
<path d="M49.039 43.2803V8.27913C49.039 7.89061 49.1924 7.518 49.4655 7.24328C49.7386 6.96856 50.109 6.81422 50.4951 6.81422C50.8813 6.81422 51.2517 6.96856 51.5248 7.24328C51.7978 7.518 51.9513 7.89061 51.9513 8.27913V43.2803H58.5001V8.27913C58.5001 6.14326 57.6567 4.09487 56.1555 2.58459C54.6543 1.0743 52.6182 0.22583 50.4951 0.22583C48.3721 0.22583 46.336 1.0743 44.8348 2.58459C43.3336 4.09487 42.4902 6.14326 42.4902 8.27913V43.2803H49.039Z" fill="#FF5CD7"/>
<path d="M58.6448 43.34L58.4871 43.425H51.8082V8.27903C51.8116 8.10368 51.7801 7.92942 51.7158 7.76643C51.6514 7.60344 51.5554 7.455 51.4333 7.32979C51.3112 7.20458 51.1656 7.10512 51.0048 7.03722C50.8441 6.96932 50.6715 6.93434 50.4972 6.93434C50.3229 6.93434 50.1503 6.96932 49.9896 7.03722C49.8288 7.10512 49.6832 7.20458 49.5611 7.32979C49.439 7.455 49.343 7.60344 49.2786 7.76643C49.2143 7.92942 49.1828 8.10368 49.1862 8.27903V43.34L48.9274 43.425H42.3467V8.27903C42.3467 3.75782 46.0029 0.0775146 50.4989 0.0775146C54.9949 0.0775146 58.6512 3.75585 58.6512 8.27903L58.6448 43.34ZM52.096 43.132H58.354V8.27903C58.354 3.91889 54.8284 0.373955 50.4965 0.373955C46.1645 0.373955 42.6389 3.92087 42.6389 8.27903V43.132H48.893V8.27903C48.893 8.06745 48.9345 7.85795 49.0149 7.66247C49.0954 7.467 49.2134 7.28938 49.3621 7.13978C49.5108 6.99017 49.6873 6.87149 49.8816 6.79052C50.0759 6.70955 50.2842 6.66788 50.4945 6.66788C50.7048 6.66788 50.9131 6.70955 51.1074 6.79052C51.3017 6.87149 51.4782 6.99017 51.6269 7.13978C51.7756 7.28938 51.8936 7.467 51.9741 7.66247C52.0546 7.85795 52.096 8.06745 52.096 8.27903V43.132Z" fill="#1F191A"/>
<path d="M38.1455 4.70056H29.124V21.6728H38.1455V4.70056Z" fill="#FF3E0C"/>
<path d="M38.2907 21.819H28.9785V4.55432H38.2907V21.819ZM29.2697 21.5265H38.0005V4.84681H29.2697V21.5265Z" fill="#1F191A"/>
<path d="M33.7232 23.8477V43.1993L27.8369 48.9927V43.1993L29.1089 23.2499C29.1089 23.2499 32.0555 22.8205 32.2671 22.8635C32.4788 22.9065 33.7232 23.8477 33.7232 23.8477Z" fill="#FF3E0C"/>
<path d="M27.6914 49.1384V43.1899L28.9683 23.1223L29.0851 23.105C29.782 23.0062 32.073 22.6757 32.2925 22.7202C32.512 22.7646 33.5095 23.5052 33.8075 23.7305L33.8655 23.7745V43.2605L27.8942 49.1384H27.6914ZM27.9821 43.2037V48.6449L33.5777 43.1375V23.9207C33.0031 23.4884 32.3593 23.0383 32.237 23.0067C32.0661 22.9865 30.3595 23.2167 29.2462 23.3778L27.9821 43.2037Z" fill="#1F191A"/>
<path d="M33.7233 23.8477L30.8105 26.7152V23.8477H33.7233Z" fill="#FF5CD7"/>
<path d="M30.666 27.0625V23.7029H34.0826L30.666 27.0625ZM30.9563 23.9939V26.3654L33.3676 23.9939H30.9563Z" fill="#1F191A"/>
<path d="M40.272 43.1992L34.3852 48.9927H27.8369L33.7232 43.1992H40.272Z" fill="#FF5CD7"/>
<path d="M34.4445 49.1384H27.6914V48.9309L33.6642 43.0515H40.4173V43.259L34.4445 49.1384ZM28.1928 48.8464H34.3276L39.9153 43.3455H33.7825L28.1928 48.8464Z" fill="#1F191A"/>
<path d="M30.8106 43.1992L24.9238 48.9927H18.375V14.0878C18.375 14.0878 18.2685 11.74 19.619 9.67922C19.619 9.67922 20.1828 8.82004 21.356 7.66689L23.7182 5.34477L25.3879 3.70842C25.3879 3.70842 26.8809 2.1689 27.3395 2.00784C27.7982 1.84677 28.7898 39.6113 28.7898 39.6113L30.8106 43.1992Z" fill="#FF3E0C"/>
<path d="M24.9834 49.1385H18.2303V14.0909C18.2239 13.951 18.1482 11.6551 19.4983 9.5988C19.5214 9.56322 20.0837 8.71343 21.2544 7.56225L23.6166 5.24013L25.2864 3.60378C25.4386 3.44568 26.8137 2.03709 27.2905 1.86961C27.3137 1.86153 27.3383 1.85906 27.3626 1.86241C27.3868 1.86576 27.4099 1.87483 27.43 1.88887C27.5322 1.96002 27.6481 2.04055 27.9128 8.01531C28.0517 11.1482 28.2109 15.4925 28.3867 20.9278C28.6764 29.8877 28.9161 38.9232 28.9333 39.5724L24.9834 49.1385ZM18.5205 48.8465H24.865L30.629 43.1736L28.6445 39.6509V39.6144C28.3852 29.733 27.6451 4.335 27.2606 2.21348C26.8608 2.46051 26.0171 3.27078 25.4926 3.81277L23.8229 5.4511L21.4612 7.77322C20.3145 8.90019 19.7497 9.75344 19.7424 9.76184C18.4331 11.7569 18.5215 14.0602 18.5225 14.083V48.8465H18.5205Z" fill="#1F191A"/>
<path d="M32.2657 0.148193C30.1426 0.148193 28.1065 0.996664 26.6053 2.50695C25.1041 4.01724 24.2607 6.06562 24.2607 8.20149V43.2012H30.8115V23.8476H33.7237V43.1992H40.2706V8.20149C40.2706 7.14392 40.0635 6.0967 39.6612 5.11963C39.2589 4.14256 38.6693 3.25477 37.926 2.50695C37.1827 1.75913 36.3002 1.16593 35.329 0.761214C34.3578 0.356498 33.3169 0.148193 32.2657 0.148193ZM30.8095 20.0146V8.20149C30.8095 7.81297 30.963 7.44037 31.236 7.16564C31.5091 6.89092 31.8795 6.73658 32.2657 6.73658C32.6518 6.73658 33.0222 6.89092 33.2953 7.16564C33.5683 7.44037 33.7218 7.81297 33.7218 8.20149V20.0146H30.8095Z" fill="#00EDFD"/>
<path d="M24.2623 43.1992L18.376 48.9927H24.9243L30.8106 43.1992H24.2623Z" fill="#FF5CD7"/>
<path d="M19.3489 41.7744L13.4469 47.5827C13.4469 47.5827 11.3568 49.7156 7.80613 49.5792C4.25549 49.4429 2.11479 47.1529 1.12179 45.3688C0.128783 43.5847 0.157758 41.6855 0.157758 41.1692V14.0726C0.157758 14.0726 -0.193869 11.0178 2.87059 8.03012L7.12056 3.83599C7.12056 3.83599 8.57617 2.30685 9.28139 2.00102C9.98661 1.69519 10.7783 15.7282 10.7783 15.7282L10.3363 31.4346L10.9747 34.3313L11.0066 36.5546L10.8937 38.7754L12.7024 38.9686L19.3489 41.7744Z" fill="#701EB3"/>
<path d="M8.12818 49.7313C8.0208 49.7313 7.91177 49.7292 7.80111 49.7249C3.72499 49.5678 1.68349 46.676 0.995464 45.4404C0.00933709 43.6686 0.0117926 41.8203 0.0127748 41.2131V14.0809C0.00295278 13.9865 -0.060399 13.2336 0.224929 12.1353C0.498963 11.0794 1.16293 9.49251 2.7698 7.92582L7.01732 3.73267C7.07428 3.67239 8.49847 2.18179 9.22088 1.86806C9.25146 1.85474 9.28483 1.84918 9.31805 1.85185C9.35127 1.85452 9.38333 1.86534 9.41142 1.88337C9.55875 1.97527 9.90252 2.1897 10.4584 9.01721C10.729 12.3571 10.9181 15.6871 10.9201 15.7207V15.7331L10.4801 31.4227L11.1185 34.3159L11.1509 36.5565V36.5615L11.0443 38.644L12.7376 38.8248L12.7573 38.8332L19.6086 41.7264L13.5489 47.6869C13.5288 47.7076 13.0014 48.2402 12.0265 48.761C10.8253 49.3996 9.48687 49.7328 8.12818 49.7313ZM9.27883 2.16203C8.59129 2.50788 7.23782 3.92239 7.22407 3.93672L2.97263 8.13629C2.11468 8.97275 0.991535 10.3551 0.509767 12.1955C0.221492 13.2968 0.301541 14.0503 0.302032 14.0577V14.0745V41.2136C0.299085 43.5925 1.01314 44.8756 1.24789 45.2971C1.91529 46.4917 3.88214 49.2817 7.81192 49.4329C11.253 49.5663 13.3235 47.5006 13.3441 47.4799L19.0929 41.8238L12.665 39.1089L10.7408 38.9033L10.8607 36.5491L10.8292 34.3485L10.1908 31.4484V31.4306L10.6328 15.7301C10.6239 15.5676 10.4403 12.364 10.179 9.12591C10.0224 7.18472 9.86913 5.61161 9.72278 4.45055C9.50326 2.73268 9.34709 2.2806 9.27883 2.16203Z" fill="#1F191A"/>
<path d="M15.5053 20.0923L10.7499 24.7563L10.334 7.48861C10.334 7.48861 14.6208 5.23567 14.9091 5.3325C15.1973 5.42934 18.8437 11.3833 18.94 11.5118C19.0363 11.6403 15.5053 20.0923 15.5053 20.0923Z" fill="#FF5CD7"/>
<path d="M10.6128 25.0946L10.1865 7.40108L10.2666 7.35909C10.2774 7.35365 11.3524 6.78893 12.449 6.24348C14.7179 5.11404 14.8603 5.16197 14.9536 5.19359C15.0366 5.22126 15.1501 5.2593 16.5217 7.39614C17.2583 8.54584 18.0996 9.89464 18.6015 10.7C18.8426 11.0873 19.0327 11.3917 19.0558 11.4253C19.1176 11.5083 19.1368 11.534 18.5779 12.9603C18.2965 13.6782 17.8978 14.6693 17.3919 15.906C16.531 18.0112 15.6471 20.1278 15.6382 20.149L15.6269 20.1762L10.6128 25.0946ZM10.4812 7.57648L10.8868 24.4173L15.3828 20.0097C16.7024 16.8506 18.6526 12.1002 18.7896 11.5503C18.7346 11.4638 18.6094 11.2637 18.3564 10.8586C17.5746 9.60363 15.2281 5.83439 14.8608 5.48114C14.5057 5.53351 12.3832 6.57846 10.4812 7.57648Z" fill="#1F191A"/>
<path d="M22.0539 20.0923L16.1671 25.8857L11.8057 25.8986L12.5453 22.9954L15.5051 20.0923H22.0539Z" fill="#701EB3"/>
<path d="M30.9558 43.053H24.2027L18.2275 48.9324V49.1374H24.9836L30.6504 43.5614L30.9558 43.2605V43.053ZM24.8662 48.8464H18.7319L24.3211 43.3455H30.4544L24.8662 48.8464Z" fill="#1F191A"/>
<path d="M32.2655 0C27.7715 0 24.1133 3.67833 24.1133 8.20152V43.3455H30.8703L30.9563 43.2605V23.9919H33.5782V43.3455H40.2361L40.4178 43.2605V8.20152C40.4178 3.67833 36.7615 0 32.2655 0ZM40.1231 43.053H33.869V23.7014H30.666V43.053H24.4079V8.20152C24.4079 3.84137 27.9335 0.29644 32.2655 0.29644C36.5975 0.29644 40.1231 3.84335 40.1231 8.20152V43.053Z" fill="#1F191A"/>
<path d="M32.2655 6.58838C31.8409 6.58943 31.4341 6.75984 31.1343 7.06225C30.8344 7.36466 30.666 7.77436 30.666 8.20151V20.1579H33.869V8.20151C33.869 7.77368 33.7 7.36337 33.3993 7.06085C33.0986 6.75833 32.6908 6.58838 32.2655 6.58838ZM33.5782 19.8664H30.9563V8.20151C30.9529 8.02616 30.9843 7.85189 31.0487 7.6889C31.113 7.52591 31.2091 7.37747 31.3311 7.25226C31.4532 7.12705 31.5989 7.02759 31.7596 6.95969C31.9203 6.89179 32.0929 6.85682 32.2672 6.85682C32.4416 6.85682 32.6142 6.89179 32.7749 6.95969C32.9356 7.02759 33.0813 7.12705 33.2034 7.25226C33.3254 7.37747 33.4215 7.52591 33.4858 7.6889C33.5502 7.85189 33.5816 8.02616 33.5782 8.20151V19.8664Z" fill="#1F191A"/>
<path d="M22.1974 19.946H15.4463L12.4147 22.9193L11.6182 26.0453L16.2266 26.032L22.1974 20.154V19.946ZM16.1078 25.741L11.9924 25.7528L12.676 23.073L15.5646 20.24H21.6975L16.1078 25.741Z" fill="#1F191A"/>
<path d="M15.3786 23.9652L11.3266 27.8412C11.3266 27.8412 10.4632 36.3006 10.8787 36.5906C11.2941 36.8806 16.8028 40.2274 16.8028 40.2274C16.8028 40.2274 18.3331 33.8866 18.3331 33.7581C18.3331 33.6297 17.341 25.2602 17.341 25.2602L15.3786 23.9652Z" fill="#FF5CD7"/>
<path d="M16.8971 40.4552L16.7276 40.3524C16.5007 40.2171 11.2111 36.9992 10.7961 36.7092C10.6734 36.6237 10.4676 36.4804 10.802 32.0946C10.9641 29.9661 11.1802 27.8456 11.1821 27.8249L11.1876 27.771L15.3619 23.778L17.4775 25.1747L17.4854 25.2424C17.6514 26.6411 18.4784 33.6257 18.4784 33.7566C18.4784 33.8876 17.4054 38.3515 16.9442 40.2605L16.8971 40.4552ZM10.9754 36.4799C11.4277 36.7863 15.7882 39.4394 16.7085 39.9992C17.3017 37.5377 18.1479 34.0002 18.1872 33.7527C18.1705 33.4977 17.5429 28.1964 17.205 25.3456L15.3948 24.151L11.466 27.9093C11.4321 28.2453 11.2475 30.0995 11.1016 31.9918C10.8119 35.7448 10.9258 36.3752 10.9754 36.4799Z" fill="#1F191A"/>
<path d="M15.5059 23.9272V24.9999V35.7404C15.5059 36.1289 15.3525 36.5015 15.0795 36.7762C14.8064 37.051 14.436 37.2053 14.0498 37.2053C13.6636 37.2053 13.2933 37.051 13.0202 36.7762C12.7471 36.5015 12.5937 36.1289 12.5937 35.7404V22.0098V8.27913C12.5937 7.89061 12.7471 7.518 13.0202 7.24328C13.2933 6.96856 13.6636 6.81422 14.0498 6.81422C14.436 6.81422 14.8064 6.96856 15.0795 7.24328C15.3525 7.518 15.5059 7.89061 15.5059 8.27913V20.0923H22.0547V8.27913C22.0547 6.14326 21.2114 4.09487 19.7102 2.58459C18.2089 1.0743 16.1729 0.22583 14.0498 0.22583C11.9268 0.22583 9.89072 1.0743 8.38951 2.58459C6.88829 4.09487 6.04492 6.14326 6.04492 8.27913V35.7404C6.04492 37.8763 6.88829 39.9246 8.38951 41.4349C9.89072 42.9452 11.9268 43.7937 14.0498 43.7937C16.1729 43.7937 18.2089 42.9452 19.7102 41.4349C21.2114 39.9246 22.0547 37.8763 22.0547 35.7404V23.9272H15.5059Z" fill="#69FD00"/>
<path d="M15.3605 35.7403C15.3638 35.9156 15.3324 36.0899 15.2681 36.2529C15.2037 36.4159 15.1077 36.5643 14.9856 36.6895C14.8635 36.8147 14.7179 36.9142 14.5571 36.9821C14.3964 37.05 14.2238 37.085 14.0495 37.085C13.8751 37.085 13.7026 37.05 13.5418 36.9821C13.3811 36.9142 13.2354 36.8147 13.1134 36.6895C12.9913 36.5643 12.8953 36.4159 12.8309 36.2529C12.7665 36.0899 12.7351 35.9156 12.7385 35.7403V8.27903C12.7351 8.10368 12.7665 7.92942 12.8309 7.76643C12.8953 7.60344 12.9913 7.455 13.1134 7.32979C13.2354 7.20458 13.3811 7.10512 13.5418 7.03722C13.7026 6.96932 13.8751 6.93434 14.0495 6.93434C14.2238 6.93434 14.3964 6.96932 14.5571 7.03722C14.7179 7.10512 14.8635 7.20458 14.9856 7.32979C15.1077 7.455 15.2037 7.60344 15.2681 7.76643C15.3324 7.92942 15.3638 8.10368 15.3605 8.27903V20.2384H22.1155L22.198 20.1579V8.27903C22.198 3.75782 18.5418 0.0775146 14.0458 0.0775146C9.54979 0.0775146 5.89355 3.75585 5.89355 8.27903V35.7403C5.89355 40.2615 9.54979 43.9418 14.0458 43.9418C18.5418 43.9418 22.198 40.2635 22.198 35.7403V23.7809H15.3605V35.7403ZM15.6512 24.0734H21.9093V35.7403C21.9093 40.1004 18.3837 43.6454 14.0517 43.6454C9.71971 43.6454 6.19411 40.0985 6.19411 35.7403V8.27903C6.19411 3.91889 9.71971 0.373955 14.0517 0.373955C18.3837 0.373955 21.9093 3.92087 21.9093 8.27903V19.9459H15.6512V8.27903C15.6512 7.85173 15.4825 7.44193 15.1821 7.13978C14.8818 6.83763 14.4745 6.66788 14.0497 6.66788C13.625 6.66788 13.2176 6.83763 12.9173 7.13978C12.617 7.44193 12.4483 7.85173 12.4483 8.27903V35.7403C12.4483 36.1676 12.617 36.5774 12.9173 36.8795C13.2176 37.1817 13.625 37.3514 14.0497 37.3514C14.4745 37.3514 14.8818 37.1817 15.1821 36.8795C15.4825 36.5774 15.6512 36.1676 15.6512 35.7403V24.0734Z" fill="#1F191A"/>
</g>
<defs>
<clipPath id="clip0_1559_672">
<rect width="68" height="49.7313" fill="white"/>
</clipPath>
</defs>
</svg>
