<svg width="206" height="30" viewBox="0 0 206 30" fill="none" xmlns="http://www.w3.org/2000/svg">
<g clip-path="url(#clip0_338_3781)">
<path d="M0 17.8113C0 10.224 5.46747 4.61438 12.7574 4.61438C14.4071 4.74911 16.0472 4.98218 17.6691 5.31236C19.2203 5.48108 20.7895 5.33602 22.2835 4.88581H22.4515L22.5937 4.96337C22.628 5.00876 22.6503 5.06213 22.6583 5.11847C22.6781 5.17274 22.6781 5.23224 22.6583 5.2865C22.4507 5.97832 22.3079 6.68798 22.2318 7.40628C22.195 8.21774 22.2296 9.03087 22.3352 9.83627C22.4659 10.5367 22.5522 11.2447 22.5937 11.956C22.6301 12.4614 22.5601 12.9688 22.388 13.4454C22.2159 13.922 21.9457 14.3571 21.5947 14.7227C21.2438 15.0882 20.8201 15.376 20.3509 15.5674C19.8818 15.7587 19.3776 15.8495 18.8712 15.8337C16.3507 15.8337 15.4589 13.6751 14.7221 11.5166C14.2439 10.224 13.5588 8.45324 11.7363 8.45324C9.55192 8.45324 8.38863 10.9479 8.38863 14.05C8.38863 18.8582 10.9737 22.2964 15.0452 22.2964C16.9002 22.2234 18.6764 21.5266 20.0862 20.3188C20.5628 19.8892 21.1661 19.6261 21.8053 19.5691C22.6842 19.5691 23.3046 20.1766 23.3046 21.4821C23.1966 23.1096 22.5353 24.6511 21.4304 25.8509C20.2402 27.1873 18.7748 28.2501 17.1349 28.9663C15.4949 29.6825 13.7194 30.0352 11.9302 30C4.88583 30.0129 0 24.972 0 17.8113Z" fill="white"/>
<path d="M34.6532 14.8901C36.2273 14.9044 37.794 15.1083 39.3193 15.4976V12.6153C39.3193 10.2111 39.1771 8.05257 37.1866 8.05257C35.894 8.05257 34.9892 9.28049 34.0198 10.5472C33.574 11.3912 32.909 12.0995 32.0947 12.5977C31.2804 13.0958 30.347 13.3653 29.3925 13.3779C27.4408 13.3779 26.3679 12.2016 26.3679 10.8833C26.3679 7.71651 33.4511 4.23956 39.6941 4.23956C45.4718 4.23956 48.548 7.16072 48.548 12.486V20.4481C48.548 22.5162 48.8841 23.6536 50.8358 24.1706C51.159 24.2611 51.2107 24.4033 51.2107 24.7264C51.2107 26.704 49.1555 29.1082 45.433 29.1082C44.2259 29.1741 43.0284 28.8605 42.0085 28.2115C40.9886 27.5624 40.1973 26.6105 39.7458 25.489C38.9308 26.7387 37.8089 27.7585 36.4873 28.4509C35.1658 29.1434 33.6887 29.4854 32.1973 29.4442C28.0483 29.4442 24.7393 26.9496 24.7393 22.5679C24.7393 17.6174 28.9401 14.8901 34.6661 14.8901M36.3981 24.5584C38.0655 24.5584 39.5519 23.2658 39.5519 20.3188V18.8841C38.8163 18.3023 37.9047 17.9879 36.9668 17.9923C36.5249 17.9612 36.0816 18.0276 35.6682 18.1867C35.2549 18.3459 34.8815 18.5939 34.5745 18.9132C34.2675 19.2325 34.0343 19.6154 33.8916 20.0347C33.7489 20.4541 33.7 20.8996 33.7484 21.34C33.7484 23.408 34.7824 24.5842 36.3335 24.5842" fill="white"/>
<path d="M58.3326 27.9836C58.2586 28.4303 58.0242 28.8347 57.6734 29.121C57.4965 29.2728 57.291 29.3876 57.069 29.4587C56.847 29.5297 56.613 29.5555 56.3809 29.5347C53.8604 29.5347 51.8957 25.4373 51.8957 22.4644C51.8957 20.5515 52.7359 19.6467 53.8216 19.6467C54.9074 19.6467 55.6312 20.629 56.4067 21.7665C57.1381 22.884 58.1139 23.8207 59.2603 24.5059C60.4068 25.1911 61.6939 25.6068 63.0246 25.7216C64.7824 25.7216 65.9974 24.9203 65.9974 23.6536C65.9974 21.9474 64.2783 21.4821 61.1633 20.5256C56.6265 19.078 52.2576 17.2813 52.2576 12.486C52.2576 7.48382 56.6782 4.14905 62.2232 4.14905C64.4048 4.11687 66.5613 4.61827 68.505 5.60963C68.5749 5.18946 68.7909 4.80744 69.1148 4.53081C69.4387 4.25419 69.8498 4.10069 70.2757 4.09735C72.4084 4.09735 74.3731 7.81988 74.3731 10.5601C74.3731 12.486 73.2486 13.1452 72.318 13.1452C71.3873 13.1452 70.5989 12.3438 69.7329 11.2322C69.0896 10.2861 68.2375 9.50038 67.2425 8.93564C66.2475 8.3709 65.1361 8.04224 63.994 7.97499C62.2361 7.97499 61.2538 8.91855 61.2538 10.0431C61.2538 11.5036 62.6885 12.0207 65.7648 12.8737C69.7717 13.9983 75.0323 15.8854 75.0323 21.3528C75.0323 26.2516 70.6506 29.5476 64.8729 29.5476C62.627 29.5829 60.4072 29.0635 58.4102 28.0353" fill="white"/>
<path d="M77.8113 22.374V9.83628H77.4882C76.4541 9.83628 74.9031 9.46144 74.9031 7.85868C74.9031 6.25592 77.4235 4.23955 79.5692 2.6885C81.7148 1.13744 83.6794 0 85.0754 0C86.2387 0 86.885 0.749677 86.885 2.21025V5.55795H92.0552C93.6321 5.55795 94.1362 6.12667 94.1362 7.62602C94.1362 9.12538 93.7096 9.7458 92.0552 9.7458H86.885V19.8794C86.885 22.3223 87.5442 23.0461 88.8367 23.0461C90.8402 23.0461 91.9259 21.3916 93.128 21.3916C93.9681 21.3916 94.5368 21.9604 94.5368 23.0849C94.5368 25.3468 90.517 29.315 84.972 29.315C80.3705 29.315 77.8113 26.7299 77.8113 22.3869" fill="white"/>
<path d="M105.523 14.8901C107.098 14.9044 108.664 15.1083 110.19 15.4976V12.6153C110.19 10.2111 110.034 8.05257 108.044 8.05257C106.751 8.05257 105.86 9.28049 104.877 10.5472C104.434 11.3902 103.771 12.098 102.959 12.5962C102.147 13.0943 101.215 13.3644 100.263 13.3779C98.3111 13.3779 97.2383 12.2016 97.2383 10.8833C97.2383 7.71651 104.321 4.23956 110.564 4.23956C116.329 4.23956 119.418 7.16072 119.418 12.486V20.4481C119.418 22.5162 119.741 23.6536 121.693 24.1706C122.016 24.2611 122.068 24.4033 122.068 24.7264C122.068 26.704 120.013 29.1082 116.29 29.1082C115.084 29.1702 113.888 28.855 112.869 28.2065C111.85 27.5579 111.058 26.6082 110.603 25.489C109.791 26.7385 108.672 27.7585 107.352 28.4511C106.033 29.1437 104.557 29.4856 103.068 29.4442C98.9056 29.4442 95.6096 26.9496 95.6096 22.5679C95.6096 17.6174 99.7975 14.8901 105.523 14.8901ZM107.281 24.5584C108.962 24.5584 110.448 23.2658 110.448 20.3188V18.8841C109.712 18.3032 108.801 17.9889 107.863 17.9923C107.423 17.9655 106.982 18.0349 106.571 18.1957C106.16 18.3565 105.79 18.6048 105.485 18.9234C105.18 19.242 104.948 19.6232 104.805 20.0405C104.662 20.4578 104.612 20.9013 104.657 21.34C104.657 23.408 105.679 24.5842 107.243 24.5842" fill="white"/>
<path d="M139.595 26.4714C139.595 25.3468 140.383 24.9203 141.224 24.5842C141.831 24.1706 141.87 22.9944 141.87 21.5726V16.8031C141.87 12.0078 140.888 10.3404 138.703 10.3404C136.519 10.3404 135.071 11.9431 135.019 16.8031V21.4692C135.019 23.2141 135.019 24.0543 135.627 24.4808C136.519 24.8686 137.307 25.2434 137.307 26.368C137.307 28.449 134.515 29.0564 130.457 29.0564C126.398 29.0564 123.425 28.3973 123.425 26.3292C123.425 25.14 124.317 24.6747 125.183 24.4033C125.855 24.0801 125.907 22.9427 125.907 21.4821V13.52C125.907 12.0595 125.674 10.6377 125.067 10.4567C123.774 10.0819 123.206 9.47438 123.206 8.56959C123.214 8.19334 123.327 7.82687 123.532 7.51164C123.738 7.19641 124.028 6.94501 124.369 6.78588C126.859 5.40769 129.631 4.61636 132.473 4.47222C134.903 4.47222 135.058 6.0362 135.058 8.99613V9.70703C135.782 8.08013 136.963 6.69794 138.456 5.72763C139.949 4.75732 141.692 4.24046 143.473 4.23956C147.971 4.23956 150.969 7.2512 150.969 13.0547V21.5726C150.969 23.3692 150.969 24.1577 151.616 24.4938C152.585 24.8298 153.425 25.2434 153.425 26.4197C153.425 28.5394 150.452 29.1469 146.394 29.1469C142.335 29.1469 139.595 28.436 139.595 26.4584" fill="white"/>
<path d="M153.813 17.3847C153.753 15.6609 154.045 13.9429 154.67 12.3355C155.296 10.7281 156.242 9.26484 157.451 8.03495C158.661 6.80506 160.108 5.83428 161.704 5.18176C163.301 4.52924 165.014 4.20865 166.738 4.23952C173.486 4.23952 177.26 8.80221 177.26 12.7186C177.307 13.2464 177.236 13.7781 177.053 14.2753C176.87 14.7725 176.579 15.2228 176.2 15.5937C175.822 15.9647 175.366 16.2471 174.865 16.4204C174.364 16.5938 173.831 16.6538 173.305 16.5963H162.072C162.296 18.1513 163.095 19.5659 164.31 20.5613C165.526 21.5566 167.07 22.0604 168.639 21.9733C170.635 21.9868 172.576 21.3214 174.145 20.0861C174.624 19.6887 175.207 19.4374 175.825 19.3623C176.756 19.3623 177.363 19.9827 177.363 21.2882C177.262 22.7176 176.705 24.0767 175.773 25.1658C174.557 26.6145 173.026 27.7659 171.296 28.5321C169.567 29.2982 167.685 29.6588 165.795 29.5864C158.725 29.5217 153.813 24.4808 153.813 17.3847ZM166.532 13.5071C168.91 13.4166 169.931 12.5635 169.931 11.1029C169.939 10.6614 169.856 10.2229 169.686 9.81533C169.515 9.40773 169.263 9.03984 168.943 8.73493C168.624 8.43001 168.244 8.1947 167.829 8.04387C167.414 7.89304 166.972 7.82997 166.532 7.85865C163.83 7.85865 162.021 10.2111 161.788 13.5976L166.532 13.5071Z" fill="white"/>
<path d="M188.712 14.8901C190.282 14.9043 191.844 15.1082 193.365 15.4976V12.6153C193.365 10.2111 193.223 8.05257 191.232 8.05257C189.94 8.05257 189.048 9.28049 188.066 10.5472C187.629 11.377 186.981 12.0762 186.186 12.5735C185.391 13.0708 184.479 13.3484 183.542 13.3779C181.59 13.3779 180.517 12.2016 180.517 10.8833C180.517 7.71651 187.587 4.23956 193.843 4.23956C199.621 4.23956 202.684 7.16072 202.684 12.486V20.4481C202.684 22.5162 203.02 23.6536 204.972 24.1706C205.295 24.2611 205.347 24.4033 205.347 24.7264C205.347 26.704 203.292 29.1082 199.569 29.1082C198.362 29.1721 197.166 28.8578 196.146 28.209C195.127 27.5602 194.335 26.6093 193.882 25.489C193.069 26.7377 191.949 27.7569 190.63 28.4494C189.311 29.1419 187.836 29.4844 186.346 29.4442C182.184 29.4442 178.888 26.9496 178.888 22.5679C178.888 17.6174 183.076 14.8901 188.815 14.8901M190.534 24.5842C192.215 24.5842 193.701 23.2917 193.701 20.3447V18.8841C192.963 18.3059 192.053 17.9919 191.116 17.9923C190.675 17.9635 190.232 18.0315 189.82 18.1914C189.408 18.3513 189.035 18.5994 188.729 18.9182C188.422 19.237 188.189 19.6189 188.045 20.0372C187.902 20.4555 187.851 20.9001 187.897 21.34C187.897 23.408 188.919 24.5842 190.547 24.5842" fill="white"/>
</g>
<defs>
<clipPath id="clip0_338_3781">
<rect width="205.282" height="30" fill="white"/>
</clipPath>
</defs>
</svg>
