<svg width="244" height="283" viewBox="0 0 244 283" fill="none" xmlns="http://www.w3.org/2000/svg">
<path d="M9.712 108L7.184 98.368H7.152L4.64 108H3.344L0.336 96.576H1.52L3.984 106.448H4.016L6.592 96.576H7.76L10.32 106.448H10.352L12.816 96.576H14.016L11.008 108H9.712ZM20.4753 105.52L21.5473 105.68C21.1313 106.912 20.0753 108.208 17.8673 108.208C15.6593 108.208 14.0913 106.496 14.0913 103.808C14.0913 101.136 15.6432 99.424 17.8673 99.424C20.0753 99.424 21.7233 101.136 21.6273 104.064H15.1793C15.2273 106 16.2993 107.312 17.8673 107.312C19.4353 107.312 20.2033 106.368 20.4753 105.52ZM17.8673 100.32C16.2993 100.32 15.3073 101.616 15.1953 103.2H20.5233C20.4113 101.616 19.4353 100.32 17.8673 100.32ZM30.4581 108.192C29.2261 108.192 28.0581 107.6 27.6101 106.56H27.5781V110.944H26.5381V99.616H27.5301V101.104H27.5621C28.0261 100.048 29.1941 99.424 30.4581 99.424C32.6661 99.424 34.2181 101.12 34.2181 103.808C34.2181 106.496 32.6661 108.192 30.4581 108.192ZM30.2981 100.32C28.6981 100.32 27.5141 101.632 27.5141 103.808C27.5141 106 28.6981 107.312 30.2981 107.312C31.9941 107.312 33.1301 106 33.1301 103.808C33.1301 101.632 31.9941 100.32 30.2981 100.32ZM36.7489 99.616V101.216H36.7809C37.2289 100.064 38.2849 99.424 39.5649 99.424C39.8049 99.424 40.0929 99.456 40.2529 99.488V100.512C40.1249 100.496 39.7889 100.464 39.5009 100.464C37.9649 100.464 36.7969 101.504 36.7969 103.744V108.016H35.7569V99.616H36.7489ZM44.7449 99.424C47.0329 99.424 48.6169 101.12 48.6169 103.808C48.6169 106.496 47.0329 108.192 44.7449 108.192C42.4569 108.192 40.8729 106.496 40.8729 103.808C40.8729 101.12 42.4569 99.424 44.7449 99.424ZM44.7449 107.312C46.3929 107.312 47.5449 106 47.5449 103.808C47.5449 101.632 46.3929 100.32 44.7449 100.32C43.0969 100.32 41.9449 101.632 41.9449 103.808C41.9449 106 43.0969 107.312 44.7449 107.312ZM53.4019 108H52.2659L48.9859 99.616H50.1539L52.8419 106.8H52.8739L55.5939 99.616H56.7299L53.4019 108ZM57.7245 96.416H58.8605V97.712H57.7245V96.416ZM57.7725 99.616H58.8125V108H57.7725V99.616ZM64.1013 99.424C65.3493 99.424 66.5013 100.048 66.9493 101.056H66.9813V96.416H68.0373V108H67.0293V106.528H66.9973C66.5653 107.536 65.3813 108.192 64.1013 108.192C61.9093 108.192 60.3573 106.496 60.3573 103.808C60.3573 101.12 61.9093 99.424 64.1013 99.424ZM64.2773 107.312C65.8773 107.312 67.0613 106 67.0613 103.808C67.0613 101.632 65.8773 100.32 64.2773 100.32C62.5653 100.32 61.4293 101.632 61.4293 103.808C61.4293 106 62.5653 107.312 64.2773 107.312ZM75.8815 105.52L76.9535 105.68C76.5375 106.912 75.4815 108.208 73.2735 108.208C71.0655 108.208 69.4975 106.496 69.4975 103.808C69.4975 101.136 71.0495 99.424 73.2735 99.424C75.4815 99.424 77.1295 101.136 77.0335 104.064H70.5855C70.6335 106 71.7055 107.312 73.2735 107.312C74.8415 107.312 75.6095 106.368 75.8815 105.52ZM73.2735 100.32C71.7055 100.32 70.7135 101.616 70.6015 103.2H75.9295C75.8175 101.616 74.8415 100.32 73.2735 100.32ZM87.9284 105.52L89.0004 105.68C88.5844 106.912 87.5284 108.208 85.3204 108.208C83.1124 108.208 81.5444 106.496 81.5444 103.808C81.5444 101.136 83.0964 99.424 85.3204 99.424C87.5284 99.424 89.1764 101.136 89.0804 104.064H82.6324C82.6804 106 83.7524 107.312 85.3204 107.312C86.8884 107.312 87.6564 106.368 87.9284 105.52ZM85.3204 100.32C83.7524 100.32 82.7604 101.616 82.6484 103.2H87.9764C87.8644 101.616 86.8884 100.32 85.3204 100.32ZM93.8706 108H92.7346L89.4546 99.616H90.6226L93.3106 106.8H93.3426L96.0626 99.616H97.1986L93.8706 108ZM103.944 105.52L105.016 105.68C104.6 106.912 103.544 108.208 101.336 108.208C99.128 108.208 97.56 106.496 97.56 103.808C97.56 101.136 99.112 99.424 101.336 99.424C103.544 99.424 105.192 101.136 105.096 104.064H98.648C98.696 106 99.768 107.312 101.336 107.312C102.904 107.312 103.672 106.368 103.944 105.52ZM101.336 100.32C99.768 100.32 98.776 101.616 98.664 103.2H103.992C103.88 101.616 102.904 100.32 101.336 100.32ZM107.64 99.616V101.216H107.672C108.12 100.064 109.176 99.424 110.456 99.424C110.696 99.424 110.984 99.456 111.144 99.488V100.512C111.016 100.496 110.68 100.464 110.391 100.464C108.856 100.464 107.688 101.504 107.688 103.744V108.016H106.648V99.616H107.64ZM119.385 99.616L116.057 108C114.937 110.848 114.201 111.136 113.193 111.136C112.745 111.136 112.505 111.088 112.377 111.072V110.144C112.473 110.16 112.713 110.208 113.049 110.208C113.753 110.208 114.233 110 114.857 108.416L115.033 107.936L111.641 99.616H112.809L115.545 106.688H115.577L118.249 99.616H119.385ZM123.355 107.104C123.659 107.104 124.075 107.104 124.267 107.088V108C124.011 108.016 123.659 108.032 123.259 108.032C121.739 108.032 121.227 107.632 121.227 106.176V100.464H119.819V99.616H121.227V97.168H122.283V99.616H124.315V100.464H122.283V105.952C122.283 106.848 122.507 107.104 123.355 107.104ZM126.734 100.912H126.766C127.166 100.128 128.19 99.424 129.454 99.424C131.15 99.424 132.414 100.432 132.414 102.384V108H131.358V102.816C131.358 101.104 130.734 100.32 129.246 100.32C128.03 100.32 126.734 101.248 126.734 103.36V108H125.694V96.416H126.734V100.912ZM134.225 96.416H135.361V97.712H134.225V96.416ZM134.273 99.616H135.312V108H134.273V99.616ZM138.233 100.896H138.265C138.681 100.112 139.689 99.424 140.985 99.424C142.697 99.424 143.961 100.432 143.961 102.384V108H142.905V102.816C142.905 101.104 142.281 100.32 140.793 100.32C139.529 100.32 138.281 101.152 138.281 103.296V108H137.241V99.616H138.233V100.896ZM152.955 99.616V107.456C152.955 110.064 151.387 111.136 149.227 111.136C147.483 111.136 146.107 110.384 145.595 108.784L146.587 108.512C146.971 109.776 147.915 110.272 149.227 110.272C150.859 110.272 151.899 109.424 151.899 107.392V105.984H151.867C151.435 106.96 150.315 107.536 149.099 107.536C146.955 107.536 145.435 105.936 145.435 103.488C145.435 101.008 146.955 99.424 149.099 99.424C150.347 99.424 151.467 100.032 151.915 101.024H151.947V99.616H152.955ZM149.275 106.672C150.827 106.672 151.979 105.392 151.979 103.488C151.979 101.584 150.827 100.32 149.275 100.32C147.611 100.32 146.507 101.584 146.507 103.488C146.507 105.392 147.611 106.672 149.275 106.672ZM164.947 99.616L161.619 108C160.499 110.848 159.763 111.136 158.755 111.136C158.307 111.136 158.067 111.088 157.939 111.072V110.144C158.035 110.16 158.275 110.208 158.611 110.208C159.315 110.208 159.795 110 160.419 108.416L160.595 107.936L157.203 99.616H158.371L161.107 106.688H161.139L163.811 99.616H164.947ZM169.261 99.424C171.549 99.424 173.133 101.12 173.133 103.808C173.133 106.496 171.549 108.192 169.261 108.192C166.973 108.192 165.389 106.496 165.389 103.808C165.389 101.12 166.973 99.424 169.261 99.424ZM169.261 107.312C170.909 107.312 172.061 106 172.061 103.808C172.061 101.632 170.909 100.32 169.261 100.32C167.613 100.32 166.461 101.632 166.461 103.808C166.461 106 167.613 107.312 169.261 107.312ZM180.391 106.736H180.359C179.959 107.504 178.935 108.192 177.655 108.192C175.927 108.192 174.679 107.184 174.679 105.248V99.616H175.719V104.816C175.719 106.528 176.343 107.312 177.847 107.312C179.095 107.312 180.343 106.48 180.343 104.336V99.616H181.399V108H180.391V106.736ZM187.608 100.896H187.64C188.056 100.112 189.064 99.424 190.36 99.424C192.072 99.424 193.336 100.432 193.336 102.384V108H192.28V102.816C192.28 101.104 191.656 100.32 190.168 100.32C188.904 100.32 187.656 101.152 187.656 103.296V108H186.616V99.616H187.608V100.896ZM201.178 105.52L202.25 105.68C201.834 106.912 200.778 108.208 198.57 108.208C196.362 108.208 194.794 106.496 194.794 103.808C194.794 101.136 196.346 99.424 198.57 99.424C200.778 99.424 202.426 101.136 202.33 104.064H195.882C195.93 106 197.002 107.312 198.57 107.312C200.138 107.312 200.906 106.368 201.178 105.52ZM198.57 100.32C197.002 100.32 196.01 101.616 195.898 103.2H201.226C201.114 101.616 200.138 100.32 198.57 100.32ZM209.866 105.52L210.938 105.68C210.522 106.912 209.466 108.208 207.258 108.208C205.05 108.208 203.482 106.496 203.482 103.808C203.482 101.136 205.034 99.424 207.258 99.424C209.466 99.424 211.114 101.136 211.018 104.064H204.57C204.618 106 205.69 107.312 207.258 107.312C208.826 107.312 209.594 106.368 209.866 105.52ZM207.258 100.32C205.69 100.32 204.698 101.616 204.586 103.2H209.914C209.802 101.616 208.826 100.32 207.258 100.32ZM215.929 99.424C217.177 99.424 218.329 100.048 218.777 101.056H218.809V96.416H219.865V108H218.857V106.528H218.825C218.393 107.536 217.209 108.192 215.929 108.192C213.737 108.192 212.185 106.496 212.185 103.808C212.185 101.12 213.737 99.424 215.929 99.424ZM216.105 107.312C217.705 107.312 218.889 106 218.889 103.808C218.889 101.632 217.705 100.32 216.105 100.32C214.393 100.32 213.257 101.632 213.257 103.808C213.257 106 214.393 107.312 216.105 107.312ZM227.949 107.104C228.253 107.104 228.669 107.104 228.861 107.088V108C228.605 108.016 228.253 108.032 227.853 108.032C226.333 108.032 225.821 107.632 225.821 106.176V100.464H224.413V99.616H225.821V97.168H226.877V99.616H228.909V100.464H226.877V105.952C226.877 106.848 227.101 107.104 227.949 107.104ZM233.417 99.424C235.705 99.424 237.289 101.12 237.289 103.808C237.289 106.496 235.705 108.192 233.417 108.192C231.129 108.192 229.545 106.496 229.545 103.808C229.545 101.12 231.129 99.424 233.417 99.424ZM233.417 107.312C235.065 107.312 236.217 106 236.217 103.808C236.217 101.632 235.065 100.32 233.417 100.32C231.769 100.32 230.617 101.632 230.617 103.808C230.617 106 231.769 107.312 233.417 107.312ZM2 119.912H2.032C2.432 119.128 3.456 118.424 4.72 118.424C6.416 118.424 7.68 119.432 7.68 121.384V127H6.624V121.816C6.624 120.104 6 119.32 4.512 119.32C3.296 119.32 2 120.248 2 122.36V127H0.96V115.416H2V119.912ZM15.5221 124.52L16.5941 124.68C16.1781 125.912 15.1221 127.208 12.9141 127.208C10.7061 127.208 9.13813 125.496 9.13813 122.808C9.13813 120.136 10.6901 118.424 12.9141 118.424C15.1221 118.424 16.7701 120.136 16.6741 123.064H10.2261C10.2741 125 11.3461 126.312 12.9141 126.312C14.4821 126.312 15.2501 125.368 15.5221 124.52ZM12.9141 119.32C11.3461 119.32 10.3541 120.616 10.2421 122.2H15.5701C15.4581 120.616 14.4821 119.32 12.9141 119.32ZM18.2736 115.416H19.3136V127H18.2736V115.416ZM25.2238 127.192C23.9918 127.192 22.8238 126.6 22.3758 125.56H22.3438V129.944H21.3038V118.616H22.2958V120.104H22.3278C22.7918 119.048 23.9598 118.424 25.2238 118.424C27.4318 118.424 28.9838 120.12 28.9838 122.808C28.9838 125.496 27.4318 127.192 25.2238 127.192ZM25.0638 119.32C23.4638 119.32 22.2798 120.632 22.2798 122.808C22.2798 125 23.4638 126.312 25.0638 126.312C26.7598 126.312 27.8958 125 27.8958 122.808C27.8958 120.632 26.7598 119.32 25.0638 119.32ZM42.6019 118.424H42.5859C44.1539 118.424 45.3379 119.432 45.3379 121.384V127H44.2819V121.816C44.2819 120.104 43.7059 119.32 42.3779 119.32C41.2899 119.32 40.1379 120.024 40.1379 122.184V127H39.0819V121.816C39.0819 120.104 38.5059 119.32 37.1619 119.32C36.0419 119.32 34.9219 120.152 34.9219 122.296V127H33.8659V118.616H34.8739V119.896H34.9059C35.3059 119.096 36.2339 118.424 37.3859 118.424C38.5059 118.424 39.4179 118.952 39.8659 119.96C40.3459 119.144 41.2419 118.424 42.6019 118.424ZM53.706 127H52.65C52.57 126.872 52.49 126.44 52.458 125.736C51.738 126.904 50.33 127.192 49.322 127.192C47.882 127.192 46.714 126.232 46.714 124.76C46.714 122.856 48.362 122.36 50.234 122.12C52.058 121.864 52.426 121.688 52.426 121.064C52.426 120.04 51.818 119.32 50.346 119.32C49.386 119.32 48.394 119.672 48.026 121.032L47.05 120.792C47.466 119.112 48.826 118.424 50.394 118.424C52.57 118.424 53.482 119.512 53.482 121.032V124.936C53.482 125.976 53.514 126.504 53.706 127ZM52.426 123.624V122.344C52.154 122.664 51.082 122.792 50.138 122.936C49.21 123.08 47.802 123.48 47.802 124.744C47.802 125.72 48.49 126.312 49.514 126.312C50.65 126.312 52.426 125.784 52.426 123.624ZM56.375 123.544V127H55.319V115.416H56.375V122.344L60.455 118.616H61.799L58.231 121.848L62.247 127H60.983L57.511 122.536L56.375 123.544ZM68.4128 124.52L69.4848 124.68C69.0688 125.912 68.0128 127.208 65.8048 127.208C63.5968 127.208 62.0288 125.496 62.0288 122.808C62.0288 120.136 63.5807 118.424 65.8048 118.424C68.0128 118.424 69.6608 120.136 69.5648 123.064H63.1168C63.1648 125 64.2368 126.312 65.8048 126.312C67.3728 126.312 68.1408 125.368 68.4128 124.52ZM65.8048 119.32C64.2368 119.32 63.2448 120.616 63.1328 122.2H68.4608C68.3488 120.616 67.3728 119.32 65.8048 119.32ZM81.2596 118.616L77.9316 127C76.8116 129.848 76.0756 130.136 75.0676 130.136C74.6196 130.136 74.3796 130.088 74.2516 130.072V129.144C74.3476 129.16 74.5876 129.208 74.9236 129.208C75.6276 129.208 76.1076 129 76.7316 127.416L76.9076 126.936L73.5156 118.616H74.6836L77.4196 125.688H77.4516L80.1236 118.616H81.2596ZM85.573 118.424C87.861 118.424 89.445 120.12 89.445 122.808C89.445 125.496 87.861 127.192 85.573 127.192C83.285 127.192 81.701 125.496 81.701 122.808C81.701 120.12 83.285 118.424 85.573 118.424ZM85.573 126.312C87.221 126.312 88.373 125 88.373 122.808C88.373 120.632 87.221 119.32 85.573 119.32C83.925 119.32 82.773 120.632 82.773 122.808C82.773 125 83.925 126.312 85.573 126.312ZM96.7033 125.736H96.6713C96.2713 126.504 95.2473 127.192 93.9673 127.192C92.2393 127.192 90.9913 126.184 90.9913 124.248V118.616H92.0312V123.816C92.0312 125.528 92.6553 126.312 94.1593 126.312C95.4073 126.312 96.6553 125.48 96.6553 123.336V118.616H97.7113V127H96.7033V125.736ZM100.561 118.616V120.216H100.593C101.041 119.064 102.097 118.424 103.377 118.424C103.617 118.424 103.905 118.456 104.065 118.488V119.512C103.937 119.496 103.601 119.464 103.313 119.464C101.777 119.464 100.609 120.504 100.609 122.744V127.016H99.5694V118.616H100.561ZM112.568 127.192C111.336 127.192 110.168 126.6 109.72 125.56H109.688V129.944H108.648V118.616H109.64V120.104H109.672C110.136 119.048 111.304 118.424 112.568 118.424C114.776 118.424 116.328 120.12 116.328 122.808C116.328 125.496 114.776 127.192 112.568 127.192ZM112.408 119.32C110.808 119.32 109.624 120.632 109.624 122.808C109.624 125 110.808 126.312 112.408 126.312C114.104 126.312 115.24 125 115.24 122.808C115.24 120.632 114.104 119.32 112.408 119.32ZM118.858 118.616V120.216H118.89C119.338 119.064 120.394 118.424 121.674 118.424C121.914 118.424 122.202 118.456 122.362 118.488V119.512C122.234 119.496 121.898 119.464 121.61 119.464C120.074 119.464 118.906 120.504 118.906 122.744V127.016H117.866V118.616H118.858ZM126.854 118.424C129.142 118.424 130.726 120.12 130.726 122.808C130.726 125.496 129.142 127.192 126.854 127.192C124.566 127.192 122.982 125.496 122.982 122.808C122.982 120.12 124.566 118.424 126.854 118.424ZM126.854 126.312C128.502 126.312 129.654 125 129.654 122.808C129.654 120.632 128.502 119.32 126.854 119.32C125.206 119.32 124.054 120.632 124.054 122.808C124.054 125 125.206 126.312 126.854 126.312ZM135.633 118.424C136.881 118.424 138.033 119.048 138.481 120.056H138.513V115.416H139.569V127H138.561V125.528H138.529C138.097 126.536 136.913 127.192 135.633 127.192C133.441 127.192 131.889 125.496 131.889 122.808C131.889 120.12 133.441 118.424 135.633 118.424ZM135.809 126.312C137.409 126.312 138.593 125 138.593 122.808C138.593 120.632 137.409 119.32 135.809 119.32C134.097 119.32 132.961 120.632 132.961 122.808C132.961 125 134.097 126.312 135.809 126.312ZM147.141 125.736H147.109C146.709 126.504 145.685 127.192 144.405 127.192C142.677 127.192 141.429 126.184 141.429 124.248V118.616H142.469V123.816C142.469 125.528 143.093 126.312 144.597 126.312C145.845 126.312 147.093 125.48 147.093 123.336V118.616H148.149V127H147.141V125.736ZM153.431 126.312C155.063 126.312 155.719 125.08 155.991 124.28L157.095 124.456C156.711 125.624 155.687 127.192 153.431 127.192C151.191 127.192 149.623 125.496 149.623 122.808C149.623 120.12 151.207 118.424 153.447 118.424C155.703 118.424 156.615 120.04 156.887 120.648L155.879 120.984C155.655 120.536 155.079 119.32 153.447 119.32C151.831 119.32 150.695 120.632 150.695 122.808C150.695 125 151.815 126.312 153.431 126.312ZM161.277 126.104C161.581 126.104 161.997 126.104 162.189 126.088V127C161.933 127.016 161.581 127.032 161.181 127.032C159.661 127.032 159.149 126.632 159.149 125.176V119.464H157.741V118.616H159.149V116.168H160.205V118.616H162.237V119.464H160.205V124.952C160.205 125.848 160.429 126.104 161.277 126.104ZM163.568 115.416H164.704V116.712H163.568V115.416ZM163.616 118.616H164.656V127H163.616V118.616ZM170.073 118.424C172.361 118.424 173.945 120.12 173.945 122.808C173.945 125.496 172.361 127.192 170.073 127.192C167.785 127.192 166.201 125.496 166.201 122.808C166.201 120.12 167.785 118.424 170.073 118.424ZM170.073 126.312C171.721 126.312 172.873 125 172.873 122.808C172.873 120.632 171.721 119.32 170.073 119.32C168.425 119.32 167.273 120.632 167.273 122.808C167.273 125 168.425 126.312 170.073 126.312ZM176.483 119.896H176.515C176.931 119.112 177.939 118.424 179.235 118.424C180.947 118.424 182.211 119.432 182.211 121.384V127H181.155V121.816C181.155 120.104 180.531 119.32 179.043 119.32C177.779 119.32 176.531 120.152 176.531 122.296V127H175.491V118.616H176.483V119.896ZM190.293 126.104C190.597 126.104 191.013 126.104 191.205 126.088V127C190.949 127.016 190.597 127.032 190.197 127.032C188.677 127.032 188.165 126.632 188.165 125.176V119.464H186.757V118.616H188.165V116.168H189.221V118.616H191.253V119.464H189.221V124.952C189.221 125.848 189.445 126.104 190.293 126.104ZM193.672 119.912H193.704C194.104 119.128 195.128 118.424 196.392 118.424C198.088 118.424 199.352 119.432 199.352 121.384V127H198.296V121.816C198.296 120.104 197.672 119.32 196.184 119.32C194.968 119.32 193.672 120.248 193.672 122.36V127H192.632V115.416H193.672V119.912ZM207.194 124.52L208.266 124.68C207.85 125.912 206.794 127.208 204.586 127.208C202.378 127.208 200.81 125.496 200.81 122.808C200.81 120.136 202.362 118.424 204.586 118.424C206.794 118.424 208.442 120.136 208.346 123.064H201.898C201.946 125 203.018 126.312 204.586 126.312C206.154 126.312 206.922 125.368 207.194 124.52ZM204.586 119.32C203.018 119.32 202.026 120.616 201.914 122.2H207.242C207.13 120.616 206.154 119.32 204.586 119.32ZM217.177 118.424C219.385 118.424 220.937 120.12 220.937 122.808C220.937 125.496 219.385 127.192 217.177 127.192C215.913 127.192 214.713 126.536 214.281 125.528H214.249V127H213.257V115.416H214.297V120.056H214.329C214.777 119.048 215.945 118.424 217.177 118.424ZM217.017 126.312C218.713 126.312 219.849 125 219.849 122.808C219.849 120.632 218.713 119.32 217.017 119.32C215.417 119.32 214.233 120.632 214.233 122.808C214.233 125 215.417 126.312 217.017 126.312ZM228.46 124.52L229.532 124.68C229.116 125.912 228.06 127.208 225.852 127.208C223.644 127.208 222.076 125.496 222.076 122.808C222.076 120.136 223.628 118.424 225.852 118.424C228.06 118.424 229.708 120.136 229.612 123.064H223.164C223.212 125 224.284 126.312 225.852 126.312C227.42 126.312 228.188 125.368 228.46 124.52ZM225.852 119.32C224.284 119.32 223.292 120.616 223.18 122.2H228.508C228.396 120.616 227.42 119.32 225.852 119.32ZM237.099 120.776L236.139 120.984C235.915 119.976 234.971 119.304 233.851 119.304C232.651 119.304 231.851 119.896 231.851 120.792C231.851 121.72 232.731 121.96 233.675 122.12L234.619 122.28C236.059 122.52 237.323 122.936 237.323 124.632C237.323 126.312 235.883 127.208 233.995 127.208C232.059 127.208 230.651 126.152 230.443 124.584L231.419 124.376C231.611 125.624 232.683 126.312 233.979 126.312C235.275 126.312 236.251 125.704 236.251 124.68C236.251 123.656 235.355 123.4 234.203 123.192L233.291 123.032C232.059 122.808 230.763 122.392 230.763 120.792C230.763 119.368 232.043 118.424 233.851 118.424C235.563 118.424 236.891 119.48 237.099 120.776ZM241.59 126.104C241.894 126.104 242.31 126.104 242.502 126.088V127C242.246 127.016 241.894 127.032 241.494 127.032C239.974 127.032 239.462 126.632 239.462 125.176V119.464H238.054V118.616H239.462V116.168H240.518V118.616H242.55V119.464H240.518V124.952C240.518 125.848 240.742 126.104 241.59 126.104ZM0.912 134.416H2.048V135.712H0.912V134.416ZM0.96 137.616H2V146H0.96V137.616ZM6.79275 145.104C7.09675 145.104 7.51275 145.104 7.70475 145.088V146C7.44875 146.016 7.09675 146.032 6.69675 146.032C5.17675 146.032 4.66475 145.632 4.66475 144.176V138.464H3.25675V137.616H4.66475V135.168H5.72075V137.616H7.75275V138.464H5.72075V143.952C5.72075 144.848 5.94475 145.104 6.79275 145.104ZM15.9153 145.312C17.5473 145.312 18.2033 144.08 18.4753 143.28L19.5793 143.456C19.1953 144.624 18.1713 146.192 15.9153 146.192C13.6753 146.192 12.1073 144.496 12.1073 141.808C12.1073 139.12 13.6913 137.424 15.9313 137.424C18.1873 137.424 19.0993 139.04 19.3713 139.648L18.3633 139.984C18.1393 139.536 17.5633 138.32 15.9313 138.32C14.3153 138.32 13.1793 139.632 13.1793 141.808C13.1793 144 14.2993 145.312 15.9153 145.312ZM27.3935 146H26.3375C26.2575 145.872 26.1775 145.44 26.1455 144.736C25.4255 145.904 24.0175 146.192 23.0095 146.192C21.5695 146.192 20.4015 145.232 20.4015 143.76C20.4015 141.856 22.0495 141.36 23.9215 141.12C25.7455 140.864 26.1135 140.688 26.1135 140.064C26.1135 139.04 25.5055 138.32 24.0335 138.32C23.0735 138.32 22.0815 138.672 21.7135 140.032L20.7375 139.792C21.1535 138.112 22.5135 137.424 24.0815 137.424C26.2575 137.424 27.1695 138.512 27.1695 140.032V143.936C27.1695 144.976 27.2015 145.504 27.3935 146ZM26.1135 142.624V141.344C25.8415 141.664 24.7695 141.792 23.8255 141.936C22.8975 142.08 21.4895 142.48 21.4895 143.744C21.4895 144.72 22.1775 145.312 23.2015 145.312C24.3375 145.312 26.1135 144.784 26.1135 142.624ZM30.0145 138.896H30.0465C30.4625 138.112 31.4705 137.424 32.7665 137.424C34.4785 137.424 35.7425 138.432 35.7425 140.384V146H34.6865V140.816C34.6865 139.104 34.0625 138.32 32.5745 138.32C31.3105 138.32 30.0625 139.152 30.0625 141.296V146H29.0225V137.616H30.0145V138.896ZM44.88 137.424C47.088 137.424 48.64 139.12 48.64 141.808C48.64 144.496 47.088 146.192 44.88 146.192C43.616 146.192 42.416 145.536 41.984 144.528H41.952V146H40.96V134.416H42V139.056H42.032C42.48 138.048 43.648 137.424 44.88 137.424ZM44.72 145.312C46.416 145.312 47.552 144 47.552 141.808C47.552 139.632 46.416 138.32 44.72 138.32C43.12 138.32 41.936 139.632 41.936 141.808C41.936 144 43.12 145.312 44.72 145.312ZM56.1628 143.52L57.2348 143.68C56.8188 144.912 55.7628 146.208 53.5548 146.208C51.3468 146.208 49.7788 144.496 49.7788 141.808C49.7788 139.136 51.3307 137.424 53.5548 137.424C55.7628 137.424 57.4108 139.136 57.3148 142.064H50.8668C50.9148 144 51.9868 145.312 53.5548 145.312C55.1228 145.312 55.8908 144.368 56.1628 143.52ZM53.5548 138.32C51.9868 138.32 50.9948 139.616 50.8828 141.2H56.2108C56.0988 139.616 55.1228 138.32 53.5548 138.32ZM73.8896 137.616L71.0416 146H69.8896L67.6016 139.072H67.5696L65.2976 146H64.1936L61.3136 137.616H62.4976L64.7696 144.688H64.8016L67.0416 137.616H68.2416L70.4816 144.688H70.5136L72.7696 137.616H73.8896ZM74.8808 134.416H76.0168V135.712H74.8808V134.416ZM74.9288 137.616H75.9688V146H74.9288V137.616ZM80.7615 145.104C81.0655 145.104 81.4815 145.104 81.6735 145.088V146C81.4175 146.016 81.0655 146.032 80.6655 146.032C79.1455 146.032 78.6335 145.632 78.6335 144.176V138.464H77.2255V137.616H78.6335V135.168H79.6895V137.616H81.7215V138.464H79.6895V143.952C79.6895 144.848 79.9135 145.104 80.7615 145.104ZM84.1406 138.912H84.1726C84.5726 138.128 85.5966 137.424 86.8606 137.424C88.5566 137.424 89.8206 138.432 89.8206 140.384V146H88.7646V140.816C88.7646 139.104 88.1406 138.32 86.6526 138.32C85.4366 138.32 84.1406 139.248 84.1406 141.36V146H83.1006V134.416H84.1406V138.912ZM97.9021 145.104C98.2061 145.104 98.6221 145.104 98.8141 145.088V146C98.5581 146.016 98.2061 146.032 97.8061 146.032C96.2861 146.032 95.7741 145.632 95.7741 144.176V138.464H94.3661V137.616H95.7741V135.168H96.8301V137.616H98.8621V138.464H96.8301V143.952C96.8301 144.848 97.0541 145.104 97.9021 145.104ZM103.37 137.424C105.658 137.424 107.242 139.12 107.242 141.808C107.242 144.496 105.658 146.192 103.37 146.192C101.082 146.192 99.4979 144.496 99.4979 141.808C99.4979 139.12 101.082 137.424 103.37 137.424ZM103.37 145.312C105.018 145.312 106.17 144 106.17 141.808C106.17 139.632 105.018 138.32 103.37 138.32C101.722 138.32 100.57 139.632 100.57 141.808C100.57 144 101.722 145.312 103.37 145.312ZM112.148 137.424C113.396 137.424 114.548 138.048 114.996 139.056H115.028V134.416H116.084V146H115.076V144.528H115.044C114.612 145.536 113.428 146.192 112.148 146.192C109.956 146.192 108.404 144.496 108.404 141.808C108.404 139.12 109.956 137.424 112.148 137.424ZM112.324 145.312C113.924 145.312 115.108 144 115.108 141.808C115.108 139.632 113.924 138.32 112.324 138.32C110.612 138.32 109.476 139.632 109.476 141.808C109.476 144 110.612 145.312 112.324 145.312ZM124.44 146H123.384C123.304 145.872 123.224 145.44 123.192 144.736C122.472 145.904 121.064 146.192 120.056 146.192C118.616 146.192 117.448 145.232 117.448 143.76C117.448 141.856 119.096 141.36 120.968 141.12C122.792 140.864 123.16 140.688 123.16 140.064C123.16 139.04 122.552 138.32 121.08 138.32C120.12 138.32 119.128 138.672 118.76 140.032L117.784 139.792C118.2 138.112 119.56 137.424 121.128 137.424C123.304 137.424 124.216 138.512 124.216 140.032V143.936C124.216 144.976 124.248 145.504 124.44 146ZM123.16 142.624V141.344C122.888 141.664 121.816 141.792 120.872 141.936C119.944 142.08 118.536 142.48 118.536 143.744C118.536 144.72 119.224 145.312 120.248 145.312C121.384 145.312 123.16 144.784 123.16 142.624ZM132.65 137.616L129.322 146C128.202 148.848 127.466 149.136 126.458 149.136C126.01 149.136 125.77 149.088 125.642 149.072V148.144C125.738 148.16 125.978 148.208 126.314 148.208C127.018 148.208 127.498 148 128.122 146.416L128.298 145.936L124.906 137.616H126.074L128.81 144.688H128.842L131.514 137.616H132.65ZM134.037 138.464V134.576H135.045V138.464H134.037ZM142.88 139.776L141.92 139.984C141.696 138.976 140.752 138.304 139.632 138.304C138.432 138.304 137.632 138.896 137.632 139.792C137.632 140.72 138.512 140.96 139.456 141.12L140.4 141.28C141.84 141.52 143.104 141.936 143.104 143.632C143.104 145.312 141.664 146.208 139.776 146.208C137.84 146.208 136.432 145.152 136.224 143.584L137.2 143.376C137.392 144.624 138.464 145.312 139.76 145.312C141.056 145.312 142.032 144.704 142.032 143.68C142.032 142.656 141.136 142.4 139.984 142.192L139.072 142.032C137.84 141.808 136.544 141.392 136.544 139.792C136.544 138.368 137.824 137.424 139.632 137.424C141.344 137.424 142.672 138.48 142.88 139.776ZM150.762 145.104C151.066 145.104 151.482 145.104 151.674 145.088V146C151.418 146.016 151.066 146.032 150.666 146.032C149.146 146.032 148.634 145.632 148.634 144.176V138.464H147.226V137.616H148.634V135.168H149.69V137.616H151.722V138.464H149.69V143.952C149.69 144.848 149.914 145.104 150.762 145.104ZM156.229 137.424C158.517 137.424 160.101 139.12 160.101 141.808C160.101 144.496 158.517 146.192 156.229 146.192C153.941 146.192 152.357 144.496 152.357 141.808C152.357 139.12 153.941 137.424 156.229 137.424ZM156.229 145.312C157.877 145.312 159.029 144 159.029 141.808C159.029 139.632 157.877 138.32 156.229 138.32C154.581 138.32 153.429 139.632 153.429 141.808C153.429 144 154.581 145.312 156.229 145.312ZM165.568 146.192C164.336 146.192 163.168 145.6 162.72 144.56H162.688V148.944H161.648V137.616H162.64V139.104H162.672C163.136 138.048 164.304 137.424 165.568 137.424C167.776 137.424 169.328 139.12 169.328 141.808C169.328 144.496 167.776 146.192 165.568 146.192ZM165.408 138.32C163.808 138.32 162.624 139.632 162.624 141.808C162.624 144 163.808 145.312 165.408 145.312C167.104 145.312 168.24 144 168.24 141.808C168.24 139.632 167.104 138.32 165.408 138.32ZM170.978 141.856V140.896H175.33V141.856H170.978ZM180.87 137.424C183.158 137.424 184.742 139.12 184.742 141.808C184.742 144.496 183.158 146.192 180.87 146.192C178.582 146.192 176.998 144.496 176.998 141.808C176.998 139.12 178.582 137.424 180.87 137.424ZM180.87 145.312C182.518 145.312 183.67 144 183.67 141.808C183.67 139.632 182.518 138.32 180.87 138.32C179.222 138.32 178.07 139.632 178.07 141.808C178.07 144 179.222 145.312 180.87 145.312ZM189.079 135.136C188.455 135.136 187.799 135.232 187.799 136.32V137.616H189.831V138.464H187.799V146.016H186.743V138.464H185.335V137.616H186.743V136.224C186.743 134.64 187.767 134.24 188.935 134.24C189.383 134.24 189.879 134.288 190.087 134.336V135.216C189.911 135.184 189.367 135.136 189.079 135.136ZM190.978 141.856V140.896H195.33V141.856H190.978ZM200.246 145.104C200.55 145.104 200.966 145.104 201.158 145.088V146C200.902 146.016 200.55 146.032 200.15 146.032C198.63 146.032 198.118 145.632 198.118 144.176V138.464H196.71V137.616H198.118V135.168H199.174V137.616H201.206V138.464H199.174V143.952C199.174 144.848 199.398 145.104 200.246 145.104ZM203.625 138.912H203.657C204.057 138.128 205.081 137.424 206.345 137.424C208.041 137.424 209.305 138.432 209.305 140.384V146H208.249V140.816C208.249 139.104 207.625 138.32 206.137 138.32C204.921 138.32 203.625 139.248 203.625 141.36V146H202.585V134.416H203.625V138.912ZM217.147 143.52L218.219 143.68C217.803 144.912 216.747 146.208 214.539 146.208C212.331 146.208 210.763 144.496 210.763 141.808C210.763 139.136 212.315 137.424 214.539 137.424C216.747 137.424 218.395 139.136 218.299 142.064H211.851C211.899 144 212.971 145.312 214.539 145.312C216.107 145.312 216.875 144.368 217.147 143.52ZM214.539 138.32C212.971 138.32 211.979 139.616 211.867 141.2H217.195C217.083 139.616 216.107 138.32 214.539 138.32ZM219.963 141.856V140.896H224.315V141.856H219.963ZM8.096 156.616V164.456C8.096 167.064 6.528 168.136 4.368 168.136C2.624 168.136 1.248 167.384 0.736 165.784L1.728 165.512C2.112 166.776 3.056 167.272 4.368 167.272C6 167.272 7.04 166.424 7.04 164.392V162.984H7.008C6.576 163.96 5.456 164.536 4.24 164.536C2.096 164.536 0.576 162.936 0.576 160.488C0.576 158.008 2.096 156.424 4.24 156.424C5.488 156.424 6.608 157.032 7.056 158.024H7.088V156.616H8.096ZM4.416 163.672C5.968 163.672 7.12 162.392 7.12 160.488C7.12 158.584 5.968 157.32 4.416 157.32C2.752 157.32 1.648 158.584 1.648 160.488C1.648 162.392 2.752 163.672 4.416 163.672ZM16.4404 165H15.3844C15.3044 164.872 15.2244 164.44 15.1924 163.736C14.4724 164.904 13.0644 165.192 12.0564 165.192C10.6164 165.192 9.44838 164.232 9.44838 162.76C9.44838 160.856 11.0964 160.36 12.9684 160.12C14.7924 159.864 15.1604 159.688 15.1604 159.064C15.1604 158.04 14.5524 157.32 13.0804 157.32C12.1204 157.32 11.1284 157.672 10.7604 159.032L9.78438 158.792C10.2004 157.112 11.5604 156.424 13.1284 156.424C15.3044 156.424 16.2164 157.512 16.2164 159.032V162.936C16.2164 163.976 16.2484 164.504 16.4404 165ZM15.1604 161.624V160.344C14.8884 160.664 13.8164 160.792 12.8724 160.936C11.9444 161.08 10.5364 161.48 10.5364 162.744C10.5364 163.72 11.2244 164.312 12.2484 164.312C13.3844 164.312 15.1604 163.784 15.1604 161.624ZM26.7894 156.424H26.7734C28.3414 156.424 29.5254 157.432 29.5254 159.384V165H28.4694V159.816C28.4694 158.104 27.8934 157.32 26.5654 157.32C25.4774 157.32 24.3254 158.024 24.3254 160.184V165H23.2694V159.816C23.2694 158.104 22.6934 157.32 21.3494 157.32C20.2294 157.32 19.1094 158.152 19.1094 160.296V165H18.0534V156.616H19.0614V157.896H19.0934C19.4934 157.096 20.4214 156.424 21.5734 156.424C22.6934 156.424 23.6054 156.952 24.0534 157.96C24.5334 157.144 25.4294 156.424 26.7894 156.424ZM37.3815 162.52L38.4535 162.68C38.0375 163.912 36.9815 165.208 34.7735 165.208C32.5655 165.208 30.9975 163.496 30.9975 160.808C30.9975 158.136 32.5495 156.424 34.7735 156.424C36.9815 156.424 38.6295 158.136 38.5335 161.064H32.0855C32.1335 163 33.2055 164.312 34.7735 164.312C36.3415 164.312 37.1095 163.368 37.3815 162.52ZM34.7735 157.32C33.2055 157.32 32.2135 158.616 32.1015 160.2H37.4295C37.3175 158.616 36.3415 157.32 34.7735 157.32ZM46.8684 164.312C48.5004 164.312 49.1564 163.08 49.4284 162.28L50.5324 162.456C50.1484 163.624 49.1244 165.192 46.8684 165.192C44.6284 165.192 43.0604 163.496 43.0604 160.808C43.0604 158.12 44.6444 156.424 46.8844 156.424C49.1404 156.424 50.0524 158.04 50.3244 158.648L49.3164 158.984C49.0924 158.536 48.5164 157.32 46.8844 157.32C45.2684 157.32 44.1324 158.632 44.1324 160.808C44.1324 163 45.2524 164.312 46.8684 164.312ZM55.3386 156.424C57.6266 156.424 59.2106 158.12 59.2106 160.808C59.2106 163.496 57.6266 165.192 55.3386 165.192C53.0506 165.192 51.4666 163.496 51.4666 160.808C51.4666 158.12 53.0506 156.424 55.3386 156.424ZM55.3386 164.312C56.9866 164.312 58.1386 163 58.1386 160.808C58.1386 158.632 56.9866 157.32 55.3386 157.32C53.6906 157.32 52.5386 158.632 52.5386 160.808C52.5386 163 53.6906 164.312 55.3386 164.312ZM61.7489 157.896H61.7809C62.1969 157.112 63.2049 156.424 64.5009 156.424C66.2129 156.424 67.4769 157.432 67.4769 159.384V165H66.4209V159.816C66.4209 158.104 65.7969 157.32 64.3089 157.32C63.0449 157.32 61.7969 158.152 61.7969 160.296V165H60.7569V156.616H61.7489V157.896ZM72.074 164.104C72.378 164.104 72.794 164.104 72.986 164.088V165C72.73 165.016 72.378 165.032 71.978 165.032C70.458 165.032 69.946 164.632 69.946 163.176V157.464H68.538V156.616H69.946V154.168H71.002V156.616H73.034V157.464H71.002V162.952C71.002 163.848 71.226 164.104 72.074 164.104ZM80.0378 162.52L81.1098 162.68C80.6938 163.912 79.6378 165.208 77.4298 165.208C75.2218 165.208 73.6538 163.496 73.6538 160.808C73.6538 158.136 75.2057 156.424 77.4298 156.424C79.6378 156.424 81.2858 158.136 81.1898 161.064H74.7418C74.7898 163 75.8618 164.312 77.4298 164.312C78.9978 164.312 79.7658 163.368 80.0378 162.52ZM77.4298 157.32C75.8618 157.32 74.8698 158.616 74.7578 160.2H80.0858C79.9738 158.616 78.9978 157.32 77.4298 157.32ZM83.7333 157.896H83.7653C84.1813 157.112 85.1893 156.424 86.4852 156.424C88.1973 156.424 89.4613 157.432 89.4613 159.384V165H88.4053V159.816C88.4053 158.104 87.7813 157.32 86.2933 157.32C85.0293 157.32 83.7812 158.152 83.7812 160.296V165H82.7413V156.616H83.7333V157.896ZM94.0584 164.104C94.3624 164.104 94.7784 164.104 94.9704 164.088V165C94.7144 165.016 94.3624 165.032 93.9624 165.032C92.4424 165.032 91.9304 164.632 91.9304 163.176V157.464H90.5224V156.616H91.9304V154.168H92.9864V156.616H95.0184V157.464H92.9864V162.952C92.9864 163.848 93.2104 164.104 94.0584 164.104ZM108.477 156.424H108.461C110.029 156.424 111.213 157.432 111.213 159.384V165H110.157V159.816C110.157 158.104 109.581 157.32 108.253 157.32C107.165 157.32 106.013 158.024 106.013 160.184V165H104.957V159.816C104.957 158.104 104.381 157.32 103.037 157.32C101.917 157.32 100.797 158.152 100.797 160.296V165H99.7409V156.616H100.749V157.896H100.781C101.181 157.096 102.109 156.424 103.261 156.424C104.381 156.424 105.293 156.952 105.741 157.96C106.221 157.144 107.117 156.424 108.477 156.424ZM119.581 165H118.525C118.445 164.872 118.365 164.44 118.333 163.736C117.613 164.904 116.205 165.192 115.197 165.192C113.757 165.192 112.589 164.232 112.589 162.76C112.589 160.856 114.237 160.36 116.109 160.12C117.933 159.864 118.301 159.688 118.301 159.064C118.301 158.04 117.693 157.32 116.221 157.32C115.261 157.32 114.269 157.672 113.901 159.032L112.925 158.792C113.341 157.112 114.701 156.424 116.269 156.424C118.445 156.424 119.357 157.512 119.357 159.032V162.936C119.357 163.976 119.389 164.504 119.581 165ZM118.301 161.624V160.344C118.029 160.664 116.957 160.792 116.013 160.936C115.085 161.08 113.677 161.48 113.677 162.744C113.677 163.72 114.365 164.312 115.389 164.312C116.525 164.312 118.301 163.784 118.301 161.624ZM122.25 161.544V165H121.194V153.416H122.25V160.344L126.33 156.616H127.674L124.106 159.848L128.122 165H126.858L123.386 160.536L122.25 161.544ZM128.99 153.416H130.126V154.712H128.99V153.416ZM129.038 156.616H130.078V165H129.038V156.616ZM132.999 157.896H133.031C133.447 157.112 134.455 156.424 135.751 156.424C137.463 156.424 138.727 157.432 138.727 159.384V165H137.671V159.816C137.671 158.104 137.047 157.32 135.559 157.32C134.295 157.32 133.047 158.152 133.047 160.296V165H132.007V156.616H132.999V157.896ZM147.721 156.616V164.456C147.721 167.064 146.153 168.136 143.993 168.136C142.249 168.136 140.873 167.384 140.361 165.784L141.353 165.512C141.737 166.776 142.681 167.272 143.993 167.272C145.625 167.272 146.665 166.424 146.665 164.392V162.984H146.633C146.201 163.96 145.081 164.536 143.865 164.536C141.721 164.536 140.201 162.936 140.201 160.488C140.201 158.008 141.721 156.424 143.865 156.424C145.113 156.424 146.233 157.032 146.681 158.024H146.713V156.616H147.721ZM144.041 163.672C145.593 163.672 146.745 162.392 146.745 160.488C146.745 158.584 145.593 157.32 144.041 157.32C142.377 157.32 141.273 158.584 141.273 160.488C141.273 162.392 142.377 163.672 144.041 163.672ZM158.865 158.776L157.905 158.984C157.681 157.976 156.737 157.304 155.617 157.304C154.417 157.304 153.617 157.896 153.617 158.792C153.617 159.72 154.497 159.96 155.441 160.12L156.385 160.28C157.825 160.52 159.089 160.936 159.089 162.632C159.089 164.312 157.649 165.208 155.761 165.208C153.825 165.208 152.417 164.152 152.209 162.584L153.185 162.376C153.377 163.624 154.449 164.312 155.745 164.312C157.041 164.312 158.017 163.704 158.017 162.68C158.017 161.656 157.121 161.4 155.969 161.192L155.057 161.032C153.825 160.808 152.529 160.392 152.529 158.792C152.529 157.368 153.809 156.424 155.617 156.424C157.329 156.424 158.657 157.48 158.865 158.776ZM161.562 161.544V165H160.507V153.416H161.562V160.344L165.643 156.616H166.987L163.419 159.848L167.435 165H166.171L162.699 160.536L161.562 161.544ZM168.303 153.416H169.439V154.712H168.303V153.416ZM168.351 156.616H169.391V165H168.351V156.616ZM171.367 153.416H172.407V165H171.367V153.416ZM174.446 153.416H175.486V165H174.446V153.416ZM183.412 158.776L182.452 158.984C182.228 157.976 181.284 157.304 180.164 157.304C178.964 157.304 178.164 157.896 178.164 158.792C178.164 159.72 179.044 159.96 179.988 160.12L180.932 160.28C182.372 160.52 183.636 160.936 183.636 162.632C183.636 164.312 182.196 165.208 180.308 165.208C178.372 165.208 176.964 164.152 176.756 162.584L177.732 162.376C177.924 163.624 178.996 164.312 180.292 164.312C181.588 164.312 182.564 163.704 182.564 162.68C182.564 161.656 181.668 161.4 180.516 161.192L179.604 161.032C178.372 160.808 177.076 160.392 177.076 158.792C177.076 157.368 178.356 156.424 180.164 156.424C181.876 156.424 183.204 157.48 183.412 158.776ZM185.197 163.544H186.621V165H185.197V163.544ZM5.856 191.352C8.832 191.352 10.992 193.592 10.992 197.288C10.992 201 8.832 203.24 5.856 203.24C2.896 203.24 0.736 201 0.736 197.288C0.736 193.592 2.896 191.352 5.856 191.352ZM5.856 202.264C8.192 202.264 9.84 200.44 9.84 197.288C9.84 194.152 8.192 192.328 5.856 192.328C3.536 192.328 1.888 194.152 1.888 197.288C1.888 200.44 3.536 202.264 5.856 202.264ZM18.4064 201.736H18.3744C17.9744 202.504 16.9504 203.192 15.6704 203.192C13.9424 203.192 12.6944 202.184 12.6944 200.248V194.616H13.7344V199.816C13.7344 201.528 14.3584 202.312 15.8624 202.312C17.1104 202.312 18.3584 201.48 18.3584 199.336V194.616H19.4144V203H18.4064V201.736ZM22.2645 194.616V196.216H22.2965C22.7445 195.064 23.8005 194.424 25.0805 194.424C25.3205 194.424 25.6085 194.456 25.7685 194.488V195.512C25.6405 195.496 25.3045 195.464 25.0165 195.464C23.4805 195.464 22.3125 196.504 22.3125 198.744V203.016H21.2725V194.616H22.2645ZM36.3346 200.52L37.4066 200.68C36.9906 201.912 35.9346 203.208 33.7266 203.208C31.5186 203.208 29.9506 201.496 29.9506 198.808C29.9506 196.136 31.5026 194.424 33.7266 194.424C35.9346 194.424 37.5826 196.136 37.4866 199.064H31.0386C31.0866 201 32.1586 202.312 33.7266 202.312C35.2946 202.312 36.0626 201.368 36.3346 200.52ZM33.7266 195.32C32.1586 195.32 31.1666 196.616 31.0546 198.2H36.3826C36.2706 196.616 35.2946 195.32 33.7266 195.32ZM43.9335 203L41.3575 199.48L38.7335 203H37.5015L40.7175 198.696L37.7095 194.616H38.9735L41.3735 197.88L43.7735 194.616H45.0055L41.9975 198.648L45.2135 203H43.9335ZM50.1769 203.192C48.9449 203.192 47.7769 202.6 47.3289 201.56H47.2969V205.944H46.2569V194.616H47.2489V196.104H47.2809C47.7449 195.048 48.9129 194.424 50.1769 194.424C52.3849 194.424 53.9369 196.12 53.9369 198.808C53.9369 201.496 52.3849 203.192 50.1769 203.192ZM50.0169 195.32C48.4169 195.32 47.2329 196.632 47.2329 198.808C47.2329 201 48.4169 202.312 50.0169 202.312C51.7129 202.312 52.8489 201 52.8489 198.808C52.8489 196.632 51.7129 195.32 50.0169 195.32ZM61.4596 200.52L62.5316 200.68C62.1156 201.912 61.0596 203.208 58.8516 203.208C56.6436 203.208 55.0756 201.496 55.0756 198.808C55.0756 196.136 56.6276 194.424 58.8516 194.424C61.0596 194.424 62.7076 196.136 62.6116 199.064H56.1636C56.2116 201 57.2836 202.312 58.8516 202.312C60.4196 202.312 61.1876 201.368 61.4596 200.52ZM58.8516 195.32C57.2836 195.32 56.2916 196.616 56.1796 198.2H61.5076C61.3956 196.616 60.4196 195.32 58.8516 195.32ZM65.1551 194.616V196.216H65.1871C65.6351 195.064 66.6911 194.424 67.9711 194.424C68.2111 194.424 68.4991 194.456 68.6591 194.488V195.512C68.5311 195.496 68.1951 195.464 67.9071 195.464C66.3711 195.464 65.2031 196.504 65.2031 198.744V203.016H64.1631V194.616H65.1551ZM69.8339 191.416H70.9699V192.712H69.8339V191.416ZM69.8819 194.616H70.9219V203H69.8819V194.616ZM78.8346 200.52L79.9066 200.68C79.4906 201.912 78.4346 203.208 76.2266 203.208C74.0186 203.208 72.4506 201.496 72.4506 198.808C72.4506 196.136 74.0026 194.424 76.2266 194.424C78.4346 194.424 80.0826 196.136 79.9866 199.064H73.5386C73.5866 201 74.6586 202.312 76.2266 202.312C77.7946 202.312 78.5626 201.368 78.8346 200.52ZM76.2266 195.32C74.6586 195.32 73.6666 196.616 73.5546 198.2H78.8826C78.7706 196.616 77.7946 195.32 76.2266 195.32ZM82.5301 195.896H82.5621C82.9781 195.112 83.9861 194.424 85.2821 194.424C86.9941 194.424 88.2581 195.432 88.2581 197.384V203H87.2021V197.816C87.2021 196.104 86.5781 195.32 85.0901 195.32C83.8261 195.32 82.5781 196.152 82.5781 198.296V203H81.5381V194.616H82.5301V195.896ZM93.5403 202.312C95.1723 202.312 95.8283 201.08 96.1003 200.28L97.2043 200.456C96.8203 201.624 95.7963 203.192 93.5403 203.192C91.3003 203.192 89.7323 201.496 89.7323 198.808C89.7323 196.12 91.3163 194.424 93.5563 194.424C95.8123 194.424 96.7243 196.04 96.9963 196.648L95.9883 196.984C95.7643 196.536 95.1883 195.32 93.5563 195.32C91.9403 195.32 90.8043 196.632 90.8043 198.808C90.8043 201 91.9243 202.312 93.5403 202.312ZM104.507 200.52L105.579 200.68C105.163 201.912 104.107 203.208 101.899 203.208C99.6905 203.208 98.1225 201.496 98.1225 198.808C98.1225 196.136 99.6745 194.424 101.899 194.424C104.107 194.424 105.755 196.136 105.659 199.064H99.2105C99.2585 201 100.331 202.312 101.899 202.312C103.467 202.312 104.235 201.368 104.507 200.52ZM101.899 195.32C100.331 195.32 99.3385 196.616 99.2265 198.2H104.555C104.443 196.616 103.467 195.32 101.899 195.32ZM110.57 194.424C111.818 194.424 112.97 195.048 113.418 196.056H113.45V191.416H114.506V203H113.498V201.528H113.466C113.034 202.536 111.85 203.192 110.57 203.192C108.378 203.192 106.826 201.496 106.826 198.808C106.826 196.12 108.378 194.424 110.57 194.424ZM110.746 202.312C112.346 202.312 113.53 201 113.53 198.808C113.53 196.632 112.346 195.32 110.746 195.32C109.034 195.32 107.898 196.632 107.898 198.808C107.898 201 109.034 202.312 110.746 202.312ZM123.15 202.312C124.782 202.312 125.438 201.08 125.71 200.28L126.814 200.456C126.43 201.624 125.406 203.192 123.15 203.192C120.91 203.192 119.342 201.496 119.342 198.808C119.342 196.12 120.926 194.424 123.166 194.424C125.422 194.424 126.334 196.04 126.606 196.648L125.598 196.984C125.374 196.536 124.798 195.32 123.166 195.32C121.55 195.32 120.414 196.632 120.414 198.808C120.414 201 121.534 202.312 123.15 202.312ZM129.124 194.616V196.216H129.156C129.604 195.064 130.66 194.424 131.94 194.424C132.18 194.424 132.468 194.456 132.628 194.488V195.512C132.5 195.496 132.164 195.464 131.876 195.464C130.34 195.464 129.172 196.504 129.172 198.744V203.016H128.132V194.616H129.124ZM139.616 200.52L140.688 200.68C140.272 201.912 139.216 203.208 137.008 203.208C134.8 203.208 133.232 201.496 133.232 198.808C133.232 196.136 134.784 194.424 137.008 194.424C139.216 194.424 140.864 196.136 140.768 199.064H134.32C134.368 201 135.44 202.312 137.008 202.312C138.576 202.312 139.344 201.368 139.616 200.52ZM137.008 195.32C135.44 195.32 134.448 196.616 134.336 198.2H139.664C139.552 196.616 138.576 195.32 137.008 195.32ZM153.702 194.616L150.854 203H149.702L147.414 196.072H147.382L145.11 203H144.006L141.126 194.616H142.31L144.582 201.688H144.614L146.854 194.616H148.054L150.294 201.688H150.326L152.582 194.616H153.702ZM161.525 202.312C163.157 202.312 163.813 201.08 164.085 200.28L165.189 200.456C164.805 201.624 163.781 203.192 161.525 203.192C159.285 203.192 157.717 201.496 157.717 198.808C157.717 196.12 159.301 194.424 161.541 194.424C163.797 194.424 164.709 196.04 164.981 196.648L163.973 196.984C163.749 196.536 163.173 195.32 161.541 195.32C159.925 195.32 158.789 196.632 158.789 198.808C158.789 201 159.909 202.312 161.525 202.312ZM173.003 203H171.947C171.867 202.872 171.787 202.44 171.755 201.736C171.035 202.904 169.627 203.192 168.619 203.192C167.179 203.192 166.011 202.232 166.011 200.76C166.011 198.856 167.659 198.36 169.531 198.12C171.355 197.864 171.723 197.688 171.723 197.064C171.723 196.04 171.115 195.32 169.643 195.32C168.683 195.32 167.691 195.672 167.323 197.032L166.347 196.792C166.763 195.112 168.123 194.424 169.691 194.424C171.867 194.424 172.779 195.512 172.779 197.032V200.936C172.779 201.976 172.811 202.504 173.003 203ZM171.723 199.624V198.344C171.451 198.664 170.379 198.792 169.435 198.936C168.507 199.08 167.099 199.48 167.099 200.744C167.099 201.72 167.787 202.312 168.811 202.312C169.947 202.312 171.723 201.784 171.723 199.624ZM175.624 195.896H175.656C176.072 195.112 177.08 194.424 178.376 194.424C180.088 194.424 181.352 195.432 181.352 197.384V203H180.296V197.816C180.296 196.104 179.672 195.32 178.184 195.32C176.92 195.32 175.672 196.152 175.672 198.296V203H174.632V194.616H175.624V195.896ZM6.944 219.52L8.016 219.68C7.6 220.912 6.544 222.208 4.336 222.208C2.128 222.208 0.56 220.496 0.56 217.808C0.56 215.136 2.112 213.424 4.336 213.424C6.544 213.424 8.192 215.136 8.096 218.064H1.648C1.696 220 2.768 221.312 4.336 221.312C5.904 221.312 6.672 220.368 6.944 219.52ZM4.336 214.32C2.768 214.32 1.776 215.616 1.664 217.2H6.992C6.88 215.616 5.904 214.32 4.336 214.32ZM10.6395 214.896H10.6715C11.0875 214.112 12.0955 213.424 13.3915 213.424C15.1035 213.424 16.3675 214.432 16.3675 216.384V222H15.3115V216.816C15.3115 215.104 14.6875 214.32 13.1995 214.32C11.9355 214.32 10.6875 215.152 10.6875 217.296V222H9.6475V213.616H10.6395V214.896ZM24.1616 215.776L23.2016 215.984C22.9776 214.976 22.0336 214.304 20.9136 214.304C19.7136 214.304 18.9136 214.896 18.9136 215.792C18.9136 216.72 19.7936 216.96 20.7376 217.12L21.6816 217.28C23.1216 217.52 24.3856 217.936 24.3856 219.632C24.3856 221.312 22.9456 222.208 21.0576 222.208C19.1216 222.208 17.7136 221.152 17.5056 219.584L18.4816 219.376C18.6736 220.624 19.7456 221.312 21.0416 221.312C22.3376 221.312 23.3136 220.704 23.3136 219.68C23.3136 218.656 22.4176 218.4 21.2656 218.192L20.3536 218.032C19.1216 217.808 17.8256 217.392 17.8256 215.792C17.8256 214.368 19.1056 213.424 20.9136 213.424C22.6256 213.424 23.9536 214.48 24.1616 215.776ZM31.5314 220.736H31.4994C31.0994 221.504 30.0754 222.192 28.7954 222.192C27.0674 222.192 25.8194 221.184 25.8194 219.248V213.616H26.8594V218.816C26.8594 220.528 27.4834 221.312 28.9874 221.312C30.2354 221.312 31.4834 220.48 31.4834 218.336V213.616H32.5394V222H31.5314V220.736ZM35.3895 213.616V215.216H35.4215C35.8695 214.064 36.9255 213.424 38.2055 213.424C38.4455 213.424 38.7335 213.456 38.8935 213.488V214.512C38.7655 214.496 38.4295 214.464 38.1415 214.464C36.6055 214.464 35.4375 215.504 35.4375 217.744V222.016H34.3975V213.616H35.3895ZM45.8815 219.52L46.9535 219.68C46.5375 220.912 45.4815 222.208 43.2735 222.208C41.0655 222.208 39.4975 220.496 39.4975 217.808C39.4975 215.136 41.0495 213.424 43.2735 213.424C45.4815 213.424 47.1295 215.136 47.0335 218.064H40.5855C40.6335 220 41.7055 221.312 43.2735 221.312C44.8415 221.312 45.6095 220.368 45.8815 219.52ZM43.2735 214.32C41.7055 214.32 40.7135 215.616 40.6015 217.2H45.9295C45.8175 215.616 44.8415 214.32 43.2735 214.32ZM54.8084 221.104C55.1124 221.104 55.5284 221.104 55.7204 221.088V222C55.4644 222.016 55.1124 222.032 54.7124 222.032C53.1924 222.032 52.6804 221.632 52.6804 220.176V214.464H51.2724V213.616H52.6804V211.168H53.7364V213.616H55.7684V214.464H53.7364V219.952C53.7364 220.848 53.9604 221.104 54.8084 221.104ZM58.1875 214.912H58.2195C58.6195 214.128 59.6435 213.424 60.9075 213.424C62.6035 213.424 63.8675 214.432 63.8675 216.384V222H62.8115V216.816C62.8115 215.104 62.1875 214.32 60.6995 214.32C59.4835 214.32 58.1875 215.248 58.1875 217.36V222H57.1475V210.416H58.1875V214.912ZM72.2216 222H71.1656C71.0856 221.872 71.0056 221.44 70.9736 220.736C70.2536 221.904 68.8456 222.192 67.8376 222.192C66.3976 222.192 65.2296 221.232 65.2296 219.76C65.2296 217.856 66.8776 217.36 68.7496 217.12C70.5736 216.864 70.9416 216.688 70.9416 216.064C70.9416 215.04 70.3336 214.32 68.8616 214.32C67.9016 214.32 66.9096 214.672 66.5416 216.032L65.5656 215.792C65.9816 214.112 67.3416 213.424 68.9096 213.424C71.0856 213.424 71.9976 214.512 71.9976 216.032V219.936C71.9976 220.976 72.0296 221.504 72.2216 222ZM70.9416 218.624V217.344C70.6696 217.664 69.5976 217.792 68.6536 217.936C67.7256 218.08 66.3176 218.48 66.3176 219.744C66.3176 220.72 67.0056 221.312 68.0296 221.312C69.1656 221.312 70.9416 220.784 70.9416 218.624ZM76.6678 221.104C76.9718 221.104 77.3878 221.104 77.5798 221.088V222C77.3238 222.016 76.9718 222.032 76.5718 222.032C75.0518 222.032 74.5398 221.632 74.5398 220.176V214.464H73.1318V213.616H74.5398V211.168H75.5958V213.616H77.6278V214.464H75.5958V219.952C75.5958 220.848 75.8198 221.104 76.6678 221.104ZM85.2303 221.104C85.5343 221.104 85.9503 221.104 86.1423 221.088V222C85.8863 222.016 85.5343 222.032 85.1343 222.032C83.6143 222.032 83.1023 221.632 83.1023 220.176V214.464H81.6943V213.616H83.1023V211.168H84.1583V213.616H86.1903V214.464H84.1583V219.952C84.1583 220.848 84.3823 221.104 85.2303 221.104ZM88.6094 214.912H88.6414C89.0414 214.128 90.0654 213.424 91.3294 213.424C93.0254 213.424 94.2894 214.432 94.2894 216.384V222H93.2334V216.816C93.2334 215.104 92.6094 214.32 91.1214 214.32C89.9054 214.32 88.6094 215.248 88.6094 217.36V222H87.5694V210.416H88.6094V214.912ZM102.132 219.52L103.204 219.68C102.788 220.912 101.732 222.208 99.5235 222.208C97.3155 222.208 95.7475 220.496 95.7475 217.808C95.7475 215.136 97.2995 213.424 99.5235 213.424C101.732 213.424 103.38 215.136 103.284 218.064H96.8355C96.8835 220 97.9555 221.312 99.5235 221.312C101.092 221.312 101.86 220.368 102.132 219.52ZM99.5235 214.32C97.9555 214.32 96.9635 215.616 96.8515 217.2H102.18C102.068 215.616 101.092 214.32 99.5235 214.32ZM114.178 219.52L115.25 219.68C114.834 220.912 113.778 222.208 111.57 222.208C109.362 222.208 107.794 220.496 107.794 217.808C107.794 215.136 109.346 213.424 111.57 213.424C113.778 213.424 115.426 215.136 115.33 218.064H108.882C108.93 220 110.002 221.312 111.57 221.312C113.138 221.312 113.906 220.368 114.178 219.52ZM111.57 214.32C110.002 214.32 109.01 215.616 108.898 217.2H114.226C114.114 215.616 113.138 214.32 111.57 214.32ZM117.874 214.896H117.906C118.322 214.112 119.33 213.424 120.626 213.424C122.338 213.424 123.602 214.432 123.602 216.384V222H122.546V216.816C122.546 215.104 121.922 214.32 120.434 214.32C119.17 214.32 117.922 215.152 117.922 217.296V222H116.882V213.616H117.874V214.896ZM128.199 221.104C128.503 221.104 128.919 221.104 129.111 221.088V222C128.855 222.016 128.503 222.032 128.103 222.032C126.583 222.032 126.071 221.632 126.071 220.176V214.464H124.663V213.616H126.071V211.168H127.127V213.616H129.159V214.464H127.127V219.952C127.127 220.848 127.351 221.104 128.199 221.104ZM130.49 210.416H131.626V211.712H130.49V210.416ZM130.538 213.616H131.578V222H130.538V213.616ZM134.499 213.616V215.216H134.531C134.979 214.064 136.035 213.424 137.315 213.424C137.555 213.424 137.843 213.456 138.003 213.488V214.512C137.875 214.496 137.539 214.464 137.251 214.464C135.715 214.464 134.547 215.504 134.547 217.744V222.016H133.507V213.616H134.499ZM144.991 219.52L146.063 219.68C145.647 220.912 144.591 222.208 142.383 222.208C140.175 222.208 138.607 220.496 138.607 217.808C138.607 215.136 140.159 213.424 142.383 213.424C144.591 213.424 146.239 215.136 146.143 218.064H139.695C139.743 220 140.815 221.312 142.383 221.312C143.951 221.312 144.719 220.368 144.991 219.52ZM142.383 214.32C140.815 214.32 139.823 215.616 139.711 217.2H145.039C144.927 215.616 143.951 214.32 142.383 214.32ZM154.974 222.192C153.742 222.192 152.574 221.6 152.126 220.56H152.094V224.944H151.054V213.616H152.046V215.104H152.078C152.542 214.048 153.71 213.424 154.974 213.424C157.182 213.424 158.734 215.12 158.734 217.808C158.734 220.496 157.182 222.192 154.974 222.192ZM154.814 214.32C153.214 214.32 152.03 215.632 152.03 217.808C152.03 220 153.214 221.312 154.814 221.312C156.51 221.312 157.646 220 157.646 217.808C157.646 215.632 156.51 214.32 154.814 214.32ZM161.265 213.616V215.216H161.297C161.745 214.064 162.801 213.424 164.081 213.424C164.321 213.424 164.609 213.456 164.769 213.488V214.512C164.641 214.496 164.305 214.464 164.016 214.464C162.481 214.464 161.312 215.504 161.312 217.744V222.016H160.273V213.616H161.265ZM169.261 213.424C171.549 213.424 173.133 215.12 173.133 217.808C173.133 220.496 171.549 222.192 169.261 222.192C166.973 222.192 165.389 220.496 165.389 217.808C165.389 215.12 166.973 213.424 169.261 213.424ZM169.261 221.312C170.909 221.312 172.061 220 172.061 217.808C172.061 215.632 170.909 214.32 169.261 214.32C167.613 214.32 166.461 215.632 166.461 217.808C166.461 220 167.613 221.312 169.261 221.312ZM178.039 213.424C179.287 213.424 180.439 214.048 180.887 215.056H180.919V210.416H181.975V222H180.967V220.528H180.935C180.503 221.536 179.319 222.192 178.039 222.192C175.847 222.192 174.295 220.496 174.295 217.808C174.295 215.12 175.847 213.424 178.039 213.424ZM178.215 221.312C179.815 221.312 180.999 220 180.999 217.808C180.999 215.632 179.815 214.32 178.215 214.32C176.503 214.32 175.367 215.632 175.367 217.808C175.367 220 176.503 221.312 178.215 221.312ZM189.547 220.736H189.515C189.115 221.504 188.091 222.192 186.811 222.192C185.083 222.192 183.835 221.184 183.835 219.248V213.616H184.875V218.816C184.875 220.528 185.499 221.312 187.003 221.312C188.251 221.312 189.499 220.48 189.499 218.336V213.616H190.555V222H189.547V220.736ZM195.837 221.312C197.469 221.312 198.125 220.08 198.397 219.28L199.501 219.456C199.117 220.624 198.093 222.192 195.837 222.192C193.597 222.192 192.029 220.496 192.029 217.808C192.029 215.12 193.613 213.424 195.853 213.424C198.109 213.424 199.021 215.04 199.293 215.648L198.285 215.984C198.061 215.536 197.485 214.32 195.853 214.32C194.237 214.32 193.101 215.632 193.101 217.808C193.101 220 194.221 221.312 195.837 221.312ZM203.683 221.104C203.987 221.104 204.403 221.104 204.595 221.088V222C204.339 222.016 203.987 222.032 203.587 222.032C202.067 222.032 201.555 221.632 201.555 220.176V214.464H200.147V213.616H201.555V211.168H202.611V213.616H204.643V214.464H202.611V219.952C202.611 220.848 202.835 221.104 203.683 221.104ZM205.975 210.416H207.111V211.712H205.975V210.416ZM206.023 213.616H207.062V222H206.023V213.616ZM212.479 213.424C214.767 213.424 216.351 215.12 216.351 217.808C216.351 220.496 214.767 222.192 212.479 222.192C210.191 222.192 208.607 220.496 208.607 217.808C208.607 215.12 210.191 213.424 212.479 213.424ZM212.479 221.312C214.127 221.312 215.279 220 215.279 217.808C215.279 215.632 214.127 214.32 212.479 214.32C210.831 214.32 209.679 215.632 209.679 217.808C209.679 220 210.831 221.312 212.479 221.312ZM218.89 214.896H218.922C219.338 214.112 220.346 213.424 221.641 213.424C223.354 213.424 224.618 214.432 224.618 216.384V222H223.562V216.816C223.562 215.104 222.938 214.32 221.45 214.32C220.186 214.32 218.938 215.152 218.938 217.296V222H217.898V213.616H218.89V214.896ZM1.952 232.616V234.216H1.984C2.432 233.064 3.488 232.424 4.768 232.424C5.008 232.424 5.296 232.456 5.456 232.488V233.512C5.328 233.496 4.992 233.464 4.704 233.464C3.168 233.464 2 234.504 2 236.744V241.016H0.96V232.616H1.952ZM12.3908 239.736H12.3588C11.9588 240.504 10.9348 241.192 9.65475 241.192C7.92675 241.192 6.67875 240.184 6.67875 238.248V232.616H7.71875V237.816C7.71875 239.528 8.34275 240.312 9.84675 240.312C11.0948 240.312 12.3428 239.48 12.3428 237.336V232.616H13.3988V241H12.3908V239.736ZM16.2489 233.896H16.2809C16.6969 233.112 17.7049 232.424 19.0009 232.424C20.7129 232.424 21.9769 233.432 21.9769 235.384V241H20.9209V235.816C20.9209 234.104 20.2969 233.32 18.8089 233.32C17.5449 233.32 16.2969 234.152 16.2969 236.296V241H15.2569V232.616H16.2489V233.896ZM29.771 234.776L28.811 234.984C28.587 233.976 27.643 233.304 26.523 233.304C25.323 233.304 24.523 233.896 24.523 234.792C24.523 235.72 25.403 235.96 26.347 236.12L27.291 236.28C28.731 236.52 29.995 236.936 29.995 238.632C29.995 240.312 28.555 241.208 26.667 241.208C24.731 241.208 23.323 240.152 23.115 238.584L24.091 238.376C24.283 239.624 25.355 240.312 26.651 240.312C27.947 240.312 28.923 239.704 28.923 238.68C28.923 237.656 28.027 237.4 26.875 237.192L25.963 237.032C24.731 236.808 23.435 236.392 23.435 234.792C23.435 233.368 24.715 232.424 26.523 232.424C28.235 232.424 29.563 233.48 29.771 234.776ZM40.7241 234.776L39.7641 234.984C39.5401 233.976 38.5961 233.304 37.4761 233.304C36.2761 233.304 35.4761 233.896 35.4761 234.792C35.4761 235.72 36.3561 235.96 37.3001 236.12L38.2441 236.28C39.6841 236.52 40.9481 236.936 40.9481 238.632C40.9481 240.312 39.5081 241.208 37.6201 241.208C35.6841 241.208 34.2761 240.152 34.0681 238.584L35.0441 238.376C35.2361 239.624 36.3081 240.312 37.6041 240.312C38.9001 240.312 39.8761 239.704 39.8761 238.68C39.8761 237.656 38.9801 237.4 37.8281 237.192L36.9161 237.032C35.6841 236.808 34.3881 236.392 34.3881 234.792C34.3881 233.368 35.6681 232.424 37.4761 232.424C39.1881 232.424 40.5161 233.48 40.7241 234.776ZM51.1019 232.424H51.0859C52.6539 232.424 53.8379 233.432 53.8379 235.384V241H52.7819V235.816C52.7819 234.104 52.2059 233.32 50.8779 233.32C49.7899 233.32 48.6379 234.024 48.6379 236.184V241H47.5819V235.816C47.5819 234.104 47.0059 233.32 45.6619 233.32C44.5419 233.32 43.4219 234.152 43.4219 236.296V241H42.3659V232.616H43.3739V233.896H43.4059C43.8059 233.096 44.7339 232.424 45.8859 232.424C47.0059 232.424 47.9179 232.952 48.3659 233.96C48.8459 233.144 49.7419 232.424 51.1019 232.424ZM59.198 232.424C61.486 232.424 63.07 234.12 63.07 236.808C63.07 239.496 61.486 241.192 59.198 241.192C56.91 241.192 55.326 239.496 55.326 236.808C55.326 234.12 56.91 232.424 59.198 232.424ZM59.198 240.312C60.846 240.312 61.998 239 61.998 236.808C61.998 234.632 60.846 233.32 59.198 233.32C57.55 233.32 56.398 234.632 56.398 236.808C56.398 239 57.55 240.312 59.198 240.312ZM68.1043 232.424C70.3923 232.424 71.9763 234.12 71.9763 236.808C71.9763 239.496 70.3923 241.192 68.1043 241.192C65.8163 241.192 64.2323 239.496 64.2323 236.808C64.2323 234.12 65.8163 232.424 68.1043 232.424ZM68.1043 240.312C69.7523 240.312 70.9043 239 70.9043 236.808C70.9043 234.632 69.7523 233.32 68.1043 233.32C66.4563 233.32 65.3043 234.632 65.3043 236.808C65.3043 239 66.4563 240.312 68.1043 240.312ZM76.1053 240.104C76.4093 240.104 76.8253 240.104 77.0173 240.088V241C76.7613 241.016 76.4093 241.032 76.0093 241.032C74.4893 241.032 73.9773 240.632 73.9773 239.176V233.464H72.5693V232.616H73.9773V230.168H75.0333V232.616H77.0653V233.464H75.0333V238.952C75.0333 239.848 75.2573 240.104 76.1053 240.104ZM79.4844 233.912H79.5164C79.9164 233.128 80.9404 232.424 82.2044 232.424C83.9004 232.424 85.1644 233.432 85.1644 235.384V241H84.1084V235.816C84.1084 234.104 83.4844 233.32 81.9964 233.32C80.7804 233.32 79.4844 234.248 79.4844 236.36V241H78.4444V229.416H79.4844V233.912ZM87.0705 229.416H88.1105V241H87.0705V229.416ZM96.8846 232.616L93.5566 241C92.4366 243.848 91.7006 244.136 90.6926 244.136C90.2446 244.136 90.0046 244.088 89.8766 244.072V243.144C89.9726 243.16 90.2126 243.208 90.5486 243.208C91.2526 243.208 91.7326 243 92.3566 241.416L92.5326 240.936L89.1406 232.616H90.3086L93.0446 239.688H93.0766L95.7486 232.616H96.8846ZM107.847 241H106.791C106.711 240.872 106.631 240.44 106.599 239.736C105.879 240.904 104.471 241.192 103.463 241.192C102.023 241.192 100.855 240.232 100.855 238.76C100.855 236.856 102.503 236.36 104.375 236.12C106.199 235.864 106.567 235.688 106.567 235.064C106.567 234.04 105.959 233.32 104.487 233.32C103.527 233.32 102.535 233.672 102.167 235.032L101.191 234.792C101.607 233.112 102.967 232.424 104.535 232.424C106.711 232.424 107.623 233.512 107.623 235.032V238.936C107.623 239.976 107.655 240.504 107.847 241ZM106.567 237.624V236.344C106.295 236.664 105.223 236.792 104.279 236.936C103.351 237.08 101.943 237.48 101.943 238.744C101.943 239.72 102.631 240.312 103.655 240.312C104.791 240.312 106.567 239.784 106.567 237.624ZM110.468 233.896H110.5C110.916 233.112 111.924 232.424 113.22 232.424C114.932 232.424 116.196 233.432 116.196 235.384V241H115.14V235.816C115.14 234.104 114.516 233.32 113.028 233.32C111.764 233.32 110.516 234.152 110.516 236.296V241H109.476V232.616H110.468V233.896ZM121.414 232.424C122.662 232.424 123.814 233.048 124.262 234.056H124.294V229.416H125.35V241H124.342V239.528H124.31C123.878 240.536 122.694 241.192 121.414 241.192C119.222 241.192 117.67 239.496 117.67 236.808C117.67 234.12 119.222 232.424 121.414 232.424ZM121.59 240.312C123.19 240.312 124.374 239 124.374 236.808C124.374 234.632 123.19 233.32 121.59 233.32C119.878 233.32 118.742 234.632 118.742 236.808C118.742 239 119.878 240.312 121.59 240.312ZM133.993 240.312C135.625 240.312 136.281 239.08 136.553 238.28L137.657 238.456C137.273 239.624 136.249 241.192 133.993 241.192C131.753 241.192 130.185 239.496 130.185 236.808C130.185 234.12 131.769 232.424 134.009 232.424C136.265 232.424 137.177 234.04 137.449 234.648L136.441 234.984C136.217 234.536 135.641 233.32 134.009 233.32C132.393 233.32 131.257 234.632 131.257 236.808C131.257 239 132.377 240.312 133.993 240.312ZM145.472 241H144.416C144.336 240.872 144.256 240.44 144.224 239.736C143.504 240.904 142.096 241.192 141.088 241.192C139.648 241.192 138.48 240.232 138.48 238.76C138.48 236.856 140.128 236.36 142 236.12C143.824 235.864 144.192 235.688 144.192 235.064C144.192 234.04 143.584 233.32 142.112 233.32C141.152 233.32 140.16 233.672 139.792 235.032L138.816 234.792C139.232 233.112 140.592 232.424 142.16 232.424C144.336 232.424 145.248 233.512 145.248 235.032V238.936C145.248 239.976 145.28 240.504 145.472 241ZM144.192 237.624V236.344C143.92 236.664 142.848 236.792 141.904 236.936C140.976 237.08 139.568 237.48 139.568 238.744C139.568 239.72 140.256 240.312 141.28 240.312C142.416 240.312 144.192 239.784 144.192 237.624ZM148.093 233.896H148.125C148.541 233.112 149.549 232.424 150.845 232.424C152.557 232.424 153.821 233.432 153.821 235.384V241H152.765V235.816C152.765 234.104 152.141 233.32 150.653 233.32C149.389 233.32 148.141 234.152 148.141 236.296V241H147.101V232.616H148.093V233.896ZM160.078 233.912H160.11C160.51 233.128 161.534 232.424 162.798 232.424C164.494 232.424 165.758 233.432 165.758 235.384V241H164.702V235.816C164.702 234.104 164.078 233.32 162.59 233.32C161.374 233.32 160.078 234.248 160.078 236.36V241H159.038V229.416H160.078V233.912ZM173.6 238.52L174.672 238.68C174.256 239.912 173.2 241.208 170.992 241.208C168.784 241.208 167.216 239.496 167.216 236.808C167.216 234.136 168.768 232.424 170.992 232.424C173.2 232.424 174.848 234.136 174.752 237.064H168.304C168.352 239 169.424 240.312 170.992 240.312C172.56 240.312 173.328 239.368 173.6 238.52ZM170.992 233.32C169.424 233.32 168.432 234.616 168.32 236.2H173.648C173.536 234.616 172.56 233.32 170.992 233.32ZM176.352 229.416H177.392V241H176.352V229.416ZM183.302 241.192C182.07 241.192 180.902 240.6 180.454 239.56H180.422V243.944H179.382V232.616H180.374V234.104H180.406C180.87 233.048 182.038 232.424 183.302 232.424C185.51 232.424 187.062 234.12 187.062 236.808C187.062 239.496 185.51 241.192 183.302 241.192ZM183.142 233.32C181.542 233.32 180.358 234.632 180.358 236.808C180.358 239 181.542 240.312 183.142 240.312C184.838 240.312 185.974 239 185.974 236.808C185.974 234.632 184.838 233.32 183.142 233.32ZM203.624 232.616L200.776 241H199.624L197.336 234.072H197.304L195.032 241H193.928L191.048 232.616H192.232L194.504 239.688H194.536L196.776 232.616H197.976L200.216 239.688H200.248L202.504 232.616H203.624ZM204.615 229.416H205.751V230.712H204.615V229.416ZM204.663 232.616H205.703V241H204.663V232.616ZM210.496 240.104C210.8 240.104 211.216 240.104 211.408 240.088V241C211.152 241.016 210.8 241.032 210.4 241.032C208.88 241.032 208.368 240.632 208.368 239.176V233.464H206.96V232.616H208.368V230.168H209.424V232.616H211.456V233.464H209.424V238.952C209.424 239.848 209.648 240.104 210.496 240.104ZM213.875 233.912H213.907C214.307 233.128 215.331 232.424 216.595 232.424C218.291 232.424 219.555 233.432 219.555 235.384V241H218.499V235.816C218.499 234.104 217.875 233.32 216.387 233.32C215.171 233.32 213.875 234.248 213.875 236.36V241H212.835V229.416H213.875V233.912ZM6.944 257.52L8.016 257.68C7.6 258.912 6.544 260.208 4.336 260.208C2.128 260.208 0.56 258.496 0.56 255.808C0.56 253.136 2.112 251.424 4.336 251.424C6.544 251.424 8.192 253.136 8.096 256.064H1.648C1.696 258 2.768 259.312 4.336 259.312C5.904 259.312 6.672 258.368 6.944 257.52ZM4.336 252.32C2.768 252.32 1.776 253.616 1.664 255.2H6.992C6.88 253.616 5.904 252.32 4.336 252.32ZM12.8863 260H11.7503L8.47025 251.616H9.63825L12.3263 258.8H12.3583L15.0783 251.616H16.2143L12.8863 260ZM22.9596 257.52L24.0316 257.68C23.6156 258.912 22.5596 260.208 20.3516 260.208C18.1436 260.208 16.5756 258.496 16.5756 255.808C16.5756 253.136 18.1276 251.424 20.3516 251.424C22.5596 251.424 24.2076 253.136 24.1116 256.064H17.6636C17.7116 258 18.7836 259.312 20.3516 259.312C21.9196 259.312 22.6876 258.368 22.9596 257.52ZM20.3516 252.32C18.7836 252.32 17.7916 253.616 17.6796 255.2H23.0076C22.8956 253.616 21.9196 252.32 20.3516 252.32ZM26.6551 251.616V253.216H26.6871C27.1351 252.064 28.1911 251.424 29.4711 251.424C29.7111 251.424 29.9991 251.456 30.1591 251.488V252.512C30.0311 252.496 29.6951 252.464 29.4071 252.464C27.8711 252.464 26.7031 253.504 26.7031 255.744V260.016H25.6631V251.616H26.6551ZM38.4003 251.616L35.0723 260C33.9523 262.848 33.2163 263.136 32.2083 263.136C31.7603 263.136 31.5203 263.088 31.3923 263.072V262.144C31.4883 262.16 31.7283 262.208 32.0643 262.208C32.7682 262.208 33.2483 262 33.8723 260.416L34.0483 259.936L30.6562 251.616H31.8243L34.5603 258.688H34.5923L37.2643 251.616H38.4003ZM42.3709 259.104C42.6749 259.104 43.0909 259.104 43.2829 259.088V260C43.0269 260.016 42.6749 260.032 42.2749 260.032C40.7549 260.032 40.2429 259.632 40.2429 258.176V252.464H38.8349V251.616H40.2429V249.168H41.2989V251.616H43.3309V252.464H41.2989V257.952C41.2989 258.848 41.5229 259.104 42.3709 259.104ZM45.75 252.912H45.782C46.182 252.128 47.206 251.424 48.47 251.424C50.166 251.424 51.43 252.432 51.43 254.384V260H50.374V254.816C50.374 253.104 49.75 252.32 48.262 252.32C47.046 252.32 45.75 253.248 45.75 255.36V260H44.71V248.416H45.75V252.912ZM53.2401 248.416H54.3761V249.712H53.2401V248.416ZM53.2881 251.616H54.3281V260H53.2881V251.616ZM57.2489 252.896H57.2809C57.6969 252.112 58.7049 251.424 60.0009 251.424C61.7129 251.424 62.9769 252.432 62.9769 254.384V260H61.9209V254.816C61.9209 253.104 61.2969 252.32 59.8089 252.32C58.5449 252.32 57.2969 253.152 57.2969 255.296V260H56.2569V251.616H57.2489V252.896ZM71.971 251.616V259.456C71.971 262.064 70.403 263.136 68.243 263.136C66.499 263.136 65.123 262.384 64.611 260.784L65.603 260.512C65.987 261.776 66.931 262.272 68.243 262.272C69.875 262.272 70.915 261.424 70.915 259.392V257.984H70.883C70.451 258.96 69.331 259.536 68.115 259.536C65.971 259.536 64.451 257.936 64.451 255.488C64.451 253.008 65.971 251.424 68.115 251.424C69.363 251.424 70.483 252.032 70.931 253.024H70.963V251.616H71.971ZM68.291 258.672C69.843 258.672 70.995 257.392 70.995 255.488C70.995 253.584 69.843 252.32 68.291 252.32C66.627 252.32 65.523 253.584 65.523 255.488C65.523 257.392 66.627 258.672 68.291 258.672ZM83.9628 251.616L80.6348 260C79.5148 262.848 78.7788 263.136 77.7708 263.136C77.3228 263.136 77.0828 263.088 76.9548 263.072V262.144C77.0508 262.16 77.2908 262.208 77.6268 262.208C78.3307 262.208 78.8108 262 79.4348 260.416L79.6108 259.936L76.2188 251.616H77.3868L80.1228 258.688H80.1548L82.8268 251.616H83.9628ZM88.2761 251.424C90.5641 251.424 92.1481 253.12 92.1481 255.808C92.1481 258.496 90.5641 260.192 88.2761 260.192C85.9881 260.192 84.4041 258.496 84.4041 255.808C84.4041 253.12 85.9881 251.424 88.2761 251.424ZM88.2761 259.312C89.9241 259.312 91.0761 258 91.0761 255.808C91.0761 253.632 89.9241 252.32 88.2761 252.32C86.6281 252.32 85.4761 253.632 85.4761 255.808C85.4761 258 86.6281 259.312 88.2761 259.312ZM99.4064 258.736H99.3744C98.9744 259.504 97.9504 260.192 96.6704 260.192C94.9424 260.192 93.6944 259.184 93.6944 257.248V251.616H94.7344V256.816C94.7344 258.528 95.3584 259.312 96.8624 259.312C98.1104 259.312 99.3584 258.48 99.3584 256.336V251.616H100.414V260H99.4064V258.736ZM106.624 252.896H106.656C107.072 252.112 108.08 251.424 109.376 251.424C111.088 251.424 112.352 252.432 112.352 254.384V260H111.296V254.816C111.296 253.104 110.672 252.32 109.184 252.32C107.92 252.32 106.672 253.152 106.672 255.296V260H105.632V251.616H106.624V252.896ZM120.194 257.52L121.266 257.68C120.85 258.912 119.794 260.208 117.586 260.208C115.378 260.208 113.81 258.496 113.81 255.808C113.81 253.136 115.362 251.424 117.586 251.424C119.794 251.424 121.442 253.136 121.346 256.064H114.898C114.946 258 116.018 259.312 117.586 259.312C119.154 259.312 119.922 258.368 120.194 257.52ZM117.586 252.32C116.018 252.32 115.026 253.616 114.914 255.2H120.242C120.13 253.616 119.154 252.32 117.586 252.32ZM128.882 257.52L129.954 257.68C129.538 258.912 128.482 260.208 126.274 260.208C124.066 260.208 122.498 258.496 122.498 255.808C122.498 253.136 124.049 251.424 126.274 251.424C128.482 251.424 130.13 253.136 130.034 256.064H123.586C123.634 258 124.706 259.312 126.274 259.312C127.842 259.312 128.61 258.368 128.882 257.52ZM126.274 252.32C124.706 252.32 123.714 253.616 123.602 255.2H128.93C128.818 253.616 127.842 252.32 126.274 252.32ZM134.945 251.424C136.193 251.424 137.345 252.048 137.793 253.056H137.825V248.416H138.881V260H137.873V258.528H137.841C137.409 259.536 136.225 260.192 134.945 260.192C132.753 260.192 131.201 258.496 131.201 255.808C131.201 253.12 132.753 251.424 134.945 251.424ZM135.121 259.312C136.721 259.312 137.905 258 137.905 255.808C137.905 253.632 136.721 252.32 135.121 252.32C133.409 252.32 132.273 253.632 132.273 255.808C132.273 258 133.409 259.312 135.121 259.312ZM146.965 259.104C147.269 259.104 147.685 259.104 147.877 259.088V260C147.621 260.016 147.269 260.032 146.869 260.032C145.349 260.032 144.837 259.632 144.837 258.176V252.464H143.429V251.616H144.837V249.168H145.893V251.616H147.925V252.464H145.893V257.952C145.893 258.848 146.117 259.104 146.965 259.104ZM150.344 252.912H150.376C150.776 252.128 151.8 251.424 153.064 251.424C154.76 251.424 156.024 252.432 156.024 254.384V260H154.968V254.816C154.968 253.104 154.344 252.32 152.856 252.32C151.64 252.32 150.344 253.248 150.344 255.36V260H149.304V248.416H150.344V252.912ZM158.874 251.616V253.216H158.906C159.354 252.064 160.41 251.424 161.69 251.424C161.93 251.424 162.218 251.456 162.378 251.488V252.512C162.25 252.496 161.914 252.464 161.626 252.464C160.09 252.464 158.922 253.504 158.922 255.744V260.016H157.882V251.616H158.874ZM166.87 251.424C169.158 251.424 170.742 253.12 170.742 255.808C170.742 258.496 169.158 260.192 166.87 260.192C164.582 260.192 162.998 258.496 162.998 255.808C162.998 253.12 164.582 251.424 166.87 251.424ZM166.87 259.312C168.518 259.312 169.67 258 169.67 255.808C169.67 253.632 168.518 252.32 166.87 252.32C165.222 252.32 164.07 253.632 164.07 255.808C164.07 258 165.222 259.312 166.87 259.312ZM178 258.736H177.968C177.568 259.504 176.544 260.192 175.264 260.192C173.536 260.192 172.288 259.184 172.288 257.248V251.616H173.328V256.816C173.328 258.528 173.952 259.312 175.456 259.312C176.704 259.312 177.952 258.48 177.952 256.336V251.616H179.008V260H178V258.736ZM188.002 251.616V259.456C188.002 262.064 186.434 263.136 184.274 263.136C182.53 263.136 181.154 262.384 180.642 260.784L181.634 260.512C182.018 261.776 182.962 262.272 184.274 262.272C185.906 262.272 186.946 261.424 186.946 259.392V257.984H186.914C186.482 258.96 185.362 259.536 184.146 259.536C182.002 259.536 180.482 257.936 180.482 255.488C180.482 253.008 182.002 251.424 184.146 251.424C185.394 251.424 186.514 252.032 186.962 253.024H186.994V251.616H188.002ZM184.322 258.672C185.874 258.672 187.026 257.392 187.026 255.488C187.026 253.584 185.874 252.32 184.322 252.32C182.658 252.32 181.554 253.584 181.554 255.488C181.554 257.392 182.658 258.672 184.322 258.672ZM190.891 252.912H190.923C191.323 252.128 192.347 251.424 193.611 251.424C195.307 251.424 196.571 252.432 196.571 254.384V260H195.515V254.816C195.515 253.104 194.891 252.32 193.403 252.32C192.187 252.32 190.891 253.248 190.891 255.36V260H189.851V248.416H190.891V252.912ZM4.88 279.192C3.648 279.192 2.48 278.6 2.032 277.56H2V281.944H0.96V270.616H1.952V272.104H1.984C2.448 271.048 3.616 270.424 4.88 270.424C7.088 270.424 8.64 272.12 8.64 274.808C8.64 277.496 7.088 279.192 4.88 279.192ZM4.72 271.32C3.12 271.32 1.936 272.632 1.936 274.808C1.936 277 3.12 278.312 4.72 278.312C6.416 278.312 7.552 277 7.552 274.808C7.552 272.632 6.416 271.32 4.72 271.32ZM11.1708 270.616V272.216H11.2028C11.6508 271.064 12.7068 270.424 13.9868 270.424C14.2268 270.424 14.5148 270.456 14.6748 270.488V271.512C14.5468 271.496 14.2108 271.464 13.9227 271.464C12.3868 271.464 11.2188 272.504 11.2188 274.744V279.016H10.1788V270.616H11.1708ZM21.6628 276.52L22.7348 276.68C22.3188 277.912 21.2628 279.208 19.0548 279.208C16.8468 279.208 15.2788 277.496 15.2788 274.808C15.2788 272.136 16.8307 270.424 19.0548 270.424C21.2628 270.424 22.9108 272.136 22.8148 275.064H16.3668C16.4148 277 17.4868 278.312 19.0548 278.312C20.6228 278.312 21.3908 277.368 21.6628 276.52ZM19.0548 271.32C17.4868 271.32 16.4948 272.616 16.3828 274.2H21.7108C21.5988 272.616 20.6228 271.32 19.0548 271.32ZM24.4783 274.856V273.896H28.8303V274.856H24.4783ZM34.8019 279.192C33.5699 279.192 32.4019 278.6 31.9539 277.56H31.9219V281.944H30.8819V270.616H31.8739V272.104H31.9059C32.3699 271.048 33.5379 270.424 34.8019 270.424C37.0099 270.424 38.5619 272.12 38.5619 274.808C38.5619 277.496 37.0099 279.192 34.8019 279.192ZM34.6419 271.32C33.0419 271.32 31.8579 272.632 31.8579 274.808C31.8579 277 33.0419 278.312 34.6419 278.312C36.3379 278.312 37.4739 277 37.4739 274.808C37.4739 272.632 36.3379 271.32 34.6419 271.32ZM41.0926 270.616V272.216H41.1246C41.5726 271.064 42.6286 270.424 43.9086 270.424C44.1486 270.424 44.4366 270.456 44.5966 270.488V271.512C44.4686 271.496 44.1326 271.464 43.8446 271.464C42.3086 271.464 41.1406 272.504 41.1406 274.744V279.016H40.1006V270.616H41.0926ZM49.0886 270.424C51.3766 270.424 52.9606 272.12 52.9606 274.808C52.9606 277.496 51.3766 279.192 49.0886 279.192C46.8006 279.192 45.2166 277.496 45.2166 274.808C45.2166 272.12 46.8006 270.424 49.0886 270.424ZM49.0886 278.312C50.7366 278.312 51.8886 277 51.8886 274.808C51.8886 272.632 50.7366 271.32 49.0886 271.32C47.4406 271.32 46.2886 272.632 46.2886 274.808C46.2886 277 47.4406 278.312 49.0886 278.312ZM57.8669 270.424C59.1149 270.424 60.2669 271.048 60.7149 272.056H60.7469V267.416H61.8029V279H60.7949V277.528H60.7629C60.3309 278.536 59.1469 279.192 57.8669 279.192C55.6749 279.192 54.1229 277.496 54.1229 274.808C54.1229 272.12 55.6749 270.424 57.8669 270.424ZM58.0429 278.312C59.6429 278.312 60.8269 277 60.8269 274.808C60.8269 272.632 59.6429 271.32 58.0429 271.32C56.3309 271.32 55.1949 272.632 55.1949 274.808C55.1949 277 56.3309 278.312 58.0429 278.312ZM69.3751 277.736H69.3431C68.9431 278.504 67.9191 279.192 66.6391 279.192C64.9111 279.192 63.6631 278.184 63.6631 276.248V270.616H64.7031V275.816C64.7031 277.528 65.3271 278.312 66.8311 278.312C68.0791 278.312 69.3271 277.48 69.3271 275.336V270.616H70.3831V279H69.3751V277.736ZM75.6653 278.312C77.2973 278.312 77.9533 277.08 78.2253 276.28L79.3293 276.456C78.9453 277.624 77.9213 279.192 75.6653 279.192C73.4253 279.192 71.8573 277.496 71.8573 274.808C71.8573 272.12 73.4413 270.424 75.6813 270.424C77.9373 270.424 78.8493 272.04 79.1213 272.648L78.1133 272.984C77.8893 272.536 77.3133 271.32 75.6813 271.32C74.0653 271.32 72.9293 272.632 72.9293 274.808C72.9293 277 74.0493 278.312 75.6653 278.312ZM83.5115 278.104C83.8155 278.104 84.2315 278.104 84.4235 278.088V279C84.1675 279.016 83.8155 279.032 83.4155 279.032C81.8955 279.032 81.3835 278.632 81.3835 277.176V271.464H79.9755V270.616H81.3835V268.168H82.4395V270.616H84.4715V271.464H82.4395V276.952C82.4395 277.848 82.6635 278.104 83.5115 278.104ZM85.8026 267.416H86.9386V268.712H85.8026V267.416ZM85.8506 270.616H86.8906V279H85.8506V270.616ZM92.3074 270.424C94.5954 270.424 96.1794 272.12 96.1794 274.808C96.1794 277.496 94.5954 279.192 92.3074 279.192C90.0194 279.192 88.4354 277.496 88.4354 274.808C88.4354 272.12 90.0194 270.424 92.3074 270.424ZM92.3074 278.312C93.9554 278.312 95.1074 277 95.1074 274.808C95.1074 272.632 93.9554 271.32 92.3074 271.32C90.6594 271.32 89.5074 272.632 89.5074 274.808C89.5074 277 90.6594 278.312 92.3074 278.312ZM98.7176 271.896H98.7496C99.1656 271.112 100.174 270.424 101.47 270.424C103.182 270.424 104.446 271.432 104.446 273.384V279H103.39V273.816C103.39 272.104 102.766 271.32 101.278 271.32C100.014 271.32 98.7656 272.152 98.7656 274.296V279H97.7256V270.616H98.7176V271.896ZM107.856 277.544V278.792C107.856 280.616 107.424 281.24 106.432 281.256V280.68C106.928 280.648 107.152 280.264 107.152 279H106.432V277.544H107.856ZM116.329 268.136C115.705 268.136 115.049 268.232 115.049 269.32V270.616H117.081V271.464H115.049V279.016H113.993V271.464H112.585V270.616H113.993V269.224C113.993 267.64 115.017 267.24 116.185 267.24C116.633 267.24 117.129 267.288 117.337 267.336V268.216C117.161 268.184 116.617 268.136 116.329 268.136ZM118.553 267.416H119.689V268.712H118.553V267.416ZM118.601 270.616H119.641V279H118.601V270.616ZM121.617 267.416H122.657V279H121.617V267.416ZM133.368 270.424H133.352C134.92 270.424 136.104 271.432 136.104 273.384V279H135.048V273.816C135.048 272.104 134.472 271.32 133.144 271.32C132.056 271.32 130.904 272.024 130.904 274.184V279H129.848V273.816C129.848 272.104 129.272 271.32 127.928 271.32C126.808 271.32 125.688 272.152 125.688 274.296V279H124.632V270.616H125.64V271.896H125.672C126.072 271.096 127 270.424 128.152 270.424C129.272 270.424 130.184 270.952 130.632 271.96C131.112 271.144 132.008 270.424 133.368 270.424ZM137.928 267.416H139.064V268.712H137.928V267.416ZM137.976 270.616H139.016V279H137.976V270.616ZM141.936 271.896H141.968C142.384 271.112 143.392 270.424 144.688 270.424C146.4 270.424 147.664 271.432 147.664 273.384V279H146.608V273.816C146.608 272.104 145.984 271.32 144.496 271.32C143.232 271.32 141.984 272.152 141.984 274.296V279H140.944V270.616H141.936V271.896ZM156.659 270.616V278.456C156.659 281.064 155.091 282.136 152.931 282.136C151.187 282.136 149.811 281.384 149.299 279.784L150.291 279.512C150.674 280.776 151.619 281.272 152.931 281.272C154.563 281.272 155.603 280.424 155.603 278.392V276.984H155.571C155.139 277.96 154.019 278.536 152.803 278.536C150.659 278.536 149.139 276.936 149.139 274.488C149.139 272.008 150.659 270.424 152.803 270.424C154.051 270.424 155.171 271.032 155.619 272.024H155.651V270.616H156.659ZM152.979 277.672C154.531 277.672 155.683 276.392 155.683 274.488C155.683 272.584 154.531 271.32 152.979 271.32C151.315 271.32 150.211 272.584 150.211 274.488C150.211 276.392 151.315 277.672 152.979 277.672ZM160.059 277.544V278.792C160.059 280.616 159.627 281.24 158.635 281.256V280.68C159.131 280.648 159.355 280.264 159.355 279H158.635V277.544H160.059ZM171.956 279H170.9C170.82 278.872 170.74 278.44 170.708 277.736C169.988 278.904 168.58 279.192 167.572 279.192C166.132 279.192 164.964 278.232 164.964 276.76C164.964 274.856 166.612 274.36 168.484 274.12C170.308 273.864 170.676 273.688 170.676 273.064C170.676 272.04 170.068 271.32 168.596 271.32C167.636 271.32 166.644 271.672 166.276 273.032L165.3 272.792C165.716 271.112 167.076 270.424 168.644 270.424C170.82 270.424 171.732 271.512 171.732 273.032V276.936C171.732 277.976 171.764 278.504 171.956 279ZM170.676 275.624V274.344C170.404 274.664 169.332 274.792 168.388 274.936C167.46 275.08 166.052 275.48 166.052 276.744C166.052 277.72 166.74 278.312 167.764 278.312C168.9 278.312 170.676 277.784 170.676 275.624ZM174.577 271.896H174.609C175.025 271.112 176.033 270.424 177.329 270.424C179.041 270.424 180.305 271.432 180.305 273.384V279H179.249V273.816C179.249 272.104 178.625 271.32 177.137 271.32C175.873 271.32 174.625 272.152 174.625 274.296V279H173.585V270.616H174.577V271.896ZM185.523 270.424C186.771 270.424 187.923 271.048 188.371 272.056H188.403V267.416H189.459V279H188.451V277.528H188.419C187.987 278.536 186.803 279.192 185.523 279.192C183.331 279.192 181.779 277.496 181.779 274.808C181.779 272.12 183.331 270.424 185.523 270.424ZM185.699 278.312C187.299 278.312 188.483 277 188.483 274.808C188.483 272.632 187.299 271.32 185.699 271.32C183.987 271.32 182.851 272.632 182.851 274.808C182.851 277 183.987 278.312 185.699 278.312ZM200.663 276.52L201.735 276.68C201.319 277.912 200.263 279.208 198.055 279.208C195.847 279.208 194.279 277.496 194.279 274.808C194.279 272.136 195.831 270.424 198.055 270.424C200.263 270.424 201.911 272.136 201.815 275.064H195.367C195.415 277 196.487 278.312 198.055 278.312C199.623 278.312 200.391 277.368 200.663 276.52ZM198.055 271.32C196.487 271.32 195.495 272.616 195.383 274.2H200.711C200.599 272.616 199.623 271.32 198.055 271.32ZM206.726 270.424C207.974 270.424 209.126 271.048 209.574 272.056H209.606V267.416H210.662V279H209.654V277.528H209.622C209.19 278.536 208.006 279.192 206.726 279.192C204.534 279.192 202.982 277.496 202.982 274.808C202.982 272.12 204.534 270.424 206.726 270.424ZM206.902 278.312C208.502 278.312 209.686 277 209.686 274.808C209.686 272.632 208.502 271.32 206.902 271.32C205.19 271.32 204.054 272.632 204.054 274.808C204.054 277 205.19 278.312 206.902 278.312ZM212.475 267.416H213.611V268.712H212.475V267.416ZM212.523 270.616H213.562V279H212.523V270.616ZM218.355 278.104C218.659 278.104 219.075 278.104 219.267 278.088V279C219.011 279.016 218.659 279.032 218.259 279.032C216.739 279.032 216.227 278.632 216.227 277.176V271.464H214.819V270.616H216.227V268.168H217.283V270.616H219.315V271.464H217.283V276.952C217.283 277.848 217.507 278.104 218.355 278.104ZM220.646 267.416H221.782V268.712H220.646V267.416ZM220.694 270.616H221.734V279H220.694V270.616ZM224.655 271.896H224.687C225.103 271.112 226.111 270.424 227.407 270.424C229.119 270.424 230.383 271.432 230.383 273.384V279H229.327V273.816C229.327 272.104 228.703 271.32 227.215 271.32C225.951 271.32 224.703 272.152 224.703 274.296V279H223.663V270.616H224.655V271.896ZM239.377 270.616V278.456C239.377 281.064 237.809 282.136 235.649 282.136C233.905 282.136 232.529 281.384 232.017 279.784L233.009 279.512C233.393 280.776 234.337 281.272 235.649 281.272C237.281 281.272 238.321 280.424 238.321 278.392V276.984H238.289C237.857 277.96 236.737 278.536 235.521 278.536C233.377 278.536 231.857 276.936 231.857 274.488C231.857 272.008 233.377 270.424 235.521 270.424C236.769 270.424 237.889 271.032 238.337 272.024H238.369V270.616H239.377ZM235.697 277.672C237.249 277.672 238.401 276.392 238.401 274.488C238.401 272.584 237.249 271.32 235.697 271.32C234.033 271.32 232.929 272.584 232.929 274.488C232.929 276.392 234.033 277.672 235.697 277.672ZM241.354 277.544H242.778V279H241.354V277.544Z" fill="white"/>
<path d="M0.868 7.008H10.724C15.484 7.008 18.284 9.5 18.284 13.756C18.284 17.984 15.484 20.476 10.724 20.476H6.188V27H0.868V7.008ZM6.188 16.388H9.772C11.816 16.388 12.852 15.38 12.852 13.756C12.852 12.104 11.816 11.096 9.772 11.096H6.188V16.388ZM31.8885 27L28.1365 20.252H25.0005V27H19.6805V7.008H29.9285C34.6885 7.008 37.4885 9.472 37.4885 13.644C37.4885 16.584 36.1165 18.684 33.5965 19.636L38.0765 27H31.8885ZM25.0005 16.192H29.0325C31.0485 16.192 32.0845 15.212 32.0845 13.644C32.0845 12.076 31.0485 11.096 29.0325 11.096H25.0005V16.192ZM48.7872 6.56C54.6672 6.56 58.9512 10.34 58.9512 17.004C58.9512 23.696 54.6672 27.448 48.7872 27.448C42.8792 27.448 38.5952 23.696 38.5952 17.004C38.5952 10.34 42.8792 6.56 48.7872 6.56ZM48.7872 23.248C51.3352 23.248 53.5472 21.624 53.5472 17.004C53.5472 12.412 51.3352 10.788 48.7872 10.788C46.2112 10.788 43.9992 12.412 43.9992 17.004C43.9992 21.624 46.2112 23.248 48.7872 23.248ZM60.3953 7.008H68.6553C74.8153 7.008 79.1273 10.004 79.1273 17.004C79.1273 24.032 74.8153 27 68.6553 27H60.3953V7.008ZM65.7153 22.94H67.8153C71.4833 22.94 73.7233 21.624 73.7233 17.004C73.7233 12.412 71.4833 11.096 67.8153 11.096H65.7153V22.94ZM98.579 7.008V19.636C98.579 24.984 94.687 27.448 89.591 27.448C84.467 27.448 80.575 24.984 80.575 19.636V7.008H85.895V19.16C85.895 21.932 87.183 23.248 89.591 23.248C91.971 23.248 93.259 21.932 93.259 19.16V7.008H98.579ZM114.233 19.356L119.609 19.832C118.881 24.06 115.409 27.448 110.061 27.448C104.209 27.448 100.037 23.668 100.037 17.004C100.037 10.368 104.209 6.588 110.061 6.588C115.185 6.588 118.545 9.752 119.413 13.224L114.093 13.868C113.561 12.132 112.161 10.788 110.061 10.788C107.709 10.788 105.441 12.412 105.441 17.004C105.441 21.624 107.709 23.248 110.061 23.248C112.329 23.248 113.785 21.708 114.233 19.356ZM137.717 11.404H131.501V27H126.181V11.404H119.937V7.008H137.717V11.404ZM138.955 27V7.008H144.275V27H138.955ZM155.92 6.56C161.8 6.56 166.084 10.34 166.084 17.004C166.084 23.696 161.8 27.448 155.92 27.448C150.012 27.448 145.728 23.696 145.728 17.004C145.728 10.34 150.012 6.56 155.92 6.56ZM155.92 23.248C158.468 23.248 160.68 21.624 160.68 17.004C160.68 12.412 158.468 10.788 155.92 10.788C153.344 10.788 151.132 12.412 151.132 17.004C151.132 21.624 153.344 23.248 155.92 23.248ZM185.812 27H179.848L172.484 13.98H172.372V27H167.528V7.008H173.632L180.856 19.748H180.968V7.008H185.812V27ZM17.388 45.748L12.292 46.084C12.068 44.404 10.92 43.396 8.82 43.396C7.056 43.396 5.936 44.236 5.936 45.328C5.936 46.42 6.944 46.784 8.344 47.12L11.48 47.904C14.616 48.716 18.032 49.556 18.032 54.288C18.032 58.656 14.028 60.448 9.38 60.448C4.452 60.448 0.56 58.18 0.112 53.784L5.376 53.252C5.572 55.576 7.28 56.556 9.436 56.556C11.228 56.556 12.6 55.828 12.6 54.484C12.6 53.14 11.592 52.776 9.66 52.272L6.776 51.516C3.892 50.732 0.728 49.836 0.728 45.692C0.728 41.632 4.34 39.56 9.016 39.56C13.496 39.56 16.744 41.716 17.388 45.748ZM24.8098 47.848H34.1898V51.74H24.8098V55.828H34.7218V60H19.4618V40.008H34.7218V44.096H24.8098V47.848ZM48.4041 60L44.6521 53.252H41.5161V60H36.1961V40.008H46.4441C51.2041 40.008 54.0041 42.472 54.0041 46.644C54.0041 49.584 52.6321 51.684 50.1121 52.636L54.5921 60H48.4041ZM41.5161 49.192H45.5481C47.5641 49.192 48.6001 48.212 48.6001 46.644C48.6001 45.076 47.5641 44.096 45.5481 44.096H41.5161V49.192ZM74.1945 40.008L67.2225 60H60.7545L53.8385 40.008H59.4665L64.0025 54.596H64.1145L68.6225 40.008H74.1945ZM75.0523 60V40.008H80.3723V60H75.0523ZM96.0216 52.356L101.398 52.832C100.67 57.06 97.1976 60.448 91.8496 60.448C85.9976 60.448 81.8256 56.668 81.8256 50.004C81.8256 43.368 85.9976 39.588 91.8496 39.588C96.9736 39.588 100.334 42.752 101.202 46.224L95.8816 46.868C95.3496 45.132 93.9496 43.788 91.8496 43.788C89.4976 43.788 87.2296 45.412 87.2296 50.004C87.2296 54.624 89.4976 56.248 91.8496 56.248C94.1176 56.248 95.5736 54.708 96.0216 52.356ZM108.017 47.848H117.397V51.74H108.017V55.828H117.929V60H102.669V40.008H117.929V44.096H108.017V47.848ZM135.923 45.748L130.827 46.084C130.603 44.404 129.455 43.396 127.355 43.396C125.591 43.396 124.471 44.236 124.471 45.328C124.471 46.42 125.479 46.784 126.879 47.12L130.015 47.904C133.151 48.716 136.567 49.556 136.567 54.288C136.567 58.656 132.563 60.448 127.915 60.448C122.987 60.448 119.095 58.18 118.647 53.784L123.911 53.252C124.107 55.576 125.815 56.556 127.971 56.556C129.763 56.556 131.135 55.828 131.135 54.484C131.135 53.14 130.127 52.776 128.195 52.272L125.311 51.516C122.427 50.732 119.263 49.836 119.263 45.692C119.263 41.632 122.875 39.56 127.551 39.56C132.031 39.56 135.279 41.716 135.923 45.748Z" fill="white"/>
</svg>
