<svg width="255" height="188" viewBox="0 0 255 188" fill="none" xmlns="http://www.w3.org/2000/svg">
<path d="M9.648 96.576L5.504 103.408V108H4.384V103.408L0.24 96.576H1.536L4.96 102.416L8.384 96.576H9.648ZM12.7761 99.424C15.0641 99.424 16.6481 101.12 16.6481 103.808C16.6481 106.496 15.0641 108.192 12.7761 108.192C10.4881 108.192 8.90413 106.496 8.90413 103.808C8.90413 101.12 10.4881 99.424 12.7761 99.424ZM12.7761 107.312C14.4241 107.312 15.5761 106 15.5761 103.808C15.5761 101.632 14.4241 100.32 12.7761 100.32C11.1281 100.32 9.97613 101.632 9.97613 103.808C9.97613 106 11.1281 107.312 12.7761 107.312ZM23.9064 106.736H23.8744C23.4744 107.504 22.4504 108.192 21.1704 108.192C19.4424 108.192 18.1944 107.184 18.1944 105.248V99.616H19.2344V104.816C19.2344 106.528 19.8584 107.312 21.3624 107.312C22.6104 107.312 23.8584 106.48 23.8584 104.336V99.616H24.9144V108H23.9064V106.736ZM33.5559 107.312C35.1879 107.312 35.8439 106.08 36.1159 105.28L37.2199 105.456C36.8359 106.624 35.8119 108.192 33.5559 108.192C31.3159 108.192 29.7479 106.496 29.7479 103.808C29.7479 101.12 31.3319 99.424 33.5719 99.424C35.8279 99.424 36.7399 101.04 37.0119 101.648L36.0039 101.984C35.7799 101.536 35.2039 100.32 33.5719 100.32C31.9559 100.32 30.8199 101.632 30.8199 103.808C30.8199 106 31.9399 107.312 33.5559 107.312ZM45.0341 108H43.9781C43.8981 107.872 43.8181 107.44 43.7861 106.736C43.0661 107.904 41.6581 108.192 40.6501 108.192C39.2101 108.192 38.0421 107.232 38.0421 105.76C38.0421 103.856 39.6901 103.36 41.5621 103.12C43.3861 102.864 43.7541 102.688 43.7541 102.064C43.7541 101.04 43.1461 100.32 41.6741 100.32C40.7141 100.32 39.7221 100.672 39.3541 102.032L38.3781 101.792C38.7941 100.112 40.1541 99.424 41.7221 99.424C43.8981 99.424 44.8101 100.512 44.8101 102.032V105.936C44.8101 106.976 44.8421 107.504 45.0341 108ZM43.7541 104.624V103.344C43.4821 103.664 42.4101 103.792 41.4661 103.936C40.5381 104.08 39.1301 104.48 39.1301 105.744C39.1301 106.72 39.8181 107.312 40.8421 107.312C41.9781 107.312 43.7541 106.784 43.7541 104.624ZM47.6551 100.896H47.6871C48.1031 100.112 49.1111 99.424 50.4071 99.424C52.1191 99.424 53.3831 100.432 53.3831 102.384V108H52.3271V102.816C52.3271 101.104 51.7031 100.32 50.2151 100.32C48.9511 100.32 47.7031 101.152 47.7031 103.296V108H46.6631V99.616H47.6551V100.896ZM58.5526 96.416H59.6886V97.712H58.5526V96.416ZM58.6006 99.616H59.6406V108H58.6006V99.616ZM62.5614 100.896H62.5934C63.0094 100.112 64.0174 99.424 65.3134 99.424C67.0254 99.424 68.2894 100.432 68.2894 102.384V108H67.2334V102.816C67.2334 101.104 66.6094 100.32 65.1214 100.32C63.8574 100.32 62.6094 101.152 62.6094 103.296V108H61.5694V99.616H62.5614V100.896ZM73.5715 107.312C75.2035 107.312 75.8595 106.08 76.1315 105.28L77.2355 105.456C76.8515 106.624 75.8275 108.192 73.5715 108.192C71.3315 108.192 69.7635 106.496 69.7635 103.808C69.7635 101.12 71.3475 99.424 73.5875 99.424C75.8435 99.424 76.7555 101.04 77.0275 101.648L76.0195 101.984C75.7955 101.536 75.2195 100.32 73.5875 100.32C71.9715 100.32 70.8355 101.632 70.8355 103.808C70.8355 106 71.9555 107.312 73.5715 107.312ZM78.6018 96.416H79.6418V108H78.6018V96.416ZM87.3439 106.736H87.3119C86.9119 107.504 85.8879 108.192 84.6079 108.192C82.8799 108.192 81.6319 107.184 81.6319 105.248V99.616H82.6719V104.816C82.6719 106.528 83.2959 107.312 84.7999 107.312C86.0479 107.312 87.2959 106.48 87.2959 104.336V99.616H88.3519V108H87.3439V106.736ZM93.57 99.424C94.818 99.424 95.97 100.048 96.418 101.056H96.45V96.416H97.506V108H96.498V106.528H96.466C96.034 107.536 94.85 108.192 93.57 108.192C91.378 108.192 89.826 106.496 89.826 103.808C89.826 101.12 91.378 99.424 93.57 99.424ZM93.746 107.312C95.346 107.312 96.53 106 96.53 103.808C96.53 101.632 95.346 100.32 93.746 100.32C92.034 100.32 90.898 101.632 90.898 103.808C90.898 106 92.034 107.312 93.746 107.312ZM105.35 105.52L106.422 105.68C106.006 106.912 104.95 108.208 102.742 108.208C100.534 108.208 98.9663 106.496 98.9663 103.808C98.9663 101.136 100.518 99.424 102.742 99.424C104.95 99.424 106.598 101.136 106.502 104.064H100.054C100.102 106 101.174 107.312 102.742 107.312C104.31 107.312 105.078 106.368 105.35 105.52ZM102.742 100.32C101.174 100.32 100.182 101.616 100.07 103.2H105.398C105.286 101.616 104.31 100.32 102.742 100.32ZM118.197 99.616L114.869 108C113.749 110.848 113.013 111.136 112.005 111.136C111.557 111.136 111.317 111.088 111.189 111.072V110.144C111.285 110.16 111.525 110.208 111.861 110.208C112.565 110.208 113.045 110 113.669 108.416L113.845 107.936L110.453 99.616H111.621L114.357 106.688H114.389L117.061 99.616H118.197ZM122.511 99.424C124.799 99.424 126.383 101.12 126.383 103.808C126.383 106.496 124.799 108.192 122.511 108.192C120.223 108.192 118.639 106.496 118.639 103.808C118.639 101.12 120.223 99.424 122.511 99.424ZM122.511 107.312C124.159 107.312 125.311 106 125.311 103.808C125.311 101.632 124.159 100.32 122.511 100.32C120.863 100.32 119.711 101.632 119.711 103.808C119.711 106 120.863 107.312 122.511 107.312ZM133.641 106.736H133.609C133.209 107.504 132.185 108.192 130.905 108.192C129.177 108.192 127.929 107.184 127.929 105.248V99.616H128.969V104.816C128.969 106.528 129.593 107.312 131.097 107.312C132.345 107.312 133.593 106.48 133.593 104.336V99.616H134.649V108H133.641V106.736ZM137.499 99.616V101.216H137.531C137.979 100.064 139.035 99.424 140.315 99.424C140.555 99.424 140.843 99.456 141.003 99.488V100.512C140.875 100.496 140.539 100.464 140.251 100.464C138.715 100.464 137.547 101.504 137.547 103.744V108.016H136.507V99.616H137.499ZM149.505 99.424C151.713 99.424 153.265 101.12 153.265 103.808C153.265 106.496 151.713 108.192 149.505 108.192C148.241 108.192 147.041 107.536 146.609 106.528H146.577V108H145.585V96.416H146.625V101.056H146.657C147.105 100.048 148.273 99.424 149.505 99.424ZM149.345 107.312C151.041 107.312 152.177 106 152.177 103.808C152.177 101.632 151.041 100.32 149.345 100.32C147.745 100.32 146.561 101.632 146.561 103.808C146.561 106 147.745 107.312 149.345 107.312ZM155.796 99.616V101.216H155.828C156.276 100.064 157.332 99.424 158.612 99.424C158.852 99.424 159.14 99.456 159.3 99.488V100.512C159.172 100.496 158.836 100.464 158.548 100.464C157.012 100.464 155.844 101.504 155.844 103.744V108.016H154.804V99.616H155.796ZM166.894 108H165.838C165.758 107.872 165.678 107.44 165.646 106.736C164.926 107.904 163.518 108.192 162.51 108.192C161.07 108.192 159.902 107.232 159.902 105.76C159.902 103.856 161.549 103.36 163.422 103.12C165.246 102.864 165.614 102.688 165.614 102.064C165.614 101.04 165.006 100.32 163.534 100.32C162.574 100.32 161.582 100.672 161.214 102.032L160.238 101.792C160.654 100.112 162.014 99.424 163.582 99.424C165.758 99.424 166.67 100.512 166.67 102.032V105.936C166.67 106.976 166.702 107.504 166.894 108ZM165.614 104.624V103.344C165.342 103.664 164.27 103.792 163.326 103.936C162.398 104.08 160.99 104.48 160.99 105.744C160.99 106.72 161.678 107.312 162.702 107.312C163.838 107.312 165.614 106.784 165.614 104.624ZM169.515 100.896H169.547C169.963 100.112 170.971 99.424 172.266 99.424C173.979 99.424 175.243 100.432 175.243 102.384V108H174.187V102.816C174.187 101.104 173.563 100.32 172.075 100.32C170.811 100.32 169.562 101.152 169.562 103.296V108H168.523V99.616H169.515V100.896ZM180.461 99.424C181.709 99.424 182.861 100.048 183.309 101.056H183.341V96.416H184.397V108H183.389V106.528H183.357C182.925 107.536 181.741 108.192 180.461 108.192C178.269 108.192 176.717 106.496 176.717 103.808C176.717 101.12 178.269 99.424 180.461 99.424ZM180.637 107.312C182.237 107.312 183.421 106 183.421 103.808C183.421 101.632 182.237 100.32 180.637 100.32C178.925 100.32 177.789 101.632 177.789 103.808C177.789 106 178.925 107.312 180.637 107.312ZM192.48 107.104C192.784 107.104 193.2 107.104 193.392 107.088V108C193.136 108.016 192.784 108.032 192.384 108.032C190.864 108.032 190.352 107.632 190.352 106.176V100.464H188.944V99.616H190.352V97.168H191.408V99.616H193.44V100.464H191.408V105.952C191.408 106.848 191.632 107.104 192.48 107.104ZM197.948 99.424C200.236 99.424 201.82 101.12 201.82 103.808C201.82 106.496 200.236 108.192 197.948 108.192C195.66 108.192 194.076 106.496 194.076 103.808C194.076 101.12 195.66 99.424 197.948 99.424ZM197.948 107.312C199.596 107.312 200.748 106 200.748 103.808C200.748 101.632 199.596 100.32 197.948 100.32C196.3 100.32 195.148 101.632 195.148 103.808C195.148 106 196.3 107.312 197.948 107.312ZM4.88 118.424C7.088 118.424 8.64 120.12 8.64 122.808C8.64 125.496 7.088 127.192 4.88 127.192C3.616 127.192 2.416 126.536 1.984 125.528H1.952V127H0.96V115.416H2V120.056H2.032C2.48 119.048 3.648 118.424 4.88 118.424ZM4.72 126.312C6.416 126.312 7.552 125 7.552 122.808C7.552 120.632 6.416 119.32 4.72 119.32C3.12 119.32 1.936 120.632 1.936 122.808C1.936 125 3.12 126.312 4.72 126.312ZM11.1708 118.616V120.216H11.2028C11.6508 119.064 12.7068 118.424 13.9868 118.424C14.2268 118.424 14.5148 118.456 14.6748 118.488V119.512C14.5468 119.496 14.2108 119.464 13.9227 119.464C12.3868 119.464 11.2188 120.504 11.2188 122.744V127.016H10.1788V118.616H11.1708ZM15.8495 115.416H16.9855V116.712H15.8495V115.416ZM15.8975 118.616H16.9375V127H15.8975V118.616ZM19.8583 119.896H19.8903C20.3063 119.112 21.3143 118.424 22.6102 118.424C24.3223 118.424 25.5863 119.432 25.5863 121.384V127H24.5303V121.816C24.5303 120.104 23.9063 119.32 22.4183 119.32C21.1543 119.32 19.9062 120.152 19.9062 122.296V127H18.8663V118.616H19.8583V119.896ZM34.5804 118.616V126.456C34.5804 129.064 33.0124 130.136 30.8524 130.136C29.1084 130.136 27.7324 129.384 27.2204 127.784L28.2124 127.512C28.5964 128.776 29.5404 129.272 30.8524 129.272C32.4844 129.272 33.5244 128.424 33.5244 126.392V124.984H33.4924C33.0604 125.96 31.9404 126.536 30.7244 126.536C28.5804 126.536 27.0604 124.936 27.0604 122.488C27.0604 120.008 28.5804 118.424 30.7244 118.424C31.9724 118.424 33.0924 119.032 33.5404 120.024H33.5724V118.616H34.5804ZM30.9004 125.672C32.4524 125.672 33.6044 124.392 33.6044 122.488C33.6044 120.584 32.4524 119.32 30.9004 119.32C29.2364 119.32 28.1324 120.584 28.1324 122.488C28.1324 124.392 29.2364 125.672 30.9004 125.672ZM42.3648 120.776L41.4048 120.984C41.1808 119.976 40.2368 119.304 39.1168 119.304C37.9168 119.304 37.1168 119.896 37.1168 120.792C37.1168 121.72 37.9968 121.96 38.9408 122.12L39.8848 122.28C41.3248 122.52 42.5888 122.936 42.5888 124.632C42.5888 126.312 41.1488 127.208 39.2608 127.208C37.3248 127.208 35.9168 126.152 35.7088 124.584L36.6848 124.376C36.8768 125.624 37.9488 126.312 39.2448 126.312C40.5408 126.312 41.5168 125.704 41.5168 124.68C41.5168 123.656 40.6208 123.4 39.4688 123.192L38.5568 123.032C37.3248 122.808 36.0288 122.392 36.0288 120.792C36.0288 119.368 37.3088 118.424 39.1168 118.424C40.8288 118.424 42.1568 119.48 42.3648 120.776ZM50.7419 118.424C51.9899 118.424 53.1419 119.048 53.5899 120.056H53.6219V115.416H54.6779V127H53.6699V125.528H53.6379C53.2059 126.536 52.0219 127.192 50.7419 127.192C48.5499 127.192 46.9979 125.496 46.9979 122.808C46.9979 120.12 48.5499 118.424 50.7419 118.424ZM50.9179 126.312C52.5179 126.312 53.7019 125 53.7019 122.808C53.7019 120.632 52.5179 119.32 50.9179 119.32C49.2059 119.32 48.0699 120.632 48.0699 122.808C48.0699 125 49.2059 126.312 50.9179 126.312ZM56.4901 115.416H57.6261V116.712H56.4901V115.416ZM56.5381 118.616H57.5781V127H56.5381V118.616ZM65.4429 120.776L64.4829 120.984C64.2589 119.976 63.3149 119.304 62.1949 119.304C60.9949 119.304 60.1949 119.896 60.1949 120.792C60.1949 121.72 61.0749 121.96 62.0189 122.12L62.9629 122.28C64.4029 122.52 65.6669 122.936 65.6669 124.632C65.6669 126.312 64.2269 127.208 62.3389 127.208C60.4029 127.208 58.9949 126.152 58.7869 124.584L59.7629 124.376C59.9549 125.624 61.0269 126.312 62.3229 126.312C63.6189 126.312 64.5949 125.704 64.5949 124.68C64.5949 123.656 63.6989 123.4 62.5469 123.192L61.6349 123.032C60.4029 122.808 59.1069 122.392 59.1069 120.792C59.1069 119.368 60.3869 118.424 62.1949 118.424C63.9069 118.424 65.2349 119.48 65.4429 120.776ZM70.5246 126.312C72.1566 126.312 72.8126 125.08 73.0846 124.28L74.1886 124.456C73.8046 125.624 72.7806 127.192 70.5246 127.192C68.2846 127.192 66.7166 125.496 66.7166 122.808C66.7166 120.12 68.3006 118.424 70.5406 118.424C72.7966 118.424 73.7086 120.04 73.9806 120.648L72.9726 120.984C72.7486 120.536 72.1726 119.32 70.5406 119.32C68.9246 119.32 67.7886 120.632 67.7886 122.808C67.7886 125 68.9086 126.312 70.5246 126.312ZM75.5549 115.416H76.5949V127H75.5549V115.416ZM82.073 118.424C84.361 118.424 85.945 120.12 85.945 122.808C85.945 125.496 84.361 127.192 82.073 127.192C79.785 127.192 78.201 125.496 78.201 122.808C78.201 120.12 79.785 118.424 82.073 118.424ZM82.073 126.312C83.721 126.312 84.873 125 84.873 122.808C84.873 120.632 83.721 119.32 82.073 119.32C80.425 119.32 79.273 120.632 79.273 122.808C79.273 125 80.425 126.312 82.073 126.312ZM93.4273 120.776L92.4673 120.984C92.2433 119.976 91.2993 119.304 90.1793 119.304C88.9793 119.304 88.1793 119.896 88.1793 120.792C88.1793 121.72 89.0593 121.96 90.0033 122.12L90.9473 122.28C92.3873 122.52 93.6513 122.936 93.6513 124.632C93.6513 126.312 92.2113 127.208 90.3233 127.208C88.3873 127.208 86.9793 126.152 86.7713 124.584L87.7473 124.376C87.9393 125.624 89.0113 126.312 90.3073 126.312C91.6033 126.312 92.5793 125.704 92.5793 124.68C92.5793 123.656 91.6833 123.4 90.5312 123.192L89.6193 123.032C88.3873 122.808 87.0913 122.392 87.0913 120.792C87.0913 119.368 88.3713 118.424 90.1793 118.424C91.8913 118.424 93.2193 119.48 93.4273 120.776ZM100.797 125.736H100.765C100.365 126.504 99.341 127.192 98.061 127.192C96.333 127.192 95.085 126.184 95.085 124.248V118.616H96.125V123.816C96.125 125.528 96.749 126.312 98.253 126.312C99.501 126.312 100.749 125.48 100.749 123.336V118.616H101.805V127H100.797V125.736ZM104.655 118.616V120.216H104.687C105.135 119.064 106.191 118.424 107.471 118.424C107.711 118.424 107.999 118.456 108.159 118.488V119.512C108.031 119.496 107.695 119.464 107.407 119.464C105.871 119.464 104.703 120.504 104.703 122.744V127.016H103.663V118.616H104.655ZM115.147 124.52L116.219 124.68C115.803 125.912 114.747 127.208 112.539 127.208C110.331 127.208 108.763 125.496 108.763 122.808C108.763 120.136 110.315 118.424 112.539 118.424C114.747 118.424 116.395 120.136 116.299 123.064H109.851C109.899 125 110.971 126.312 112.539 126.312C114.107 126.312 114.875 125.368 115.147 124.52ZM112.539 119.32C110.971 119.32 109.979 120.616 109.867 122.2H115.195C115.083 120.616 114.107 119.32 112.539 119.32ZM124.074 126.104C124.378 126.104 124.794 126.104 124.986 126.088V127C124.73 127.016 124.378 127.032 123.978 127.032C122.458 127.032 121.946 126.632 121.946 125.176V119.464H120.538V118.616H121.946V116.168H123.002V118.616H125.034V119.464H123.002V124.952C123.002 125.848 123.226 126.104 124.074 126.104ZM129.542 118.424C131.83 118.424 133.414 120.12 133.414 122.808C133.414 125.496 131.83 127.192 129.542 127.192C127.254 127.192 125.67 125.496 125.67 122.808C125.67 120.12 127.254 118.424 129.542 118.424ZM129.542 126.312C131.19 126.312 132.342 125 132.342 122.808C132.342 120.632 131.19 119.32 129.542 119.32C127.894 119.32 126.742 120.632 126.742 122.808C126.742 125 127.894 126.312 129.542 126.312ZM141.807 118.424C144.095 118.424 145.679 120.12 145.679 122.808C145.679 125.496 144.095 127.192 141.807 127.192C139.519 127.192 137.935 125.496 137.935 122.808C137.935 120.12 139.519 118.424 141.807 118.424ZM141.807 126.312C143.455 126.312 144.607 125 144.607 122.808C144.607 120.632 143.455 119.32 141.807 119.32C140.159 119.32 139.007 120.632 139.007 122.808C139.007 125 140.159 126.312 141.807 126.312ZM152.938 125.736H152.906C152.506 126.504 151.482 127.192 150.202 127.192C148.474 127.192 147.226 126.184 147.226 124.248V118.616H148.266V123.816C148.266 125.528 148.89 126.312 150.394 126.312C151.642 126.312 152.89 125.48 152.89 123.336V118.616H153.946V127H152.938V125.736ZM156.796 118.616V120.216H156.828C157.276 119.064 158.332 118.424 159.612 118.424C159.852 118.424 160.14 118.456 160.3 118.488V119.512C160.172 119.496 159.836 119.464 159.548 119.464C158.012 119.464 156.844 120.504 156.844 122.744V127.016H155.804V118.616H156.796ZM168.402 127H167.266L163.986 118.616H165.154L167.842 125.8H167.874L170.594 118.616H171.73L168.402 127ZM172.725 115.416H173.861V116.712H172.725V115.416ZM172.773 118.616H173.812V127H172.773V118.616ZM181.725 124.52L182.797 124.68C182.381 125.912 181.325 127.208 179.117 127.208C176.909 127.208 175.341 125.496 175.341 122.808C175.341 120.136 176.893 118.424 179.117 118.424C181.325 118.424 182.973 120.136 182.877 123.064H176.429C176.477 125 177.549 126.312 179.117 126.312C180.685 126.312 181.453 125.368 181.725 124.52ZM179.117 119.32C177.549 119.32 176.557 120.616 176.445 122.2H181.773C181.661 120.616 180.685 119.32 179.117 119.32ZM195.812 118.616L192.964 127H191.812L189.524 120.072H189.492L187.22 127H186.116L183.236 118.616H184.42L186.692 125.688H186.724L188.964 118.616H190.164L192.404 125.688H192.436L194.692 118.616H195.812ZM202.553 124.52L203.625 124.68C203.209 125.912 202.153 127.208 199.945 127.208C197.737 127.208 196.169 125.496 196.169 122.808C196.169 120.136 197.721 118.424 199.945 118.424C202.153 118.424 203.801 120.136 203.705 123.064H197.257C197.305 125 198.377 126.312 199.945 126.312C201.513 126.312 202.281 125.368 202.553 124.52ZM199.945 119.32C198.377 119.32 197.385 120.616 197.273 122.2H202.601C202.489 120.616 201.513 119.32 199.945 119.32ZM206.249 118.616V120.216H206.281C206.729 119.064 207.785 118.424 209.065 118.424C209.305 118.424 209.593 118.456 209.753 118.488V119.512C209.625 119.496 209.289 119.464 209.001 119.464C207.465 119.464 206.297 120.504 206.297 122.744V127.016H205.257V118.616H206.249ZM216.912 120.776L215.952 120.984C215.728 119.976 214.784 119.304 213.664 119.304C212.464 119.304 211.664 119.896 211.664 120.792C211.664 121.72 212.544 121.96 213.488 122.12L214.432 122.28C215.872 122.52 217.136 122.936 217.136 124.632C217.136 126.312 215.696 127.208 213.808 127.208C211.872 127.208 210.464 126.152 210.256 124.584L211.232 124.376C211.424 125.624 212.496 126.312 213.792 126.312C215.088 126.312 216.064 125.704 216.064 124.68C216.064 123.656 215.168 123.4 214.016 123.192L213.104 123.032C211.872 122.808 210.576 122.392 210.576 120.792C210.576 119.368 211.856 118.424 213.664 118.424C215.376 118.424 216.704 119.48 216.912 120.776ZM218.697 125.544H220.121V127H218.697V125.544ZM9.744 134.576V142.208C9.744 144.8 7.936 146.24 5.392 146.24C2.864 146.24 1.056 144.8 1.056 142.208V134.576H2.176V142C2.176 144.272 3.408 145.264 5.392 145.264C7.376 145.264 8.624 144.272 8.624 142V134.576H9.744ZM17.6929 139.776L16.7329 139.984C16.5089 138.976 15.5649 138.304 14.4449 138.304C13.2449 138.304 12.4449 138.896 12.4449 139.792C12.4449 140.72 13.3249 140.96 14.2689 141.12L15.2129 141.28C16.6529 141.52 17.9169 141.936 17.9169 143.632C17.9169 145.312 16.4769 146.208 14.5889 146.208C12.6529 146.208 11.2449 145.152 11.0369 143.584L12.0129 143.376C12.2049 144.624 13.2769 145.312 14.5729 145.312C15.8689 145.312 16.8449 144.704 16.8449 143.68C16.8449 142.656 15.9489 142.4 14.7969 142.192L13.8849 142.032C12.6529 141.808 11.3569 141.392 11.3569 139.792C11.3569 138.368 12.6369 137.424 14.4449 137.424C16.1569 137.424 17.4849 138.48 17.6929 139.776ZM25.3346 143.52L26.4066 143.68C25.9906 144.912 24.9346 146.208 22.7266 146.208C20.5186 146.208 18.9506 144.496 18.9506 141.808C18.9506 139.136 20.5026 137.424 22.7266 137.424C24.9346 137.424 26.5826 139.136 26.4866 142.064H20.0386C20.0866 144 21.1586 145.312 22.7266 145.312C24.2946 145.312 25.0626 144.368 25.3346 143.52ZM22.7266 138.32C21.1586 138.32 20.1666 139.616 20.0546 141.2H25.3826C25.2706 139.616 24.2946 138.32 22.7266 138.32ZM34.8855 137.424C37.1735 137.424 38.7575 139.12 38.7575 141.808C38.7575 144.496 37.1735 146.192 34.8855 146.192C32.5975 146.192 31.0135 144.496 31.0135 141.808C31.0135 139.12 32.5975 137.424 34.8855 137.424ZM34.8855 145.312C36.5335 145.312 37.6855 144 37.6855 141.808C37.6855 139.632 36.5335 138.32 34.8855 138.32C33.2375 138.32 32.0855 139.632 32.0855 141.808C32.0855 144 33.2375 145.312 34.8855 145.312ZM46.0158 144.736H45.9838C45.5838 145.504 44.5598 146.192 43.2798 146.192C41.5518 146.192 40.3038 145.184 40.3038 143.248V137.616H41.3438V142.816C41.3438 144.528 41.9678 145.312 43.4718 145.312C44.7198 145.312 45.9678 144.48 45.9678 142.336V137.616H47.0238V146H46.0158V144.736ZM49.8739 137.616V139.216H49.9059C50.3539 138.064 51.4099 137.424 52.6899 137.424C52.9299 137.424 53.2179 137.456 53.3779 137.488V138.512C53.2499 138.496 52.9139 138.464 52.6259 138.464C51.0899 138.464 49.9219 139.504 49.9219 141.744V146.016H48.8819V137.616H49.8739ZM61.384 145.312C63.016 145.312 63.672 144.08 63.944 143.28L65.048 143.456C64.664 144.624 63.64 146.192 61.384 146.192C59.144 146.192 57.576 144.496 57.576 141.808C57.576 139.12 59.16 137.424 61.4 137.424C63.656 137.424 64.568 139.04 64.84 139.648L63.832 139.984C63.608 139.536 63.032 138.32 61.4 138.32C59.784 138.32 58.648 139.632 58.648 141.808C58.648 144 59.768 145.312 61.384 145.312ZM69.8543 137.424C72.1423 137.424 73.7263 139.12 73.7263 141.808C73.7263 144.496 72.1423 146.192 69.8543 146.192C67.5663 146.192 65.9823 144.496 65.9823 141.808C65.9823 139.12 67.5663 137.424 69.8543 137.424ZM69.8543 145.312C71.5023 145.312 72.6543 144 72.6543 141.808C72.6543 139.632 71.5023 138.32 69.8543 138.32C68.2063 138.32 67.0543 139.632 67.0543 141.808C67.0543 144 68.2063 145.312 69.8543 145.312ZM76.2645 138.896H76.2965C76.7125 138.112 77.7205 137.424 79.0165 137.424C80.7285 137.424 81.9925 138.432 81.9925 140.384V146H80.9365V140.816C80.9365 139.104 80.3125 138.32 78.8245 138.32C77.5605 138.32 76.3125 139.152 76.3125 141.296V146H75.2725V137.616H76.2645V138.896ZM86.5896 145.104C86.8936 145.104 87.3096 145.104 87.5016 145.088V146C87.2456 146.016 86.8936 146.032 86.4936 146.032C84.9736 146.032 84.4616 145.632 84.4616 144.176V138.464H83.0536V137.616H84.4616V135.168H85.5176V137.616H87.5496V138.464H85.5176V143.952C85.5176 144.848 85.7416 145.104 86.5896 145.104ZM94.5534 143.52L95.6254 143.68C95.2094 144.912 94.1534 146.208 91.9454 146.208C89.7374 146.208 88.1694 144.496 88.1694 141.808C88.1694 139.136 89.7214 137.424 91.9454 137.424C94.1534 137.424 95.8014 139.136 95.7054 142.064H89.2574C89.3054 144 90.3774 145.312 91.9454 145.312C93.5134 145.312 94.2814 144.368 94.5534 143.52ZM91.9454 138.32C90.3774 138.32 89.3854 139.616 89.2734 141.2H94.6014C94.4894 139.616 93.5134 138.32 91.9454 138.32ZM98.2489 138.896H98.2809C98.6969 138.112 99.7049 137.424 101.001 137.424C102.713 137.424 103.977 138.432 103.977 140.384V146H102.921V140.816C102.921 139.104 102.297 138.32 100.809 138.32C99.5449 138.32 98.2969 139.152 98.2969 141.296V146H97.2569V137.616H98.2489V138.896ZM108.574 145.104C108.878 145.104 109.294 145.104 109.486 145.088V146C109.23 146.016 108.878 146.032 108.478 146.032C106.958 146.032 106.446 145.632 106.446 144.176V138.464H105.038V137.616H106.446V135.168H107.502V137.616H109.534V138.464H107.502V143.952C107.502 144.848 107.726 145.104 108.574 145.104ZM117.137 145.104C117.441 145.104 117.857 145.104 118.049 145.088V146C117.793 146.016 117.441 146.032 117.041 146.032C115.521 146.032 115.009 145.632 115.009 144.176V138.464H113.601V137.616H115.009V135.168H116.065V137.616H118.097V138.464H116.065V143.952C116.065 144.848 116.289 145.104 117.137 145.104ZM125.972 146H124.916C124.836 145.872 124.756 145.44 124.724 144.736C124.004 145.904 122.596 146.192 121.588 146.192C120.148 146.192 118.98 145.232 118.98 143.76C118.98 141.856 120.628 141.36 122.5 141.12C124.324 140.864 124.692 140.688 124.692 140.064C124.692 139.04 124.084 138.32 122.612 138.32C121.652 138.32 120.66 138.672 120.292 140.032L119.316 139.792C119.732 138.112 121.092 137.424 122.66 137.424C124.836 137.424 125.748 138.512 125.748 140.032V143.936C125.748 144.976 125.78 145.504 125.972 146ZM124.692 142.624V141.344C124.42 141.664 123.348 141.792 122.404 141.936C121.476 142.08 120.068 142.48 120.068 143.744C120.068 144.72 120.756 145.312 121.78 145.312C122.916 145.312 124.692 144.784 124.692 142.624ZM131.521 146.192C130.289 146.192 129.121 145.6 128.673 144.56H128.641V148.944H127.601V137.616H128.593V139.104H128.625C129.089 138.048 130.257 137.424 131.521 137.424C133.729 137.424 135.281 139.12 135.281 141.808C135.281 144.496 133.729 146.192 131.521 146.192ZM131.361 138.32C129.761 138.32 128.577 139.632 128.577 141.808C128.577 144 129.761 145.312 131.361 145.312C133.057 145.312 134.193 144 134.193 141.808C134.193 139.632 133.057 138.32 131.361 138.32ZM136.931 141.856V140.896H141.283V141.856H136.931ZM143.287 134.416H144.423V135.712H143.287V134.416ZM143.335 137.616H144.375V146H143.335V137.616ZM147.296 138.896H147.328C147.744 138.112 148.752 137.424 150.048 137.424C151.76 137.424 153.024 138.432 153.024 140.384V146H151.968V140.816C151.968 139.104 151.344 138.32 149.856 138.32C148.592 138.32 147.344 139.152 147.344 141.296V146H146.304V137.616H147.296V138.896ZM164.177 139.776L163.217 139.984C162.993 138.976 162.049 138.304 160.929 138.304C159.729 138.304 158.929 138.896 158.929 139.792C158.929 140.72 159.809 140.96 160.753 141.12L161.697 141.28C163.137 141.52 164.401 141.936 164.401 143.632C164.401 145.312 162.961 146.208 161.073 146.208C159.137 146.208 157.729 145.152 157.521 143.584L158.497 143.376C158.689 144.624 159.761 145.312 161.057 145.312C162.353 145.312 163.329 144.704 163.329 143.68C163.329 142.656 162.433 142.4 161.281 142.192L160.369 142.032C159.137 141.808 157.841 141.392 157.841 139.792C157.841 138.368 159.121 137.424 160.929 137.424C162.641 137.424 163.969 138.48 164.177 139.776ZM171.819 143.52L172.891 143.68C172.475 144.912 171.419 146.208 169.211 146.208C167.003 146.208 165.435 144.496 165.435 141.808C165.435 139.136 166.987 137.424 169.211 137.424C171.419 137.424 173.067 139.136 172.971 142.064H166.523C166.571 144 167.643 145.312 169.211 145.312C170.779 145.312 171.547 144.368 171.819 143.52ZM169.211 138.32C167.643 138.32 166.651 139.616 166.539 141.2H171.867C171.755 139.616 170.779 138.32 169.211 138.32ZM175.515 137.616V139.216H175.547C175.995 138.064 177.051 137.424 178.331 137.424C178.571 137.424 178.859 137.456 179.019 137.488V138.512C178.891 138.496 178.555 138.464 178.266 138.464C176.731 138.464 175.562 139.504 175.562 141.744V146.016H174.523V137.616H175.515ZM183.996 146H182.86L179.58 137.616H180.748L183.436 144.8H183.468L186.188 137.616H187.324L183.996 146ZM188.318 134.416H189.454V135.712H188.318V134.416ZM188.366 137.616H189.406V146H188.366V137.616ZM194.759 145.312C196.391 145.312 197.047 144.08 197.319 143.28L198.423 143.456C198.039 144.624 197.015 146.192 194.759 146.192C192.519 146.192 190.951 144.496 190.951 141.808C190.951 139.12 192.535 137.424 194.775 137.424C197.031 137.424 197.943 139.04 198.215 139.648L197.207 139.984C196.983 139.536 196.407 138.32 194.775 138.32C193.159 138.32 192.023 139.632 192.023 141.808C192.023 144 193.143 145.312 194.759 145.312ZM205.725 143.52L206.797 143.68C206.381 144.912 205.325 146.208 203.117 146.208C200.909 146.208 199.341 144.496 199.341 141.808C199.341 139.136 200.893 137.424 203.117 137.424C205.325 137.424 206.973 139.136 206.877 142.064H200.429C200.477 144 201.549 145.312 203.117 145.312C204.685 145.312 205.453 144.368 205.725 143.52ZM203.117 138.32C201.549 138.32 200.557 139.616 200.445 141.2H205.773C205.661 139.616 204.685 138.32 203.117 138.32ZM214.365 139.776L213.405 139.984C213.181 138.976 212.237 138.304 211.117 138.304C209.917 138.304 209.117 138.896 209.117 139.792C209.117 140.72 209.997 140.96 210.941 141.12L211.885 141.28C213.325 141.52 214.589 141.936 214.589 143.632C214.589 145.312 213.149 146.208 211.261 146.208C209.325 146.208 207.917 145.152 207.709 143.584L208.685 143.376C208.877 144.624 209.949 145.312 211.245 145.312C212.541 145.312 213.517 144.704 213.517 143.68C213.517 142.656 212.621 142.4 211.469 142.192L210.557 142.032C209.325 141.808 208.029 141.392 208.029 139.792C208.029 138.368 209.309 137.424 211.117 137.424C212.829 137.424 214.157 138.48 214.365 139.776ZM222.246 145.104C222.55 145.104 222.966 145.104 223.158 145.088V146C222.902 146.016 222.55 146.032 222.15 146.032C220.63 146.032 220.118 145.632 220.118 144.176V138.464H218.71V137.616H220.118V135.168H221.174V137.616H223.206V138.464H221.174V143.952C221.174 144.848 221.398 145.104 222.246 145.104ZM227.714 137.424C230.002 137.424 231.586 139.12 231.586 141.808C231.586 144.496 230.002 146.192 227.714 146.192C225.426 146.192 223.842 144.496 223.842 141.808C223.842 139.12 225.426 137.424 227.714 137.424ZM227.714 145.312C229.362 145.312 230.514 144 230.514 141.808C230.514 139.632 229.362 138.32 227.714 138.32C226.066 138.32 224.914 139.632 224.914 141.808C224.914 144 226.066 145.312 227.714 145.312ZM2 157.912H2.032C2.432 157.128 3.456 156.424 4.72 156.424C6.416 156.424 7.68 157.432 7.68 159.384V165H6.624V159.816C6.624 158.104 6 157.32 4.512 157.32C3.296 157.32 2 158.248 2 160.36V165H0.96V153.416H2V157.912ZM15.5221 162.52L16.5941 162.68C16.1781 163.912 15.1221 165.208 12.9141 165.208C10.7061 165.208 9.13813 163.496 9.13813 160.808C9.13813 158.136 10.6901 156.424 12.9141 156.424C15.1221 156.424 16.7701 158.136 16.6741 161.064H10.2261C10.2741 163 11.3461 164.312 12.9141 164.312C14.4821 164.312 15.2501 163.368 15.5221 162.52ZM12.9141 157.32C11.3461 157.32 10.3541 158.616 10.2421 160.2H15.5701C15.4581 158.616 14.4821 157.32 12.9141 157.32ZM18.2736 153.416H19.3136V165H18.2736V153.416ZM25.2238 165.192C23.9918 165.192 22.8238 164.6 22.3758 163.56H22.3438V167.944H21.3038V156.616H22.2958V158.104H22.3278C22.7918 157.048 23.9598 156.424 25.2238 156.424C27.4318 156.424 28.9838 158.12 28.9838 160.808C28.9838 163.496 27.4318 165.192 25.2238 165.192ZM25.0638 157.32C23.4638 157.32 22.2798 158.632 22.2798 160.808C22.2798 163 23.4638 164.312 25.0638 164.312C26.7598 164.312 27.8958 163 27.8958 160.808C27.8958 158.632 26.7598 157.32 25.0638 157.32ZM37.3059 164.312C38.9379 164.312 39.5939 163.08 39.8659 162.28L40.9699 162.456C40.5859 163.624 39.5619 165.192 37.3059 165.192C35.0659 165.192 33.4979 163.496 33.4979 160.808C33.4979 158.12 35.0819 156.424 37.3219 156.424C39.5779 156.424 40.4899 158.04 40.7619 158.648L39.7539 158.984C39.5299 158.536 38.9539 157.32 37.3219 157.32C35.7059 157.32 34.5699 158.632 34.5699 160.808C34.5699 163 35.6899 164.312 37.3059 164.312ZM48.0001 163.736H47.9681C47.5681 164.504 46.5441 165.192 45.2641 165.192C43.5361 165.192 42.2881 164.184 42.2881 162.248V156.616H43.3281V161.816C43.3281 163.528 43.9521 164.312 45.4561 164.312C46.7041 164.312 47.9521 163.48 47.9521 161.336V156.616H49.0081V165H48.0001V163.736ZM56.8023 158.776L55.8423 158.984C55.6183 157.976 54.6743 157.304 53.5543 157.304C52.3543 157.304 51.5543 157.896 51.5543 158.792C51.5543 159.72 52.4343 159.96 53.3783 160.12L54.3223 160.28C55.7623 160.52 57.0263 160.936 57.0263 162.632C57.0263 164.312 55.5863 165.208 53.6983 165.208C51.7623 165.208 50.3543 164.152 50.1463 162.584L51.1223 162.376C51.3143 163.624 52.3863 164.312 53.6823 164.312C54.9783 164.312 55.9543 163.704 55.9543 162.68C55.9543 161.656 55.0583 161.4 53.9062 161.192L52.9943 161.032C51.7623 160.808 50.4663 160.392 50.4663 158.792C50.4663 157.368 51.7463 156.424 53.5543 156.424C55.2663 156.424 56.5943 157.48 56.8023 158.776ZM61.2928 164.104C61.5968 164.104 62.0128 164.104 62.2048 164.088V165C61.9488 165.016 61.5968 165.032 61.1968 165.032C59.6768 165.032 59.1648 164.632 59.1648 163.176V157.464H57.7568V156.616H59.1648V154.168H60.2208V156.616H62.2528V157.464H60.2208V162.952C60.2208 163.848 60.4448 164.104 61.2928 164.104ZM66.7605 156.424C69.0485 156.424 70.6325 158.12 70.6325 160.808C70.6325 163.496 69.0485 165.192 66.7605 165.192C64.4725 165.192 62.8885 163.496 62.8885 160.808C62.8885 158.12 64.4725 156.424 66.7605 156.424ZM66.7605 164.312C68.4085 164.312 69.5605 163 69.5605 160.808C69.5605 158.632 68.4085 157.32 66.7605 157.32C65.1125 157.32 63.9605 158.632 63.9605 160.808C63.9605 163 65.1125 164.312 66.7605 164.312ZM80.8988 156.424H80.8828C82.4508 156.424 83.6348 157.432 83.6348 159.384V165H82.5788V159.816C82.5788 158.104 82.0028 157.32 80.6748 157.32C79.5868 157.32 78.4348 158.024 78.4348 160.184V165H77.3788V159.816C77.3788 158.104 76.8028 157.32 75.4588 157.32C74.3388 157.32 73.2188 158.152 73.2188 160.296V165H72.1628V156.616H73.1708V157.896H73.2028C73.6028 157.096 74.5308 156.424 75.6828 156.424C76.8028 156.424 77.7148 156.952 78.1628 157.96C78.6428 157.144 79.5388 156.424 80.8988 156.424ZM91.4909 162.52L92.5629 162.68C92.1469 163.912 91.0909 165.208 88.8829 165.208C86.6749 165.208 85.1069 163.496 85.1069 160.808C85.1069 158.136 86.6589 156.424 88.8829 156.424C91.0909 156.424 92.7389 158.136 92.6429 161.064H86.1949C86.2429 163 87.3149 164.312 88.8829 164.312C90.4509 164.312 91.2189 163.368 91.4909 162.52ZM88.8829 157.32C87.3149 157.32 86.3229 158.616 86.2109 160.2H91.5389C91.4269 158.616 90.4509 157.32 88.8829 157.32ZM95.1864 156.616V158.216H95.2184C95.6664 157.064 96.7224 156.424 98.0024 156.424C98.2424 156.424 98.5304 156.456 98.6904 156.488V157.512C98.5624 157.496 98.2264 157.464 97.9384 157.464C96.4024 157.464 95.2344 158.504 95.2344 160.744V165.016H94.1944V156.616H95.1864ZM105.849 158.776L104.889 158.984C104.665 157.976 103.721 157.304 102.601 157.304C101.401 157.304 100.601 157.896 100.601 158.792C100.601 159.72 101.481 159.96 102.425 160.12L103.369 160.28C104.809 160.52 106.073 160.936 106.073 162.632C106.073 164.312 104.633 165.208 102.745 165.208C100.809 165.208 99.4011 164.152 99.1931 162.584L100.169 162.376C100.361 163.624 101.433 164.312 102.729 164.312C104.025 164.312 105.001 163.704 105.001 162.68C105.001 161.656 104.105 161.4 102.953 161.192L102.041 161.032C100.809 160.808 99.5131 160.392 99.5131 158.792C99.5131 157.368 100.793 156.424 102.601 156.424C104.313 156.424 105.641 157.48 105.849 158.776ZM114.226 156.424C115.474 156.424 116.626 157.048 117.074 158.056H117.106V153.416H118.162V165H117.154V163.528H117.122C116.69 164.536 115.506 165.192 114.226 165.192C112.034 165.192 110.482 163.496 110.482 160.808C110.482 158.12 112.034 156.424 114.226 156.424ZM114.402 164.312C116.002 164.312 117.186 163 117.186 160.808C117.186 158.632 116.002 157.32 114.402 157.32C112.69 157.32 111.554 158.632 111.554 160.808C111.554 163 112.69 164.312 114.402 164.312ZM119.975 153.416H121.111V154.712H119.975V153.416ZM120.023 156.616H121.062V165H120.023V156.616ZM128.927 158.776L127.967 158.984C127.743 157.976 126.799 157.304 125.679 157.304C124.479 157.304 123.679 157.896 123.679 158.792C123.679 159.72 124.559 159.96 125.503 160.12L126.447 160.28C127.887 160.52 129.151 160.936 129.151 162.632C129.151 164.312 127.711 165.208 125.823 165.208C123.887 165.208 122.479 164.152 122.271 162.584L123.247 162.376C123.439 163.624 124.511 164.312 125.807 164.312C127.103 164.312 128.079 163.704 128.079 162.68C128.079 161.656 127.183 161.4 126.031 161.192L125.119 161.032C123.887 160.808 122.591 160.392 122.591 158.792C122.591 157.368 123.871 156.424 125.679 156.424C127.391 156.424 128.719 157.48 128.927 158.776ZM134.009 164.312C135.641 164.312 136.297 163.08 136.569 162.28L137.673 162.456C137.289 163.624 136.265 165.192 134.009 165.192C131.769 165.192 130.201 163.496 130.201 160.808C130.201 158.12 131.785 156.424 134.025 156.424C136.281 156.424 137.193 158.04 137.465 158.648L136.457 158.984C136.233 158.536 135.657 157.32 134.025 157.32C132.409 157.32 131.273 158.632 131.273 160.808C131.273 163 132.393 164.312 134.009 164.312ZM142.479 156.424C144.767 156.424 146.351 158.12 146.351 160.808C146.351 163.496 144.767 165.192 142.479 165.192C140.191 165.192 138.607 163.496 138.607 160.808C138.607 158.12 140.191 156.424 142.479 156.424ZM142.479 164.312C144.127 164.312 145.279 163 145.279 160.808C145.279 158.632 144.127 157.32 142.479 157.32C140.831 157.32 139.679 158.632 139.679 160.808C139.679 163 140.831 164.312 142.479 164.312ZM151.136 165H150L146.72 156.616H147.888L150.576 163.8H150.608L153.328 156.616H154.464L151.136 165ZM161.21 162.52L162.282 162.68C161.866 163.912 160.81 165.208 158.602 165.208C156.394 165.208 154.826 163.496 154.826 160.808C154.826 158.136 156.378 156.424 158.602 156.424C160.81 156.424 162.458 158.136 162.362 161.064H155.914C155.962 163 157.034 164.312 158.602 164.312C160.17 164.312 160.938 163.368 161.21 162.52ZM158.602 157.32C157.034 157.32 156.042 158.616 155.93 160.2H161.258C161.146 158.616 160.17 157.32 158.602 157.32ZM164.905 156.616V158.216H164.937C165.385 157.064 166.441 156.424 167.721 156.424C167.961 156.424 168.249 156.456 168.409 156.488V157.512C168.281 157.496 167.945 157.464 167.657 157.464C166.121 157.464 164.953 158.504 164.953 160.744V165.016H163.913V156.616H164.905ZM179.775 156.616L176.447 165C175.327 167.848 174.591 168.136 173.583 168.136C173.135 168.136 172.895 168.088 172.767 168.072V167.144C172.863 167.16 173.103 167.208 173.439 167.208C174.143 167.208 174.623 167 175.247 165.416L175.423 164.936L172.031 156.616H173.199L175.935 163.688H175.967L178.639 156.616H179.775ZM184.089 156.424C186.377 156.424 187.961 158.12 187.961 160.808C187.961 163.496 186.377 165.192 184.089 165.192C181.801 165.192 180.217 163.496 180.217 160.808C180.217 158.12 181.801 156.424 184.089 156.424ZM184.089 164.312C185.737 164.312 186.889 163 186.889 160.808C186.889 158.632 185.737 157.32 184.089 157.32C182.441 157.32 181.289 158.632 181.289 160.808C181.289 163 182.441 164.312 184.089 164.312ZM195.219 163.736H195.187C194.787 164.504 193.763 165.192 192.483 165.192C190.755 165.192 189.507 164.184 189.507 162.248V156.616H190.547V161.816C190.547 163.528 191.171 164.312 192.675 164.312C193.923 164.312 195.171 163.48 195.171 161.336V156.616H196.227V165H195.219V163.736ZM199.077 156.616V158.216H199.109C199.557 157.064 200.613 156.424 201.893 156.424C202.133 156.424 202.421 156.456 202.581 156.488V157.512C202.453 157.496 202.117 157.464 201.829 157.464C200.293 157.464 199.125 158.504 199.125 160.744V165.016H198.085V156.616H199.077ZM211.083 156.424C213.291 156.424 214.843 158.12 214.843 160.808C214.843 163.496 213.291 165.192 211.083 165.192C209.819 165.192 208.619 164.536 208.187 163.528H208.155V165H207.163V153.416H208.203V158.056H208.235C208.683 157.048 209.851 156.424 211.083 156.424ZM210.923 164.312C212.619 164.312 213.755 163 213.755 160.808C213.755 158.632 212.619 157.32 210.923 157.32C209.323 157.32 208.139 158.632 208.139 160.808C208.139 163 209.323 164.312 210.923 164.312ZM217.374 156.616V158.216H217.406C217.854 157.064 218.91 156.424 220.19 156.424C220.43 156.424 220.718 156.456 220.878 156.488V157.512C220.75 157.496 220.414 157.464 220.126 157.464C218.59 157.464 217.422 158.504 217.422 160.744V165.016H216.382V156.616H217.374ZM228.472 165H227.416C227.336 164.872 227.256 164.44 227.224 163.736C226.504 164.904 225.096 165.192 224.088 165.192C222.648 165.192 221.48 164.232 221.48 162.76C221.48 160.856 223.128 160.36 225 160.12C226.824 159.864 227.192 159.688 227.192 159.064C227.192 158.04 226.584 157.32 225.112 157.32C224.152 157.32 223.16 157.672 222.792 159.032L221.816 158.792C222.232 157.112 223.592 156.424 225.16 156.424C227.336 156.424 228.248 157.512 228.248 159.032V162.936C228.248 163.976 228.28 164.504 228.472 165ZM227.192 161.624V160.344C226.92 160.664 225.848 160.792 224.904 160.936C223.976 161.08 222.568 161.48 222.568 162.744C222.568 163.72 223.256 164.312 224.28 164.312C225.416 164.312 227.192 163.784 227.192 161.624ZM231.093 157.896H231.125C231.541 157.112 232.549 156.424 233.845 156.424C235.557 156.424 236.821 157.432 236.821 159.384V165H235.765V159.816C235.765 158.104 235.141 157.32 233.653 157.32C232.389 157.32 231.141 158.152 231.141 160.296V165H230.101V156.616H231.093V157.896ZM242.039 156.424C243.287 156.424 244.439 157.048 244.887 158.056H244.919V153.416H245.975V165H244.967V163.528H244.935C244.503 164.536 243.319 165.192 242.039 165.192C239.847 165.192 238.295 163.496 238.295 160.808C238.295 158.12 239.847 156.424 242.039 156.424ZM242.215 164.312C243.815 164.312 244.999 163 244.999 160.808C244.999 158.632 243.815 157.32 242.215 157.32C240.503 157.32 239.367 158.632 239.367 160.808C239.367 163 240.503 164.312 242.215 164.312ZM253.771 158.776L252.811 158.984C252.587 157.976 251.643 157.304 250.523 157.304C249.323 157.304 248.523 157.896 248.523 158.792C248.523 159.72 249.403 159.96 250.347 160.12L251.291 160.28C252.731 160.52 253.995 160.936 253.995 162.632C253.995 164.312 252.555 165.208 250.667 165.208C248.731 165.208 247.323 164.152 247.115 162.584L248.091 162.376C248.283 163.624 249.355 164.312 250.651 164.312C251.947 164.312 252.923 163.704 252.923 162.68C252.923 161.656 252.027 161.4 250.875 161.192L249.963 161.032C248.731 160.808 247.435 160.392 247.435 158.792C247.435 157.368 248.715 156.424 250.523 156.424C252.235 156.424 253.563 157.48 253.771 158.776ZM7.456 184H6.4C6.32 183.872 6.24 183.44 6.208 182.736C5.488 183.904 4.08 184.192 3.072 184.192C1.632 184.192 0.464 183.232 0.464 181.76C0.464 179.856 2.112 179.36 3.984 179.12C5.808 178.864 6.176 178.688 6.176 178.064C6.176 177.04 5.568 176.32 4.096 176.32C3.136 176.32 2.144 176.672 1.776 178.032L0.8 177.792C1.216 176.112 2.576 175.424 4.144 175.424C6.32 175.424 7.232 176.512 7.232 178.032V181.936C7.232 182.976 7.264 183.504 7.456 184ZM6.176 180.624V179.344C5.904 179.664 4.832 179.792 3.888 179.936C2.96 180.08 1.552 180.48 1.552 181.744C1.552 182.72 2.24 183.312 3.264 183.312C4.4 183.312 6.176 182.784 6.176 180.624ZM15.021 177.776L14.061 177.984C13.837 176.976 12.893 176.304 11.773 176.304C10.573 176.304 9.773 176.896 9.773 177.792C9.773 178.72 10.653 178.96 11.597 179.12L12.541 179.28C13.981 179.52 15.245 179.936 15.245 181.632C15.245 183.312 13.805 184.208 11.917 184.208C9.981 184.208 8.573 183.152 8.365 181.584L9.341 181.376C9.533 182.624 10.605 183.312 11.901 183.312C13.197 183.312 14.173 182.704 14.173 181.68C14.173 180.656 13.277 180.4 12.125 180.192L11.213 180.032C9.981 179.808 8.685 179.392 8.685 177.792C8.685 176.368 9.965 175.424 11.773 175.424C13.485 175.424 14.813 176.48 15.021 177.776ZM22.9021 183.104C23.2061 183.104 23.6221 183.104 23.8141 183.088V184C23.5581 184.016 23.2061 184.032 22.8061 184.032C21.2861 184.032 20.7741 183.632 20.7741 182.176V176.464H19.3661V175.616H20.7741V173.168H21.8301V175.616H23.8621V176.464H21.8301V181.952C21.8301 182.848 22.0541 183.104 22.9021 183.104ZM26.2812 176.912H26.3133C26.7133 176.128 27.7373 175.424 29.0013 175.424C30.6973 175.424 31.9613 176.432 31.9613 178.384V184H30.9053V178.816C30.9053 177.104 30.2813 176.32 28.7933 176.32C27.5773 176.32 26.2812 177.248 26.2812 179.36V184H25.2413V172.416H26.2812V176.912ZM39.8034 181.52L40.8754 181.68C40.4594 182.912 39.4034 184.208 37.1954 184.208C34.9874 184.208 33.4194 182.496 33.4194 179.808C33.4194 177.136 34.9714 175.424 37.1954 175.424C39.4034 175.424 41.0514 177.136 40.9554 180.064H34.5074C34.5554 182 35.6274 183.312 37.1954 183.312C38.7634 183.312 39.5314 182.368 39.8034 181.52ZM37.1954 176.32C35.6274 176.32 34.6354 177.616 34.5234 179.2H39.8514C39.7394 177.616 38.7634 176.32 37.1954 176.32ZM49.0096 175.616L45.6816 184C44.5616 186.848 43.8256 187.136 42.8176 187.136C42.3696 187.136 42.1296 187.088 42.0016 187.072V186.144C42.0976 186.16 42.3376 186.208 42.6736 186.208C43.3776 186.208 43.8576 186 44.4816 184.416L44.6576 183.936L41.2656 175.616H42.4336L45.1696 182.688H45.2016L47.8736 175.616H49.0096ZM65.1396 175.616L62.2916 184H61.1396L58.8516 177.072H58.8196L56.5476 184H55.4436L52.5636 175.616H53.7476L56.0196 182.688H56.0516L58.2916 175.616H59.4916L61.7316 182.688H61.7636L64.0196 175.616H65.1396ZM72.3935 184H71.3375C71.2575 183.872 71.1775 183.44 71.1455 182.736C70.4255 183.904 69.0175 184.192 68.0095 184.192C66.5695 184.192 65.4015 183.232 65.4015 181.76C65.4015 179.856 67.0495 179.36 68.9215 179.12C70.7455 178.864 71.1135 178.688 71.1135 178.064C71.1135 177.04 70.5055 176.32 69.0335 176.32C68.0735 176.32 67.0815 176.672 66.7135 178.032L65.7375 177.792C66.1535 176.112 67.5135 175.424 69.0815 175.424C71.2575 175.424 72.1695 176.512 72.1695 178.032V181.936C72.1695 182.976 72.2015 183.504 72.3935 184ZM71.1135 180.624V179.344C70.8415 179.664 69.7695 179.792 68.8255 179.936C67.8975 180.08 66.4895 180.48 66.4895 181.744C66.4895 182.72 67.1775 183.312 68.2015 183.312C69.3375 183.312 71.1135 182.784 71.1135 180.624ZM76.8396 183.104C77.1436 183.104 77.5596 183.104 77.7516 183.088V184C77.4956 184.016 77.1436 184.032 76.7436 184.032C75.2236 184.032 74.7116 183.632 74.7116 182.176V176.464H73.3036V175.616H74.7116V173.168H75.7676V175.616H77.7996V176.464H75.7676V181.952C75.7676 182.848 75.9916 183.104 76.8396 183.104ZM82.2434 183.312C83.8754 183.312 84.5314 182.08 84.8034 181.28L85.9074 181.456C85.5234 182.624 84.4994 184.192 82.2434 184.192C80.0034 184.192 78.4354 182.496 78.4354 179.808C78.4354 177.12 80.0194 175.424 82.2594 175.424C84.5154 175.424 85.4274 177.04 85.6994 177.648L84.6914 177.984C84.4674 177.536 83.8914 176.32 82.2594 176.32C80.6434 176.32 79.5074 177.632 79.5074 179.808C79.5074 182 80.6274 183.312 82.2434 183.312ZM88.2656 176.912H88.2976C88.6976 176.128 89.7216 175.424 90.9856 175.424C92.6816 175.424 93.9456 176.432 93.9456 178.384V184H92.8896V178.816C92.8896 177.104 92.2656 176.32 90.7776 176.32C89.5616 176.32 88.2656 177.248 88.2656 179.36V184H87.2256V172.416H88.2656V176.912ZM102.651 175.424C104.939 175.424 106.523 177.12 106.523 179.808C106.523 182.496 104.939 184.192 102.651 184.192C100.363 184.192 98.7791 182.496 98.7791 179.808C98.7791 177.12 100.363 175.424 102.651 175.424ZM102.651 183.312C104.299 183.312 105.451 182 105.451 179.808C105.451 177.632 104.299 176.32 102.651 176.32C101.003 176.32 99.8511 177.632 99.8511 179.808C99.8511 182 101.003 183.312 102.651 183.312ZM113.781 182.736H113.749C113.349 183.504 112.325 184.192 111.045 184.192C109.317 184.192 108.069 183.184 108.069 181.248V175.616H109.109V180.816C109.109 182.528 109.733 183.312 111.237 183.312C112.485 183.312 113.733 182.48 113.733 180.336V175.616H114.789V184H113.781V182.736ZM117.64 175.616V177.216H117.672C118.12 176.064 119.176 175.424 120.456 175.424C120.696 175.424 120.984 175.456 121.144 175.488V176.512C121.016 176.496 120.68 176.464 120.391 176.464C118.856 176.464 117.688 177.504 117.688 179.744V184.016H116.648V175.616H117.64ZM129.246 184H128.11L124.83 175.616H125.998L128.686 182.8H128.718L131.438 175.616H132.574L129.246 184ZM133.568 172.416H134.704V173.712H133.568V172.416ZM133.616 175.616H134.656V184H133.616V175.616ZM139.945 175.424C141.193 175.424 142.345 176.048 142.793 177.056H142.825V172.416H143.881V184H142.873V182.528H142.841C142.409 183.536 141.225 184.192 139.945 184.192C137.753 184.192 136.201 182.496 136.201 179.808C136.201 177.12 137.753 175.424 139.945 175.424ZM140.121 183.312C141.721 183.312 142.905 182 142.905 179.808C142.905 177.632 141.721 176.32 140.121 176.32C138.409 176.32 137.273 177.632 137.273 179.808C137.273 182 138.409 183.312 140.121 183.312ZM151.725 181.52L152.797 181.68C152.381 182.912 151.325 184.208 149.117 184.208C146.909 184.208 145.341 182.496 145.341 179.808C145.341 177.136 146.893 175.424 149.117 175.424C151.325 175.424 152.973 177.136 152.877 180.064H146.429C146.477 182 147.549 183.312 149.117 183.312C150.685 183.312 151.453 182.368 151.725 181.52ZM149.117 176.32C147.549 176.32 146.557 177.616 146.445 179.2H151.773C151.661 177.616 150.685 176.32 149.117 176.32ZM157.917 175.424C160.205 175.424 161.789 177.12 161.789 179.808C161.789 182.496 160.205 184.192 157.917 184.192C155.629 184.192 154.045 182.496 154.045 179.808C154.045 177.12 155.629 175.424 157.917 175.424ZM157.917 183.312C159.565 183.312 160.717 182 160.717 179.808C160.717 177.632 159.565 176.32 157.917 176.32C156.269 176.32 155.117 177.632 155.117 179.808C155.117 182 156.269 183.312 157.917 183.312ZM169.271 177.776L168.311 177.984C168.087 176.976 167.143 176.304 166.023 176.304C164.823 176.304 164.023 176.896 164.023 177.792C164.023 178.72 164.903 178.96 165.847 179.12L166.791 179.28C168.231 179.52 169.495 179.936 169.495 181.632C169.495 183.312 168.055 184.208 166.167 184.208C164.231 184.208 162.823 183.152 162.615 181.584L163.591 181.376C163.783 182.624 164.855 183.312 166.151 183.312C167.447 183.312 168.423 182.704 168.423 181.68C168.423 180.656 167.527 180.4 166.375 180.192L165.463 180.032C164.231 179.808 162.935 179.392 162.935 177.792C162.935 176.368 164.215 175.424 166.023 175.424C167.735 175.424 169.063 176.48 169.271 177.776ZM171.057 182.544H172.481V184H171.057V182.544Z" fill="white"/>
<path d="M14.756 19.356L20.132 19.832C19.404 24.06 15.932 27.448 10.584 27.448C4.732 27.448 0.56 23.668 0.56 17.004C0.56 10.368 4.732 6.588 10.584 6.588C15.708 6.588 19.068 9.752 19.936 13.224L14.616 13.868C14.084 12.132 12.684 10.788 10.584 10.788C8.232 10.788 5.964 12.412 5.964 17.004C5.964 21.624 8.232 23.248 10.584 23.248C12.852 23.248 14.308 21.708 14.756 19.356ZM31.2872 6.56C37.1672 6.56 41.4512 10.34 41.4512 17.004C41.4512 23.696 37.1672 27.448 31.2872 27.448C25.3792 27.448 21.0952 23.696 21.0952 17.004C21.0952 10.34 25.3792 6.56 31.2872 6.56ZM31.2872 23.248C33.8352 23.248 36.0472 21.624 36.0472 17.004C36.0472 12.412 33.8352 10.788 31.2872 10.788C28.7112 10.788 26.4992 12.412 26.4992 17.004C26.4992 21.624 28.7112 23.248 31.2872 23.248ZM61.1793 27H55.2153L47.8513 13.98H47.7393V27H42.8953V7.008H48.9993L56.2233 19.748H56.3353V7.008H61.1793V27ZM80.1583 11.404H73.9423V27H68.6223V11.404H62.3783V7.008H80.1583V11.404ZM86.716 14.848H96.096V18.74H86.716V22.828H96.628V27H81.368V7.008H96.628V11.096H86.716V14.848ZM116.386 27H110.422L103.058 13.98H102.946V27H98.1024V7.008H104.206L111.43 19.748H111.542V7.008H116.386V27ZM135.365 11.404H129.149V27H123.829V11.404H117.585V7.008H135.365V11.404ZM159.127 11.404H152.911V27H147.591V11.404H141.347V7.008H159.127V11.404ZM170.85 22.828H163.43L162.086 27H156.514L163.598 7.008H170.794L177.878 27H172.194L170.85 22.828ZM169.646 19.048L167.154 11.376H167.042L164.606 19.048H169.646ZM178.712 7.008H188.568C193.328 7.008 196.128 9.5 196.128 13.756C196.128 17.984 193.328 20.476 188.568 20.476H184.032V27H178.712V7.008ZM184.032 16.388H187.616C189.66 16.388 190.696 15.38 190.696 13.756C190.696 12.104 189.66 11.096 187.616 11.096H184.032V16.388ZM197.86 21.148V17.032H206.708V21.148H197.86ZM208.845 27V7.008H214.165V27H208.845ZM234.211 27H228.247L220.883 13.98H220.771V27H215.927V7.008H222.031L229.255 19.748H229.367V7.008H234.211V27Z" fill="white"/>
</svg>
