<svg width="249" height="188" viewBox="0 0 249 188" fill="none" xmlns="http://www.w3.org/2000/svg">
<path d="M1.056 96.576H5.696C8.032 96.576 9.36 97.808 9.36 99.968C9.36 102.112 8.032 103.344 5.696 103.344H2.176V108H1.056V96.576ZM2.176 102.368H5.536C7.232 102.368 8.208 101.6 8.208 99.968C8.208 98.32 7.232 97.552 5.536 97.552H2.176V102.368ZM17.1279 108H16.0719C15.9919 107.872 15.9119 107.44 15.8799 106.736C15.1599 107.904 13.7519 108.192 12.7439 108.192C11.3039 108.192 10.1359 107.232 10.1359 105.76C10.1359 103.856 11.7839 103.36 13.6559 103.12C15.4799 102.864 15.8479 102.688 15.8479 102.064C15.8479 101.04 15.2399 100.32 13.7679 100.32C12.8079 100.32 11.8159 100.672 11.4479 102.032L10.4719 101.792C10.8879 100.112 12.2479 99.424 13.8159 99.424C15.9919 99.424 16.9039 100.512 16.9039 102.032V105.936C16.9039 106.976 16.9359 107.504 17.1279 108ZM15.8479 104.624V103.344C15.5759 103.664 14.5039 103.792 13.5599 103.936C12.6319 104.08 11.2239 104.48 11.2239 105.744C11.2239 106.72 11.9119 107.312 12.9359 107.312C14.0719 107.312 15.8479 106.784 15.8479 104.624ZM19.7489 99.616V101.216H19.7809C20.2289 100.064 21.2849 99.424 22.5649 99.424C22.8049 99.424 23.0929 99.456 23.2529 99.488V100.512C23.1249 100.496 22.7889 100.464 22.5009 100.464C20.9649 100.464 19.7969 101.504 19.7969 103.744V108.016H18.7569V99.616H19.7489ZM27.4959 107.104C27.7999 107.104 28.2159 107.104 28.4079 107.088V108C28.1519 108.016 27.7999 108.032 27.3999 108.032C25.8799 108.032 25.3679 107.632 25.3679 106.176V100.464H23.9599V99.616H25.3679V97.168H26.4239V99.616H28.4559V100.464H26.4239V105.952C26.4239 106.848 26.6479 107.104 27.4959 107.104ZM30.827 100.896H30.859C31.275 100.112 32.283 99.424 33.579 99.424C35.291 99.424 36.555 100.432 36.555 102.384V108H35.499V102.816C35.499 101.104 34.875 100.32 33.387 100.32C32.123 100.32 30.875 101.152 30.875 103.296V108H29.835V99.616H30.827V100.896ZM44.3971 105.52L45.4691 105.68C45.0531 106.912 43.9971 108.208 41.7891 108.208C39.5811 108.208 38.0131 106.496 38.0131 103.808C38.0131 101.136 39.5651 99.424 41.7891 99.424C43.9971 99.424 45.6451 101.136 45.5491 104.064H39.1011C39.1491 106 40.2211 107.312 41.7891 107.312C43.3571 107.312 44.1251 106.368 44.3971 105.52ZM41.7891 100.32C40.2211 100.32 39.2291 101.616 39.1171 103.2H44.4451C44.3331 101.616 43.3571 100.32 41.7891 100.32ZM48.0926 99.616V101.216H48.1246C48.5726 100.064 49.6286 99.424 50.9086 99.424C51.1486 99.424 51.4366 99.456 51.5966 99.488V100.512C51.4686 100.496 51.1326 100.464 50.8446 100.464C49.3086 100.464 48.1406 101.504 48.1406 103.744V108.016H47.1006V99.616H48.0926ZM67.8428 99.616L64.9948 108H63.8428L61.5548 101.072H61.5228L59.2508 108H58.1468L55.2668 99.616H56.4508L58.7228 106.688H58.7548L60.9948 99.616H62.1948L64.4348 106.688H64.4668L66.7228 99.616H67.8428ZM68.8339 96.416H69.9699V97.712H68.8339V96.416ZM68.8819 99.616H69.9219V108H68.8819V99.616ZM74.7146 107.104C75.0186 107.104 75.4346 107.104 75.6266 107.088V108C75.3706 108.016 75.0186 108.032 74.6186 108.032C73.0986 108.032 72.5866 107.632 72.5866 106.176V100.464H71.1786V99.616H72.5866V97.168H73.6426V99.616H75.6746V100.464H73.6426V105.952C73.6426 106.848 73.8666 107.104 74.7146 107.104ZM78.0938 100.912H78.1258C78.5258 100.128 79.5498 99.424 80.8138 99.424C82.5098 99.424 83.7738 100.432 83.7738 102.384V108H82.7178V102.816C82.7178 101.104 82.0938 100.32 80.6058 100.32C79.3898 100.32 78.0938 101.248 78.0938 103.36V108H77.0538V96.416H78.0938V100.912ZM92.4793 99.424C94.7673 99.424 96.3513 101.12 96.3513 103.808C96.3513 106.496 94.7673 108.192 92.4793 108.192C90.1913 108.192 88.6073 106.496 88.6073 103.808C88.6073 101.12 90.1913 99.424 92.4793 99.424ZM92.4793 107.312C94.1273 107.312 95.2793 106 95.2793 103.808C95.2793 101.632 94.1273 100.32 92.4793 100.32C90.8313 100.32 89.6793 101.632 89.6793 103.808C89.6793 106 90.8313 107.312 92.4793 107.312ZM103.61 106.736H103.578C103.178 107.504 102.154 108.192 100.874 108.192C99.1455 108.192 97.8975 107.184 97.8975 105.248V99.616H98.9375V104.816C98.9375 106.528 99.5615 107.312 101.066 107.312C102.314 107.312 103.562 106.48 103.562 104.336V99.616H104.618V108H103.61V106.736ZM107.468 99.616V101.216H107.5C107.948 100.064 109.004 99.424 110.284 99.424C110.524 99.424 110.812 99.456 110.972 99.488V100.512C110.844 100.496 110.508 100.464 110.22 100.464C108.684 100.464 107.516 101.504 107.516 103.744V108.016H106.476V99.616H107.468ZM118.626 97.136C118.002 97.136 117.346 97.232 117.346 98.32V99.616H119.378V100.464H117.346V108.016H116.29V100.464H114.882V99.616H116.29V98.224C116.29 96.64 117.314 96.24 118.482 96.24C118.93 96.24 119.426 96.288 119.634 96.336V97.216C119.458 97.184 118.914 97.136 118.626 97.136ZM126.61 106.736H126.578C126.178 107.504 125.154 108.192 123.874 108.192C122.146 108.192 120.898 107.184 120.898 105.248V99.616H121.938V104.816C121.938 106.528 122.562 107.312 124.066 107.312C125.314 107.312 126.562 106.48 126.562 104.336V99.616H127.618V108H126.61V106.736ZM130.468 100.896H130.5C130.916 100.112 131.924 99.424 133.22 99.424C134.932 99.424 136.196 100.432 136.196 102.384V108H135.14V102.816C135.14 101.104 134.516 100.32 133.028 100.32C131.764 100.32 130.516 101.152 130.516 103.296V108H129.476V99.616H130.468V100.896ZM144.277 107.104C144.581 107.104 144.997 107.104 145.189 107.088V108C144.933 108.016 144.581 108.032 144.181 108.032C142.661 108.032 142.149 107.632 142.149 106.176V100.464H140.741V99.616H142.149V97.168H143.205V99.616H145.237V100.464H143.205V105.952C143.205 106.848 143.429 107.104 144.277 107.104ZM152.241 105.52L153.313 105.68C152.897 106.912 151.841 108.208 149.633 108.208C147.425 108.208 145.857 106.496 145.857 103.808C145.857 101.136 147.409 99.424 149.633 99.424C151.841 99.424 153.489 101.136 153.393 104.064H146.945C146.993 106 148.065 107.312 149.633 107.312C151.201 107.312 151.969 106.368 152.241 105.52ZM149.633 100.32C148.065 100.32 147.073 101.616 146.961 103.2H152.289C152.177 101.616 151.201 100.32 149.633 100.32ZM161.44 108H160.384C160.304 107.872 160.224 107.44 160.192 106.736C159.472 107.904 158.064 108.192 157.056 108.192C155.616 108.192 154.448 107.232 154.448 105.76C154.448 103.856 156.096 103.36 157.968 103.12C159.792 102.864 160.16 102.688 160.16 102.064C160.16 101.04 159.552 100.32 158.08 100.32C157.12 100.32 156.128 100.672 155.76 102.032L154.784 101.792C155.2 100.112 156.56 99.424 158.128 99.424C160.304 99.424 161.216 100.512 161.216 102.032V105.936C161.216 106.976 161.248 107.504 161.44 108ZM160.16 104.624V103.344C159.888 103.664 158.816 103.792 157.872 103.936C156.944 104.08 155.536 104.48 155.536 105.744C155.536 106.72 156.224 107.312 157.248 107.312C158.384 107.312 160.16 106.784 160.16 104.624ZM171.789 99.424H171.773C173.341 99.424 174.525 100.432 174.525 102.384V108H173.469V102.816C173.469 101.104 172.893 100.32 171.565 100.32C170.477 100.32 169.325 101.024 169.325 103.184V108H168.269V102.816C168.269 101.104 167.693 100.32 166.349 100.32C165.229 100.32 164.109 101.152 164.109 103.296V108H163.053V99.616H164.061V100.896H164.093C164.493 100.096 165.421 99.424 166.573 99.424C167.693 99.424 168.605 99.952 169.053 100.96C169.533 100.144 170.429 99.424 171.789 99.424ZM186.253 108H185.197C185.117 107.872 185.037 107.44 185.005 106.736C184.285 107.904 182.877 108.192 181.869 108.192C180.429 108.192 179.261 107.232 179.261 105.76C179.261 103.856 180.909 103.36 182.781 103.12C184.605 102.864 184.973 102.688 184.973 102.064C184.973 101.04 184.365 100.32 182.893 100.32C181.933 100.32 180.941 100.672 180.573 102.032L179.597 101.792C180.013 100.112 181.373 99.424 182.941 99.424C185.117 99.424 186.029 100.512 186.029 102.032V105.936C186.029 106.976 186.061 107.504 186.253 108ZM184.973 104.624V103.344C184.701 103.664 183.629 103.792 182.685 103.936C181.757 104.08 180.349 104.48 180.349 105.744C180.349 106.72 181.037 107.312 182.061 107.312C183.197 107.312 184.973 106.784 184.973 104.624ZM188.874 100.896H188.906C189.322 100.112 190.33 99.424 191.626 99.424C193.338 99.424 194.602 100.432 194.602 102.384V108H193.546V102.816C193.546 101.104 192.922 100.32 191.434 100.32C190.17 100.32 188.922 101.152 188.922 103.296V108H187.882V99.616H188.874V100.896ZM199.82 99.424C201.068 99.424 202.22 100.048 202.668 101.056H202.7V96.416H203.756V108H202.748V106.528H202.716C202.284 107.536 201.1 108.192 199.82 108.192C197.628 108.192 196.076 106.496 196.076 103.808C196.076 101.12 197.628 99.424 199.82 99.424ZM199.996 107.312C201.596 107.312 202.78 106 202.78 103.808C202.78 101.632 201.596 100.32 199.996 100.32C198.284 100.32 197.148 101.632 197.148 103.808C197.148 106 198.284 107.312 199.996 107.312ZM214.912 101.776L213.952 101.984C213.728 100.976 212.784 100.304 211.664 100.304C210.464 100.304 209.664 100.896 209.664 101.792C209.664 102.72 210.544 102.96 211.488 103.12L212.432 103.28C213.872 103.52 215.136 103.936 215.136 105.632C215.136 107.312 213.696 108.208 211.808 108.208C209.872 108.208 208.464 107.152 208.256 105.584L209.232 105.376C209.424 106.624 210.496 107.312 211.792 107.312C213.088 107.312 214.064 106.704 214.064 105.68C214.064 104.656 213.168 104.4 212.016 104.192L211.104 104.032C209.872 103.808 208.576 103.392 208.576 101.792C208.576 100.368 209.856 99.424 211.664 99.424C213.376 99.424 214.704 100.48 214.912 101.776ZM219.993 107.312C221.625 107.312 222.281 106.08 222.553 105.28L223.657 105.456C223.273 106.624 222.249 108.192 219.993 108.192C217.753 108.192 216.185 106.496 216.185 103.808C216.185 101.12 217.769 99.424 220.009 99.424C222.265 99.424 223.177 101.04 223.449 101.648L222.441 101.984C222.217 101.536 221.641 100.32 220.009 100.32C218.393 100.32 217.257 101.632 217.257 103.808C217.257 106 218.377 107.312 219.993 107.312ZM231.472 108H230.416C230.336 107.872 230.256 107.44 230.224 106.736C229.504 107.904 228.096 108.192 227.088 108.192C225.648 108.192 224.48 107.232 224.48 105.76C224.48 103.856 226.128 103.36 228 103.12C229.824 102.864 230.192 102.688 230.192 102.064C230.192 101.04 229.584 100.32 228.112 100.32C227.152 100.32 226.16 100.672 225.792 102.032L224.816 101.792C225.232 100.112 226.592 99.424 228.16 99.424C230.336 99.424 231.248 100.512 231.248 102.032V105.936C231.248 106.976 231.28 107.504 231.472 108ZM230.192 104.624V103.344C229.92 103.664 228.848 103.792 227.904 103.936C226.976 104.08 225.568 104.48 225.568 105.744C225.568 106.72 226.256 107.312 227.28 107.312C228.416 107.312 230.192 106.784 230.192 104.624ZM233.149 96.416H234.189V108H233.149V96.416ZM242.163 105.52L243.235 105.68C242.819 106.912 241.763 108.208 239.555 108.208C237.347 108.208 235.779 106.496 235.779 103.808C235.779 101.136 237.331 99.424 239.555 99.424C241.763 99.424 243.411 101.136 243.315 104.064H236.867C236.915 106 237.987 107.312 239.555 107.312C241.123 107.312 241.891 106.368 242.163 105.52ZM239.555 100.32C237.987 100.32 236.995 101.616 236.883 103.2H242.211C242.099 101.616 241.123 100.32 239.555 100.32ZM7.744 118.616L4.416 127C3.296 129.848 2.56 130.136 1.552 130.136C1.104 130.136 0.864 130.088 0.736 130.072V129.144C0.832 129.16 1.072 129.208 1.408 129.208C2.112 129.208 2.592 129 3.216 127.416L3.392 126.936L0 118.616H1.168L3.904 125.688H3.936L6.608 118.616H7.744ZM12.0574 118.424C14.3454 118.424 15.9294 120.12 15.9294 122.808C15.9294 125.496 14.3454 127.192 12.0574 127.192C9.76938 127.192 8.18538 125.496 8.18538 122.808C8.18538 120.12 9.76938 118.424 12.0574 118.424ZM12.0574 126.312C13.7054 126.312 14.8574 125 14.8574 122.808C14.8574 120.632 13.7054 119.32 12.0574 119.32C10.4094 119.32 9.25738 120.632 9.25738 122.808C9.25738 125 10.4094 126.312 12.0574 126.312ZM23.1876 125.736H23.1556C22.7556 126.504 21.7316 127.192 20.4516 127.192C18.7236 127.192 17.4756 126.184 17.4756 124.248V118.616H18.5156V123.816C18.5156 125.528 19.1396 126.312 20.6436 126.312C21.8916 126.312 23.1396 125.48 23.1396 123.336V118.616H24.1956V127H23.1876V125.736ZM27.0458 118.616V120.216H27.0778C27.5258 119.064 28.5818 118.424 29.8618 118.424C30.1018 118.424 30.3898 118.456 30.5498 118.488V119.512C30.4218 119.496 30.0858 119.464 29.7977 119.464C28.2618 119.464 27.0938 120.504 27.0938 122.744V127.016H26.0538V118.616H27.0458ZM39.0519 118.424C41.2599 118.424 42.8119 120.12 42.8119 122.808C42.8119 125.496 41.2599 127.192 39.0519 127.192C37.7879 127.192 36.5879 126.536 36.1559 125.528H36.1239V127H35.1319V115.416H36.1719V120.056H36.2039C36.6519 119.048 37.8199 118.424 39.0519 118.424ZM38.8919 126.312C40.5879 126.312 41.7239 125 41.7239 122.808C41.7239 120.632 40.5879 119.32 38.8919 119.32C37.2919 119.32 36.1079 120.632 36.1079 122.808C36.1079 125 37.2919 126.312 38.8919 126.312ZM45.3426 118.616V120.216H45.3746C45.8226 119.064 46.8786 118.424 48.1586 118.424C48.3986 118.424 48.6866 118.456 48.8466 118.488V119.512C48.7186 119.496 48.3826 119.464 48.0946 119.464C46.5586 119.464 45.3906 120.504 45.3906 122.744V127.016H44.3506V118.616H45.3426ZM56.4404 127H55.3844C55.3044 126.872 55.2244 126.44 55.1924 125.736C54.4724 126.904 53.0644 127.192 52.0564 127.192C50.6164 127.192 49.4484 126.232 49.4484 124.76C49.4484 122.856 51.0964 122.36 52.9684 122.12C54.7924 121.864 55.1604 121.688 55.1604 121.064C55.1604 120.04 54.5524 119.32 53.0804 119.32C52.1204 119.32 51.1284 119.672 50.7604 121.032L49.7844 120.792C50.2004 119.112 51.5604 118.424 53.1284 118.424C55.3044 118.424 56.2164 119.512 56.2164 121.032V124.936C56.2164 125.976 56.2484 126.504 56.4404 127ZM55.1604 123.624V122.344C54.8884 122.664 53.8164 122.792 52.8724 122.936C51.9444 123.08 50.5364 123.48 50.5364 124.744C50.5364 125.72 51.2244 126.312 52.2484 126.312C53.3844 126.312 55.1604 125.784 55.1604 123.624ZM59.0614 119.896H59.0934C59.5094 119.112 60.5174 118.424 61.8134 118.424C63.5254 118.424 64.7894 119.432 64.7894 121.384V127H63.7334V121.816C63.7334 120.104 63.1094 119.32 61.6214 119.32C60.3574 119.32 59.1094 120.152 59.1094 122.296V127H58.0694V118.616H59.0614V119.896ZM70.0075 118.424C71.2555 118.424 72.4075 119.048 72.8555 120.056H72.8875V115.416H73.9435V127H72.9355V125.528H72.9035C72.4715 126.536 71.2875 127.192 70.0075 127.192C67.8155 127.192 66.2635 125.496 66.2635 122.808C66.2635 120.12 67.8155 118.424 70.0075 118.424ZM70.1835 126.312C71.7835 126.312 72.9675 125 72.9675 122.808C72.9675 120.632 71.7835 119.32 70.1835 119.32C68.4715 119.32 67.3355 120.632 67.3355 122.808C67.3355 125 68.4715 126.312 70.1835 126.312ZM90.8271 118.616L87.9791 127H86.8271L84.5391 120.072H84.5071L82.2351 127H81.1311L78.2511 118.616H79.4351L81.7071 125.688H81.7391L83.9791 118.616H85.1791L87.4191 125.688H87.4511L89.7071 118.616H90.8271ZM91.8183 115.416H92.9543V116.712H91.8183V115.416ZM91.8663 118.616H92.9062V127H91.8663V118.616ZM97.699 126.104C98.003 126.104 98.419 126.104 98.611 126.088V127C98.355 127.016 98.003 127.032 97.603 127.032C96.083 127.032 95.571 126.632 95.571 125.176V119.464H94.163V118.616H95.571V116.168H96.627V118.616H98.659V119.464H96.627V124.952C96.627 125.848 96.851 126.104 97.699 126.104ZM101.078 119.912H101.11C101.51 119.128 102.534 118.424 103.798 118.424C105.494 118.424 106.758 119.432 106.758 121.384V127H105.702V121.816C105.702 120.104 105.078 119.32 103.59 119.32C102.374 119.32 101.078 120.248 101.078 122.36V127H100.038V115.416H101.078V119.912ZM118.472 127H117.416C117.336 126.872 117.256 126.44 117.224 125.736C116.504 126.904 115.096 127.192 114.088 127.192C112.648 127.192 111.48 126.232 111.48 124.76C111.48 122.856 113.128 122.36 115 122.12C116.824 121.864 117.192 121.688 117.192 121.064C117.192 120.04 116.584 119.32 115.112 119.32C114.152 119.32 113.16 119.672 112.792 121.032L111.816 120.792C112.232 119.112 113.592 118.424 115.16 118.424C117.336 118.424 118.248 119.512 118.248 121.032V124.936C118.248 125.976 118.28 126.504 118.472 127ZM117.192 123.624V122.344C116.92 122.664 115.848 122.792 114.904 122.936C113.976 123.08 112.568 123.48 112.568 124.744C112.568 125.72 113.256 126.312 114.28 126.312C115.416 126.312 117.192 125.784 117.192 123.624ZM126.884 126.312C128.516 126.312 129.172 125.08 129.444 124.28L130.548 124.456C130.164 125.624 129.14 127.192 126.884 127.192C124.644 127.192 123.076 125.496 123.076 122.808C123.076 120.12 124.66 118.424 126.9 118.424C129.156 118.424 130.068 120.04 130.34 120.648L129.332 120.984C129.108 120.536 128.532 119.32 126.9 119.32C125.284 119.32 124.148 120.632 124.148 122.808C124.148 125 125.268 126.312 126.884 126.312ZM135.354 118.424C137.642 118.424 139.226 120.12 139.226 122.808C139.226 125.496 137.642 127.192 135.354 127.192C133.066 127.192 131.482 125.496 131.482 122.808C131.482 120.12 133.066 118.424 135.354 118.424ZM135.354 126.312C137.002 126.312 138.154 125 138.154 122.808C138.154 120.632 137.002 119.32 135.354 119.32C133.706 119.32 132.554 120.632 132.554 122.808C132.554 125 133.706 126.312 135.354 126.312ZM140.821 115.416H141.861V127H140.821V115.416ZM143.899 115.416H144.939V127H143.899V115.416ZM153.425 127H152.369C152.289 126.872 152.209 126.44 152.177 125.736C151.457 126.904 150.049 127.192 149.041 127.192C147.601 127.192 146.433 126.232 146.433 124.76C146.433 122.856 148.081 122.36 149.953 122.12C151.777 121.864 152.145 121.688 152.145 121.064C152.145 120.04 151.537 119.32 150.065 119.32C149.105 119.32 148.113 119.672 147.745 121.032L146.769 120.792C147.185 119.112 148.545 118.424 150.113 118.424C152.289 118.424 153.201 119.512 153.201 121.032V124.936C153.201 125.976 153.233 126.504 153.425 127ZM152.145 123.624V122.344C151.873 122.664 150.801 122.792 149.857 122.936C148.929 123.08 147.521 123.48 147.521 124.744C147.521 125.72 148.209 126.312 149.233 126.312C150.369 126.312 152.145 125.784 152.145 123.624ZM158.974 118.424C161.182 118.424 162.734 120.12 162.734 122.808C162.734 125.496 161.182 127.192 158.974 127.192C157.71 127.192 156.51 126.536 156.078 125.528H156.046V127H155.054V115.416H156.094V120.056H156.126C156.574 119.048 157.742 118.424 158.974 118.424ZM158.814 126.312C160.51 126.312 161.646 125 161.646 122.808C161.646 120.632 160.51 119.32 158.814 119.32C157.214 119.32 156.03 120.632 156.03 122.808C156.03 125 157.214 126.312 158.814 126.312ZM167.761 118.424C170.049 118.424 171.633 120.12 171.633 122.808C171.633 125.496 170.049 127.192 167.761 127.192C165.473 127.192 163.889 125.496 163.889 122.808C163.889 120.12 165.473 118.424 167.761 118.424ZM167.761 126.312C169.409 126.312 170.561 125 170.561 122.808C170.561 120.632 169.409 119.32 167.761 119.32C166.113 119.32 164.961 120.632 164.961 122.808C164.961 125 166.113 126.312 167.761 126.312ZM174.171 118.616V120.216H174.203C174.651 119.064 175.707 118.424 176.987 118.424C177.227 118.424 177.515 118.456 177.675 118.488V119.512C177.547 119.496 177.211 119.464 176.923 119.464C175.387 119.464 174.219 120.504 174.219 122.744V127.016H173.179V118.616H174.171ZM185.269 127H184.213C184.133 126.872 184.053 126.44 184.021 125.736C183.301 126.904 181.893 127.192 180.885 127.192C179.445 127.192 178.277 126.232 178.277 124.76C178.277 122.856 179.924 122.36 181.797 122.12C183.621 121.864 183.989 121.688 183.989 121.064C183.989 120.04 183.381 119.32 181.909 119.32C180.949 119.32 179.957 119.672 179.589 121.032L178.613 120.792C179.029 119.112 180.389 118.424 181.957 118.424C184.133 118.424 185.045 119.512 185.045 121.032V124.936C185.045 125.976 185.077 126.504 185.269 127ZM183.989 123.624V122.344C183.717 122.664 182.645 122.792 181.701 122.936C180.773 123.08 179.365 123.48 179.365 124.744C179.365 125.72 180.053 126.312 181.077 126.312C182.213 126.312 183.989 125.784 183.989 123.624ZM189.715 126.104C190.019 126.104 190.435 126.104 190.627 126.088V127C190.371 127.016 190.019 127.032 189.619 127.032C188.099 127.032 187.587 126.632 187.587 125.176V119.464H186.179V118.616H187.587V116.168H188.643V118.616H190.675V119.464H188.643V124.952C188.643 125.848 188.867 126.104 189.715 126.104ZM192.006 115.416H193.142V116.712H192.006V115.416ZM192.054 118.616H193.094V127H192.054V118.616ZM198.543 127H197.407L194.127 118.616H195.295L197.983 125.8H198.015L200.735 118.616H201.871L198.543 127ZM208.616 124.52L209.688 124.68C209.272 125.912 208.216 127.208 206.008 127.208C203.8 127.208 202.232 125.496 202.232 122.808C202.232 120.136 203.784 118.424 206.008 118.424C208.216 118.424 209.864 120.136 209.768 123.064H203.32C203.368 125 204.44 126.312 206.008 126.312C207.576 126.312 208.344 125.368 208.616 124.52ZM206.008 119.32C204.44 119.32 203.448 120.616 203.336 122.2H208.664C208.552 120.616 207.576 119.32 206.008 119.32ZM226.343 118.616L223.495 127H222.343L220.055 120.072H220.023L217.751 127H216.647L213.767 118.616H214.951L217.223 125.688H217.255L219.495 118.616H220.695L222.935 125.688H222.967L225.223 118.616H226.343ZM230.589 118.424C232.877 118.424 234.461 120.12 234.461 122.808C234.461 125.496 232.877 127.192 230.589 127.192C228.301 127.192 226.717 125.496 226.717 122.808C226.717 120.12 228.301 118.424 230.589 118.424ZM230.589 126.312C232.237 126.312 233.389 125 233.389 122.808C233.389 120.632 232.237 119.32 230.589 119.32C228.941 119.32 227.789 120.632 227.789 122.808C227.789 125 228.941 126.312 230.589 126.312ZM236.999 118.616V120.216H237.031C237.479 119.064 238.535 118.424 239.815 118.424C240.055 118.424 240.343 118.456 240.503 118.488V119.512C240.375 119.496 240.039 119.464 239.751 119.464C238.215 119.464 237.047 120.504 237.047 122.744V127.016H236.007V118.616H236.999ZM242.766 123.544V127H241.71V115.416H242.766V122.344L246.846 118.616H248.19L244.622 121.848L248.638 127H247.374L243.902 122.536L242.766 123.544ZM6.944 143.52L8.016 143.68C7.6 144.912 6.544 146.208 4.336 146.208C2.128 146.208 0.56 144.496 0.56 141.808C0.56 139.136 2.112 137.424 4.336 137.424C6.544 137.424 8.192 139.136 8.096 142.064H1.648C1.696 144 2.768 145.312 4.336 145.312C5.904 145.312 6.672 144.368 6.944 143.52ZM4.336 138.32C2.768 138.32 1.776 139.616 1.664 141.2H6.992C6.88 139.616 5.904 138.32 4.336 138.32ZM10.6395 138.896H10.6715C11.0875 138.112 12.0955 137.424 13.3915 137.424C15.1035 137.424 16.3675 138.432 16.3675 140.384V146H15.3115V140.816C15.3115 139.104 14.6875 138.32 13.1995 138.32C11.9355 138.32 10.6875 139.152 10.6875 141.296V146H9.6475V137.616H10.6395V138.896ZM21.4019 146H20.2659L16.9859 137.616H18.1539L20.8419 144.8H20.8739L23.5939 137.616H24.7299L21.4019 146ZM25.7245 134.416H26.8605V135.712H25.7245V134.416ZM25.7725 137.616H26.8125V146H25.7725V137.616ZM29.7333 137.616V139.216H29.7653C30.2133 138.064 31.2693 137.424 32.5493 137.424C32.7893 137.424 33.0773 137.456 33.2373 137.488V138.512C33.1093 138.496 32.7733 138.464 32.4852 138.464C30.9493 138.464 29.7812 139.504 29.7812 141.744V146.016H28.7413V137.616H29.7333ZM37.7293 137.424C40.0173 137.424 41.6013 139.12 41.6013 141.808C41.6013 144.496 40.0173 146.192 37.7293 146.192C35.4413 146.192 33.8573 144.496 33.8573 141.808C33.8573 139.12 35.4413 137.424 37.7293 137.424ZM37.7293 145.312C39.3773 145.312 40.5293 144 40.5293 141.808C40.5293 139.632 39.3773 138.32 37.7293 138.32C36.0813 138.32 34.9293 139.632 34.9293 141.808C34.9293 144 36.0813 145.312 37.7293 145.312ZM44.1395 138.896H44.1715C44.5875 138.112 45.5955 137.424 46.8915 137.424C48.6035 137.424 49.8675 138.432 49.8675 140.384V146H48.8115V140.816C48.8115 139.104 48.1875 138.32 46.6995 138.32C45.4355 138.32 44.1875 139.152 44.1875 141.296V146H43.1475V137.616H44.1395V138.896ZM60.4456 137.424H60.4296C61.9976 137.424 63.1816 138.432 63.1816 140.384V146H62.1256V140.816C62.1256 139.104 61.5496 138.32 60.2216 138.32C59.1336 138.32 57.9816 139.024 57.9816 141.184V146H56.9256V140.816C56.9256 139.104 56.3496 138.32 55.0056 138.32C53.8856 138.32 52.7656 139.152 52.7656 141.296V146H51.7096V137.616H52.7176V138.896H52.7496C53.1496 138.096 54.0776 137.424 55.2296 137.424C56.3496 137.424 57.2616 137.952 57.7096 138.96C58.1896 138.144 59.0856 137.424 60.4456 137.424ZM71.0378 143.52L72.1098 143.68C71.6938 144.912 70.6378 146.208 68.4298 146.208C66.2218 146.208 64.6538 144.496 64.6538 141.808C64.6538 139.136 66.2057 137.424 68.4298 137.424C70.6378 137.424 72.2858 139.136 72.1898 142.064H65.7418C65.7898 144 66.8618 145.312 68.4298 145.312C69.9978 145.312 70.7658 144.368 71.0378 143.52ZM68.4298 138.32C66.8618 138.32 65.8698 139.616 65.7578 141.2H71.0858C70.9738 139.616 69.9978 138.32 68.4298 138.32ZM74.7333 138.896H74.7653C75.1813 138.112 76.1893 137.424 77.4852 137.424C79.1973 137.424 80.4613 138.432 80.4613 140.384V146H79.4053V140.816C79.4053 139.104 78.7813 138.32 77.2933 138.32C76.0293 138.32 74.7812 139.152 74.7812 141.296V146H73.7413V137.616H74.7333V138.896ZM85.0584 145.104C85.3624 145.104 85.7784 145.104 85.9704 145.088V146C85.7144 146.016 85.3624 146.032 84.9624 146.032C83.4424 146.032 82.9304 145.632 82.9304 144.176V138.464H81.5224V137.616H82.9304V135.168H83.9864V137.616H86.0184V138.464H83.9864V143.952C83.9864 144.848 84.2104 145.104 85.0584 145.104ZM87.5255 144.544H88.9495V146H87.5255V144.544ZM102.367 137.728L101.231 137.824C100.943 136.112 99.6466 135.312 98.1586 135.312C96.3986 135.312 95.3586 136.224 95.3586 137.44C95.3586 138.496 96.1586 138.992 97.3586 139.264L99.6306 139.792C101.215 140.144 102.623 140.832 102.623 142.944C102.623 145.104 100.799 146.24 98.4626 146.24C95.9506 146.24 94.3026 144.96 93.8226 142.528L94.9746 142.4C95.3586 144.544 96.7826 145.264 98.4786 145.264C100.191 145.264 101.471 144.416 101.471 142.976C101.471 141.648 100.511 141.12 99.2466 140.832L97.0546 140.32C95.4706 139.952 94.2066 139.296 94.2066 137.44C94.2066 135.616 95.8066 134.352 98.1746 134.352C100.399 134.352 101.903 135.6 102.367 137.728ZM110.257 143.52L111.329 143.68C110.913 144.912 109.857 146.208 107.649 146.208C105.441 146.208 103.873 144.496 103.873 141.808C103.873 139.136 105.424 137.424 107.649 137.424C109.857 137.424 111.505 139.136 111.409 142.064H104.961C105.009 144 106.081 145.312 107.649 145.312C109.217 145.312 109.985 144.368 110.257 143.52ZM107.649 138.32C106.081 138.32 105.089 139.616 104.977 141.2H110.305C110.193 139.616 109.217 138.32 107.649 138.32ZM118.944 143.52L120.016 143.68C119.6 144.912 118.544 146.208 116.336 146.208C114.128 146.208 112.56 144.496 112.56 141.808C112.56 139.136 114.112 137.424 116.336 137.424C118.544 137.424 120.192 139.136 120.096 142.064H113.648C113.696 144 114.768 145.312 116.336 145.312C117.904 145.312 118.672 144.368 118.944 143.52ZM116.336 138.32C114.768 138.32 113.776 139.616 113.664 141.2H118.992C118.88 139.616 117.904 138.32 116.336 138.32ZM136.671 137.616L133.823 146H132.671L130.383 139.072H130.351L128.079 146H126.975L124.095 137.616H125.279L127.551 144.688H127.583L129.823 137.616H131.023L133.263 144.688H133.295L135.551 137.616H136.671ZM138.75 138.912H138.782C139.182 138.128 140.206 137.424 141.47 137.424C143.166 137.424 144.43 138.432 144.43 140.384V146H143.374V140.816C143.374 139.104 142.75 138.32 141.262 138.32C140.046 138.32 138.75 139.248 138.75 141.36V146H137.71V134.416H138.75V138.912ZM152.784 146H151.728C151.648 145.872 151.568 145.44 151.536 144.736C150.816 145.904 149.408 146.192 148.4 146.192C146.96 146.192 145.792 145.232 145.792 143.76C145.792 141.856 147.44 141.36 149.312 141.12C151.136 140.864 151.504 140.688 151.504 140.064C151.504 139.04 150.896 138.32 149.424 138.32C148.464 138.32 147.472 138.672 147.104 140.032L146.128 139.792C146.544 138.112 147.904 137.424 149.472 137.424C151.648 137.424 152.56 138.512 152.56 140.032V143.936C152.56 144.976 152.592 145.504 152.784 146ZM151.504 142.624V141.344C151.232 141.664 150.16 141.792 149.216 141.936C148.288 142.08 146.88 142.48 146.88 143.744C146.88 144.72 147.568 145.312 148.592 145.312C149.728 145.312 151.504 144.784 151.504 142.624ZM157.23 145.104C157.534 145.104 157.95 145.104 158.142 145.088V146C157.886 146.016 157.534 146.032 157.134 146.032C155.614 146.032 155.102 145.632 155.102 144.176V138.464H153.694V137.616H155.102V135.168H156.158V137.616H158.19V138.464H156.158V143.952C156.158 144.848 156.382 145.104 157.23 145.104ZM171.649 137.424H171.633C173.201 137.424 174.385 138.432 174.385 140.384V146H173.329V140.816C173.329 139.104 172.753 138.32 171.425 138.32C170.337 138.32 169.185 139.024 169.185 141.184V146H168.129V140.816C168.129 139.104 167.553 138.32 166.209 138.32C165.089 138.32 163.969 139.152 163.969 141.296V146H162.913V137.616H163.921V138.896H163.953C164.353 138.096 165.281 137.424 166.433 137.424C167.553 137.424 168.465 137.952 168.913 138.96C169.393 138.144 170.289 137.424 171.649 137.424ZM182.753 146H181.697C181.617 145.872 181.537 145.44 181.505 144.736C180.785 145.904 179.377 146.192 178.369 146.192C176.929 146.192 175.761 145.232 175.761 143.76C175.761 141.856 177.409 141.36 179.281 141.12C181.105 140.864 181.473 140.688 181.473 140.064C181.473 139.04 180.865 138.32 179.393 138.32C178.433 138.32 177.441 138.672 177.073 140.032L176.097 139.792C176.513 138.112 177.873 137.424 179.441 137.424C181.617 137.424 182.529 138.512 182.529 140.032V143.936C182.529 144.976 182.561 145.504 182.753 146ZM181.473 142.624V141.344C181.201 141.664 180.129 141.792 179.185 141.936C178.257 142.08 176.849 142.48 176.849 143.744C176.849 144.72 177.537 145.312 178.561 145.312C179.697 145.312 181.473 144.784 181.473 142.624ZM187.199 145.104C187.503 145.104 187.919 145.104 188.111 145.088V146C187.855 146.016 187.503 146.032 187.103 146.032C185.583 146.032 185.071 145.632 185.071 144.176V138.464H183.663V137.616H185.071V135.168H186.127V137.616H188.159V138.464H186.127V143.952C186.127 144.848 186.351 145.104 187.199 145.104ZM192.603 145.312C194.235 145.312 194.891 144.08 195.163 143.28L196.267 143.456C195.883 144.624 194.859 146.192 192.603 146.192C190.363 146.192 188.795 144.496 188.795 141.808C188.795 139.12 190.379 137.424 192.619 137.424C194.875 137.424 195.787 139.04 196.059 139.648L195.051 139.984C194.827 139.536 194.251 138.32 192.619 138.32C191.003 138.32 189.867 139.632 189.867 141.808C189.867 144 190.987 145.312 192.603 145.312ZM198.625 138.912H198.657C199.057 138.128 200.081 137.424 201.345 137.424C203.041 137.424 204.305 138.432 204.305 140.384V146H203.249V140.816C203.249 139.104 202.625 138.32 201.137 138.32C199.921 138.32 198.625 139.248 198.625 141.36V146H197.585V134.416H198.625V138.912ZM212.147 143.52L213.219 143.68C212.803 144.912 211.747 146.208 209.539 146.208C207.331 146.208 205.763 144.496 205.763 141.808C205.763 139.136 207.315 137.424 209.539 137.424C211.747 137.424 213.395 139.136 213.299 142.064H206.851C206.899 144 207.971 145.312 209.539 145.312C211.107 145.312 211.875 144.368 212.147 143.52ZM209.539 138.32C207.971 138.32 206.979 139.616 206.867 141.2H212.195C212.083 139.616 211.107 138.32 209.539 138.32ZM220.787 139.776L219.827 139.984C219.603 138.976 218.659 138.304 217.539 138.304C216.339 138.304 215.539 138.896 215.539 139.792C215.539 140.72 216.419 140.96 217.363 141.12L218.307 141.28C219.747 141.52 221.011 141.936 221.011 143.632C221.011 145.312 219.571 146.208 217.683 146.208C215.747 146.208 214.339 145.152 214.131 143.584L215.107 143.376C215.299 144.624 216.371 145.312 217.667 145.312C218.963 145.312 219.939 144.704 219.939 143.68C219.939 142.656 219.043 142.4 217.891 142.192L216.979 142.032C215.747 141.808 214.451 141.392 214.451 139.792C214.451 138.368 215.731 137.424 217.539 137.424C219.251 137.424 220.579 138.48 220.787 139.776ZM4.88 156.424C7.088 156.424 8.64 158.12 8.64 160.808C8.64 163.496 7.088 165.192 4.88 165.192C3.616 165.192 2.416 164.536 1.984 163.528H1.952V165H0.96V153.416H2V158.056H2.032C2.48 157.048 3.648 156.424 4.88 156.424ZM4.72 164.312C6.416 164.312 7.552 163 7.552 160.808C7.552 158.632 6.416 157.32 4.72 157.32C3.12 157.32 1.936 158.632 1.936 160.808C1.936 163 3.12 164.312 4.72 164.312ZM16.1628 162.52L17.2348 162.68C16.8188 163.912 15.7628 165.208 13.5548 165.208C11.3468 165.208 9.77875 163.496 9.77875 160.808C9.77875 158.136 11.3307 156.424 13.5548 156.424C15.7628 156.424 17.4108 158.136 17.3148 161.064H10.8668C10.9148 163 11.9868 164.312 13.5548 164.312C15.1228 164.312 15.8908 163.368 16.1628 162.52ZM13.5548 157.32C11.9868 157.32 10.9948 158.616 10.8828 160.2H16.2108C16.0988 158.616 15.1228 157.32 13.5548 157.32ZM21.449 164.104C21.753 164.104 22.169 164.104 22.361 164.088V165C22.105 165.016 21.753 165.032 21.353 165.032C19.833 165.032 19.321 164.632 19.321 163.176V157.464H17.913V156.616H19.321V154.168H20.377V156.616H22.409V157.464H20.377V162.952C20.377 163.848 20.601 164.104 21.449 164.104ZM35.4521 156.616L32.6041 165H31.4521L29.1641 158.072H29.1321L26.8601 165H25.7561L22.8761 156.616H24.0601L26.3321 163.688H26.3641L28.6041 156.616H29.8041L32.0441 163.688H32.0761L34.3321 156.616H35.4521ZM42.194 162.52L43.266 162.68C42.85 163.912 41.794 165.208 39.586 165.208C37.378 165.208 35.81 163.496 35.81 160.808C35.81 158.136 37.362 156.424 39.586 156.424C41.794 156.424 43.442 158.136 43.346 161.064H36.898C36.946 163 38.018 164.312 39.586 164.312C41.154 164.312 41.922 163.368 42.194 162.52ZM39.586 157.32C38.018 157.32 37.026 158.616 36.914 160.2H42.242C42.13 158.616 41.154 157.32 39.586 157.32ZM50.8815 162.52L51.9535 162.68C51.5375 163.912 50.4815 165.208 48.2735 165.208C46.0655 165.208 44.4975 163.496 44.4975 160.808C44.4975 158.136 46.0495 156.424 48.2735 156.424C50.4815 156.424 52.1295 158.136 52.0335 161.064H45.5855C45.6335 163 46.7055 164.312 48.2735 164.312C49.8415 164.312 50.6095 163.368 50.8815 162.52ZM48.2735 157.32C46.7055 157.32 45.7135 158.616 45.6015 160.2H50.9295C50.8175 158.616 49.8415 157.32 48.2735 157.32ZM54.577 157.896H54.609C55.025 157.112 56.033 156.424 57.329 156.424C59.041 156.424 60.305 157.432 60.305 159.384V165H59.249V159.816C59.249 158.104 58.625 157.32 57.137 157.32C55.873 157.32 54.625 158.152 54.625 160.296V165H53.585V156.616H54.577V157.896ZM71.2345 163.736H71.2025C70.8025 164.504 69.7785 165.192 68.4985 165.192C66.7705 165.192 65.5225 164.184 65.5225 162.248V156.616H66.5625V161.816C66.5625 163.528 67.1865 164.312 68.6905 164.312C69.9385 164.312 71.1865 163.48 71.1865 161.336V156.616H72.2425V165H71.2345V163.736ZM80.0366 158.776L79.0766 158.984C78.8526 157.976 77.9086 157.304 76.7886 157.304C75.5886 157.304 74.7886 157.896 74.7886 158.792C74.7886 159.72 75.6686 159.96 76.6126 160.12L77.5566 160.28C78.9966 160.52 80.2606 160.936 80.2606 162.632C80.2606 164.312 78.8206 165.208 76.9326 165.208C74.9966 165.208 73.5886 164.152 73.3806 162.584L74.3566 162.376C74.5486 163.624 75.6206 164.312 76.9166 164.312C78.2126 164.312 79.1886 163.704 79.1886 162.68C79.1886 161.656 78.2926 161.4 77.1406 161.192L76.2286 161.032C74.9966 160.808 73.7006 160.392 73.7006 158.792C73.7006 157.368 74.9806 156.424 76.7886 156.424C78.5006 156.424 79.8286 157.48 80.0366 158.776ZM91.5498 165H90.4938C90.4138 164.872 90.3338 164.44 90.3018 163.736C89.5818 164.904 88.1738 165.192 87.1658 165.192C85.7258 165.192 84.5578 164.232 84.5578 162.76C84.5578 160.856 86.2057 160.36 88.0778 160.12C89.9018 159.864 90.2698 159.688 90.2698 159.064C90.2698 158.04 89.6618 157.32 88.1898 157.32C87.2298 157.32 86.2378 157.672 85.8698 159.032L84.8938 158.792C85.3098 157.112 86.6698 156.424 88.2378 156.424C90.4138 156.424 91.3258 157.512 91.3258 159.032V162.936C91.3258 163.976 91.3578 164.504 91.5498 165ZM90.2698 161.624V160.344C89.9978 160.664 88.9258 160.792 87.9818 160.936C87.0538 161.08 85.6458 161.48 85.6458 162.744C85.6458 163.72 86.3338 164.312 87.3578 164.312C88.4938 164.312 90.2698 163.784 90.2698 161.624ZM94.1708 157.896H94.2028C94.6188 157.112 95.6268 156.424 96.9227 156.424C98.6348 156.424 99.8988 157.432 99.8988 159.384V165H98.8428V159.816C98.8428 158.104 98.2188 157.32 96.7308 157.32C95.4668 157.32 94.2188 158.152 94.2188 160.296V165H93.1788V156.616H94.1708V157.896ZM105.117 156.424C106.365 156.424 107.517 157.048 107.965 158.056H107.997V153.416H109.053V165H108.045V163.528H108.013C107.581 164.536 106.397 165.192 105.117 165.192C102.925 165.192 101.373 163.496 101.373 160.808C101.373 158.12 102.925 156.424 105.117 156.424ZM105.293 164.312C106.893 164.312 108.077 163 108.077 160.808C108.077 158.632 106.893 157.32 105.293 157.32C103.581 157.32 102.445 158.632 102.445 160.808C102.445 163 103.581 164.312 105.293 164.312ZM125.937 156.616L123.089 165H121.937L119.649 158.072H119.617L117.345 165H116.241L113.361 156.616H114.545L116.817 163.688H116.849L119.089 156.616H120.289L122.529 163.688H122.561L124.817 156.616H125.937ZM132.678 162.52L133.75 162.68C133.334 163.912 132.278 165.208 130.07 165.208C127.862 165.208 126.294 163.496 126.294 160.808C126.294 158.136 127.846 156.424 130.07 156.424C132.278 156.424 133.926 158.136 133.83 161.064H127.382C127.43 163 128.502 164.312 130.07 164.312C131.638 164.312 132.406 163.368 132.678 162.52ZM130.07 157.32C128.502 157.32 127.51 158.616 127.398 160.2H132.726C132.614 158.616 131.638 157.32 130.07 157.32ZM150.405 156.616L147.557 165H146.405L144.117 158.072H144.085L141.813 165H140.709L137.829 156.616H139.013L141.285 163.688H141.317L143.557 156.616H144.757L146.997 163.688H147.029L149.285 156.616H150.405ZM151.396 153.416H152.532V154.712H151.396V153.416ZM151.444 156.616H152.484V165H151.444V156.616ZM154.461 153.416H155.501V165H154.461V153.416ZM157.539 153.416H158.579V165H157.539V153.416ZM170.425 165H169.369C169.289 164.872 169.209 164.44 169.177 163.736C168.457 164.904 167.049 165.192 166.041 165.192C164.601 165.192 163.433 164.232 163.433 162.76C163.433 160.856 165.081 160.36 166.953 160.12C168.777 159.864 169.145 159.688 169.145 159.064C169.145 158.04 168.537 157.32 167.065 157.32C166.105 157.32 165.113 157.672 164.745 159.032L163.769 158.792C164.185 157.112 165.545 156.424 167.113 156.424C169.289 156.424 170.201 157.512 170.201 159.032V162.936C170.201 163.976 170.233 164.504 170.425 165ZM169.145 161.624V160.344C168.873 160.664 167.801 160.792 166.857 160.936C165.929 161.08 164.521 161.48 164.521 162.744C164.521 163.72 165.209 164.312 166.233 164.312C167.369 164.312 169.145 163.784 169.145 161.624ZM173.046 156.616V158.216H173.078C173.526 157.064 174.582 156.424 175.862 156.424C176.102 156.424 176.39 156.456 176.55 156.488V157.512C176.422 157.496 176.086 157.464 175.798 157.464C174.262 157.464 173.094 158.504 173.094 160.744V165.016H172.054V156.616H173.046ZM178.765 156.616V158.216H178.797C179.245 157.064 180.301 156.424 181.581 156.424C181.821 156.424 182.109 156.456 182.269 156.488V157.512C182.141 157.496 181.805 157.464 181.516 157.464C179.981 157.464 178.812 158.504 178.812 160.744V165.016H177.773V156.616H178.765ZM189.862 165H188.806C188.726 164.872 188.646 164.44 188.614 163.736C187.894 164.904 186.486 165.192 185.478 165.192C184.038 165.192 182.87 164.232 182.87 162.76C182.87 160.856 184.518 160.36 186.39 160.12C188.214 159.864 188.582 159.688 188.582 159.064C188.582 158.04 187.974 157.32 186.502 157.32C185.542 157.32 184.55 157.672 184.182 159.032L183.206 158.792C183.622 157.112 184.982 156.424 186.55 156.424C188.726 156.424 189.638 157.512 189.638 159.032V162.936C189.638 163.976 189.67 164.504 189.862 165ZM188.582 161.624V160.344C188.31 160.664 187.238 160.792 186.294 160.936C185.366 161.08 183.958 161.48 183.958 162.744C183.958 163.72 184.646 164.312 185.67 164.312C186.806 164.312 188.582 163.784 188.582 161.624ZM192.483 157.896H192.515C192.931 157.112 193.939 156.424 195.235 156.424C196.947 156.424 198.211 157.432 198.211 159.384V165H197.155V159.816C197.155 158.104 196.531 157.32 195.043 157.32C193.779 157.32 192.531 158.152 192.531 160.296V165H191.491V156.616H192.483V157.896ZM207.205 156.616V164.456C207.205 167.064 205.637 168.136 203.477 168.136C201.733 168.136 200.357 167.384 199.845 165.784L200.837 165.512C201.221 166.776 202.165 167.272 203.477 167.272C205.109 167.272 206.149 166.424 206.149 164.392V162.984H206.117C205.685 163.96 204.565 164.536 203.349 164.536C201.205 164.536 199.685 162.936 199.685 160.488C199.685 158.008 201.205 156.424 203.349 156.424C204.597 156.424 205.717 157.032 206.165 158.024H206.197V156.616H207.205ZM203.525 163.672C205.077 163.672 206.229 162.392 206.229 160.488C206.229 158.584 205.077 157.32 203.525 157.32C201.861 157.32 200.757 158.584 200.757 160.488C200.757 162.392 201.861 163.672 203.525 163.672ZM215.038 162.52L216.11 162.68C215.694 163.912 214.638 165.208 212.43 165.208C210.222 165.208 208.654 163.496 208.654 160.808C208.654 158.136 210.206 156.424 212.43 156.424C214.638 156.424 216.286 158.136 216.19 161.064H209.742C209.79 163 210.862 164.312 212.43 164.312C213.998 164.312 214.766 163.368 215.038 162.52ZM212.43 157.32C210.862 157.32 209.87 158.616 209.758 160.2H215.086C214.974 158.616 213.998 157.32 212.43 157.32ZM2 176.912H2.032C2.432 176.128 3.456 175.424 4.72 175.424C6.416 175.424 7.68 176.432 7.68 178.384V184H6.624V178.816C6.624 177.104 6 176.32 4.512 176.32C3.296 176.32 2 177.248 2 179.36V184H0.96V172.416H2V176.912ZM13.0261 175.424C15.3141 175.424 16.8981 177.12 16.8981 179.808C16.8981 182.496 15.3141 184.192 13.0261 184.192C10.7381 184.192 9.15413 182.496 9.15413 179.808C9.15413 177.12 10.7381 175.424 13.0261 175.424ZM13.0261 183.312C14.6741 183.312 15.8261 182 15.8261 179.808C15.8261 177.632 14.6741 176.32 13.0261 176.32C11.3781 176.32 10.2261 177.632 10.2261 179.808C10.2261 182 11.3781 183.312 13.0261 183.312ZM29.8271 175.616L26.9791 184H25.8271L23.5391 177.072H23.5071L21.2351 184H20.1311L17.2511 175.616H18.4351L20.7071 182.688H20.7391L22.9791 175.616H24.1791L26.4191 182.688H26.4511L28.7071 175.616H29.8271ZM37.0896 183.104C37.3936 183.104 37.8096 183.104 38.0016 183.088V184C37.7456 184.016 37.3936 184.032 36.9936 184.032C35.4736 184.032 34.9616 183.632 34.9616 182.176V176.464H33.5536V175.616H34.9616V173.168H36.0176V175.616H38.0496V176.464H36.0176V181.952C36.0176 182.848 36.2416 183.104 37.0896 183.104ZM40.4688 176.912H40.5008C40.9008 176.128 41.9248 175.424 43.1888 175.424C44.8848 175.424 46.1488 176.432 46.1488 178.384V184H45.0928V178.816C45.0928 177.104 44.4688 176.32 42.9808 176.32C41.7648 176.32 40.4688 177.248 40.4688 179.36V184H39.4288V172.416H40.4688V176.912ZM53.9909 181.52L55.0629 181.68C54.6469 182.912 53.5909 184.208 51.3829 184.208C49.1749 184.208 47.6069 182.496 47.6069 179.808C47.6069 177.136 49.1589 175.424 51.3829 175.424C53.5909 175.424 55.2389 177.136 55.1429 180.064H48.6949C48.7429 182 49.8149 183.312 51.3829 183.312C52.9509 183.312 53.7189 182.368 53.9909 181.52ZM51.3829 176.32C49.8149 176.32 48.8229 177.616 48.7109 179.2H54.0389C53.9269 177.616 52.9509 176.32 51.3829 176.32ZM63.4778 183.312C65.1098 183.312 65.7658 182.08 66.0378 181.28L67.1418 181.456C66.7578 182.624 65.7338 184.192 63.4778 184.192C61.2378 184.192 59.6698 182.496 59.6698 179.808C59.6698 177.12 61.2538 175.424 63.4938 175.424C65.7498 175.424 66.6618 177.04 66.9338 177.648L65.9258 177.984C65.7018 177.536 65.1258 176.32 63.4938 176.32C61.8778 176.32 60.7418 177.632 60.7418 179.808C60.7418 182 61.8618 183.312 63.4778 183.312ZM71.948 175.424C74.236 175.424 75.82 177.12 75.82 179.808C75.82 182.496 74.236 184.192 71.948 184.192C69.66 184.192 68.076 182.496 68.076 179.808C68.076 177.12 69.66 175.424 71.948 175.424ZM71.948 183.312C73.596 183.312 74.748 182 74.748 179.808C74.748 177.632 73.596 176.32 71.948 176.32C70.3 176.32 69.148 177.632 69.148 179.808C69.148 182 70.3 183.312 71.948 183.312ZM86.0863 175.424H86.0703C87.6383 175.424 88.8223 176.432 88.8223 178.384V184H87.7663V178.816C87.7663 177.104 87.1903 176.32 85.8623 176.32C84.7743 176.32 83.6223 177.024 83.6223 179.184V184H82.5663V178.816C82.5663 177.104 81.9903 176.32 80.6463 176.32C79.5263 176.32 78.4062 177.152 78.4062 179.296V184H77.3503V175.616H78.3583V176.896H78.3903C78.7903 176.096 79.7183 175.424 80.8703 175.424C81.9903 175.424 82.9023 175.952 83.3503 176.96C83.8303 176.144 84.7263 175.424 86.0863 175.424ZM94.6144 184.192C93.3824 184.192 92.2144 183.6 91.7664 182.56H91.7344V186.944H90.6944V175.616H91.6864V177.104H91.7184C92.1824 176.048 93.3504 175.424 94.6144 175.424C96.8224 175.424 98.3744 177.12 98.3744 179.808C98.3744 182.496 96.8224 184.192 94.6144 184.192ZM94.4544 176.32C92.8544 176.32 91.6704 177.632 91.6704 179.808C91.6704 182 92.8544 183.312 94.4544 183.312C96.1504 183.312 97.2864 182 97.2864 179.808C97.2864 177.632 96.1504 176.32 94.4544 176.32ZM106.409 184H105.353C105.273 183.872 105.193 183.44 105.161 182.736C104.441 183.904 103.033 184.192 102.025 184.192C100.585 184.192 99.4171 183.232 99.4171 181.76C99.4171 179.856 101.065 179.36 102.937 179.12C104.761 178.864 105.129 178.688 105.129 178.064C105.129 177.04 104.521 176.32 103.049 176.32C102.089 176.32 101.097 176.672 100.729 178.032L99.7531 177.792C100.169 176.112 101.529 175.424 103.097 175.424C105.273 175.424 106.185 176.512 106.185 178.032V181.936C106.185 182.976 106.217 183.504 106.409 184ZM105.129 180.624V179.344C104.857 179.664 103.785 179.792 102.841 179.936C101.913 180.08 100.505 180.48 100.505 181.744C100.505 182.72 101.193 183.312 102.217 183.312C103.353 183.312 105.129 182.784 105.129 180.624ZM110.855 183.104C111.159 183.104 111.575 183.104 111.767 183.088V184C111.511 184.016 111.159 184.032 110.759 184.032C109.239 184.032 108.727 183.632 108.727 182.176V176.464H107.319V175.616H108.727V173.168H109.783V175.616H111.815V176.464H109.783V181.952C109.783 182.848 110.007 183.104 110.855 183.104ZM113.146 172.416H114.282V173.712H113.146V172.416ZM113.194 175.616H114.234V184H113.194V175.616ZM120.083 175.424C122.291 175.424 123.843 177.12 123.843 179.808C123.843 182.496 122.291 184.192 120.083 184.192C118.819 184.192 117.619 183.536 117.187 182.528H117.155V184H116.163V172.416H117.203V177.056H117.235C117.683 176.048 118.851 175.424 120.083 175.424ZM119.923 183.312C121.619 183.312 122.755 182 122.755 179.808C122.755 177.632 121.619 176.32 119.923 176.32C118.323 176.32 117.139 177.632 117.139 179.808C117.139 182 118.323 183.312 119.923 183.312ZM125.334 172.416H126.47V173.712H125.334V172.416ZM125.382 175.616H126.422V184H125.382V175.616ZM128.399 172.416H129.439V184H128.399V172.416ZM131.381 172.416H132.517V173.712H131.381V172.416ZM131.429 175.616H132.469V184H131.429V175.616ZM137.262 183.104C137.566 183.104 137.982 183.104 138.174 183.088V184C137.918 184.016 137.566 184.032 137.166 184.032C135.646 184.032 135.134 183.632 135.134 182.176V176.464H133.726V175.616H135.134V173.168H136.19V175.616H138.222V176.464H136.19V181.952C136.19 182.848 136.414 183.104 137.262 183.104ZM146.385 175.616L143.057 184C141.937 186.848 141.201 187.136 140.193 187.136C139.745 187.136 139.505 187.088 139.377 187.072V186.144C139.473 186.16 139.713 186.208 140.049 186.208C140.753 186.208 141.233 186 141.857 184.416L142.033 183.936L138.641 175.616H139.809L142.545 182.688H142.577L145.249 175.616H146.385ZM162.515 175.616L159.667 184H158.515L156.227 177.072H156.195L153.923 184H152.819L149.939 175.616H151.123L153.395 182.688H153.427L155.667 175.616H156.867L159.107 182.688H159.139L161.395 175.616H162.515ZM163.506 172.416H164.642V173.712H163.506V172.416ZM163.554 175.616H164.594V184H163.554V175.616ZM166.571 172.416H167.611V184H166.571V172.416ZM169.649 172.416H170.689V184H169.649V172.416ZM179.958 184.192C178.726 184.192 177.558 183.6 177.11 182.56H177.078V186.944H176.038V175.616H177.03V177.104H177.062C177.526 176.048 178.694 175.424 179.958 175.424C182.166 175.424 183.718 177.12 183.718 179.808C183.718 182.496 182.166 184.192 179.958 184.192ZM179.798 176.32C178.198 176.32 177.014 177.632 177.014 179.808C177.014 182 178.198 183.312 179.798 183.312C181.494 183.312 182.63 182 182.63 179.808C182.63 177.632 181.494 176.32 179.798 176.32ZM191.753 184H190.697C190.617 183.872 190.537 183.44 190.505 182.736C189.785 183.904 188.377 184.192 187.369 184.192C185.929 184.192 184.761 183.232 184.761 181.76C184.761 179.856 186.409 179.36 188.281 179.12C190.105 178.864 190.473 178.688 190.473 178.064C190.473 177.04 189.865 176.32 188.393 176.32C187.433 176.32 186.441 176.672 186.073 178.032L185.097 177.792C185.513 176.112 186.873 175.424 188.441 175.424C190.617 175.424 191.529 176.512 191.529 178.032V181.936C191.529 182.976 191.561 183.504 191.753 184ZM190.473 180.624V179.344C190.201 179.664 189.129 179.792 188.185 179.936C187.257 180.08 185.849 180.48 185.849 181.744C185.849 182.72 186.537 183.312 187.561 183.312C188.697 183.312 190.473 182.784 190.473 180.624ZM199.963 175.616L196.635 184C195.515 186.848 194.779 187.136 193.771 187.136C193.323 187.136 193.083 187.088 192.955 187.072V186.144C193.051 186.16 193.291 186.208 193.627 186.208C194.331 186.208 194.811 186 195.435 184.416L195.611 183.936L192.219 175.616H193.387L196.123 182.688H196.155L198.827 175.616H199.963ZM207.917 175.424C210.205 175.424 211.789 177.12 211.789 179.808C211.789 182.496 210.205 184.192 207.917 184.192C205.629 184.192 204.045 182.496 204.045 179.808C204.045 177.12 205.629 175.424 207.917 175.424ZM207.917 183.312C209.565 183.312 210.717 182 210.717 179.808C210.717 177.632 209.565 176.32 207.917 176.32C206.269 176.32 205.117 177.632 205.117 179.808C205.117 182 206.269 183.312 207.917 183.312ZM216.126 173.136C215.502 173.136 214.846 173.232 214.846 174.32V175.616H216.878V176.464H214.846V184.016H213.79V176.464H212.382V175.616H213.79V174.224C213.79 172.64 214.814 172.24 215.982 172.24C216.43 172.24 216.926 172.288 217.134 172.336V173.216C216.958 173.184 216.414 173.136 216.126 173.136ZM221.47 173.136C220.846 173.136 220.19 173.232 220.19 174.32V175.616H222.222V176.464H220.19V184.016H219.134V176.464H217.726V175.616H219.134V174.224C219.134 172.64 220.158 172.24 221.326 172.24C221.774 172.24 222.27 172.288 222.478 172.336V173.216C222.302 173.184 221.758 173.136 221.47 173.136ZM223.088 182.544H224.512V184H223.088V182.544Z" fill="white"/>
<path d="M6.216 11.096V15.408H15.596V19.328H6.216V27H0.868V7.008H16.128V11.096H6.216ZM35.4697 7.008V19.636C35.4697 24.984 31.5777 27.448 26.4817 27.448C21.3577 27.448 17.4657 24.984 17.4657 19.636V7.008H22.7857V19.16C22.7857 21.932 24.0737 23.248 26.4817 23.248C28.8617 23.248 30.1497 21.932 30.1497 19.16V7.008H35.4697ZM37.2352 27V7.008H42.5832V22.632H52.6912V27H37.2352ZM53.8875 27V7.008H59.2355V22.632H69.3435V27H53.8875ZM14.756 52.356L20.132 52.832C19.404 57.06 15.932 60.448 10.584 60.448C4.732 60.448 0.56 56.668 0.56 50.004C0.56 43.368 4.732 39.588 10.584 39.588C15.708 39.588 19.068 42.752 19.936 46.224L14.616 46.868C14.084 45.132 12.684 43.788 10.584 43.788C8.232 43.788 5.964 45.412 5.964 50.004C5.964 54.624 8.232 56.248 10.584 56.248C12.852 56.248 14.308 54.708 14.756 52.356ZM31.2872 39.56C37.1672 39.56 41.4512 43.34 41.4512 50.004C41.4512 56.696 37.1672 60.448 31.2872 60.448C25.3792 60.448 21.0952 56.696 21.0952 50.004C21.0952 43.34 25.3792 39.56 31.2872 39.56ZM31.2872 56.248C33.8352 56.248 36.0472 54.624 36.0472 50.004C36.0472 45.412 33.8352 43.788 31.2872 43.788C28.7112 43.788 26.4992 45.412 26.4992 50.004C26.4992 54.624 28.7112 56.248 31.2872 56.248ZM42.8953 60V40.008H48.2433V55.632H58.3513V60H42.8953ZM59.5477 60V40.008H64.8957V55.632H75.0037V60H59.5477ZM89.612 55.828H82.192L80.848 60H75.276L82.36 40.008H89.556L96.64 60H90.956L89.612 55.828ZM88.408 52.048L85.916 44.376H85.804L83.368 52.048H88.408ZM97.4735 40.008L107.973 40.036C112.061 40.036 114.469 42.164 114.469 45.384C114.469 47.316 113.433 48.576 111.893 49.332V49.444C113.713 50.228 115.113 51.684 115.113 54.036C115.113 57.788 112.649 60 108.393 60H97.4735V40.008ZM102.793 48.1H106.797C108.365 48.1 109.205 47.288 109.205 46C109.205 44.74 108.365 43.928 106.797 43.928H102.793V48.1ZM102.793 56.024H107.133C108.841 56.024 109.709 55.156 109.709 53.784C109.709 52.412 108.841 51.572 107.133 51.572H102.793V56.024ZM126.279 39.56C132.159 39.56 136.443 43.34 136.443 50.004C136.443 56.696 132.159 60.448 126.279 60.448C120.371 60.448 116.087 56.696 116.087 50.004C116.087 43.34 120.371 39.56 126.279 39.56ZM126.279 56.248C128.827 56.248 131.039 54.624 131.039 50.004C131.039 45.412 128.827 43.788 126.279 43.788C123.703 43.788 121.491 45.412 121.491 50.004C121.491 54.624 123.703 56.248 126.279 56.248ZM150.096 60L146.344 53.252H143.208V60H137.888V40.008H148.136C152.896 40.008 155.696 42.472 155.696 46.644C155.696 49.584 154.324 51.684 151.804 52.636L156.284 60H150.096ZM143.208 49.192H147.24C149.256 49.192 150.292 48.212 150.292 46.644C150.292 45.076 149.256 44.096 147.24 44.096H143.208V49.192ZM170.249 55.828H162.829L161.485 60H155.913L162.997 40.008H170.193L177.277 60H171.593L170.249 55.828ZM169.045 52.048L166.553 44.376H166.441L164.005 52.048H169.045ZM192.432 44.404H186.216V60H180.896V44.404H174.652V40.008H192.432V44.404ZM193.669 60V40.008H198.989V60H193.669ZM210.635 39.56C216.515 39.56 220.799 43.34 220.799 50.004C220.799 56.696 216.515 60.448 210.635 60.448C204.727 60.448 200.443 56.696 200.443 50.004C200.443 43.34 204.727 39.56 210.635 39.56ZM210.635 56.248C213.183 56.248 215.395 54.624 215.395 50.004C215.395 45.412 213.183 43.788 210.635 43.788C208.059 43.788 205.847 45.412 205.847 50.004C205.847 54.624 208.059 56.248 210.635 56.248ZM240.527 60H234.563L227.199 46.98H227.087V60H222.243V40.008H228.347L235.571 52.748H235.683V40.008H240.527V60Z" fill="white"/>
</svg>
