<svg width="502" height="27" viewBox="0 0 502 27" fill="none" xmlns="http://www.w3.org/2000/svg">
<path d="M14.756 13.356L20.132 13.832C19.404 18.06 15.932 21.448 10.584 21.448C4.732 21.448 0.56 17.668 0.56 11.004C0.56 4.368 4.732 0.587999 10.584 0.587999C15.708 0.587999 19.068 3.752 19.936 7.224L14.616 7.868C14.084 6.132 12.684 4.788 10.584 4.788C8.232 4.788 5.964 6.412 5.964 11.004C5.964 15.624 8.232 17.248 10.584 17.248C12.852 17.248 14.308 15.708 14.756 13.356ZM28.9912 5.796C34.0312 5.796 36.9712 8.736 36.9712 13.608C36.9712 18.452 34.0312 21.364 28.9912 21.364C23.9232 21.364 21.0112 18.452 21.0112 13.608C21.0112 8.736 23.9232 5.796 28.9912 5.796ZM28.9912 17.808C30.7552 17.808 31.9032 16.632 31.9032 13.608C31.9032 10.584 30.7552 9.352 28.9912 9.352C27.2272 9.352 26.0792 10.584 26.0792 13.608C26.0792 16.632 27.2272 17.808 28.9912 17.808ZM43.0603 8.148H43.1723C44.0403 6.944 45.4963 5.796 47.9603 5.796C50.9843 5.796 53.1403 7.532 53.1403 11.284V21H48.1563V12.432C48.1563 10.472 47.3443 9.716 45.8883 9.716C44.4883 9.716 43.2563 10.724 43.2563 12.992V21H38.3003V6.16H43.0603V8.148ZM63.0525 17.36C63.5285 17.36 63.8365 17.36 64.1445 17.36V21C63.6965 21.056 62.3245 21.056 61.0925 21.056C57.6485 21.056 56.2485 20.384 56.2485 17.136V9.268H53.9805V6.16H56.2485V2.072H61.2325V6.16H64.2005V9.268H61.2325V15.932C61.2325 17.22 61.7365 17.36 63.0525 17.36ZM80.0446 21H75.0886C74.8086 20.692 74.6966 19.88 74.6966 18.844C73.9686 20.412 72.1206 21.364 69.8526 21.364C67.3326 21.364 64.8686 19.768 64.8686 16.996C64.8686 13.832 67.0526 12.628 70.8606 12.096C73.9126 11.676 74.6966 11.312 74.6966 10.472C74.6966 9.548 73.9126 9.044 72.6246 9.044C71.4206 9.044 70.4966 9.716 70.1046 10.948L65.4566 10.472C66.1286 7.504 68.8726 5.796 72.7086 5.796C77.3566 5.796 79.6526 7.7 79.6526 10.892V18.228C79.6526 19.656 79.6806 20.496 80.0446 21ZM74.6966 15.316V14C74.2206 14.308 73.3526 14.448 72.1206 14.672C70.8046 14.896 69.9366 15.512 69.9366 16.632C69.9366 17.612 70.6646 18.256 71.7286 18.256C72.9326 18.256 74.6966 17.444 74.6966 15.316ZM88.7066 17.836C90.3026 17.836 91.0306 16.716 91.3666 15.26L96.4346 15.708C95.7626 18.592 93.6626 21.364 88.7066 21.364C83.7506 21.364 80.8666 18.452 80.8666 13.608C80.8666 8.736 83.7506 5.796 88.7066 5.796C93.6906 5.796 95.6786 8.652 96.2946 10.948L91.3106 11.76C90.9746 10.472 90.2466 9.352 88.7066 9.352C87.0266 9.352 85.9346 10.584 85.9346 13.608C85.9346 16.632 87.0266 17.836 88.7066 17.836ZM105.873 17.36C106.349 17.36 106.657 17.36 106.965 17.36V21C106.517 21.056 105.145 21.056 103.913 21.056C100.469 21.056 99.0688 20.384 99.0688 17.136V9.268H96.8008V6.16H99.0688V2.072H104.053V6.16H107.021V9.268H104.053V15.932C104.053 17.22 104.557 17.36 105.873 17.36ZM123.521 19.012H123.409C122.541 20.216 121.085 21.364 118.621 21.364C115.597 21.364 113.441 19.628 113.441 15.876V6.16H118.397V14.728C118.397 16.688 119.237 17.444 120.693 17.444C122.093 17.444 123.297 16.436 123.297 14.168V6.16H128.281V21H123.521V19.012ZM143.372 10.248L138.78 10.696C138.584 9.52 137.688 8.82 136.4 8.82C135.28 8.82 134.44 9.296 134.44 10.164C134.44 11.004 135.308 11.312 136.764 11.536L138.332 11.788C141.104 12.236 143.876 13.048 143.876 16.52C143.876 19.936 140.684 21.364 136.512 21.364C132.508 21.364 129.512 19.768 129.008 16.66L133.712 16.184C133.964 17.612 134.944 18.34 136.54 18.34C137.94 18.34 138.808 17.724 138.808 16.744C138.808 15.988 137.884 15.568 136.316 15.316L134.552 15.036C132.088 14.672 129.484 13.776 129.484 10.472C129.484 7.336 132.844 5.796 136.344 5.796C140.012 5.796 142.84 7.308 143.372 10.248ZM165.166 21H160.21C159.93 20.692 159.818 19.88 159.818 18.844C159.09 20.412 157.242 21.364 154.974 21.364C152.454 21.364 149.99 19.768 149.99 16.996C149.99 13.832 152.174 12.628 155.982 12.096C159.034 11.676 159.818 11.312 159.818 10.472C159.818 9.548 159.034 9.044 157.746 9.044C156.542 9.044 155.618 9.716 155.226 10.948L150.578 10.472C151.25 7.504 153.994 5.796 157.83 5.796C162.478 5.796 164.774 7.7 164.774 10.892V18.228C164.774 19.656 164.802 20.496 165.166 21ZM159.818 15.316V14C159.342 14.308 158.474 14.448 157.242 14.672C155.926 14.896 155.058 15.512 155.058 16.632C155.058 17.612 155.786 18.256 156.85 18.256C158.054 18.256 159.818 17.444 159.818 15.316ZM171.084 8.148H171.196C172.064 6.944 173.52 5.796 175.984 5.796C179.008 5.796 181.164 7.532 181.164 11.284V21H176.18V12.432C176.18 10.472 175.368 9.716 173.912 9.716C172.512 9.716 171.28 10.724 171.28 12.992V21H166.324V6.16H171.084V8.148ZM188.527 5.796C190.655 5.796 192.111 6.58 193.007 7.924H193.119V0.727999H198.075V21H193.315V19.012H193.203C192.195 20.804 190.459 21.364 188.667 21.364C185.055 21.364 182.367 18.452 182.367 13.608C182.367 8.736 185.055 5.796 188.527 5.796ZM190.403 17.696C192.167 17.696 193.343 16.492 193.343 13.608C193.343 10.696 192.167 9.492 190.403 9.492C188.611 9.492 187.435 10.696 187.435 13.608C187.435 16.492 188.611 17.696 190.403 17.696ZM223.889 5.796C226.773 5.796 228.845 7.532 228.845 11.284V21.028H223.889V12.46C223.889 10.472 223.105 9.716 221.789 9.716C220.473 9.716 219.381 10.724 219.381 12.992V21.028H214.397V12.46C214.397 10.472 213.641 9.716 212.325 9.716C211.009 9.716 209.889 10.724 209.889 12.992V21.028H204.933V6.16H209.693V8.176H209.805C210.673 6.972 212.017 5.796 214.397 5.796C216.385 5.796 217.953 6.608 218.765 8.316C219.829 7.084 221.229 5.796 223.889 5.796ZM245.146 21H240.19C239.91 20.692 239.798 19.88 239.798 18.844C239.07 20.412 237.222 21.364 234.954 21.364C232.434 21.364 229.97 19.768 229.97 16.996C229.97 13.832 232.154 12.628 235.962 12.096C239.014 11.676 239.798 11.312 239.798 10.472C239.798 9.548 239.014 9.044 237.726 9.044C236.522 9.044 235.598 9.716 235.206 10.948L230.558 10.472C231.23 7.504 233.974 5.796 237.81 5.796C242.458 5.796 244.754 7.7 244.754 10.892V18.228C244.754 19.656 244.782 20.496 245.146 21ZM239.798 15.316V14C239.322 14.308 238.454 14.448 237.222 14.672C235.906 14.896 235.038 15.512 235.038 16.632C235.038 17.612 235.766 18.256 236.83 18.256C238.034 18.256 239.798 17.444 239.798 15.316ZM251.26 16.94V21H246.276V0.727999H251.26V11.704L255.992 6.16H261.424L256.132 11.872L262.04 21H256.356L252.828 15.232L251.26 16.94ZM271.206 16.24L276.302 16.52C275.826 18.592 273.67 21.364 268.63 21.364C263.674 21.364 260.734 18.452 260.734 13.608C260.734 8.736 263.618 5.796 268.63 5.796C273.614 5.796 276.834 8.736 276.47 14.56H265.83C265.858 16.8 266.978 18.144 268.63 18.144C270.338 18.144 271.01 17.136 271.206 16.24ZM268.63 8.904C266.95 8.904 265.942 10.08 265.858 11.704H271.374C271.318 10.08 270.282 8.904 268.63 8.904ZM283.136 0.727999H288.12V4.34H283.136V0.727999ZM283.136 6.16H288.12V21H283.136V6.16ZM298.127 17.36C298.603 17.36 298.911 17.36 299.219 17.36V21C298.771 21.056 297.399 21.056 296.167 21.056C292.723 21.056 291.323 20.384 291.323 17.136V9.268H289.055V6.16H291.323V2.072H296.307V6.16H299.275V9.268H296.307V15.932C296.307 17.22 296.811 17.36 298.127 17.36ZM330.279 6.16L325.463 21H319.919L317.511 11.648H317.399L314.963 21H309.531L304.715 6.16H310.175L312.555 15.596H312.667L314.879 6.16H320.283L322.495 15.596H322.607L325.015 6.16H330.279ZM337.729 5.796C342.769 5.796 345.709 8.736 345.709 13.608C345.709 18.452 342.769 21.364 337.729 21.364C332.661 21.364 329.749 18.452 329.749 13.608C329.749 8.736 332.661 5.796 337.729 5.796ZM337.729 17.808C339.493 17.808 340.641 16.632 340.641 13.608C340.641 10.584 339.493 9.352 337.729 9.352C335.965 9.352 334.817 10.584 334.817 13.608C334.817 16.632 335.965 17.808 337.729 17.808ZM351.799 6.16V8.484H351.911C352.751 6.832 354.207 5.796 356.475 5.796C356.755 5.796 357.035 5.824 357.203 5.88V10.472C356.867 10.444 356.167 10.36 355.579 10.36C353.535 10.36 351.995 11.172 351.995 13.944V21H347.039V6.16H351.799ZM363.123 16.94V21H358.139V0.727999H363.123V11.704L367.855 6.16H373.287L367.995 11.872L373.903 21H368.219L364.691 15.232L363.123 16.94ZM388.306 17.36C388.782 17.36 389.09 17.36 389.398 17.36V21C388.95 21.056 387.578 21.056 386.346 21.056C382.902 21.056 381.502 20.384 381.502 17.136V9.268H379.234V6.16H381.502V2.072H386.486V6.16H389.454V9.268H386.486V15.932C386.486 17.22 386.99 17.36 388.306 17.36ZM397.94 5.796C402.98 5.796 405.92 8.736 405.92 13.608C405.92 18.452 402.98 21.364 397.94 21.364C392.872 21.364 389.96 18.452 389.96 13.608C389.96 8.736 392.872 5.796 397.94 5.796ZM397.94 17.808C399.704 17.808 400.852 16.632 400.852 13.608C400.852 10.584 399.704 9.352 397.94 9.352C396.176 9.352 395.028 10.584 395.028 13.608C395.028 16.632 396.176 17.808 397.94 17.808ZM422.594 6.16V19.824C422.594 24.892 419.15 26.516 414.754 26.516C410.946 26.516 407.894 25.144 406.97 21.504L411.954 21.168C412.374 22.428 413.242 23.044 414.754 23.044C416.406 23.044 417.61 22.176 417.61 19.74V18.312H417.498C416.602 19.6 415.202 20.244 413.074 20.244C409.63 20.244 406.942 17.528 406.942 12.992C406.942 8.484 409.63 5.796 413.214 5.796C414.978 5.796 416.714 6.272 417.722 8.008H417.834V6.16H422.594ZM414.95 16.632C416.686 16.632 417.862 15.288 417.862 12.992C417.862 10.78 416.686 9.464 414.95 9.464C413.158 9.464 412.01 10.78 412.01 12.992C412.01 15.288 413.158 16.632 414.95 16.632ZM434.257 16.24L439.353 16.52C438.877 18.592 436.721 21.364 431.681 21.364C426.725 21.364 423.785 18.452 423.785 13.608C423.785 8.736 426.669 5.796 431.681 5.796C436.665 5.796 439.885 8.736 439.521 14.56H428.881C428.909 16.8 430.029 18.144 431.681 18.144C433.389 18.144 434.061 17.136 434.257 16.24ZM431.681 8.904C430.001 8.904 428.993 10.08 428.909 11.704H434.425C434.369 10.08 433.333 8.904 431.681 8.904ZM448.791 17.36C449.267 17.36 449.575 17.36 449.883 17.36V21C449.435 21.056 448.063 21.056 446.831 21.056C443.387 21.056 441.987 20.384 441.987 17.136V9.268H439.719V6.16H441.987V2.072H446.971V6.16H449.939V9.268H446.971V15.932C446.971 17.22 447.475 17.36 448.791 17.36ZM455.983 8.148L456.095 8.176C456.991 6.944 458.419 5.796 460.771 5.796C463.711 5.796 465.867 7.532 465.867 11.284V21.028H460.883V12.46C460.883 10.472 460.071 9.716 458.615 9.716C457.243 9.716 455.983 10.808 455.983 13.076V21H451.027V0.727999H455.983V8.148ZM477.542 16.24L482.638 16.52C482.162 18.592 480.006 21.364 474.966 21.364C470.01 21.364 467.07 18.452 467.07 13.608C467.07 8.736 469.954 5.796 474.966 5.796C479.95 5.796 483.17 8.736 482.806 14.56H472.166C472.194 16.8 473.314 18.144 474.966 18.144C476.674 18.144 477.346 17.136 477.542 16.24ZM474.966 8.904C473.286 8.904 472.278 10.08 472.194 11.704H477.71C477.654 10.08 476.618 8.904 474.966 8.904ZM488.9 6.16V8.484H489.012C489.852 6.832 491.308 5.796 493.576 5.796C493.856 5.796 494.136 5.824 494.304 5.88V10.472C493.968 10.444 493.268 10.36 492.68 10.36C490.636 10.36 489.096 11.172 489.096 13.944V21H484.14V6.16H488.9ZM497.349 14.112L496.537 5.376V1.008H501.857V5.376L501.017 14.112H497.349ZM496.481 15.988H501.885V21H496.481V15.988Z" fill="black"/>
</svg>
