<svg width="63" height="17" viewBox="0 0 63 17" fill="none" xmlns="http://www.w3.org/2000/svg">
<path d="M10.3805 16.1957L7.40922 10.8518H4.92574V16.1957H0.712698V0.363504H8.82835C12.5979 0.363504 14.8153 2.31481 14.8153 5.61872C14.8153 7.94698 13.7288 9.61003 11.7331 10.3639L15.281 16.1957H10.3805ZM4.92574 7.63655H8.11878C9.71531 7.63655 10.5357 6.86046 10.5357 5.61872C10.5357 4.37698 9.71531 3.6009 8.11878 3.6009H4.92574V7.63655ZM20.1708 6.5722H27.5991V9.65437H20.1708V12.8918H28.0204V16.1957H15.9356V0.363504H28.0204V3.6009H20.1708V6.5722ZM33.5119 16.1957H31.1393L29.0106 0.673939H30.6958L32.5141 13.8896L34.2436 0.696113H35.951L37.6584 13.9118L39.4102 0.673939H40.918L38.8115 16.1957H36.5276L35.0419 5.66307L33.5119 16.1957ZM44.0447 0.673939V16.1957H42.3151V0.673939H44.0447ZM47.3531 16.1957H45.8009V0.673939H47.9961L51.5883 11.8939V0.673939H53.1183V16.1957H51.3222L47.3531 3.64524V16.1957ZM58.5327 0.673939C59.7449 0.673939 60.6319 1.02133 61.1936 1.71611C61.7701 2.39611 62.0584 3.33481 62.0584 4.5322V12.3596C62.0584 13.557 61.7701 14.4957 61.1936 15.1757C60.6319 15.8557 59.7449 16.1957 58.5327 16.1957H54.8962V0.673939H58.5327ZM58.5106 14.6213C59.1314 14.6213 59.5897 14.4365 59.8853 14.067C60.1958 13.6826 60.351 13.1357 60.351 12.4261V4.4435C60.351 3.73394 60.1958 3.19437 59.8853 2.82481C59.5897 2.44046 59.124 2.24829 58.4884 2.24829H56.6258V14.6213H58.5106Z" fill="black"/>
</svg>
