<svg width="916" height="445" viewBox="0 0 916 445" fill="none" xmlns="http://www.w3.org/2000/svg">
<g filter="url(#filter0_d_1024_719)">
<path d="M11.0794 38.5246C11.0794 29.798 13.1328 23.1246 17.2394 18.5046C21.4488 13.782 27.7114 11.4206 36.0274 11.4206C44.3434 11.4206 50.5548 13.782 54.6614 18.5046C58.8708 23.1246 60.9754 29.798 60.9754 38.5246V41.9126H44.9594V37.4466C44.9594 33.5453 44.1894 30.8246 42.6494 29.2846C41.2121 27.642 39.1588 26.8206 36.4894 26.8206C33.8201 26.8206 31.7154 27.642 30.1754 29.2846C28.7381 30.8246 28.0194 33.5453 28.0194 37.4466C28.0194 41.1426 28.8408 44.428 30.4834 47.3026C32.1261 50.0746 34.1794 52.744 36.6434 55.3106C39.1074 57.7746 41.7254 60.29 44.4974 62.8566C47.3721 65.3206 50.0414 68.0413 52.5054 71.0186C54.9694 73.996 57.0228 77.384 58.6654 81.1826C60.3081 84.9813 61.1294 89.4473 61.1294 94.5806C61.1294 103.307 58.9734 110.032 54.6614 114.755C50.4521 119.375 44.1894 121.685 35.8734 121.685C27.5574 121.685 21.2434 119.375 16.9314 114.755C12.7221 110.032 10.6174 103.307 10.6174 94.5806V87.9586H26.6334V95.6586C26.6334 99.56 27.4034 102.281 28.9434 103.821C30.5861 105.361 32.7421 106.131 35.4114 106.131C38.0808 106.131 40.1854 105.361 41.7254 103.821C43.3681 102.281 44.1894 99.56 44.1894 95.6586C44.1894 91.9626 43.3681 88.7286 41.7254 85.9566C40.0828 83.082 38.0294 80.4126 35.5654 77.9486C33.1014 75.382 30.4321 72.8666 27.5574 70.4026C24.7854 67.836 22.1674 65.064 19.7034 62.0866C17.2394 59.1093 15.1861 55.7213 13.5434 51.9226C11.9008 48.124 11.0794 43.658 11.0794 38.5246ZM86.389 95.6586C86.389 99.56 87.159 102.332 88.699 103.975C90.3417 105.515 92.4977 106.285 95.1671 106.285C97.8364 106.285 99.941 105.515 101.481 103.975C103.124 102.332 103.945 99.56 103.945 95.6586V37.4466C103.945 33.5453 103.124 30.8246 101.481 29.2846C99.941 27.642 97.8364 26.8206 95.1671 26.8206C92.4977 26.8206 90.3417 27.642 88.699 29.2846C87.159 30.8246 86.389 33.5453 86.389 37.4466V95.6586ZM69.449 38.5246C69.449 29.798 71.6564 23.1246 76.071 18.5046C80.4857 13.782 86.8511 11.4206 95.1671 11.4206C103.483 11.4206 109.848 13.782 114.263 18.5046C118.678 23.1246 120.885 29.798 120.885 38.5246V94.5806C120.885 103.307 118.678 110.032 114.263 114.755C109.848 119.375 103.483 121.685 95.1671 121.685C86.8511 121.685 80.4857 119.375 76.071 114.755C71.6564 110.032 69.449 103.307 69.449 94.5806V38.5246ZM167.314 120.453C167.108 119.734 166.903 119.067 166.698 118.451C166.492 117.835 166.287 117.065 166.082 116.141C165.979 115.217 165.876 114.036 165.774 112.599C165.774 111.161 165.774 109.365 165.774 107.209V90.2686C165.774 85.238 164.901 81.696 163.156 79.6426C161.41 77.5893 158.587 76.5626 154.686 76.5626H148.834V120.453H131.894V12.6526H157.458C166.287 12.6526 172.652 14.706 176.554 18.8126C180.558 22.9193 182.56 29.1306 182.56 37.4466V45.9166C182.56 57.0046 178.864 64.294 171.472 67.7846C175.784 69.53 178.71 72.4046 180.25 76.4086C181.892 80.31 182.714 85.084 182.714 90.7306V107.363C182.714 110.032 182.816 112.393 183.022 114.447C183.227 116.397 183.74 118.399 184.562 120.453H167.314ZM148.834 28.0526V61.1626H155.456C158.638 61.1626 161.102 60.3413 162.848 58.6986C164.696 57.056 165.62 54.0786 165.62 49.7666V39.1406C165.62 35.2393 164.901 32.416 163.464 30.6706C162.129 28.9253 159.973 28.0526 156.996 28.0526H148.834ZM229.275 120.453C229.069 119.734 228.864 119.067 228.659 118.451C228.453 117.835 228.248 117.065 228.043 116.141C227.94 115.217 227.837 114.036 227.735 112.599C227.735 111.161 227.735 109.365 227.735 107.209V90.2686C227.735 85.238 226.862 81.696 225.117 79.6426C223.371 77.5893 220.548 76.5626 216.647 76.5626H210.795V120.453H193.855V12.6526H219.419C228.248 12.6526 234.613 14.706 238.515 18.8126C242.519 22.9193 244.521 29.1306 244.521 37.4466V45.9166C244.521 57.0046 240.825 64.294 233.433 67.7846C237.745 69.53 240.671 72.4046 242.211 76.4086C243.853 80.31 244.675 85.084 244.675 90.7306V107.363C244.675 110.032 244.777 112.393 244.983 114.447C245.188 116.397 245.701 118.399 246.523 120.453H229.275ZM210.795 28.0526V61.1626H217.417C220.599 61.1626 223.063 60.3413 224.809 58.6986C226.657 57.056 227.581 54.0786 227.581 49.7666V39.1406C227.581 35.2393 226.862 32.416 225.425 30.6706C224.09 28.9253 221.934 28.0526 218.957 28.0526H210.795ZM270.174 84.7246L248.768 12.6526H266.478L279.414 61.7786L292.35 12.6526H308.52L287.114 84.7246V120.453H270.174V84.7246ZM303.038 120.453V104.129H319.362V118.759L311.97 135.853H305.04L309.506 120.453H303.038ZM451.553 120.453L438.925 46.5326H438.309L426.143 120.453H389.337L364.697 10.4966H394.573L408.741 87.6506H409.357L421.985 10.4966H454.941L467.723 87.6506H468.339L482.507 10.4966H512.845L488.051 120.453H451.553ZM546.877 53.6166H598.467V75.0226H546.877V97.5066H601.393V120.453H517.463V10.4966H601.393V32.9806H546.877V53.6166ZM640.214 12.6526H667.01C675.531 12.6526 681.845 14.9113 685.952 19.4286C690.161 23.946 692.266 30.568 692.266 39.2946V93.8106C692.266 102.537 690.161 109.159 685.952 113.677C681.845 118.194 675.531 120.453 667.01 120.453H640.214V12.6526ZM657.154 28.0526V105.053H666.702C669.371 105.053 671.476 104.283 673.016 102.743C674.556 101.203 675.326 98.482 675.326 94.5806V38.5246C675.326 34.6233 674.556 31.9026 673.016 30.3626C671.476 28.8226 669.371 28.0526 666.702 28.0526H657.154ZM718.631 95.6586C718.631 99.56 719.401 102.332 720.941 103.975C722.584 105.515 724.74 106.285 727.409 106.285C730.079 106.285 732.183 105.515 733.723 103.975C735.366 102.332 736.187 99.56 736.187 95.6586V37.4466C736.187 33.5453 735.366 30.8246 733.723 29.2846C732.183 27.642 730.079 26.8206 727.409 26.8206C724.74 26.8206 722.584 27.642 720.941 29.2846C719.401 30.8246 718.631 33.5453 718.631 37.4466V95.6586ZM701.691 38.5246C701.691 29.798 703.899 23.1246 708.313 18.5046C712.728 13.782 719.093 11.4206 727.409 11.4206C735.725 11.4206 742.091 13.782 746.505 18.5046C750.92 23.1246 753.127 29.798 753.127 38.5246V94.5806C753.127 103.307 750.92 110.032 746.505 114.755C742.091 119.375 735.725 121.685 727.409 121.685C719.093 121.685 712.728 119.375 708.313 114.755C703.899 110.032 701.691 103.307 701.691 94.5806V38.5246ZM779.228 42.3746V120.453H763.982V12.6526H785.234L802.636 77.1786V12.6526H817.728V120.453H800.326L779.228 42.3746ZM829.857 28.9766V12.6526H846.181V27.2826L838.789 44.3766H831.859L836.325 28.9766H829.857ZM853.503 12.6526H905.863V28.0526H888.153V120.453H871.213V28.0526H853.503V12.6526ZM21.9256 166.497H76.1336C102.314 166.497 117.714 180.203 117.714 203.611C117.714 226.865 102.314 240.571 76.1336 240.571H51.1856V276.453H21.9256V166.497ZM51.1856 218.087H70.8976C82.1396 218.087 87.8376 212.543 87.8376 203.611C87.8376 194.525 82.1396 188.981 70.8976 188.981H51.1856V218.087ZM192.538 276.453L171.902 239.339H154.654V276.453H125.394V166.497H181.758C207.938 166.497 223.338 180.049 223.338 202.995C223.338 219.165 215.792 230.715 201.932 235.951L226.572 276.453H192.538ZM154.654 217.009H176.83C187.918 217.009 193.616 211.619 193.616 202.995C193.616 194.371 187.918 188.981 176.83 188.981H154.654V217.009ZM285.481 164.033C317.821 164.033 341.383 184.823 341.383 221.475C341.383 258.281 317.821 278.917 285.481 278.917C252.987 278.917 229.425 258.281 229.425 221.475C229.425 184.823 252.987 164.033 285.481 164.033ZM285.481 255.817C299.495 255.817 311.661 246.885 311.661 221.475C311.661 196.219 299.495 187.287 285.481 187.287C271.313 187.287 259.147 196.219 259.147 221.475C259.147 246.885 271.313 255.817 285.481 255.817ZM448.532 166.497L410.186 276.453H374.612L336.574 166.497H367.528L392.476 246.731H393.092L417.886 166.497H448.532ZM453.25 276.453V166.497H482.51V276.453H453.25ZM492.197 166.497H537.627C571.507 166.497 595.223 182.975 595.223 221.475C595.223 260.129 571.507 276.453 537.627 276.453H492.197V166.497ZM521.457 254.123H533.007C553.181 254.123 565.501 246.885 565.501 221.475C565.501 196.219 553.181 188.981 533.007 188.981H521.457V254.123ZM632.599 209.617H684.189V231.023H632.599V253.507H687.115V276.453H603.185V166.497H687.115V188.981H632.599V209.617ZM721.009 168.653H773.369V184.053H755.659V276.453H738.719V184.053H721.009V168.653ZM797.769 276.453H780.829V168.653H797.769V214.853H817.019V168.653H834.267V276.453H817.019V230.253H797.769V276.453ZM863.49 214.083H886.744V229.483H863.49V261.053H892.75V276.453H846.55V168.653H892.75V184.053H863.49V214.083ZM12.057 350.525C12.057 341.798 14.1103 335.125 18.217 330.505C22.4263 325.782 28.689 323.421 37.005 323.421C45.321 323.421 51.5323 325.782 55.639 330.505C59.8483 335.125 61.953 341.798 61.953 350.525V353.913H45.937V349.447C45.937 345.545 45.167 342.825 43.627 341.285C42.1896 339.642 40.1363 338.821 37.467 338.821C34.7976 338.821 32.693 339.642 31.153 341.285C29.7156 342.825 28.997 345.545 28.997 349.447C28.997 353.143 29.8183 356.428 31.461 359.303C33.1036 362.075 35.157 364.744 37.621 367.311C40.085 369.775 42.703 372.29 45.475 374.857C48.3496 377.321 51.019 380.041 53.483 383.019C55.947 385.996 58.0003 389.384 59.643 393.183C61.2856 396.981 62.107 401.447 62.107 406.581C62.107 415.307 59.951 422.032 55.639 426.755C51.4296 431.375 45.167 433.685 36.851 433.685C28.535 433.685 22.221 431.375 17.909 426.755C13.6996 422.032 11.595 415.307 11.595 406.581V399.959H27.611V407.659C27.611 411.56 28.381 414.281 29.921 415.821C31.5636 417.361 33.7196 418.131 36.389 418.131C39.0583 418.131 41.163 417.361 42.703 415.821C44.3456 414.281 45.167 411.56 45.167 407.659C45.167 403.963 44.3456 400.729 42.703 397.957C41.0603 395.082 39.007 392.413 36.543 389.949C34.079 387.382 31.4096 384.867 28.535 382.403C25.763 379.836 23.145 377.064 20.681 374.087C18.217 371.109 16.1636 367.721 14.521 363.923C12.8783 360.124 12.057 355.658 12.057 350.525ZM109.389 375.011L103.229 432.453H79.9746L67.9626 324.653H84.4406L93.5266 409.661L101.689 324.653H118.013L126.483 410.277L135.261 324.653H150.045L138.033 432.453H115.549L109.389 375.011ZM175.528 370.083H198.782V385.483H175.528V417.053H204.788V432.453H158.588V324.653H204.788V340.053H175.528V370.083ZM232.225 370.083H255.479V385.483H232.225V417.053H261.485V432.453H215.285V324.653H261.485V340.053H232.225V370.083ZM267.055 324.653H319.415V340.053H301.705V432.453H284.765V340.053H267.055V324.653ZM440.261 354.067L412.233 355.915C411.001 346.675 404.687 341.131 393.137 341.131C383.435 341.131 377.275 345.751 377.275 351.757C377.275 357.763 382.819 359.765 390.519 361.613L407.767 365.925C425.015 370.391 443.803 375.011 443.803 401.037C443.803 425.061 421.781 434.917 396.217 434.917C369.113 434.917 347.707 422.443 345.243 398.265L374.195 395.339C375.273 408.121 384.667 413.511 396.525 413.511C406.381 413.511 413.927 409.507 413.927 402.115C413.927 394.723 408.383 392.721 397.757 389.949L381.895 385.791C366.033 381.479 348.631 376.551 348.631 353.759C348.631 331.429 368.497 320.033 394.215 320.033C418.855 320.033 436.719 331.891 440.261 354.067ZM545.215 322.497L505.791 391.489V432.453H476.531V391.489L437.261 322.497H469.293L491.469 366.079L513.645 322.497H545.215ZM616.866 432.453L596.23 395.339H578.982V432.453H549.722V322.497H606.086C632.266 322.497 647.666 336.049 647.666 358.995C647.666 375.165 640.12 386.715 626.26 391.951L650.9 432.453H616.866ZM578.982 373.009H601.158C612.246 373.009 617.944 367.619 617.944 358.995C617.944 350.371 612.246 344.981 601.158 344.981H578.982V373.009ZM754.468 322.497V391.951C754.468 421.365 733.062 434.917 705.034 434.917C676.852 434.917 655.446 421.365 655.446 391.951V322.497H684.706V389.333C684.706 404.579 691.79 411.817 705.034 411.817C718.124 411.817 725.208 404.579 725.208 389.333V322.497H754.468ZM764.179 322.497H818.387C844.567 322.497 859.967 336.203 859.967 359.611C859.967 382.865 844.567 396.571 818.387 396.571H793.439V432.453H764.179V322.497ZM793.439 374.087H813.151C824.393 374.087 830.091 368.543 830.091 359.611C830.091 350.525 824.393 344.981 813.151 344.981H793.439V374.087ZM874.566 394.569L870.1 346.521V322.497H899.36V346.521L894.74 394.569H874.566ZM869.792 404.887H899.514V432.453H869.792V404.887Z" fill="white"/>
</g>
<defs>
<filter id="filter0_d_1024_719" x="0.617432" y="0.496582" width="915.245" height="444.42" filterUnits="userSpaceOnUse" color-interpolation-filters="sRGB">
<feFlood flood-opacity="0" result="BackgroundImageFix"/>
<feColorMatrix in="SourceAlpha" type="matrix" values="0 0 0 0 0 0 0 0 0 0 0 0 0 0 0 0 0 0 127 0" result="hardAlpha"/>
<feOffset/>
<feGaussianBlur stdDeviation="5"/>
<feComposite in2="hardAlpha" operator="out"/>
<feColorMatrix type="matrix" values="0 0 0 0 1 0 0 0 0 1 0 0 0 0 1 0 0 0 0.75 0"/>
<feBlend mode="normal" in2="BackgroundImageFix" result="effect1_dropShadow_1024_719"/>
<feBlend mode="normal" in="SourceGraphic" in2="effect1_dropShadow_1024_719" result="shape"/>
</filter>
</defs>
</svg>
