<svg width="319" height="61" viewBox="0 0 319 61" fill="none" xmlns="http://www.w3.org/2000/svg">
<path d="M0 0L319 13.1074V61H0V0Z" fill="#EA4335"/>
<path d="M49.2081 15.6201H35.5007V50.0121H23.7691V15.6201H10V5.92617H49.2081V15.6201Z" fill="black"/>
<path d="M78.7964 50.0121L70.5226 35.1315H63.6072V50.0121H51.8756V5.92617H74.4743C84.9709 5.92617 91.1454 11.3597 91.1454 20.5597C91.1454 27.043 88.1199 31.6738 82.5629 33.7732L92.4421 50.0121H78.7964ZM63.6072 26.1785H72.4984C76.9441 26.1785 79.2286 24.0174 79.2286 20.5597C79.2286 17.102 76.9441 14.9409 72.4984 14.9409H63.6072V26.1785Z" fill="black"/>
<path d="M94.3267 50.0121V5.92617H106.058V50.0121H94.3267Z" fill="black"/>
<path d="M140.568 33.1557L152.423 34.2054C150.818 43.5289 143.161 51 131.368 51C118.463 51 109.263 42.6644 109.263 27.9691C109.263 13.3356 118.463 5 131.368 5C142.667 5 150.077 11.9772 151.991 19.6336L140.259 21.0537C139.086 17.2255 135.999 14.2617 131.368 14.2617C126.181 14.2617 121.18 17.843 121.18 27.9691C121.18 38.157 126.181 41.7383 131.368 41.7383C136.369 41.7383 139.58 38.3423 140.568 33.1557Z" fill="black"/>
<path d="M171.156 31.4268L166.958 35.996V50.0121H155.226V5.92617H166.958V22.4738L181.221 5.92617H194.496L179.183 22.8443L196.657 50.0121H182.826L171.156 31.4268Z" fill="black"/>
<path d="M198.714 6.7906H208.346C215.138 6.7906 217.978 10.2483 217.978 16.6698V20.1893C217.978 24.9436 216.311 27.9074 212.606 29.0805C216.558 30.2537 218.04 33.4644 218.04 38.0953V44.8255C218.04 46.7396 218.102 48.5302 218.904 50.0121H214.027C213.471 48.7772 213.224 47.6658 213.224 44.7638V37.9718C213.224 33.094 210.939 31.5503 206.926 31.5503H203.53V50.0121H198.714V6.7906ZM203.53 27.1664H207.111C210.939 27.1664 213.224 25.9315 213.224 21.2389V17.102C213.224 13.2121 211.804 11.1745 208.223 11.1745H203.53V27.1664Z" fill="black"/>
<path d="M222.643 39.5772V17.2255C222.643 10.6188 225.916 6.35839 232.523 6.35839C239.191 6.35839 242.464 10.6188 242.464 17.2255V39.5772C242.464 46.1221 239.191 50.4443 232.523 50.4443C225.916 50.4443 222.643 46.1221 222.643 39.5772ZM227.398 16.9785V39.8242C227.398 43.7758 229.065 46.0604 232.523 46.0604C236.042 46.0604 237.647 43.7758 237.647 39.8242V16.9785C237.647 13.0886 236.042 10.7423 232.523 10.7423C229.065 10.7423 227.398 13.0886 227.398 16.9785Z" fill="black"/>
<path d="M246.642 39.5772V17.2255C246.642 10.6188 249.914 6.35839 256.521 6.35839C263.19 6.35839 266.462 10.6188 266.462 17.2255V39.5772C266.462 46.1221 263.19 50.4443 256.521 50.4443C249.914 50.4443 246.642 46.1221 246.642 39.5772ZM251.396 16.9785V39.8242C251.396 43.7758 253.063 46.0604 256.521 46.0604C260.041 46.0604 261.646 43.7758 261.646 39.8242V16.9785C261.646 13.0886 260.041 10.7423 256.521 10.7423C253.063 10.7423 251.396 13.0886 251.396 16.9785Z" fill="black"/>
<path d="M293.795 15.2497L286.941 49.9503H282.31L275.148 15.5584V50.0121H270.949V6.7906H277.679L284.78 41.306L291.634 6.7906H298.364V50.0121H293.795V15.2497Z" fill="black"/>
</svg>
