<svg width="243" height="66" viewBox="0 0 243 66" fill="none" xmlns="http://www.w3.org/2000/svg">
<path d="M0 0L243 8L241 61.5L0 66V0Z" fill="#A3FF00"/>
<path d="M41.3361 64L36.0532 33.0756H35.7955L30.7059 64H15.3081L5 18H17.4986L23.4258 50.2773H23.6835L28.9664 18H42.7535L48.1008 50.2773H48.3585L54.2857 18H66.9776L56.605 64H41.3361Z" fill="black"/>
<path d="M95.2394 54.4006H78.1665L75.0741 64H62.2534L78.5531 18H95.1105L111.41 64H98.3318L95.2394 54.4006ZM92.469 45.7031L86.7352 28.0504H86.4775L80.8724 45.7031H92.469Z" fill="black"/>
<path d="M155.398 64H141.675L124.731 34.042H124.474V64H113.328V18H127.373L143.995 47.3137H144.252V18H155.398V64Z" fill="black"/>
<path d="M160.025 18.902H170.591C177.613 18.902 180.835 23.1541 180.835 30.112V52.8543C180.835 59.7479 177.613 64 170.591 64H160.025V18.902ZM165.05 59.4258H170.526C174.134 59.4258 175.874 57.1709 175.874 53.0476V29.8543C175.874 25.7311 174.134 23.4762 170.462 23.4762H165.05V59.4258Z" fill="black"/>
<path d="M190.594 38.8739H201.611V43.3838H190.594V59.4258H204.123V64H185.569V18.902H204.123V23.4762H190.594V38.8739Z" fill="black"/>
<path d="M208.785 18.902H218.835C225.922 18.902 228.886 22.5098 228.886 29.2101V32.8824C228.886 37.8431 227.146 40.9356 223.281 42.1597C227.404 43.3838 228.95 46.7339 228.95 51.5658V58.5882C228.95 60.5854 229.014 62.4538 229.852 64H224.762C224.182 62.7115 223.925 61.5518 223.925 58.5238V51.437C223.925 46.3473 221.541 44.7367 217.353 44.7367H213.81V64H208.785V18.902ZM213.81 40.1625H217.547C221.541 40.1625 223.925 38.8739 223.925 33.9776V29.6611C223.925 25.6022 222.443 23.4762 218.706 23.4762H213.81V40.1625Z" fill="black"/>
</svg>
