<svg width="78" height="58" viewBox="0 0 78 58" fill="none" xmlns="http://www.w3.org/2000/svg">
<path d="M62.916 44.8436V7.49478L69.668 0.849365L71.6942 16.7641L69.668 38.1982L62.916 44.8436Z" fill="#701EB3"/>
<path d="M62.7488 45.242V7.42395L69.5999 0.679932H69.8145L71.8616 16.7596L69.828 38.2736L62.7488 45.242ZM63.0823 7.56507V44.4452L69.5075 38.1211L71.5264 16.7664L69.5452 1.20472L63.0823 7.56507Z" fill="#1F191A"/>
<path d="M77.1801 0.849365H69.6682V38.1982H77.1801V0.849365Z" fill="#FFEA00"/>
<path d="M77.346 38.2688L77.1894 38.3657H69.5012V0.778873L69.5998 0.681396H77.346V38.2688ZM69.8341 38.0302H77.0125V1.01973H69.8341V38.0302Z" fill="#1F191A"/>
<path d="M69.668 38.1982L62.916 44.8437H70.4279L77.1798 38.1982H69.668Z" fill="#FF3E0C"/>
<path d="M70.4959 45.0114H62.5081L69.6008 38.0305H77.347V38.2691L70.4959 45.0114ZM63.3254 44.6759H70.359L76.7719 38.3672H69.7394L63.3254 44.6759Z" fill="#1F191A"/>
<path d="M72.6893 49.6455H74.1731L67.4026 56.2909H65.929L72.6893 49.6455Z" fill="#FF3E0C"/>
<path d="M67.4696 56.4586H65.7757L65.7549 56.2274L72.6206 49.4783H74.3483L74.3387 49.7169L67.4696 56.4586ZM66.3374 56.1231H67.3339L73.763 49.8149H72.7564L66.3374 56.1231Z" fill="#1F191A"/>
<path d="M72.6892 40.3267L62.2627 50.8915L69.9509 44.4649C69.9509 44.4649 72.8317 43.5972 72.8317 43.5417C72.8317 43.4861 72.9967 41.1971 72.9967 41.1971L72.6892 40.3267Z" fill="#701EB3"/>
<path d="M62.3694 51.0196L62.144 50.7725L72.6218 40.1594H72.8088L73.1682 41.1733V41.2084C73.1034 42.1084 73.006 43.4753 73.0037 43.5439C73.0037 43.6811 72.9282 43.706 72.4404 43.8675C72.2004 43.9468 71.8664 44.0528 71.4473 44.1832C70.8208 44.3776 70.1871 44.5691 70.039 44.6144L62.3694 51.0196ZM72.6218 40.6338L64.8378 48.5214L69.8728 44.3129L69.9049 44.3027C70.8377 44.0194 72.317 43.566 72.673 43.4317C72.6978 43.0571 72.7857 41.8262 72.8302 41.2215L72.6218 40.6338ZM72.6668 43.5275C72.6666 43.5318 72.6666 43.5362 72.6668 43.5405C72.6668 43.5405 72.6646 43.5337 72.668 43.5275H72.6668Z" fill="#1F191A"/>
<path d="M69.0282 45.733L62.2627 52.3784V50.8902L69.0282 44.2454V45.733Z" fill="#FF3E0C"/>
<path d="M62.0969 52.7762V50.8198L69.1947 43.8491V45.8055L62.0969 52.7762ZM62.4298 50.9626V51.9827L68.8624 45.6649V44.6448L62.4298 50.9626Z" fill="#1F191A"/>
<path d="M77.8336 45.7346L73.8228 49.645L73.731 47.1577C73.731 47.1577 74.9218 45.5907 74.9781 45.6088C75.0345 45.6269 77.8336 45.7346 77.8336 45.7346Z" fill="#701EB3"/>
<path d="M73.8899 49.815L73.5615 47.1061L73.5981 47.0579C74.8183 45.4552 74.8876 45.4076 75.0149 45.4461C75.1839 45.462 76.7843 45.5266 77.8394 45.5668L77.9999 45.5731V45.8054L73.8899 49.815ZM73.8995 47.2143L73.975 49.2653L77.4372 45.887C75.7726 45.823 75.2228 45.7958 75.034 45.7822C74.8808 45.9448 74.3665 46.5994 73.8995 47.2126V47.2143ZM74.9304 45.7709C74.9463 45.7755 74.9628 45.7778 74.9794 45.7777C74.9628 45.7764 74.9464 45.7736 74.9304 45.7692V45.7709Z" fill="#1F191A"/>
<path d="M62.2627 52.3783C62.2627 52.3783 65.6128 52.724 65.9288 56.2887L72.6886 49.6433C72.6886 49.6433 74.3724 47.3407 74.0056 47.0823C73.6389 46.8239 70.7761 45.2178 70.7029 45.2365C70.6297 45.2552 69.0276 45.725 69.0276 45.725L62.2627 52.3783Z" fill="#701EB3"/>
<path d="M65.7765 56.4585L65.763 56.306C65.6374 54.8892 65.0115 53.8249 63.9041 53.1471C63.3973 52.8376 62.8343 52.6328 62.2479 52.5447L61.8953 52.5073L62.1488 52.2579L68.9441 45.578L68.9841 45.5661C69.148 45.5179 70.5907 45.0945 70.665 45.0758C70.7394 45.0571 70.7833 45.0458 72.3279 45.9106C73.0681 46.3255 73.9052 46.8066 74.1035 46.9466C74.1357 46.9697 74.1629 46.9992 74.1832 47.0333C74.2036 47.0675 74.2167 47.1055 74.2218 47.145C74.3074 47.6686 73.1746 49.2673 72.8253 49.7451L72.8073 49.7655L65.9985 56.4585H65.7765ZM62.6124 52.2693C63.124 52.385 63.6141 52.582 64.064 52.853C64.8454 53.3279 65.7996 54.242 66.0542 55.9331L72.5628 49.5354C73.3267 48.4898 73.9249 47.4385 73.8934 47.2118C73.4923 46.9404 71.0689 45.5791 70.6988 45.4159C70.496 45.4725 69.6882 45.7106 69.1153 45.8789L62.6124 52.2693Z" fill="#1F191A"/>
<path d="M77.8051 44.2393C74.5897 43.6783 74.2156 40.9297 74.1734 40.4111V40.3267H72.6896V40.4111C72.6473 40.9297 72.2727 43.6783 69.0573 44.2393H69.0286V45.7343H69.0573C72.2727 46.2954 72.6473 49.044 72.6896 49.5626V49.6447H74.1734V49.5603C74.2156 49.0417 74.5897 46.2931 77.8051 45.7321H77.8338V44.2393H77.8051Z" fill="#FFEA00"/>
<path d="M74.339 49.717L74.17 49.8133H72.5273L72.5223 49.5679C72.4772 49.0341 72.102 46.4425 69.0421 45.9007H68.8618V44.0775L69.0421 44.0724C72.102 43.5301 72.4783 40.9384 72.5223 40.4046V40.2578L72.6192 40.1592H74.3339L74.3395 40.4046C74.384 40.9384 74.7598 43.5301 77.8191 44.0724H78V45.8038L77.8191 45.9007C74.7598 46.4425 74.3829 49.0341 74.3395 49.5679L74.339 49.717ZM72.8484 49.4784H74.0128C74.0838 48.7915 74.5575 46.1914 77.6665 45.5878V44.3847C74.5575 43.7839 74.0838 41.181 74.0128 40.4947H72.8484C72.7774 41.181 72.3037 43.7817 69.1947 44.3847V45.5878C72.3037 46.188 72.7774 48.7915 72.8484 49.4784Z" fill="#1F191A"/>
<path d="M52.8389 56.2886V52.9659L53.7695 7.35933L60.3507 6.25195L59.9711 49.6432H59.5908L52.8389 56.2886Z" fill="#FFEA00"/>
<path d="M52.6704 56.4559V52.966L53.6055 7.2172L60.5191 6.05371L60.1361 49.8111H59.659L52.907 56.4559H52.6704ZM53.9311 7.50226L53.0084 52.9694V55.8898L59.5232 49.475H59.8048L60.1817 6.44985L53.9311 7.50226Z" fill="#1F191A"/>
<path d="M52.8389 56.2887H60.3507L67.1027 49.6433H59.5908L52.8389 56.2887Z" fill="#701EB3"/>
<path d="M60.4183 56.4558H52.6704V56.2189L59.5215 49.4749H67.2677V49.7129L60.4183 56.4558ZM53.2478 56.1208H60.2825L66.6971 49.8109H59.659L53.2478 56.1208Z" fill="#1F191A"/>
<path d="M56.2501 49.6433L49.4976 56.2887H41.9863L48.7383 49.6433H56.2501Z" fill="#701EB3"/>
<path d="M49.566 56.4558H41.8198V56.2194L48.6709 49.4749H56.4177V49.7129L49.566 56.4558ZM42.395 56.1208H49.4303L55.8414 49.8109H48.8067L42.395 56.1208Z" fill="#1F191A"/>
<path d="M41.9865 56.2888V16.5524C41.9865 16.5524 41.7539 14.0112 43.2298 11.4977C43.2298 11.4977 43.5677 10.591 45.9337 8.33825L49.9333 4.44315L51.6762 2.72314L51.8818 3.68374L50.0285 27.9577V49.6451H48.7385L41.9865 56.2888Z" fill="#FFEA00"/>
<path d="M41.8194 56.456V16.5586C41.8036 16.371 41.6273 13.904 43.0795 11.4218C43.1358 11.2858 43.5899 10.3365 45.8195 8.21524L49.8191 4.32128L51.7783 2.38818L52.0481 3.67408V3.69788L50.1914 27.9667V49.8111H48.8062L42.0537 56.456H41.8194ZM51.5766 3.05692L50.0506 4.56271L46.051 8.45837C43.7617 10.6369 43.3893 11.5487 43.3859 11.5578L43.3736 11.5827C41.9422 14.0196 42.1506 16.5132 42.1528 16.537V16.5523V55.8898L48.6704 49.475H49.859V27.9475L51.7124 3.69732L51.5766 3.05692Z" fill="#1F191A"/>
<path d="M56.2506 49.6451V9.49664C56.2506 9.05099 56.4266 8.62358 56.7398 8.30846C57.0531 7.99334 57.4779 7.8163 57.9209 7.8163C58.3638 7.8163 58.7887 7.99334 59.1019 8.30846C59.4151 8.62358 59.5911 9.05099 59.5911 9.49664V49.6451H67.103V9.49664C67.103 7.04667 66.1356 4.69705 64.4136 2.96467C62.6916 1.23228 60.3561 0.259033 57.9209 0.259033C55.4856 0.259033 53.1501 1.23228 51.4281 2.96467C49.7062 4.69705 48.7388 7.04667 48.7388 9.49664V49.6451H56.2506Z" fill="#FF5CD7"/>
<path d="M67.2691 49.7138L67.0883 49.8112H59.4271V9.49674C59.431 9.2956 59.395 9.0957 59.3211 8.90874C59.2473 8.72179 59.1371 8.55152 58.9971 8.4079C58.8571 8.26427 58.69 8.15018 58.5056 8.0723C58.3213 7.99441 58.1233 7.9543 57.9233 7.9543C57.7234 7.9543 57.5254 7.99441 57.3411 8.0723C57.1567 8.15018 56.9896 8.26427 56.8496 8.4079C56.7095 8.55152 56.5994 8.72179 56.5256 8.90874C56.4517 9.0957 56.4157 9.2956 56.4196 9.49674V49.7138L56.1227 49.8112H48.5742V9.49674C48.5742 4.31064 52.7681 0.0891113 57.9253 0.0891113C63.0825 0.0891113 67.2764 4.30837 67.2764 9.49674L67.2691 49.7138ZM59.7572 49.4752H66.9356V9.49674C66.9356 4.49539 62.8915 0.429146 57.9225 0.429146C52.9535 0.429146 48.9094 4.49766 48.9094 9.49674V49.4752H56.0833V9.49674C56.0833 9.25404 56.1308 9.01372 56.2231 8.7895C56.3154 8.56528 56.4507 8.36155 56.6213 8.18994C56.7919 8.01833 56.9944 7.8822 57.2173 7.78932C57.4401 7.69645 57.679 7.64865 57.9202 7.64865C58.1615 7.64865 58.4004 7.69645 58.6232 7.78932C58.8461 7.8822 59.0486 8.01833 59.2192 8.18994C59.3898 8.36155 59.5251 8.56528 59.6174 8.7895C59.7097 9.01372 59.7572 9.25404 59.7572 9.49674V49.4752Z" fill="#1F191A"/>
<path d="M43.7549 5.39185H33.4067V24.86H43.7549V5.39185Z" fill="#FF3E0C"/>
<path d="M43.9216 25.0275H33.24V5.22388H43.9216V25.0275ZM33.574 24.692H43.5887V5.55938H33.574V24.692Z" fill="#1F191A"/>
<path d="M38.6826 27.3546V49.552L31.9307 56.1974V49.552L33.3897 26.6688C33.3897 26.6688 36.7696 26.1763 37.0124 26.2256C37.2552 26.2749 38.6826 27.3546 38.6826 27.3546Z" fill="#FF3E0C"/>
<path d="M31.7639 56.3647V49.5413L33.2285 26.5226L33.3626 26.5028C34.162 26.3895 36.7898 26.0103 37.0417 26.0613C37.2935 26.1123 38.4376 26.9619 38.7795 27.2203L38.846 27.2707V49.6223L31.9966 56.3647H31.7639ZM32.0974 49.5572V55.7985L38.5159 49.4812V27.4385C37.8568 26.9426 37.1183 26.4263 36.978 26.39C36.782 26.3668 34.8244 26.6309 33.5474 26.8156L32.0974 49.5572Z" fill="#1F191A"/>
<path d="M38.6826 27.3547L35.3416 30.644V27.3547H38.6826Z" fill="#FF5CD7"/>
<path d="M35.1758 31.0422V27.1885H39.0948L35.1758 31.0422ZM35.5087 27.5223V30.2426L38.2746 27.5223H35.5087Z" fill="#1F191A"/>
<path d="M46.1945 49.552L39.442 56.1974H31.9307L38.6826 49.552H46.1945Z" fill="#FF5CD7"/>
<path d="M39.5101 56.3646H31.7639V56.1266L38.615 49.3826H46.3612V49.6206L39.5101 56.3646ZM32.3391 56.0297H39.376L45.7855 49.7198H38.7508L32.3391 56.0297Z" fill="#1F191A"/>
<path d="M35.3418 49.5518L28.5893 56.1972H21.0775V16.1592C21.0775 16.1592 20.9552 13.4662 22.5044 11.1024C22.5044 11.1024 23.151 10.1168 24.4968 8.7941L27.2064 6.13049L29.1217 4.2535C29.1217 4.2535 30.8342 2.48759 31.3603 2.30284C31.8864 2.11808 33.0238 45.4362 33.0238 45.4362L35.3418 49.5518Z" fill="#FF3E0C"/>
<path d="M28.6573 56.3644H20.9111V16.1627C20.9038 16.0023 20.817 13.3687 22.3656 11.01C22.392 10.9692 23.037 9.99446 24.38 8.67399L27.0896 6.01039L29.0049 4.13339C29.1795 3.95204 30.7568 2.33631 31.3038 2.14419C31.3303 2.13493 31.3586 2.1321 31.3864 2.13594C31.4142 2.13978 31.4407 2.15018 31.4637 2.16629C31.5809 2.2479 31.7139 2.34028 32.0175 9.19368C32.1769 12.7873 32.3594 17.7705 32.5611 24.005C32.8934 34.2826 33.1683 44.6468 33.1881 45.3915L28.6573 56.3644ZM21.244 56.0295H28.5215L35.1332 49.5224L32.8568 45.4816V45.4397C32.5594 34.1052 31.7105 4.97215 31.2694 2.53863C30.8109 2.82199 29.8431 3.75142 29.2414 4.37312L27.3262 6.25238L24.6172 8.91598C23.3018 10.2087 22.654 11.1874 22.6455 11.197C21.1437 13.4855 21.2451 16.1276 21.2463 16.1536V56.0295H21.244Z" fill="#1F191A"/>
<path d="M37.0107 0.169922C34.5755 0.169922 32.24 1.14317 30.518 2.87555C28.796 4.60794 27.8286 6.95756 27.8286 9.40753V49.5543H35.3427V27.3546H38.6832V49.552H46.1928V9.40753C46.1928 8.19443 45.9553 6.99321 45.4939 5.87245C45.0324 4.75169 44.3561 3.73335 43.5034 2.87555C42.6508 2.01776 41.6386 1.33733 40.5246 0.873093C39.4105 0.40886 38.2165 0.169922 37.0107 0.169922ZM35.3405 22.9579V9.40753C35.3405 8.96188 35.5164 8.53448 35.8297 8.21935C36.1429 7.90423 36.5677 7.72719 37.0107 7.72719C37.4537 7.72719 37.8785 7.90423 38.1918 8.21935C38.505 8.53448 38.681 8.96188 38.681 9.40753V22.9579H35.3405Z" fill="#00EDFD"/>
<path d="M27.8303 49.552L21.0784 56.1974H28.5897L35.3416 49.552H27.8303Z" fill="#FF5CD7"/>
<path d="M22.1942 47.9176L15.4242 54.5801C15.4242 54.5801 13.0267 57.0266 8.95393 56.8702C4.88114 56.7138 2.42563 54.087 1.2866 52.0406C0.147564 49.9941 0.1808 47.8156 0.1808 47.2234V16.142C0.1808 16.142 -0.222537 12.6379 3.29258 9.21094L8.16754 4.40002C8.16754 4.40002 9.83722 2.646 10.6461 2.2952C11.4551 1.9444 12.3631 18.0411 12.3631 18.0411L11.8562 36.0572L12.5885 39.3799L12.6251 41.9302L12.4955 44.4776L14.5702 44.6992L22.1942 47.9176Z" fill="#701EB3"/>
<path d="M9.3235 57.0449C9.20032 57.0449 9.07527 57.0424 8.94833 57.0375C4.27278 56.8573 1.93107 53.5402 1.14186 52.1229C0.0107102 50.0906 0.0135268 47.9705 0.0146534 47.274V16.1517C0.00338701 16.0435 -0.0692812 15.1798 0.258007 13.92C0.572339 12.7089 1.33395 10.8886 3.17713 9.09148L8.04928 4.28169C8.11462 4.21255 9.74825 2.50275 10.5769 2.14288C10.612 2.1276 10.6502 2.12122 10.6883 2.12428C10.7265 2.12735 10.7632 2.13976 10.7955 2.16044C10.9645 2.26586 11.3588 2.51181 11.9965 10.3434C12.3068 14.1744 12.5237 17.9942 12.526 18.0327V18.0469L12.0212 36.0438L12.7536 39.3625L12.7907 41.9326V41.9383L12.6685 44.327L14.6108 44.5344L14.6333 44.5441L22.4922 47.8628L15.5414 54.6998C15.5183 54.7236 14.9133 55.3345 13.7951 55.9318C12.4172 56.6644 10.882 57.0465 9.3235 57.0449ZM10.6434 2.48008C9.85471 2.87678 8.30221 4.49932 8.28643 4.51575L3.40978 9.33291C2.42566 10.2924 1.13735 11.8781 0.584732 13.9891C0.254064 15.2523 0.345885 16.1166 0.346448 16.1251V16.1444V47.2745C0.343069 50.0033 1.16213 51.4751 1.4314 51.9585C2.19695 53.3288 4.45305 56.5291 8.96073 56.7026C12.9079 56.8556 15.2829 54.4861 15.3065 54.4623L21.9007 47.9744L14.5274 44.8603L12.3204 44.6245L12.4578 41.9241L12.4218 39.3999L11.6894 36.0732V36.0528L12.1964 18.0435C12.1863 17.857 11.9756 14.1824 11.6759 10.4681C11.4962 8.2414 11.3205 6.43695 11.1526 5.10514C10.9008 3.13464 10.7217 2.61609 10.6434 2.48008Z" fill="#1F191A"/>
<path d="M17.7858 23.0468L12.3311 28.3967L11.854 8.5897C11.854 8.5897 16.7712 6.00544 17.1019 6.11652C17.4326 6.2276 21.6152 13.0572 21.7256 13.2045C21.836 13.3519 17.7858 23.0468 17.7858 23.0468Z" fill="#FF5CD7"/>
<path d="M12.1733 28.7849L11.6843 8.4894L11.7761 8.44122C11.7885 8.43499 13.0216 7.78723 14.2795 7.16156C16.8821 5.86603 17.0454 5.921 17.1525 5.95727C17.2477 5.98901 17.3778 6.03265 18.9511 8.48373C19.7961 9.8025 20.7611 11.3497 21.3368 12.2734C21.6134 12.7177 21.8314 13.0668 21.8579 13.1054C21.9289 13.2006 21.9508 13.23 21.3098 14.8662C20.987 15.6896 20.5296 16.8265 19.9493 18.245C18.9618 20.6598 17.9479 23.0876 17.9377 23.112L17.9248 23.1432L12.1733 28.7849ZM12.0223 8.69058L12.4876 28.0079L17.6448 22.9522C19.1584 19.3286 21.3954 13.8795 21.5526 13.2487C21.4895 13.1496 21.3458 12.92 21.0557 12.4553C20.1589 11.0159 17.4674 6.69231 17.046 6.28711C16.6387 6.34718 14.2041 7.5458 12.0223 8.69058Z" fill="#1F191A"/>
<path d="M25.2971 23.0471L18.5446 29.6925L13.5417 29.7073L14.3901 26.3772L17.7852 23.0471H25.2971Z" fill="#701EB3"/>
<path d="M35.5081 49.3843H27.7619L20.908 56.1283V56.3635H28.6575L35.1577 49.9674L35.5081 49.6223V49.3843ZM28.5229 56.0297H21.4865L27.8976 49.7198H34.9329L28.5229 56.0297Z" fill="#1F191A"/>
<path d="M37.0105 0C31.8556 0 27.6594 4.21926 27.6594 9.40762V49.7199H35.4101L35.5087 49.6224V27.5201H38.5163V49.7199H46.1532L46.3616 49.6224V9.40762C46.3616 4.21926 42.1677 0 37.0105 0ZM46.0236 49.3844H38.8498V27.1869H35.1758V49.3844H27.9974V9.40762C27.9974 4.40628 32.0415 0.340035 37.0105 0.340035C41.9796 0.340035 46.0236 4.40855 46.0236 9.40762V49.3844Z" fill="#1F191A"/>
<path d="M37.0105 7.55713C36.5235 7.55833 36.0568 7.75381 35.7129 8.10069C35.3689 8.44756 35.1758 8.91752 35.1758 9.40748V23.1222H38.8498V9.40748C38.8498 8.91674 38.656 8.44609 38.311 8.09909C37.9661 7.75208 37.4983 7.55713 37.0105 7.55713ZM38.5163 22.7878H35.5087V9.40748C35.5048 9.20635 35.5409 9.00645 35.6147 8.81949C35.6885 8.63254 35.7987 8.46226 35.9387 8.31864C36.0787 8.17502 36.2458 8.06093 36.4302 7.98305C36.6146 7.90516 36.8125 7.86505 37.0125 7.86505C37.2124 7.86505 37.4104 7.90516 37.5948 7.98305C37.7792 8.06093 37.9462 8.17502 38.0863 8.31864C38.2263 8.46226 38.3364 8.63254 38.4103 8.81949C38.4841 9.00645 38.5201 9.20635 38.5163 9.40748V22.7878Z" fill="#1F191A"/>
<path d="M25.4617 22.8792H17.7177L14.2404 26.2897L13.3267 29.8754L18.6128 29.8601L25.4617 23.1177V22.8792ZM18.4765 29.5263L13.7559 29.5399L14.54 26.4659L17.8535 23.2164H24.8882L18.4765 29.5263Z" fill="#1F191A"/>
<path d="M17.6405 27.4895L12.9925 31.9355C12.9925 31.9355 12.0022 41.6389 12.4788 41.9716C12.9554 42.3042 19.2741 46.1432 19.2741 46.1432C19.2741 46.1432 21.0294 38.8699 21.0294 38.7225C21.0294 38.5752 19.8915 28.9749 19.8915 28.9749L17.6405 27.4895Z" fill="#FF5CD7"/>
<path d="M19.3822 46.4044L19.1878 46.2866C18.9276 46.1313 12.86 42.4402 12.384 42.1075C12.2432 42.0095 12.0072 41.8451 12.3908 36.8143C12.5767 34.3729 12.8246 31.9405 12.8268 31.9167L12.833 31.8549L17.6212 27.2747L20.048 28.8768L20.057 28.9544C20.2474 30.5588 21.196 38.5706 21.196 38.7208C21.196 38.871 19.9652 43.9913 19.4362 46.1811L19.3822 46.4044ZM12.5897 41.8446C13.1085 42.1959 18.1102 45.2393 19.1658 45.8814C19.8463 43.0579 20.8169 39.0002 20.862 38.7163C20.8428 38.4238 20.1229 32.3429 19.7354 29.0729L17.659 27.7025L13.1524 32.0136C13.1135 32.399 12.9017 34.5259 12.7344 36.6965C12.4021 41.0013 12.5328 41.7244 12.5897 41.8446Z" fill="#1F191A"/>
<path d="M17.7862 27.4459V28.6763V40.9963C17.7862 41.442 17.6102 41.8694 17.297 42.1845C16.9838 42.4996 16.5589 42.6767 16.1159 42.6767C15.673 42.6767 15.2481 42.4996 14.9349 42.1845C14.6217 41.8694 14.4457 41.442 14.4457 40.9963V25.2465V9.49664C14.4457 9.05099 14.6217 8.62359 14.9349 8.30846C15.2481 7.99334 15.673 7.8163 16.1159 7.8163C16.5589 7.8163 16.9838 7.99334 17.297 8.30846C17.6102 8.62359 17.7862 9.05099 17.7862 9.49664V23.047H25.298V9.49664C25.298 7.04667 24.3307 4.69705 22.6087 2.96467C20.8867 1.23228 18.5512 0.259033 16.1159 0.259033C13.6807 0.259033 11.3452 1.23228 9.62321 2.96467C7.90124 4.69705 6.93384 7.04667 6.93384 9.49664V40.9963C6.93384 43.4463 7.90124 45.7959 9.62321 47.5283C11.3452 49.2607 13.6807 50.2339 16.1159 50.2339C18.5512 50.2339 20.8867 49.2607 22.6087 47.5283C24.3307 45.7959 25.298 43.4463 25.298 40.9963V27.4459H17.7862Z" fill="#69FD00"/>
<path d="M17.6194 40.9964C17.6232 41.1975 17.5872 41.3974 17.5134 41.5844C17.4395 41.7714 17.3294 41.9416 17.1894 42.0852C17.0493 42.2289 16.8822 42.343 16.6979 42.4208C16.5135 42.4987 16.3155 42.5388 16.1156 42.5388C15.9156 42.5388 15.7177 42.4987 15.5333 42.4208C15.3489 42.343 15.1818 42.2289 15.0418 42.0852C14.9018 41.9416 14.7916 41.7714 14.7178 41.5844C14.644 41.3974 14.6079 41.1975 14.6118 40.9964V9.49673C14.6079 9.2956 14.644 9.0957 14.7178 8.90874C14.7916 8.72179 14.9018 8.55152 15.0418 8.40789C15.1818 8.26427 15.3489 8.15018 15.5333 8.0723C15.7177 7.99441 15.9156 7.9543 16.1156 7.9543C16.3155 7.9543 16.5135 7.99441 16.6979 8.0723C16.8822 8.15018 17.0493 8.26427 17.1894 8.40789C17.3294 8.55152 17.4395 8.72179 17.5134 8.90874C17.5872 9.0957 17.6232 9.2956 17.6194 9.49673V23.2149H25.3678L25.4624 23.1225V9.49673C25.4624 4.31064 21.2685 0.0891113 16.1114 0.0891113C10.9542 0.0891113 6.76025 4.30837 6.76025 9.49673V40.9964C6.76025 46.1825 10.9542 50.404 16.1114 50.404C21.2685 50.404 25.4624 46.1848 25.4624 40.9964V27.2783H17.6194V40.9964ZM17.9528 27.6138H25.1312V40.9964C25.1312 45.9977 21.0871 50.064 16.1181 50.064C11.1491 50.064 7.10501 45.9955 7.10501 40.9964V9.49673C7.10501 4.49539 11.1491 0.429146 16.1181 0.429146C21.0871 0.429146 25.1312 4.49766 25.1312 9.49673V22.8794H17.9528V9.49673C17.9528 9.00659 17.7593 8.53652 17.4148 8.18994C17.0703 7.84336 16.6031 7.64865 16.1159 7.64865C15.6287 7.64865 15.1614 7.84336 14.8169 8.18994C14.4724 8.53652 14.2789 9.00659 14.2789 9.49673V40.9964C14.2789 41.4865 14.4724 41.9566 14.8169 42.3032C15.1614 42.6498 15.6287 42.8445 16.1159 42.8445C16.6031 42.8445 17.0703 42.6498 17.4148 42.3032C17.7593 41.9566 17.9528 41.4865 17.9528 40.9964V27.6138Z" fill="#1F191A"/>
</svg>
