<svg width="123" height="60" viewBox="0 0 123 60" fill="none" xmlns="http://www.w3.org/2000/svg">
<path d="M0 4L123 0L118.5 58L0 56V4Z" fill="#FF5CD7"/>
<path d="M10 14H29.0056C43.1793 14 53.1008 20.8936 53.1008 37C53.1008 53.1709 43.1793 60 29.0056 60H10V14ZM22.2409 50.6583H27.0728C35.5126 50.6583 40.6667 47.6303 40.6667 37C40.6667 26.4342 35.5126 23.4062 27.0728 23.4062H22.2409V50.6583Z" fill="black"/>
<path d="M56.4963 60V14H68.7372V60H56.4963Z" fill="black"/>
<path d="M92.0533 60L84.5799 40.5434L77.0421 60H72.2746L81.3586 36.7423L72.8544 14.902H78.0729L85.0309 32.9412L92.0533 14.902H96.7563L88.3166 36.7423L97.3362 60H92.0533Z" fill="black"/>
<path d="M101.367 14.902H106.393V60H101.367V14.902Z" fill="black"/>
</svg>
