<svg width="287" height="66" viewBox="0 0 287 66" fill="none" xmlns="http://www.w3.org/2000/svg">
<path d="M287 57.9999L3.35391 58.0005L4.80825e-06 3.00049L287 -5.34058e-05L287 57.9999Z" fill="#FFEA00"/>
<path d="M6 20.0005H28.4577C39.3037 20.0005 45.6838 25.6787 45.6838 35.3764C45.6838 45.0102 39.3037 50.6884 28.4577 50.6884H18.1221V65.5539H6V20.0005ZM18.1221 41.3736H26.2885C30.9459 41.3736 33.3065 39.0768 33.3065 35.3764C33.3065 31.6121 30.9459 29.3153 26.2885 29.3153H18.1221V41.3736Z" fill="black"/>
<path d="M48.8658 65.5539V20.0005H61.0517V55.601H84.0836V65.5539H48.8658Z" fill="black"/>
<path d="M117.37 56.0476H100.463L97.4004 65.5539H84.7041L100.846 20.0005H117.242L133.384 65.5539H120.432L117.37 56.0476ZM114.626 47.4346L108.948 29.9533H108.693L103.142 47.4346H114.626Z" fill="black"/>
<path d="M169.989 20.0005L153.656 48.583V65.5539H141.534V48.583L125.265 20.0005H138.535L147.722 38.056L156.91 20.0005H169.989Z" fill="black"/>
<path d="M172.43 20.8937H182.383C189.401 20.8937 192.336 24.4665 192.336 31.1017V34.7384C192.336 39.651 190.613 42.7134 186.785 43.9256C190.868 45.1378 192.399 48.4554 192.399 53.2404V60.1947C192.399 62.1725 192.463 64.0227 193.293 65.5539H188.252C187.678 64.2779 187.423 63.1295 187.423 60.1309V53.1128C187.423 48.0726 185.062 46.4776 180.915 46.4776H177.406V65.5539H172.43V20.8937ZM177.406 41.9478H181.107C185.062 41.9478 187.423 40.6718 187.423 35.823V31.5483C187.423 27.5289 185.956 25.4235 182.255 25.4235H177.406V41.9478Z" fill="black"/>
<path d="M197.156 54.7716V31.6759C197.156 24.8493 200.538 20.4471 207.364 20.4471C214.255 20.4471 217.636 24.8493 217.636 31.6759V54.7716C217.636 61.5345 214.255 66.0005 207.364 66.0005C200.538 66.0005 197.156 61.5345 197.156 54.7716ZM202.069 31.4207V55.0268C202.069 59.1101 203.791 61.4707 207.364 61.4707C211.001 61.4707 212.66 59.1101 212.66 55.0268V31.4207C212.66 27.4013 211.001 24.9769 207.364 24.9769C203.791 24.9769 202.069 27.4013 202.069 31.4207Z" fill="black"/>
<path d="M221.953 54.7716V31.6759C221.953 24.8493 225.335 20.4471 232.162 20.4471C239.052 20.4471 242.433 24.8493 242.433 31.6759V54.7716C242.433 61.5345 239.052 66.0005 232.162 66.0005C225.335 66.0005 221.953 61.5345 221.953 54.7716ZM226.866 31.4207V55.0268C226.866 59.1101 228.589 61.4707 232.162 61.4707C235.798 61.4707 237.457 59.1101 237.457 55.0268V31.4207C237.457 27.4013 235.798 24.9769 232.162 24.9769C228.589 24.9769 226.866 27.4013 226.866 31.4207Z" fill="black"/>
<path d="M270.676 29.6343L263.594 65.4901H258.809L251.408 29.9533V65.5539H247.07V20.8937H254.024L261.361 56.558L268.443 20.8937H275.397V65.5539H270.676V29.6343Z" fill="black"/>
</svg>
