<svg width="188" height="66" viewBox="0 0 188 66" fill="none" xmlns="http://www.w3.org/2000/svg">
<path d="M0 7L188 0V65.5L0 59V7Z" fill="#00EDFD"/>
<path d="M33.0896 46L24.4566 30.4734H17.2409V46H5V0H28.5798C39.5322 0 45.9748 5.66947 45.9748 15.2689C45.9748 22.0336 42.8179 26.8655 37.0196 29.056L47.3277 46H33.0896ZM17.2409 21.1317H26.5182C31.1569 21.1317 33.5406 18.8767 33.5406 15.2689C33.5406 11.6611 31.1569 9.40616 26.5182 9.40616H17.2409V21.1317Z" fill="black"/>
<path d="M61.5351 18.0392H83.1178V26.9944H61.5351V36.4006H84.3418V46H49.2298V0H84.3418V9.40616H61.5351V18.0392Z" fill="black"/>
<path d="M104.743 15.3978L100.297 46H93.4037L87.2189 0.901961H92.1152L97.3981 39.2997L102.423 0.966386H107.384L112.345 39.3641L117.435 0.901961H121.815L115.695 46H109.059L104.743 15.3978Z" fill="black"/>
<path d="M125.875 0.901961H130.9V46H125.875V0.901961Z" fill="black"/>
<path d="M140.513 9.53501V46H136.003V0.901961H142.381L152.818 33.5014V0.901961H157.263V46H152.045L140.513 9.53501Z" fill="black"/>
<path d="M162.429 0.901961H172.995C180.017 0.901961 183.238 5.15406 183.238 12.112V34.8543C183.238 41.7479 180.017 46 172.995 46H162.429V0.901961ZM167.454 41.4258H172.93C176.538 41.4258 178.278 39.1709 178.278 35.0476V11.8543C178.278 7.73109 176.538 5.47619 172.866 5.47619H167.454V41.4258Z" fill="black"/>
</svg>
