<svg width="168" height="46" viewBox="0 0 168 46" fill="none" xmlns="http://www.w3.org/2000/svg">
<path d="M2.95531 0.513964V34.6285C2.95531 39.4469 4.75419 43.1732 9.70112 43.1732C14.648 43.1732 16.4469 39.4469 16.4469 34.6285V0.513964H19.2095V34.5C19.2095 40.9246 16.5112 45.8715 9.63687 45.8715C2.76257 45.8715 0 40.9246 0 34.5V0.513964H2.95531Z" fill="black"/>
<path d="M28.7164 9.1229V45.486H24.2192V0.513964H30.5795L40.9873 33.0223V0.513964H45.4203V45.486H40.2164L28.7164 9.1229Z" fill="black"/>
<path d="M49.672 11.3073C49.672 4.11173 53.2056 0 60.0799 0C66.9542 0 70.4877 4.11173 70.4877 11.3073V12.7207H63.8061V10.8575C63.8061 7.64525 62.5212 6.42458 60.2726 6.42458C58.024 6.42458 56.7391 7.64525 56.7391 10.8575C56.7391 20.1089 70.5519 21.8436 70.5519 34.6927C70.5519 41.8883 66.9542 46 60.0156 46C53.0771 46 49.4793 41.8883 49.4793 34.6927V31.9302H56.1609V35.1425C56.1609 38.3547 57.5743 39.5112 59.8229 39.5112C62.0715 39.5112 63.4849 38.3547 63.4849 35.1425C63.4849 25.8911 49.672 24.1564 49.672 11.3073Z" fill="black"/>
<path d="M88.4138 28.7179H95.0953V34.6927C95.0953 41.8883 91.4976 46 84.559 46C77.6205 46 74.0227 41.8883 74.0227 34.6927V11.3073C74.0227 4.11173 77.6205 0 84.559 0C91.4976 0 95.0953 4.11173 95.0953 11.3073V15.676H88.4138V10.8575C88.4138 7.64525 87.0004 6.42458 84.7518 6.42458C82.5032 6.42458 81.0898 7.64525 81.0898 10.8575V35.1425C81.0898 38.3547 82.5032 39.5112 84.7518 39.5112C87.0004 39.5112 88.4138 38.3547 88.4138 35.1425V28.7179Z" fill="black"/>
<path d="M106.45 6.93855V19.4665H116.151V25.8911H106.45V39.0615H118.657V45.486H99.3832V0.513964H118.657V6.93855H106.45Z" fill="black"/>
<path d="M127.469 9.1229V45.486H122.972V0.513964H129.332L139.74 33.0223V0.513964H144.173V45.486H138.969L127.469 9.1229Z" fill="black"/>
<path d="M152.28 21.3296H164.551V24.0279H152.28V42.7877H167.056V45.486H149.324V0.513964H167.056V3.21229H152.28V21.3296Z" fill="black"/>
</svg>
