<svg width="17" height="17" viewBox="0 0 17 17" fill="none" xmlns="http://www.w3.org/2000/svg">
<path d="M5.33808 8.00168C5.33808 6.52867 6.53258 5.33424 8.00648 5.33424C9.48038 5.33424 10.6755 6.52867 10.6755 8.00168C10.6755 9.47469 9.48038 10.6691 8.00648 10.6691C6.53258 10.6691 5.33808 9.47469 5.33808 8.00168ZM3.89525 8.00168C3.89525 10.271 5.73584 12.1104 8.00648 12.1104C10.2771 12.1104 12.1177 10.271 12.1177 8.00168C12.1177 5.7324 10.2771 3.89291 8.00648 3.89291C5.73584 3.89291 3.89525 5.7324 3.89525 8.00168ZM11.3197 3.73C11.3196 3.91991 11.3759 4.10558 11.4814 4.26352C11.5869 4.42147 11.7369 4.5446 11.9124 4.61735C12.088 4.69009 12.2811 4.70918 12.4675 4.67221C12.6539 4.63523 12.8251 4.54385 12.9596 4.40962C13.094 4.27539 13.1856 4.10433 13.2227 3.91809C13.2599 3.73184 13.2409 3.53877 13.1683 3.36328C13.0956 3.1878 12.9725 3.03779 12.8146 2.93222C12.6566 2.82665 12.4709 2.77026 12.2809 2.77018H12.2805C12.0258 2.7703 11.7815 2.87145 11.6014 3.05141C11.4212 3.23138 11.3199 3.47544 11.3197 3.73ZM4.77186 14.5149C3.99126 14.4793 3.56698 14.3494 3.28503 14.2396C2.91122 14.0942 2.64451 13.9209 2.36409 13.6411C2.08367 13.3612 1.91009 13.0949 1.7652 12.7213C1.65529 12.4397 1.52527 12.0155 1.48978 11.2354C1.45097 10.3919 1.44322 10.1386 1.44322 8.00174C1.44322 5.86491 1.45161 5.61225 1.48978 4.7681C1.52533 3.98797 1.65632 3.56465 1.7652 3.28216C1.91073 2.90858 2.08405 2.64203 2.36409 2.36178C2.64412 2.08152 2.91058 1.90805 3.28503 1.76325C3.56685 1.6534 3.99126 1.52346 4.77186 1.48799C5.61581 1.4492 5.86933 1.44145 8.00648 1.44145C10.1436 1.44145 10.3974 1.44984 11.2421 1.48799C12.0227 1.52352 12.4462 1.65443 12.7289 1.76325C13.1027 1.90805 13.3694 2.08191 13.6498 2.36178C13.9303 2.64164 14.1032 2.90858 14.2487 3.28216C14.3586 3.56382 14.4887 3.98797 14.5241 4.7681C14.563 5.61225 14.5707 5.86491 14.5707 8.00174C14.5707 10.1386 14.563 10.3912 14.5241 11.2354C14.4886 12.0155 14.3579 12.4395 14.2487 12.7213C14.1032 13.0949 13.9299 13.3615 13.6498 13.6411C13.3698 13.9207 13.1027 14.0942 12.7289 14.2396C12.4471 14.3494 12.0227 14.4794 11.2421 14.5149C10.3981 14.5536 10.1446 14.5614 8.00648 14.5614C5.86837 14.5614 5.61555 14.5536 4.77186 14.5149ZM4.70557 0.0484582C3.85323 0.0872503 3.27081 0.222319 2.76217 0.42012C2.23541 0.624387 1.78948 0.898428 1.34387 1.34307C0.898263 1.7877 0.624762 2.23407 0.420372 2.76051C0.222452 3.26917 0.0873027 3.85092 0.0484872 4.70275C0.00903131 5.55592 0 5.82868 0 8.00168C0 10.1747 0.00903131 10.4474 0.0484872 11.3006C0.0873027 12.1525 0.222452 12.7342 0.420372 13.2428C0.624762 13.769 0.898327 14.2158 1.34387 14.6603C1.78942 15.1047 2.23541 15.3784 2.76217 15.5832C3.27177 15.781 3.85323 15.9161 4.70557 15.9549C5.5597 15.9937 5.83218 16.0034 8.00648 16.0034C10.1808 16.0034 10.4537 15.9943 11.3074 15.9549C12.1598 15.9161 12.7418 15.781 13.2508 15.5832C13.7772 15.3784 14.2235 15.1049 14.6691 14.6603C15.1147 14.2157 15.3876 13.769 15.5926 13.2428C15.7905 12.7342 15.9263 12.1524 15.9645 11.3006C16.0033 10.4468 16.0123 10.1747 16.0123 8.00168C16.0123 5.82868 16.0033 5.55592 15.9645 4.70275C15.9257 3.85086 15.7905 3.26885 15.5926 2.76051C15.3876 2.23439 15.114 1.78841 14.6691 1.34307C14.2242 0.897724 13.7772 0.624387 13.2514 0.42012C12.7418 0.222319 12.1597 0.0866102 11.308 0.0484582C10.4543 0.00966603 10.1814 0 8.00712 0C5.83282 0 5.5597 0.0090259 4.70557 0.0484582Z" fill="white"/>
</svg>
