<svg width="378" height="100" viewBox="0 0 378 100" fill="none" xmlns="http://www.w3.org/2000/svg">
<path d="M377.726 0.0775576H320.066L294.412 26.1186V52.1596H282.644V0.00802053H257.962L248.728 9.1867C240.778 -0.6178 225.469 0.00802053 225.469 0.00802053H189.401L169.44 20.3471L162.22 0.112319H133.407L107.857 26.0838L106.26 30.6384V0.112319H74.1844L61.3401 13.2198L57.8687 0.112319H25.6191L0 26.2229V99.8609H23.1544L29.3683 93.5332L31.1734 99.8609H48.9471L57.2091 91.5514V99.8609H80.6413L82.2728 98.1921L81.6827 100H107.823L121.465 85.8495H131.88L136.288 100H188.603L211.375 76.5665C215.715 75.906 222.137 69.9607 222.137 69.9607L232.308 59.5304V99.8609H290.94L294.412 96.3842V99.8609H352.246L377.726 73.8894V52.8202H369.533L376.025 46.2839V26.1186H372.241L377.726 20.6253V0.0775576Z" fill="black"/>
<path d="M102.72 70.378H86.1264V23.6155H85.7446L71.8589 70.378H59.5006L45.6149 23.6155H45.233V70.378H29.0562V3.62402H55.1266L65.7492 43.9546H66.131L76.8577 3.62402H102.72V70.378Z" fill="white"/>
<path d="M135.316 56.3659L130.804 70.273H112.231L135.872 3.51892H159.755L183.326 70.3773H164.511L160.033 56.4702L135.316 56.3659ZM147.709 18.1214H147.328L139.239 43.9538H156.041L147.709 18.1214Z" fill="white"/>
<path d="M244.251 9.56848C246.499 11.6572 248.259 14.2173 249.405 17.0661C250.552 19.9149 251.056 22.982 250.881 26.0484C251.049 29.1192 250.542 32.1894 249.396 35.0428C248.251 37.8961 246.494 40.4631 244.251 42.563C239.045 46.7963 232.442 48.918 225.748 48.5083H210.647V70.3772H192.908V3.6232H225.748C232.442 3.21348 239.045 5.33519 244.251 9.56848ZM230.365 32.6195C232.08 30.8706 233.041 28.5172 233.041 26.0658C233.041 23.6143 232.08 21.2609 230.365 19.5121C228.203 17.8258 225.497 16.9965 222.763 17.1826H210.647V34.9489H222.589C225.321 35.1188 228.022 34.2913 230.192 32.6195H230.365Z" fill="white"/>
<path d="M261.434 3.62402H279.173V55.7756H312.95V70.378H261.434V3.62402Z" fill="white"/>
<path d="M372.588 29.6998V42.8072H341.345V56.3667H374.254V70.2737H323.502V3.62402H374.254V17.1834H341.102V29.6998H372.588Z" fill="white"/>
</svg>
