<svg width="140" height="38" viewBox="0 0 140 38" fill="none" xmlns="http://www.w3.org/2000/svg">
<path d="M140 0.0287459H118.629L109.12 9.68056V19.3324H104.759V0.00297272H95.6107L92.1882 3.40495C89.2418 -0.228981 83.5677 0.00297272 83.5677 0.00297272H70.1994L62.8012 7.54144L60.125 0.04163H49.4458L39.9761 9.66768L39.3842 11.3558V0.04163H27.4956L22.735 4.89976L21.4484 0.04163H9.49545L0 9.71922V37.0124H8.58193L10.885 34.6671L11.5541 37.0124H18.1417L21.2039 33.9325V37.0124H29.8888L30.4935 36.3938L30.2748 37.0639H39.9632L45.0198 31.8192H48.8797L50.5137 37.0639H69.9035L78.3439 28.3785C79.9522 28.1337 82.3325 25.9302 82.3325 25.9302L86.1024 22.0643V37.0124H107.834L109.12 35.7237V37.0124H130.556L140 27.3863V19.5772H136.964L139.37 17.1546V9.68056H137.967L140 7.64453V0.0287459Z" fill="black"/>
<path d="M38.0722 26.0847H31.922V8.75263H31.7805L26.6339 26.0847H22.0534L16.9068 8.75263H16.7653V26.0847H10.7695V1.34302H20.4322L24.3694 16.2911H24.5109L28.4867 1.34302H38.0722V26.0847Z" fill="white"/>
<path d="M50.1534 20.8916L48.4807 26.0461H41.5972L50.3592 1.30444H59.2114L67.9477 26.0848H60.9741L59.3143 20.9302L50.1534 20.8916ZM54.7467 6.71668H54.6052L51.6073 16.2912H57.8346L54.7467 6.71668Z" fill="white"/>
<path d="M90.5287 3.54653C91.362 4.32068 92.0144 5.26957 92.4392 6.32544C92.864 7.38131 93.0508 8.5181 92.9862 9.65462C93.0483 10.7928 92.8604 11.9307 92.4358 12.9883C92.0112 14.0459 91.3602 14.9973 90.5287 15.7756C88.5991 17.3446 86.1517 18.131 83.6709 17.9792H78.074V26.0846H71.4992V1.34298H83.6709C86.1517 1.19112 88.5991 1.97751 90.5287 3.54653ZM85.3821 12.0901C86.0178 11.4419 86.374 10.5697 86.374 9.66107C86.374 8.75248 86.0178 7.88021 85.3821 7.23201C84.5808 6.60702 83.5777 6.29964 82.5644 6.36863H78.074V12.9535H82.5C83.5126 13.0165 84.5137 12.7098 85.3178 12.0901H85.3821Z" fill="white"/>
<path d="M96.8975 1.34302H103.472V20.6724H115.991V26.0847H96.8975V1.34302Z" fill="white"/>
<path d="M138.096 11.0077V15.8658H126.516V20.8915H138.713V26.046H119.903V1.34302H138.713V6.36866H126.426V11.0077H138.096Z" fill="white"/>
</svg>
