<svg width="32" height="32" viewBox="0 0 32 32" fill="none" xmlns="http://www.w3.org/2000/svg">
<path fill-rule="evenodd" clip-rule="evenodd" d="M32 16.3639C32 15.2294 31.8961 14.1385 31.7032 13.0912H16.3265V19.2803H25.1132C24.7347 21.2803 23.5844 22.9748 21.8553 24.1094V28.1239H27.1317C30.2189 25.3385 32 21.2366 32 16.3639Z" fill="#4285F4"/>
<path fill-rule="evenodd" clip-rule="evenodd" d="M16.3263 31.9997C20.7345 31.9997 24.4302 30.5669 27.1315 28.1233L21.8551 24.1088C20.3931 25.0688 18.523 25.636 16.3263 25.636C12.074 25.636 8.47473 22.8215 7.19087 19.0397H1.73633V23.1851C4.42278 28.4142 9.94412 31.9997 16.3263 31.9997Z" fill="#34A853"/>
<path fill-rule="evenodd" clip-rule="evenodd" d="M7.19109 19.0405C6.86456 18.0805 6.67904 17.0551 6.67904 16.0005C6.67904 14.946 6.86456 13.9205 7.19109 12.9605V8.81506H1.73655C0.630798 10.9751 0 13.4187 0 16.0005C0 18.5823 0.630798 21.026 1.73655 23.186L7.19109 19.0405Z" fill="#FBBC05"/>
<path fill-rule="evenodd" clip-rule="evenodd" d="M16.3263 6.36364C18.7233 6.36364 20.8755 7.17091 22.5675 8.75637L27.2502 4.16727C24.4228 1.58545 20.7271 0 16.3263 0C9.94412 0 4.42278 3.58546 1.73633 8.81455L7.19087 12.96C8.47473 9.17818 12.074 6.36364 16.3263 6.36364Z" fill="#EA4335"/>
</svg>
