<svg width="53" height="50" viewBox="0 0 53 50" fill="none" xmlns="http://www.w3.org/2000/svg">
<g clip-path="url(#clip0_338_3841)">
<path d="M18.3463 39.7362C18.4279 39.6525 18.4736 39.5403 18.4736 39.4234C18.4736 39.3065 18.4279 39.1943 18.3463 39.1106C18.2952 39.0673 18.236 39.0345 18.1721 39.0142C18.1083 38.9939 18.0411 38.9864 17.9743 38.9922H17.4079V39.8377H17.9743C18.1066 39.8507 18.239 39.8146 18.3463 39.7362Z" fill="white"/>
<path d="M13.9077 39.0429H13.8908L13.5019 40.3703H14.305L13.9077 39.0429Z" fill="white"/>
<path d="M39.3304 0L33.9956 5.4278L32.5499 0H19.2002L13.8316 5.46162L0 19.513V50H33.4122L41.9936 41.2919L52.604 30.5123V0H39.3304ZM16.258 38.113H18.1857C18.5728 38.0909 18.9547 38.2112 19.2594 38.4511C19.3918 38.5728 19.4954 38.7224 19.5627 38.8891C19.63 39.0558 19.6592 39.2355 19.6483 39.4149C19.6591 39.5931 19.6298 39.7715 19.5625 39.9369C19.4952 40.1022 19.3916 40.2504 19.2594 40.3703C18.9566 40.6139 18.5733 40.7346 18.1857 40.7085H17.4078V41.8668H16.258V38.113ZM4.54007 46.7281H3.62699V37.4281H4.54007V46.7281ZM10.2215 43.5577H8.45451V44.2509H10.1454V45.0964H8.45451V46.4576H7.26243V42.6953H10.2131L10.2215 43.5577ZM10.4921 39.3304L9.80724 41.8668H9.02097L8.33615 39.3304V41.8668H7.27088V38.113H8.96179L9.40987 40.142L9.85796 38.113H11.5489V41.8668H10.509V39.3304H10.4921ZM11.6841 46.4237H10.5343V42.6953H11.6841V46.4237ZM13.1299 38.096H14.7109L15.9875 41.8498H14.7616L14.5502 41.1481H13.2651L13.0622 41.8498H11.8363L13.1299 38.096ZM15.1674 46.4237H12.166V42.6953H13.3243V45.5022H15.1674V46.4237ZM19.8005 46.4237H18.7267V43.9635L18.0419 46.4998H17.2557L16.5708 43.9635V46.4998H15.4802V42.6953H17.1711L17.6192 44.7244L18.0673 42.6953H19.7582L19.8005 46.4237ZM19.9611 38.096H21.1363V40.9199H22.9709V41.8668H19.9611V38.096ZM23.0132 46.2208C22.6449 46.4274 22.2261 46.527 21.8042 46.5083C21.516 46.5119 21.2296 46.4632 20.9587 46.3646C20.7161 46.2775 20.4984 46.1323 20.3247 45.9418C20.1629 45.7487 20.068 45.5085 20.0541 45.257L21.1363 45.1556C21.1382 45.2331 21.1566 45.3093 21.1901 45.3793C21.2236 45.4492 21.2715 45.5113 21.3307 45.5614C21.4648 45.6536 21.6246 45.701 21.7873 45.6967C21.9113 45.7029 22.0345 45.6736 22.1424 45.6121C22.1847 45.5929 22.2207 45.562 22.2462 45.5231C22.2716 45.4841 22.2855 45.4388 22.2861 45.3923C22.2884 45.3516 22.2793 45.3111 22.2599 45.2753C22.2405 45.2394 22.2115 45.2097 22.1762 45.1894C22.0506 45.1244 21.917 45.076 21.7788 45.0457L21.2969 44.9104C21.0861 44.8594 20.8797 44.7915 20.6797 44.7075C20.5247 44.6355 20.3908 44.5248 20.2908 44.3862C20.1701 44.2101 20.1107 43.9992 20.1217 43.7859C20.1205 43.618 20.1617 43.4524 20.2415 43.3046C20.3213 43.1568 20.4372 43.0316 20.5783 42.9405C20.9329 42.7297 21.3413 42.6269 21.7535 42.6446C22.1396 42.6319 22.5203 42.7381 22.8441 42.9489C22.9829 43.046 23.0992 43.1717 23.1853 43.3175C23.2713 43.4634 23.3251 43.626 23.3429 43.7944L22.2523 43.862C22.2407 43.7429 22.1867 43.6318 22.1001 43.5492C21.9827 43.4639 21.8392 43.422 21.6943 43.4308C21.581 43.4252 21.4688 43.4547 21.373 43.5154C21.3364 43.5335 21.3053 43.5611 21.283 43.5953C21.2607 43.6295 21.248 43.669 21.2462 43.7098C21.2456 43.7447 21.2547 43.779 21.2727 43.8089C21.2906 43.8388 21.3166 43.8631 21.3477 43.8789C21.4427 43.9245 21.5418 43.9613 21.6436 43.9888L22.21 44.1326C22.4351 44.1854 22.6556 44.2561 22.8695 44.3439C23.0412 44.4195 23.19 44.5391 23.3006 44.6906C23.4279 44.8893 23.49 45.1228 23.4782 45.3585C23.4861 45.5332 23.4472 45.7068 23.3654 45.8614C23.2837 46.016 23.1621 46.146 23.0132 46.2377V46.2208ZM26.209 38.9838H24.4335V39.5418H26.1245V40.3872H24.4335V40.9875H26.209V41.8837H23.2499V38.113H26.209V38.9838ZM51.1498 29.0666H44.3186V9.72269H44.1579L38.4004 29.0666H33.2601L27.4941 9.72269H27.3419V29.0666H20.6459V1.43727H31.4423L35.8471 18.118H36.0078L40.4549 1.43727H51.1752L51.1498 29.0666Z" fill="white"/>
</g>
<defs>
<clipPath id="clip0_338_3841">
<rect width="52.6124" height="50" fill="white"/>
</clipPath>
</defs>
</svg>
