<svg width="130" height="30" viewBox="0 0 130 30" fill="none" xmlns="http://www.w3.org/2000/svg">
<g clip-path="url(#clip0_338_3714)">
<path d="M-3.78932e-06 13.1707C-0.020154 11.3557 0.196452 9.54573 0.644335 7.78668C1.05696 6.2585 1.76568 4.82623 2.73025 3.57117C3.68655 2.4207 4.90327 1.51471 6.27957 0.928288C7.94183 0.252341 9.72836 -0.0640244 11.5217 2.25101e-06C13.3079 -0.0652512 15.0876 0.251216 16.7419 0.928288C18.1243 1.50407 19.3434 2.41183 20.2912 3.57117C21.2868 4.80663 21.9989 6.24571 22.3771 7.78668C22.8215 9.54619 23.0344 11.3561 23.0106 13.1707V16.2286C23.0312 18.0401 22.8146 19.8465 22.3662 21.6018C22.0629 22.9122 21.5145 24.1536 20.7499 25.2603H24.332C24.4256 25.2616 24.5181 25.2801 24.605 25.3149C24.6882 25.3541 24.7625 25.4098 24.8234 25.4787C24.8824 25.5465 24.9232 25.6281 24.9423 25.7159C24.9614 25.8037 24.9581 25.8949 24.9326 25.9811L24.1245 28.9844C24.0931 29.1161 24.0156 29.2323 23.9061 29.312C23.7976 29.3985 23.6626 29.4448 23.5238 29.443H11.1394C9.47215 29.4442 7.82091 29.1177 6.27957 28.482C4.90243 27.8717 3.68699 26.948 2.73025 25.7845C1.75595 24.5477 1.04598 23.1241 0.644335 21.6018C0.195921 19.8465 -0.0207009 18.0401 -3.78932e-06 16.2286V13.1707ZM4.44485 20.8154C4.44645 21.4028 4.56952 21.9835 4.80632 22.521C5.04313 23.0585 5.38856 23.5412 5.82089 23.9388C6.71189 24.7668 7.88094 25.2305 9.09719 25.2384H13.8369C15.0542 25.2359 16.2251 24.7714 17.1132 23.9388C17.5518 23.5464 17.9065 23.0693 18.1561 22.5363C18.4057 22.0034 18.545 21.4254 18.5657 20.8373V8.55115C18.5534 7.97037 18.4253 7.39789 18.189 6.86721C17.9527 6.33652 17.613 5.85829 17.1897 5.46051C16.2941 4.63977 15.128 4.17719 13.9134 4.16091H9.14088C7.91433 4.16598 6.73401 4.62954 5.83181 5.46051C5.40649 5.85737 5.06472 6.33518 4.82654 6.86591C4.58837 7.39664 4.4586 7.96959 4.44485 8.55115V20.8154Z" fill="white"/>
<path d="M28.7769 10.364C28.7605 10.3069 28.7605 10.2464 28.7769 10.1893C28.8031 10.1318 28.8402 10.0799 28.8861 10.0364C28.9817 9.95855 29.1013 9.91611 29.2246 9.91628H32.763C32.8208 9.90584 32.88 9.90584 32.9378 9.91628C32.9961 9.93587 33.0486 9.96964 33.0906 10.0146C33.1388 10.0516 33.1764 10.1005 33.1999 10.1565C33.2113 10.2142 33.2113 10.2736 33.1999 10.3313V23.2945C33.2018 23.648 33.2761 23.9974 33.4183 24.3211C33.5726 24.6435 33.7834 24.9357 34.0408 25.1838C34.595 25.6823 35.3158 25.955 36.0612 25.9483H39.4794C39.8525 25.9509 40.2228 25.8843 40.5715 25.7517C40.9136 25.6235 41.2258 25.4265 41.4889 25.1729C41.7578 24.9375 41.9673 24.6419 42.1005 24.3102C42.2455 23.9916 42.3165 23.6444 42.308 23.2945V10.364C42.2965 10.3064 42.2965 10.247 42.308 10.1893C42.3302 10.1323 42.3636 10.0803 42.4063 10.0364C42.4625 9.99646 42.5253 9.96687 42.5919 9.94904C42.6497 9.9386 42.7089 9.9386 42.7667 9.94904H46.2286C46.2901 9.93865 46.3528 9.93865 46.4143 9.94904C46.4713 9.97127 46.5233 10.0047 46.5672 10.0473C46.612 10.085 46.646 10.134 46.6655 10.1893C46.6818 10.2464 46.6818 10.3069 46.6655 10.364V23.8187C46.6655 25.0965 46.9276 25.8609 47.834 26.1449C47.9113 26.147 47.9867 26.1696 48.0524 26.2104C48.1203 26.2546 48.1765 26.3146 48.2162 26.3852C48.2577 26.4514 48.2838 26.526 48.2927 26.6036C48.3033 26.6797 48.3033 26.7568 48.2927 26.8329L47.8231 28.6458C47.7957 28.8583 47.6872 29.052 47.5203 29.1863C47.3534 29.3207 47.141 29.3853 46.9276 29.3666H46.2832C45.385 29.3802 44.5056 29.1087 43.7714 28.5912C43.0639 28.084 42.5483 27.3529 42.308 26.5162H41.4998L41.2814 26.9967C40.4296 28.8861 38.6385 29.9672 35.8209 29.9672H35.6462C33.036 29.9672 28.6895 28.5257 28.6895 21.7765L28.7769 10.364Z" fill="white"/>
<path d="M59.3011 9.31562C60.4794 9.25296 61.6494 9.54521 62.6598 10.1546C63.6703 10.764 64.4747 11.6625 64.9691 12.7339H65.7008L66.1267 10.6043C66.135 10.5089 66.1625 10.4163 66.2075 10.3318C66.2526 10.2473 66.3142 10.1729 66.3888 10.1129C66.5417 9.98461 66.7353 9.91493 66.9348 9.91628H69.3702C69.4599 9.92771 69.5478 9.94971 69.6323 9.9818C69.71 10.0201 69.7802 10.0719 69.8398 10.1347C69.9012 10.1953 69.9462 10.2705 69.9709 10.3531C69.9874 10.436 69.9874 10.5214 69.9709 10.6043V23.7095C69.9709 24.9545 70.0582 25.7627 70.9975 25.9592C71.1794 26.009 71.3356 26.1261 71.4343 26.2869C71.4813 26.3627 71.5123 26.4474 71.5255 26.5356C71.5386 26.6239 71.5336 26.7139 71.5107 26.8002L71.2159 28.7332C71.1863 28.9498 71.0725 29.146 70.8992 29.2792C70.7202 29.412 70.4986 29.4742 70.2767 29.454H69.5886C67.328 29.454 65.9192 28.613 65.668 26.3961H64.9254C64.444 27.458 63.6519 28.349 62.6538 28.9516C61.6292 29.5665 60.4521 29.8806 59.2574 29.858C54.0371 29.858 50.6298 25.9155 50.6298 19.6578C50.6298 13.4001 54.0917 9.31562 59.3011 9.31562ZM65.7008 15.7481C65.6936 15.4174 65.6204 15.0914 65.4853 14.7895C65.3503 14.4875 65.1562 14.2156 64.9144 13.9898C64.4083 13.5219 63.7471 13.2574 63.0579 13.2472H57.7612C57.3892 13.2324 57.0179 13.2918 56.6691 13.4219C56.3417 13.5401 56.0411 13.7219 55.7845 13.957C55.5356 14.1859 55.3383 14.4651 55.2057 14.7761C55.0665 15.0808 54.9992 15.4133 55.0091 15.7481V23.3928C55.0007 23.7299 55.064 24.0649 55.1948 24.3757C55.327 24.6933 55.5241 24.9797 55.7736 25.2166C56.0303 25.4569 56.3306 25.6459 56.6582 25.7736C57.0082 25.9003 57.3781 25.9631 57.7503 25.9592H63.047C63.7567 25.9258 64.4277 25.6254 64.9254 25.1183C65.1701 24.8886 65.3652 24.6111 65.4985 24.3031C65.6319 23.995 65.7007 23.6629 65.7008 23.3273V15.7481Z" fill="white"/>
<path d="M78.8933 0.316711C79.0135 0.32523 79.1281 0.371043 79.221 0.447763C79.2645 0.488449 79.2995 0.537418 79.3239 0.591803C79.3483 0.646187 79.3615 0.704891 79.3629 0.764473V28.9516C79.3692 29.006 79.3692 29.061 79.3629 29.1154C79.3392 29.1683 79.3014 29.2136 79.2537 29.2465C79.2134 29.2857 79.1649 29.3155 79.1118 29.3338C79.0539 29.3438 78.9948 29.3438 78.937 29.3338H75.4314C75.3736 29.3448 75.3144 29.3448 75.2566 29.3338C75.2002 29.3157 75.1481 29.2859 75.1037 29.2465C75.0587 29.2108 75.0215 29.1662 74.9945 29.1154C74.9831 29.0577 74.9831 28.9983 74.9945 28.9407V1.16855C74.9931 1.10791 75.0039 1.0476 75.0264 0.991281C75.049 0.934961 75.0827 0.883806 75.1256 0.84092C75.213 0.744538 75.3343 0.685813 75.4641 0.677105L78.8933 0.316711Z" fill="white"/>
<path d="M87.9796 0.360397C88.0999 0.372477 88.2121 0.426622 88.2963 0.513291C88.3353 0.553543 88.3651 0.601647 88.384 0.654384C88.4028 0.70712 88.4102 0.763271 88.4055 0.819079V6.06116C88.4216 6.11458 88.4216 6.17156 88.4055 6.22498C88.3896 6.27925 88.3594 6.32828 88.3182 6.36695C88.2783 6.4093 88.2299 6.44279 88.1762 6.46524C88.1185 6.47644 88.0592 6.47644 88.0015 6.46524H84.4412C84.3835 6.47644 84.3242 6.47644 84.2665 6.46524C84.2011 6.44725 84.1411 6.4135 84.0917 6.36695C84.081 6.32023 84.081 6.27169 84.0917 6.22498C84.0756 6.17156 84.0756 6.11458 84.0917 6.06116V0.840921C84.0839 0.780582 84.0892 0.719272 84.107 0.661118C84.1249 0.602964 84.155 0.549316 84.1954 0.503786C84.2358 0.458256 84.2854 0.4219 84.341 0.397166C84.3966 0.372432 84.4568 0.359894 84.5177 0.360397H87.9796ZM87.9796 9.95996C88.0949 9.97065 88.2029 10.0208 88.2854 10.1019C88.3611 10.1816 88.404 10.2869 88.4055 10.3968V28.9625C88.4048 29.0148 88.3927 29.0663 88.3701 29.1135C88.3474 29.1606 88.3148 29.2023 88.2745 29.2355C88.1937 29.3112 88.0898 29.3573 87.9796 29.3666H84.4412C84.331 29.3573 84.2271 29.3112 84.1463 29.2355C84.106 29.2023 84.0734 29.1606 84.0507 29.1135C84.0281 29.0663 84.016 29.0148 84.0153 28.9625V10.3968C84.0036 10.2924 84.0308 10.1874 84.0917 10.1019C84.1713 10.0166 84.281 9.96564 84.3975 9.95996H87.9796Z" fill="white"/>
<path d="M106.043 28.3946C106.081 28.5117 106.081 28.6379 106.043 28.755C105.998 28.8744 105.913 28.9746 105.803 29.039C104.515 29.6164 103.118 29.9071 101.707 29.8908C98.1143 29.8908 95.9083 27.1605 95.9083 23.7423V14.0226H91.9548C91.8935 14.0339 91.8306 14.0339 91.7692 14.0226C91.7122 14.0003 91.6602 13.9669 91.6163 13.9243C91.5714 13.8822 91.5376 13.8297 91.518 13.7714C91.5025 13.7179 91.5025 13.6611 91.518 13.6076V10.3313C91.5167 10.2728 91.5288 10.2149 91.5535 10.1619C91.5781 10.1089 91.6145 10.0622 91.66 10.0255C91.7029 9.98259 91.754 9.94885 91.8103 9.92632C91.8667 9.9038 91.927 9.89295 91.9876 9.89443H95.8646V3.6913C95.8646 3.45104 96.0393 3.28723 96.3342 3.24354L99.7524 2.92683C99.817 2.91065 99.8845 2.91065 99.949 2.92683C100.013 2.94239 100.073 2.97226 100.124 3.0142C100.173 3.05461 100.211 3.10737 100.233 3.16709C100.248 3.22809 100.248 3.29175 100.233 3.35275V9.90535H105.202C105.315 9.91378 105.42 9.96449 105.497 10.0473C105.538 10.0844 105.571 10.1299 105.594 10.1807C105.617 10.2315 105.628 10.2866 105.628 10.3422V13.6185C105.638 13.6726 105.638 13.7282 105.628 13.7823C105.614 13.8373 105.583 13.8868 105.541 13.9243C105.503 13.9692 105.454 14.0031 105.399 14.0226C105.344 14.0329 105.289 14.0329 105.235 14.0226H100.233V23.502C100.214 23.807 100.255 24.1129 100.355 24.4018C100.454 24.6908 100.61 24.9572 100.813 25.1856C101.016 25.414 101.263 25.6 101.538 25.7328C101.813 25.8656 102.112 25.9425 102.417 25.9592C103.196 25.9218 103.966 25.786 104.711 25.5552C104.865 25.5127 105.029 25.5323 105.169 25.6098C105.302 25.6863 105.4 25.8117 105.442 25.9592L106.043 28.3946Z" fill="white"/>
<path d="M117.739 9.31562C118.919 9.25371 120.09 9.54615 121.102 10.1553C122.114 10.7645 122.921 11.6625 123.418 12.7339H124.139L124.565 10.6043C124.573 10.5089 124.601 10.4162 124.646 10.3318C124.691 10.2473 124.753 10.1729 124.827 10.1129C124.98 9.9846 125.174 9.91492 125.373 9.91627H127.776C127.866 9.92647 127.954 9.94851 128.038 9.9818C128.116 10.0201 128.186 10.0719 128.245 10.1347C128.306 10.1978 128.354 10.2719 128.387 10.3531C128.399 10.4365 128.399 10.521 128.387 10.6043V23.7095C128.387 24.9545 128.475 25.7627 129.414 25.9592C129.596 26.009 129.752 26.1261 129.851 26.2869C129.898 26.3627 129.929 26.4473 129.942 26.5356C129.955 26.6239 129.95 26.7139 129.927 26.8001L129.632 28.7332C129.621 28.8385 129.587 28.9404 129.535 29.0324C129.482 29.1245 129.411 29.2047 129.327 29.2683C129.148 29.4106 128.92 29.4773 128.693 29.454H128.016C125.755 29.454 124.347 28.613 124.084 26.3961H123.407C122.922 27.4557 122.131 28.3458 121.136 28.9516C120.107 29.5668 118.927 29.8809 117.728 29.858C112.508 29.858 109.101 25.9155 109.101 19.6578C109.101 13.4001 112.486 9.31562 117.739 9.31562ZM124.139 15.7481C124.132 15.4174 124.059 15.0914 123.924 14.7895C123.789 14.4875 123.594 14.2156 123.353 13.9898C122.847 13.5219 122.185 13.2574 121.496 13.2472H116.21C115.839 13.2383 115.469 13.2975 115.118 13.4219C114.795 13.5418 114.498 13.7236 114.245 13.957C113.996 14.1885 113.796 14.4669 113.655 14.7761C113.522 15.0825 113.459 15.4144 113.469 15.7481V23.3928C113.461 23.7299 113.524 24.0649 113.655 24.3757C113.793 24.6913 113.993 24.9764 114.242 25.2145C114.492 25.4525 114.786 25.6388 115.107 25.7627C115.455 25.8983 115.826 25.965 116.199 25.9592H121.496C122.218 25.9363 122.903 25.6349 123.407 25.1183C123.651 24.8878 123.845 24.6102 123.979 24.3023C124.112 23.9944 124.181 23.6627 124.183 23.3273L124.139 15.7481Z" fill="white"/>
</g>
<defs>
<clipPath id="clip0_338_3714">
<rect width="130.004" height="30" fill="white"/>
</clipPath>
</defs>
</svg>
