<svg width="212" height="30" viewBox="0 0 212 30" fill="none" xmlns="http://www.w3.org/2000/svg">
<g clip-path="url(#clip0_338_3692)">
<path d="M43.5664 0H39.5137V0.395137C39.5037 0.452111 39.5037 0.510401 39.5137 0.567376V9.11854C39.2397 8.87672 38.9447 8.65972 38.6322 8.47011C37.8309 7.95932 36.9351 7.61477 35.998 7.45694C35.0601 7.29111 34.0981 7.31869 33.1712 7.53799C31.3982 7.95948 29.825 8.98004 28.7175 10.4273C27.6099 11.8745 27.0358 13.6597 27.0922 15.4813C27.0269 16.9847 27.4001 18.4748 28.1665 19.7699C28.9328 21.0651 30.0591 22.1095 31.4083 22.7761C32.5669 23.407 33.8807 23.6963 35.1971 23.6102C36.5135 23.5241 37.7785 23.0662 38.845 22.2898L38.9362 22.229L39.3111 21.9757L39.534 21.7933V21.8541L39.6353 22.1175C39.7062 22.2898 39.767 22.462 39.8278 22.6241L40.0507 23.1814H43.5664V0ZM35.076 20.0507C34.0232 19.9543 33.0405 19.4809 32.3089 18.7176C31.5774 17.9544 31.146 16.9526 31.0942 15.8967C31.0049 15.2459 31.0621 14.5835 31.2617 13.9577C31.4613 13.3319 31.7983 12.7587 32.2479 12.2799C32.6976 11.8011 33.2485 11.4289 33.8606 11.1904C34.4726 10.952 35.1302 10.8533 35.7852 10.9017C36.8592 11.0811 37.8308 11.6464 38.5173 12.4915C39.2039 13.3367 39.5582 14.4034 39.5137 15.4914C39.5429 16.0858 39.4497 16.68 39.2399 17.2369C39.0302 17.7939 38.7082 18.3019 38.294 18.7293C37.8799 19.1568 37.3824 19.4946 36.8323 19.7219C36.2822 19.9492 35.6913 20.0611 35.0963 20.0507H35.076Z" fill="white"/>
<path d="M115.502 0H111.449V0.395137C111.439 0.452111 111.439 0.510401 111.449 0.567376V9.11854C111.175 8.87672 110.88 8.65972 110.567 8.47011C109.766 7.95932 108.87 7.61477 107.933 7.45694C106.995 7.29139 106.033 7.31898 105.106 7.53799C103.332 7.95599 101.756 8.97565 100.648 10.4237C99.5397 11.8717 98.9671 13.6588 99.0274 15.4813C98.9621 16.9847 99.3353 18.4748 100.102 19.7699C100.868 21.0651 101.994 22.1095 103.343 22.7761C104.499 23.4114 105.811 23.7058 107.128 23.6251C108.444 23.5444 109.711 23.0919 110.78 22.3202L110.871 22.2594L111.246 22.0061L111.469 21.8237V21.8845L111.57 22.1479C111.641 22.3202 111.702 22.4924 111.763 22.6545L111.986 23.2118H115.431V9.91895L115.502 0ZM107.042 20.0507C105.986 19.9605 105 19.4891 104.267 18.7245C103.534 17.96 103.105 16.9547 103.06 15.8967C102.97 15.2459 103.028 14.5835 103.227 13.9577C103.427 13.3319 103.764 12.7587 104.213 12.2799C104.663 11.8011 105.214 11.4289 105.826 11.1904C106.438 10.952 107.096 10.8533 107.751 10.9017C108.819 11.0877 109.784 11.6558 110.464 12.5003C111.144 13.3448 111.494 14.4079 111.449 15.4914C111.477 16.0863 111.382 16.6807 111.171 17.2377C110.96 17.7947 110.637 18.3025 110.222 18.7298C109.807 19.1571 109.309 19.4948 108.759 19.7219C108.208 19.9491 107.617 20.061 107.021 20.0507H107.042Z" fill="white"/>
<path d="M4.05268 9.32117L3.44478 7.76089H0V23.1915H3.98176V16.0385C3.9508 14.9798 4.29778 13.9447 4.96055 13.1185C5.62332 12.2924 6.55857 11.7292 7.59878 11.5299C8.0775 11.4894 8.55877 11.4894 9.03749 11.5299V7.38602C7.19379 7.39265 5.41792 8.08206 4.05268 9.32117Z" fill="white"/>
<path d="M20.8511 18.693C20.4766 19.1201 20.0178 19.4651 19.5035 19.7062C18.9889 19.9478 18.4304 20.0822 17.8622 20.1013C17.0136 20.0624 16.1971 19.7655 15.5218 19.2503C14.8419 18.7377 14.3333 18.0312 14.0628 17.2239H25.3293C25.3293 17.0719 25.3799 16.9301 25.4103 16.7882C25.7676 14.8045 25.3729 12.7587 24.3033 11.0503C23.2336 9.3418 21.5657 8.0932 19.6251 7.54812C18.4782 7.2565 17.2766 7.2565 16.1297 7.54812C14.1891 8.0932 12.5212 9.3418 11.4515 11.0503C10.3819 12.7587 9.98717 14.8045 10.3445 16.7882C10.5746 18.4309 11.3113 19.9609 12.4519 21.1651C13.5795 22.3657 15.0586 23.1779 16.6768 23.4853C17.4768 23.6374 18.2983 23.6374 19.0983 23.4853C20.3925 23.2396 21.6025 22.6677 22.614 21.8237C23.6319 20.9761 24.4194 19.8854 24.9037 18.6525L20.8511 18.693ZM17.8115 10.9119H18.004C18.8256 10.9417 19.6177 11.2257 20.271 11.7247C20.9243 12.2238 21.4066 12.9133 21.6515 13.6981H14.1236C14.3684 12.9133 14.8508 12.2238 15.5041 11.7247C16.1574 11.2257 16.9494 10.9417 17.771 10.9119H17.8115Z" fill="white"/>
<path d="M74.7011 7.58865C73.551 7.29531 72.3457 7.29531 71.1955 7.58865C69.4825 8.07841 67.9786 9.11892 66.9164 10.5493C65.8542 11.9796 65.2928 13.7201 65.3192 15.5015C65.2928 17.283 65.8542 19.0234 66.9164 20.4538C67.9786 21.8841 69.4825 22.9246 71.1955 23.4144C72.3457 23.7077 73.551 23.7077 74.7011 23.4144C76.4195 22.9374 77.9301 21.9016 78.9942 20.4705C80.0584 19.0394 80.6155 17.2946 80.5775 15.5117C80.6061 13.7285 80.0458 11.9857 78.9834 10.5533C77.921 9.12089 76.4158 8.07885 74.7011 7.58865ZM75.9777 18.7335C75.693 19.0749 75.3499 19.3631 74.9645 19.5846C74.4006 19.9272 73.7595 20.1223 73.1003 20.152H72.8977C72.2385 20.1223 71.5974 19.9272 71.0334 19.5846C70.648 19.3631 70.305 19.0749 70.0203 18.7335C69.2607 17.8498 68.8531 16.7173 68.8754 15.5522C68.8094 14.3842 69.1775 13.2331 69.9088 12.3202C70.6676 11.4904 71.7154 10.9828 72.8369 10.9017H73.0395C74.1682 10.9777 75.2241 11.4857 75.9878 12.3202C76.7504 13.2055 77.155 14.3436 77.1226 15.5117C77.1477 16.6754 76.7438 17.8078 75.9878 18.693L75.9777 18.7335Z" fill="white"/>
<path d="M91.54 7.58865C90.3899 7.29531 89.1846 7.29531 88.0344 7.58865C86.3161 8.06917 84.8063 9.10731 83.7425 10.5398C82.6787 11.9722 82.1213 13.7176 82.158 15.5015C82.1213 17.2854 82.6787 19.0308 83.7425 20.4633C84.8063 21.8957 86.3161 22.9339 88.0344 23.4144C89.1846 23.7077 90.3899 23.7077 91.54 23.4144C93.2556 22.934 94.7629 21.897 95.8248 20.4664C96.8868 19.0358 97.4431 17.2929 97.4063 15.5117C97.4355 13.7298 96.8766 11.988 95.8162 10.5558C94.7557 9.12354 93.2528 8.08071 91.54 7.58865ZM92.8166 18.7335C92.5319 19.0749 92.1888 19.3631 91.8034 19.5846C91.2395 19.9272 90.5984 20.1223 89.9392 20.152H89.7366C89.0722 20.1236 88.425 19.9323 87.8521 19.5947C87.4722 19.3653 87.1304 19.0782 86.8389 18.7437C86.0778 17.8568 85.6702 16.7206 85.694 15.5522C85.6717 14.3871 86.0793 13.2546 86.8389 12.3708C87.1254 12.034 87.4682 11.7494 87.8521 11.5299C88.4197 11.1873 89.0641 10.9922 89.7264 10.9625H89.9291C91.0478 11.0459 92.0936 11.5489 92.8571 12.3708C93.6182 13.2577 94.0258 14.3939 94.002 15.5623C94.0243 16.7274 93.6167 17.8599 92.8571 18.7437L92.8166 18.7335Z" fill="white"/>
<path d="M61.54 7.7305L58.7639 17.386L55.4205 10.0101L52.0669 17.386L49.311 7.7305H45.4103L49.8379 23.1611H53.6981L55.4306 19.2503L57.1327 23.1408H61.0233L65.4407 7.7305H61.54ZM55.4205 16.2107L53.1611 21.1753L52.6849 19.4326L55.4205 13.0699L58.1864 19.4326L57.69 21.1854L55.4205 16.2107Z" fill="white"/>
<path d="M129.159 16.616C128.859 16.1057 128.46 15.6611 127.984 15.309C127.51 14.9483 126.993 14.6488 126.444 14.4174C125.901 14.1865 125.346 13.9836 124.782 13.8095L123.546 13.4043C123.2 13.2796 122.862 13.1341 122.533 12.9686C122.298 12.846 122.083 12.6889 121.895 12.5025C121.836 12.4399 121.788 12.368 121.753 12.2898C121.737 12.2095 121.737 12.1269 121.753 12.0466V11.9959C121.751 11.8382 121.785 11.682 121.854 11.54C121.924 11.4011 122.029 11.2825 122.158 11.1955C122.546 10.9346 123.009 10.8098 123.475 10.8409C124.127 10.8502 124.771 10.9737 125.38 11.2057C126.11 11.467 126.81 11.8067 127.467 12.2188L127.781 12.4012L129.453 9.3617L129.139 9.11854C128.309 8.55151 127.401 8.10785 126.444 7.80142C125.496 7.48667 124.504 7.3259 123.506 7.32523C122.773 7.31638 122.045 7.42587 121.348 7.64944C120.686 7.86709 120.074 8.2112 119.544 8.66261C119.033 9.09213 118.621 9.62807 118.338 10.233C118.045 10.8678 117.896 11.56 117.903 12.2594C117.879 12.9639 118.04 13.6623 118.369 14.2857C118.661 14.8332 119.065 15.313 119.554 15.694C120.032 16.057 120.561 16.3473 121.125 16.5552C121.682 16.768 122.249 16.9504 122.786 17.1023C123.323 17.2543 123.627 17.3556 124.022 17.4975C124.37 17.6075 124.708 17.7429 125.035 17.9027C125.27 18.0124 125.48 18.1673 125.653 18.3587C125.774 18.4996 125.839 18.6798 125.836 18.8652V18.926C125.843 19.1024 125.803 19.2774 125.721 19.4338C125.64 19.5901 125.518 19.7225 125.37 19.8176C124.919 20.0909 124.397 20.2216 123.87 20.1925C123.093 20.1722 122.325 20.0179 121.601 19.7366C120.75 19.4111 119.952 18.9641 119.23 18.4093L118.936 18.1864L117.052 21.1044L117.295 21.307C118.234 22.0669 119.296 22.6598 120.436 23.0598C121.512 23.4446 122.646 23.6467 123.789 23.6575C124.552 23.6466 125.309 23.5272 126.038 23.3029C126.715 23.1132 127.349 22.7931 127.903 22.3607C128.448 21.9415 128.883 21.3954 129.169 20.77C129.487 20.0743 129.643 19.3157 129.625 18.5512V18.4904C129.639 17.8353 129.478 17.1885 129.159 16.616Z" fill="white"/>
<path d="M168.186 7.68997V10C167.504 9.15289 166.637 8.47259 165.652 8.01085C164.667 7.5491 163.59 7.31808 162.503 7.33536C160.523 7.32502 158.618 8.08853 157.194 9.46302C156.412 10.2351 155.799 11.1599 155.391 12.1796C154.983 13.1994 154.79 14.2923 154.823 15.3901V15.4509C154.792 16.5421 154.984 17.6281 155.388 18.6422C155.793 19.6562 156.4 20.5769 157.173 21.3475C158.6 22.7307 160.515 23.4952 162.503 23.4752C163.616 23.498 164.719 23.2488 165.715 22.7492C166.711 22.2496 167.569 21.5145 168.217 20.6079V21.5603C168.217 24.8632 166.444 26.6261 163.09 26.6261C161.01 26.6206 158.977 26.004 157.244 24.8531L157.133 24.7822L155.603 27.923L155.704 27.9838C157.964 29.3388 160.556 30.0403 163.192 30.0101C166.231 30.0101 168.592 29.23 170.091 27.7001C171.591 26.1702 172.239 24.0729 172.239 21.2766V7.68997H168.186ZM168.257 15.3597V15.4306C168.255 16.0429 168.129 16.6484 167.887 17.2105C167.644 17.7726 167.29 18.2798 166.846 18.7012C166.402 19.1226 165.877 19.4496 165.302 19.6624C164.728 19.8752 164.117 19.9693 163.506 19.9392C162.905 19.9584 162.306 19.8556 161.746 19.6369C161.185 19.4181 160.675 19.0881 160.246 18.6666C159.817 18.2452 159.478 17.7411 159.25 17.1849C159.021 16.6287 158.907 16.0319 158.916 15.4306V15.3698C158.9 14.7661 159.009 14.1655 159.235 13.6054C159.461 13.0453 159.799 12.5377 160.23 12.1139C160.66 11.6902 161.173 11.3594 161.736 11.1422C162.3 10.925 162.902 10.8259 163.506 10.8511C164.119 10.8181 164.733 10.9102 165.31 11.1216C165.887 11.333 166.415 11.6593 166.863 12.0809C167.31 12.5025 167.667 13.0105 167.912 13.5741C168.157 14.1377 168.285 14.7451 168.288 15.3597H168.257Z" fill="white"/>
<path d="M147.67 0H143.617V9.11854C143.343 8.87672 143.048 8.65972 142.736 8.47011C141.937 7.95417 141.043 7.60399 140.107 7.44039C139.17 7.27678 138.211 7.30308 137.285 7.51773C135.51 7.93573 133.934 8.95538 132.826 10.4034C131.718 11.8515 131.145 13.6386 131.206 15.461C131.137 16.9702 131.511 18.4667 132.281 19.7663C133.052 21.066 134.185 22.1121 135.542 22.7761C136.698 23.4114 138.01 23.7058 139.326 23.6251C140.643 23.5444 141.909 23.0919 142.979 22.3202L143.07 22.2594L143.435 22.0061L143.658 21.8237V21.8845L143.759 22.1479C143.82 22.3202 143.88 22.4924 143.951 22.6545L144.164 23.2118H147.619V0H147.67ZM139.21 20.0507C138.155 19.9605 137.168 19.4891 136.435 18.7245C135.703 17.96 135.273 16.9547 135.228 15.8967C135.14 15.2454 135.199 14.5827 135.4 13.957C135.601 13.3313 135.939 12.7583 136.389 12.2798C136.84 11.8012 137.391 11.4292 138.003 11.1908C138.616 10.9524 139.274 10.8536 139.929 10.9017C140.999 11.0855 141.966 11.6527 142.649 12.4974C143.331 13.3421 143.682 14.4064 143.637 15.4914C143.667 16.0858 143.573 16.68 143.364 17.2369C143.154 17.7939 142.832 18.3019 142.418 18.7293C142.003 19.1568 141.506 19.4946 140.956 19.7219C140.406 19.9492 139.815 20.0611 139.22 20.0507H139.21Z" fill="white"/>
<path d="M153.262 7.76089H149.21V23.1915H153.262V7.76089Z" fill="white"/>
<path d="M211.185 0H207.183V23.1915H211.185V0Z" fill="white"/>
<path d="M177.862 7.76089H173.81V23.1915H177.862V7.76089Z" fill="white"/>
<path d="M185.613 14.9544V11.3273H190.081V7.75076H185.613V3.12057H181.56V7.75076H179.453V11.3273H181.56V18.541C181.56 21.9048 183.212 23.6069 186.464 23.6069C187.682 23.6428 188.886 23.3375 189.939 22.7254H190.01V19.2503L189.828 19.3414C189.12 19.7165 188.329 19.9081 187.528 19.8987C186.211 19.8987 185.603 19.2705 185.603 17.923V14.9544H185.613Z" fill="white"/>
<path d="M201.54 23.1915H205.593V14.073C205.661 13.1748 205.545 12.2722 205.252 11.4204C204.959 10.5685 204.496 9.78532 203.891 9.11854C203.195 8.4857 202.379 8.00048 201.491 7.69224C200.603 7.384 199.661 7.25915 198.723 7.32523C196.743 7.29757 194.783 7.73116 192.999 8.59169L192.695 8.73354L193.83 12.1581L194.195 12.0061C195.463 11.4123 196.846 11.1012 198.247 11.0942C200.375 11.0942 201.479 12.0162 201.53 13.8399C200.361 13.5021 199.15 13.3349 197.933 13.3435C193.88 13.3435 191.469 15.2888 191.469 18.5512V18.612C191.469 21.5603 193.769 23.6272 197.072 23.6272C198.7 23.6747 200.286 23.1026 201.51 22.0263L201.54 23.1915ZM198.055 20.3647C196.9 20.3647 195.552 19.8582 195.552 18.4701V18.4093C195.552 17.0618 196.677 16.2817 198.642 16.2817C199.658 16.2807 200.668 16.4449 201.631 16.768V17.5279C201.631 19.1692 200.122 20.3647 198.055 20.3647Z" fill="white"/>
<path d="M177.862 3.12057H173.81V6.32219H177.862V3.12057Z" fill="white"/>
<path d="M153.262 3.12057H149.21V6.32219H153.262V3.12057Z" fill="white"/>
</g>
<defs>
<clipPath id="clip0_338_3692">
<rect width="211.185" height="30" fill="white"/>
</clipPath>
</defs>
</svg>
