<svg width="1247" height="43" viewBox="0 0 1247 43" fill="none" xmlns="http://www.w3.org/2000/svg">
<path d="M17.2202 34L12.3962 25.324H8.3642V34H1.5242V8.296H14.7002C20.8202 8.296 24.4202 11.464 24.4202 16.828C24.4202 20.608 22.6562 23.308 19.4162 24.532L25.1762 34H17.2202ZM8.3642 20.104H13.5482C16.1402 20.104 17.4722 18.844 17.4722 16.828C17.4722 14.812 16.1402 13.552 13.5482 13.552H8.3642V20.104ZM33.115 18.376H45.175V23.38H33.115V28.636H45.859V34H26.239V8.296H45.859V13.552H33.115V18.376ZM47.1787 8.8H50.9947L52.7587 28.168H52.8307L54.7027 8.8H59.0227L60.8947 28.168H60.9667L62.7307 8.8H66.1507L63.5947 34H58.6627L56.8627 17.008H56.7907L54.9907 34H49.7347L47.1787 8.8ZM68.1537 8.8H72.1137V34H68.1537V8.8ZM75.0795 8.8H80.0475L83.8995 23.884H83.9715V8.8H87.4995V34H83.4315L78.6795 15.604H78.6075V34H75.0795V8.8ZM90.4428 8.8H96.4908C98.4588 8.8 99.9348 9.328 100.919 10.384C101.903 11.44 102.395 12.988 102.395 15.028V27.772C102.395 29.812 101.903 31.36 100.919 32.416C99.9348 33.472 98.4588 34 96.4908 34H90.4428V8.8ZM96.4188 30.4C97.0668 30.4 97.5588 30.208 97.8948 29.824C98.2548 29.44 98.4348 28.816 98.4348 27.952V14.848C98.4348 13.984 98.2548 13.36 97.8948 12.976C97.5588 12.592 97.0668 12.4 96.4188 12.4H94.4028V30.4H96.4188Z" fill="#6123B5"/>
<path d="M164.22 34L159.396 25.324H155.364V34H148.524V8.296H161.7C167.82 8.296 171.42 11.464 171.42 16.828C171.42 20.608 169.656 23.308 166.416 24.532L172.176 34H164.22ZM155.364 20.104H160.548C163.14 20.104 164.472 18.844 164.472 16.828C164.472 14.812 163.14 13.552 160.548 13.552H155.364V20.104ZM180.115 18.376H192.175V23.38H180.115V28.636H192.859V34H173.239V8.296H192.859V13.552H180.115V18.376ZM194.179 8.8H197.995L199.759 28.168H199.831L201.703 8.8H206.023L207.895 28.168H207.967L209.731 8.8H213.151L210.595 34H205.663L203.863 17.008H203.791L201.991 34H196.735L194.179 8.8ZM215.154 8.8H219.114V34H215.154V8.8ZM222.08 8.8H227.048L230.9 23.884H230.972V8.8H234.5V34H230.432L225.68 15.604H225.608V34H222.08V8.8ZM237.443 8.8H243.491C245.459 8.8 246.935 9.328 247.919 10.384C248.903 11.44 249.395 12.988 249.395 15.028V27.772C249.395 29.812 248.903 31.36 247.919 32.416C246.935 33.472 245.459 34 243.491 34H237.443V8.8ZM243.419 30.4C244.067 30.4 244.559 30.208 244.895 29.824C245.255 29.44 245.435 28.816 245.435 27.952V14.848C245.435 13.984 245.255 13.36 244.895 12.976C244.559 12.592 244.067 12.4 243.419 12.4H241.403V30.4H243.419Z" fill="#6123B5"/>
<path d="M330.853 34L326.029 25.324H321.997V34H315.157V8.296H328.333C334.453 8.296 338.053 11.464 338.053 16.828C338.053 20.608 336.289 23.308 333.049 24.532L338.809 34H330.853ZM321.997 20.104H327.181C329.773 20.104 331.105 18.844 331.105 16.828C331.105 14.812 329.773 13.552 327.181 13.552H321.997V20.104ZM346.748 18.376H358.808V23.38H346.748V28.636H359.492V34H339.872V8.296H359.492V13.552H346.748V18.376ZM370.891 16.9L368.407 34H364.555L361.099 8.8H363.835L366.787 30.256L369.595 8.836H372.367L375.139 30.292L377.983 8.8H380.431L377.011 34H373.303L370.891 16.9ZM382.7 8.8H385.508V34H382.7V8.8ZM390.879 13.624V34H388.359V8.8H391.923L397.755 27.016V8.8H400.239V34H397.323L390.879 13.624ZM403.126 8.8H409.03C412.954 8.8 414.754 11.176 414.754 15.064V27.772C414.754 31.624 412.954 34 409.03 34H403.126V8.8ZM405.934 31.444H408.994C411.01 31.444 411.982 30.184 411.982 27.88V14.92C411.982 12.616 411.01 11.356 408.958 11.356H405.934V31.444Z" fill="#6123B5"/>
<path d="M496.853 34L492.029 25.324H487.997V34H481.157V8.296H494.333C500.453 8.296 504.053 11.464 504.053 16.828C504.053 20.608 502.289 23.308 499.049 24.532L504.809 34H496.853ZM487.997 20.104H493.181C495.773 20.104 497.105 18.844 497.105 16.828C497.105 14.812 495.773 13.552 493.181 13.552H487.997V20.104ZM512.748 18.376H524.808V23.38H512.748V28.636H525.492V34H505.872V8.296H525.492V13.552H512.748V18.376ZM536.891 16.9L534.407 34H530.555L527.099 8.8H529.835L532.787 30.256L535.595 8.836H538.367L541.139 30.292L543.983 8.8H546.431L543.011 34H539.303L536.891 16.9ZM548.7 8.8H551.508V34H548.7V8.8ZM556.879 13.624V34H554.359V8.8H557.923L563.755 27.016V8.8H566.239V34H563.323L556.879 13.624ZM569.126 8.8H575.03C578.954 8.8 580.754 11.176 580.754 15.064V27.772C580.754 31.624 578.954 34 575.03 34H569.126V8.8ZM571.934 31.444H574.994C577.01 31.444 577.982 30.184 577.982 27.88V14.92C577.982 12.616 577.01 11.356 574.958 11.356H571.934V31.444Z" fill="#6123B5"/>
<path d="M662.853 34L658.029 25.324H653.997V34H647.157V8.296H660.333C666.453 8.296 670.053 11.464 670.053 16.828C670.053 20.608 668.289 23.308 665.049 24.532L670.809 34H662.853ZM653.997 20.104H659.181C661.773 20.104 663.105 18.844 663.105 16.828C663.105 14.812 661.773 13.552 659.181 13.552H653.997V20.104ZM678.748 18.376H690.808V23.38H678.748V28.636H691.492V34H671.872V8.296H691.492V13.552H678.748V18.376ZM702.891 16.9L700.407 34H696.555L693.099 8.8H695.835L698.787 30.256L701.595 8.836H704.367L707.139 30.292L709.983 8.8H712.431L709.011 34H705.303L702.891 16.9ZM714.7 8.8H717.508V34H714.7V8.8ZM722.879 13.624V34H720.359V8.8H723.923L729.755 27.016V8.8H732.239V34H729.323L722.879 13.624ZM735.126 8.8H741.03C744.954 8.8 746.754 11.176 746.754 15.064V27.772C746.754 31.624 744.954 34 741.03 34H735.126V8.8ZM737.934 31.444H740.994C743.01 31.444 743.982 30.184 743.982 27.88V14.92C743.982 12.616 743.01 11.356 740.958 11.356H737.934V31.444Z" fill="#6123B5"/>
<path d="M823.396 25.324H819.4V34H812.56V8.296H825.736C828.808 8.296 831.196 9.04 832.9 10.528C834.604 12.016 835.456 14.104 835.456 16.792C835.456 18.688 835.024 20.296 834.16 21.616C833.296 22.936 832.06 23.908 830.452 24.532L836.176 34H828.256L823.396 25.324ZM824.548 20.104C825.844 20.104 826.816 19.816 827.464 19.24C828.136 18.664 828.472 17.848 828.472 16.792C828.472 15.76 828.136 14.956 827.464 14.38C826.816 13.804 825.844 13.516 824.548 13.516H819.4V20.104H824.548ZM856.211 18.34V23.38H844.115V28.6H856.895V34H837.275V8.296H856.895V13.516H844.115V18.34H856.211ZM858.179 8.8H861.995L863.759 28.168H863.831L865.703 8.8H870.023L871.895 28.168H871.967L873.731 8.8H877.151L874.595 34H869.663L867.863 17.008H867.791L865.991 34H860.735L858.179 8.8ZM879.154 8.8H883.114V34H879.154V8.8ZM886.08 8.8H891.048L894.9 23.884H894.972V8.8H898.5V34H894.432L889.68 15.604H889.608V34H886.08V8.8ZM901.443 8.8H907.491C909.459 8.8 910.935 9.328 911.919 10.384C912.903 11.44 913.395 12.988 913.395 15.028V27.772C913.395 29.812 912.903 31.36 911.919 32.416C910.935 33.472 909.459 34 907.491 34H901.443V8.8ZM907.419 30.4C908.067 30.4 908.559 30.208 908.895 29.824C909.255 29.44 909.435 28.816 909.435 27.952V14.848C909.435 13.984 909.255 13.36 908.895 12.976C908.559 12.592 908.067 12.4 907.419 12.4H905.403V30.4H907.419Z" fill="#6123B5"/>
<path d="M994.853 34L990.029 25.324H985.997V34H979.157V8.296H992.333C998.453 8.296 1002.05 11.464 1002.05 16.828C1002.05 20.608 1000.29 23.308 997.049 24.532L1002.81 34H994.853ZM985.997 20.104H991.181C993.773 20.104 995.105 18.844 995.105 16.828C995.105 14.812 993.773 13.552 991.181 13.552H985.997V20.104ZM1010.75 18.376H1022.81V23.38H1010.75V28.636H1023.49V34H1003.87V8.296H1023.49V13.552H1010.75V18.376ZM1034.89 16.9L1032.41 34H1028.56L1025.1 8.8H1027.84L1030.79 30.256L1033.6 8.836H1036.37L1039.14 30.292L1041.98 8.8H1044.43L1041.01 34H1037.3L1034.89 16.9ZM1046.7 8.8H1049.51V34H1046.7V8.8ZM1054.88 13.624V34H1052.36V8.8H1055.92L1061.76 27.016V8.8H1064.24V34H1061.32L1054.88 13.624ZM1067.13 8.8H1073.03C1076.95 8.8 1078.75 11.176 1078.75 15.064V27.772C1078.75 31.624 1076.95 34 1073.03 34H1067.13V8.8ZM1069.93 31.444H1072.99C1075.01 31.444 1075.98 30.184 1075.98 27.88V14.92C1075.98 12.616 1075.01 11.356 1072.96 11.356H1069.93V31.444Z" fill="#6123B5"/>
<path d="M1160.22 34L1155.4 25.324H1151.36V34H1144.52V8.296H1157.7C1163.82 8.296 1167.42 11.464 1167.42 16.828C1167.42 20.608 1165.66 23.308 1162.42 24.532L1168.18 34H1160.22ZM1151.36 20.104H1156.55C1159.14 20.104 1160.47 18.844 1160.47 16.828C1160.47 14.812 1159.14 13.552 1156.55 13.552H1151.36V20.104ZM1176.12 18.376H1188.18V23.38H1176.12V28.636H1188.86V34H1169.24V8.296H1188.86V13.552H1176.12V18.376ZM1190.18 8.8H1193.99L1195.76 28.168H1195.83L1197.7 8.8H1202.02L1203.89 28.168H1203.97L1205.73 8.8H1209.15L1206.59 34H1201.66L1199.86 17.008H1199.79L1197.99 34H1192.73L1190.18 8.8ZM1211.15 8.8H1215.11V34H1211.15V8.8ZM1218.08 8.8H1223.05L1226.9 23.884H1226.97V8.8H1230.5V34H1226.43L1221.68 15.604H1221.61V34H1218.08V8.8ZM1233.44 8.8H1239.49C1241.46 8.8 1242.93 9.328 1243.92 10.384C1244.9 11.44 1245.39 12.988 1245.39 15.028V27.772C1245.39 29.812 1244.9 31.36 1243.92 32.416C1242.93 33.472 1241.46 34 1239.49 34H1233.44V8.8ZM1239.42 30.4C1240.07 30.4 1240.56 30.208 1240.89 29.824C1241.25 29.44 1241.43 28.816 1241.43 27.952V14.848C1241.43 13.984 1241.25 13.36 1240.89 12.976C1240.56 12.592 1240.07 12.4 1239.42 12.4H1237.4V30.4H1239.42Z" fill="#6123B5"/>
</svg>
