<svg width="150" height="150" viewBox="0 0 150 150" fill="none" xmlns="http://www.w3.org/2000/svg">
<path d="M84.4551 11.0196C83.9406 10.587 83.548 10.0272 83.3165 9.39576C83.0775 8.75855 83.0183 8.06783 83.1453 7.39919C83.2626 6.73019 83.5543 6.10407 83.991 5.58419C84.4277 5.06432 84.9939 4.66912 85.6322 4.4386C86.1082 4.26457 86.6139 4.18627 87.1203 4.20819C87.6266 4.23011 88.1236 4.35182 88.5829 4.56635C89.0422 4.78088 89.4546 5.084 89.7967 5.45836C90.1387 5.83272 90.4035 6.27095 90.5761 6.74794C90.8095 7.38937 90.8685 8.08132 90.7473 8.75308C90.632 9.42392 90.336 10.0505 89.8912 10.5654C89.5644 10.9531 89.1645 11.2724 88.7142 11.5051C88.264 11.7378 87.7723 11.8793 87.2673 11.9215C86.7623 11.9637 86.254 11.9057 85.7714 11.7509C85.2888 11.5962 84.8415 11.3477 84.4551 11.0196Z" fill="white"/>
<path d="M105.45 10.4073L101.362 19.7818L97.5098 18.0937L101.602 8.71922L97.8137 7.06541L99.1834 3.89917L110.616 8.89917L109.238 12.0611L105.45 10.4073Z" fill="white"/>
<path d="M115.881 29.0961L112.456 26.6368L115.508 22.3909L111.87 19.7774L108.827 24.0361L105.402 21.5768L113.377 10.4714L116.801 12.9307L113.852 17.0353L117.486 19.6531L120.435 15.5443L123.86 18.0036L115.881 29.0961Z" fill="white"/>
<path d="M129.86 31.8379L127.629 33.8902L123.469 29.3315L121.842 30.8182L126.264 35.6511L123.863 37.849L116.586 29.897L126.662 20.6597L133.939 28.616L131.61 30.7582L127.193 25.9167L125.699 27.2878L129.86 31.8379Z" fill="white"/>
<path d="M133.572 55.7411L131.882 52.2193L140.143 48.2475L140.113 48.1747L130.773 49.8885L129.527 47.3178L136.714 41.101L136.68 41.0325L128.436 44.9828L126.779 41.5295L139.081 35.604L141.765 41.1995L135.82 45.8868L135.854 45.9553L143.225 44.2415L145.891 49.8114L133.572 55.7411Z" fill="white"/>
<path d="M145.129 61.3114V61.2343L140.103 60.7758L140.673 63.6678L145.129 61.3114ZM137.099 60.4545L134.436 60.2145L133.58 55.8872L147.898 57.8838L148.981 63.505L136.486 70.7373L135.63 66.3371L138.002 65.0946L137.099 60.4545Z" fill="white"/>
<path d="M143.891 78.8262C144.189 79.1353 144.596 79.3152 145.025 79.3272C145.454 79.3393 145.871 79.1824 146.185 78.8905C146.502 78.5192 146.666 78.0413 146.643 77.5537L146.703 75.5057L143.566 75.4157L143.506 77.468C143.461 77.953 143.598 78.4374 143.891 78.8262ZM148.437 82.3052C147.581 83.2164 146.404 83.652 144.906 83.612C143.407 83.572 142.257 83.0707 141.456 82.1081C140.659 81.1484 140.284 79.8316 140.33 78.1578L140.407 75.3258L136.199 75.2058L136.319 70.9941L149.978 71.3755L149.781 78.4492C149.735 80.1058 149.287 81.3912 148.437 82.3052Z" fill="white"/>
<path d="M149.11 86.8767L148.164 91.0027L138.204 88.7319L136.71 95.2657L133.35 94.4988L135.789 83.8347L149.11 86.8767Z" fill="white"/>
<path d="M136.713 107.913L133.948 106.696L136.427 101.049L134.428 100.167L131.795 106.165L128.799 104.854L133.135 94.9998L145.642 100.505L141.31 110.36L138.417 109.074L141.049 103.076L139.196 102.262L136.713 107.913Z" fill="white"/>
<path d="M116.381 120.943L118.919 117.973L125.866 123.937L125.913 123.882L120.584 116.024L122.45 113.839L131.033 117.913L131.084 117.853L124.116 111.889L126.607 108.98L136.995 117.866L132.967 122.579L126.294 119.032L126.247 119.087L130.767 125.15L126.761 129.837L116.381 120.943Z" fill="white"/>
<path d="M112.101 134.409L110.308 131.975L115.269 128.317L113.963 126.543L108.694 130.429L106.764 127.807L115.44 121.41L123.543 132.434L114.871 138.818L112.996 136.29L118.265 132.404L117.062 130.772L112.101 134.409Z" fill="white"/>
<path d="M101.041 134.413C100.626 134.816 100.376 135.358 100.339 135.934C100.323 136.725 100.509 137.506 100.878 138.205C101.168 138.939 101.636 139.59 102.239 140.099C102.701 140.445 103.274 140.61 103.849 140.561C104.557 140.474 105.246 140.269 105.886 139.953L106.704 139.58L103.647 132.892L102.83 133.265C102.172 133.542 101.567 133.931 101.041 134.413ZM100.934 143.873C99.2784 143.419 97.9601 142.124 96.9784 139.987C95.9968 137.851 95.8798 136.006 96.6274 134.452C97.3694 132.898 98.7848 131.643 100.874 130.686L106.177 128.265L111.861 140.69L106.549 143.145C104.461 144.088 102.586 144.33 100.925 143.873H100.934Z" fill="white"/>
<path d="M97.0294 146.821L92.9715 147.948L89.3203 134.768L93.3739 133.642L97.0294 146.821Z" fill="white"/>
<path d="M82.6339 146.307H82.7109L83.6056 141.341L80.6735 141.65L82.6339 146.307ZM84.1577 138.385L84.6286 135.75L89.0075 135.287L85.8057 149.379L80.0656 150L73.9746 136.894L78.4305 136.422L79.4621 138.89L84.1577 138.385Z" fill="white"/>
<path d="M67.3669 139.507C67.8948 139.923 68.305 140.469 68.5569 141.092C68.7464 141.564 68.8408 142.069 68.8346 142.577C68.8284 143.086 68.7218 143.588 68.5209 144.055C68.32 144.523 68.0287 144.945 67.6639 145.299C67.2991 145.653 66.8679 145.932 66.3952 146.118C65.7648 146.367 65.0799 146.447 64.4091 146.348C63.7384 146.25 63.1052 145.977 62.5728 145.557C62.0416 145.135 61.6308 144.581 61.3821 143.95C61.1333 143.319 61.0553 142.633 61.156 141.962C61.2475 141.287 61.5213 140.65 61.9479 140.12C62.3682 139.594 62.9187 139.188 63.5445 138.942C64.177 138.688 64.8659 138.61 65.5392 138.714C66.2088 138.808 66.8405 139.082 67.3669 139.507Z" fill="white"/>
<path d="M46.4045 140.758L50.2098 131.264L54.1136 132.832L50.3126 142.326L54.1649 143.869L52.8808 147.065L41.2852 142.421L42.5693 139.22L46.4045 140.758Z" fill="white"/>
<path d="M35.4136 122.395L38.9064 124.747L35.9786 129.083L39.6983 131.577L42.6176 127.241L46.1104 129.597L38.4741 140.951L34.9813 138.595L37.8064 134.4L34.091 131.894L31.2702 136.088L27.7773 133.719L35.4136 122.395Z" fill="white"/>
<path d="M21.3562 120.069L23.5221 117.961L27.8025 122.382L29.3948 120.866L24.849 116.153L27.1775 113.882L34.694 121.611L24.879 131.148L17.3711 123.411L19.6354 121.208L24.1941 125.921L25.6494 124.503L21.3562 120.069Z" fill="white"/>
<path d="M16.9217 96.3198L18.7195 99.786L10.5867 104.01L10.621 104.079L19.9052 102.065L21.2236 104.636L14.2336 111.063L14.2679 111.131L22.4007 106.907L24.1599 110.309L12.0335 116.581L9.17845 111.071L14.9784 106.208L14.9442 106.14L7.62894 108.081L4.79102 102.614L16.9217 96.3198Z" fill="white"/>
<path d="M5.21134 91.0838V91.1609L10.2494 91.4694L9.5945 88.5902L5.21134 91.0838ZM13.2543 91.6708L15.921 91.8336L16.8969 96.1181L2.53608 94.6014L1.25195 88.9973L13.541 81.4094L14.5341 85.7796L12.2056 87.0949L13.2543 91.6708Z" fill="white"/>
<path d="M5.88685 73.6374C5.73938 73.4816 5.55925 73.3604 5.35942 73.2827C5.15959 73.2049 4.94501 73.1724 4.73114 73.1875C4.51655 73.1803 4.30299 73.2203 4.10553 73.3047C3.90806 73.3891 3.73149 73.5158 3.58826 73.6759C3.29671 74.0609 3.15657 74.5397 3.19446 75.0213L3.22871 77.0693L6.36626 77.0178L6.33201 74.9699C6.35383 74.4858 6.19518 74.0109 5.88685 73.6374ZM1.17839 70.364C1.98311 69.4129 3.1431 68.9244 4.64553 68.8987C6.14796 68.873 7.32507 69.3272 8.15975 70.2484C8.99444 71.1695 9.44388 72.472 9.44388 74.1472L9.48668 76.9793L13.6986 76.9107L13.7671 81.1267L0.104 81.3495L0.0226718 74.2972C-0.00301078 72.6262 0.387934 71.3152 1.19551 70.364H1.17839Z" fill="white"/>
<path d="M0.451172 65.6471L1.26873 61.4954L11.302 63.4534L12.5862 56.8767L15.9677 57.5451L13.8532 68.2563L0.451172 65.6471Z" fill="white"/>
<path d="M12.204 44.2416L15.0034 45.3727L12.6962 51.0925L14.738 51.9152L17.1864 45.844L20.1827 47.0608L16.1505 57.0608L3.48047 51.9194L7.51263 41.9194L10.4404 43.102L7.98775 49.1774L9.87114 49.94L12.204 44.2416Z" fill="white"/>
<path d="M32.1248 30.6001L29.6807 33.6463L22.5495 27.8923L22.5024 27.9522L28.0669 35.6643L26.2692 37.9051L17.5713 34.0705L17.5243 34.1305L24.6768 39.8888L22.2798 42.888L11.6387 34.319L15.5253 29.4818L22.3098 32.8366L22.3569 32.7766L17.6484 26.8554L21.5008 22.0525L32.1248 30.6001Z" fill="white"/>
<path d="M36.0082 17.0138L37.8702 19.396L33.0248 23.2049L34.3817 24.9187L39.5182 20.8742L41.5257 23.4449L33.0633 30.1115L24.6309 19.3489L33.1061 12.6951L35.0537 15.1801L29.9172 19.2246L31.1713 20.8227L36.0082 17.0138Z" fill="white"/>
<path d="M47.0781 16.6753C47.481 16.2589 47.7158 15.7079 47.7372 15.1286C47.7166 14.3437 47.5003 13.5764 47.108 12.8964C46.7981 12.1704 46.3109 11.5339 45.6912 11.0455C45.2219 10.707 44.644 10.5544 44.0689 10.617C43.362 10.7216 42.6785 10.9477 42.0486 11.2854L41.2438 11.6839L44.5398 18.2734L45.3445 17.875C45.9852 17.5748 46.5712 17.1693 47.0781 16.6753ZM46.8983 7.21086C48.5705 7.61932 49.9274 8.87467 50.969 10.9769C52.0105 13.0792 52.1832 14.9201 51.4869 16.4996C50.7935 18.0763 49.418 19.3745 47.3606 20.3942L42.1427 22.9649L36.0859 10.7156L41.3038 8.14488C43.3584 7.12232 45.2232 6.81098 46.8983 7.21086Z" fill="white"/>
<path d="M50.6992 4.15146L54.7185 2.90039L58.7721 15.9638L54.7485 17.2106L50.6992 4.15146Z" fill="white"/>
<path d="M65.1101 4.22441H65.033L64.2882 9.21584L67.2075 8.81738L65.1101 4.22441ZM63.8259 12.1936L63.4364 14.8371L59.0918 15.4369L61.8612 1.25097L67.5328 0.471191L74.0133 13.3846L69.5788 13.993L68.4702 11.5552L63.8259 12.1936Z" fill="white"/>
</svg>
