<svg width="128" height="30" viewBox="0 0 128 30" fill="none" xmlns="http://www.w3.org/2000/svg">
<g clip-path="url(#clip0_338_3728)">
<path d="M33.6871 17.7083C33.5888 17.7083 33.4945 17.6692 33.4249 17.5997C33.3554 17.5301 33.3163 17.4358 33.3163 17.3374C33.3163 17.2391 33.3554 17.1448 33.4249 17.0752C33.4945 17.0057 33.5888 16.9666 33.6871 16.9666H42.7552C42.7338 16.717 42.7018 16.4674 42.6661 16.2213H33.6871C33.5888 16.2213 33.4945 16.1822 33.4249 16.1127C33.3554 16.0431 33.3163 15.9488 33.3163 15.8505C33.3163 15.7521 33.3554 15.6578 33.4249 15.5882C33.4945 15.5187 33.5888 15.4796 33.6871 15.4796H42.5199C42.4664 15.2264 42.4022 14.9804 42.3309 14.7343H33.6871C33.5888 14.7343 33.4945 14.6953 33.4249 14.6257C33.3554 14.5562 33.3163 14.4618 33.3163 14.3635C33.3163 14.2651 33.3554 14.1708 33.4249 14.1012C33.4945 14.0317 33.5888 13.9926 33.6871 13.9926H42.0777C41.985 13.7394 41.8816 13.4934 41.7746 13.2473H33.6871C33.5888 13.2473 33.4945 13.2083 33.4249 13.1387C33.3554 13.0692 33.3163 12.9748 33.3163 12.8765C33.3163 12.7781 33.3554 12.6838 33.4249 12.6143C33.4945 12.5447 33.5888 12.5056 33.6871 12.5056H41.4252C40.4119 10.5906 38.8957 8.98795 37.0397 7.87017C35.1837 6.7524 33.0581 6.16174 30.8915 6.16174C28.7248 6.16174 26.5992 6.7524 24.7432 7.87017C22.8872 8.98795 21.371 10.5906 20.3578 12.5056H28.0958C28.1941 12.5056 28.2885 12.5447 28.358 12.6143C28.4276 12.6838 28.4666 12.7781 28.4666 12.8765C28.4666 12.9748 28.4276 13.0692 28.358 13.1387C28.2885 13.2083 28.1941 13.2473 28.0958 13.2473H19.9976C19.8906 13.4934 19.7872 13.7394 19.6945 13.9926H28.0958C28.1941 13.9926 28.2885 14.0317 28.358 14.1012C28.4276 14.1708 28.4666 14.2651 28.4666 14.3635C28.4666 14.4618 28.4276 14.5562 28.358 14.6257C28.2885 14.6953 28.1941 14.7343 28.0958 14.7343H19.452C19.3807 14.9804 19.3165 15.2264 19.263 15.4796H28.0958C28.1941 15.4796 28.2885 15.5187 28.358 15.5882C28.4276 15.6578 28.4666 15.7521 28.4666 15.8505C28.4666 15.9488 28.4276 16.0431 28.358 16.1127C28.2885 16.1822 28.1941 16.2213 28.0958 16.2213H19.1204C19.0812 16.4674 19.0491 16.717 19.0277 16.9666H28.0958C28.1941 16.9666 28.2885 17.0057 28.358 17.0752C28.4276 17.1448 28.4666 17.2391 28.4666 17.3374C28.4666 17.4358 28.4276 17.5301 28.358 17.5997C28.2885 17.6692 28.1941 17.7083 28.0958 17.7083H18.9813C18.9813 17.8331 18.9813 17.9579 18.9813 18.0827C18.9813 18.2075 18.9813 18.3288 18.9813 18.4393H28.0958C28.1941 18.4393 28.2885 18.4784 28.358 18.5479C28.4276 18.6175 28.4666 18.7118 28.4666 18.8102C28.4666 18.9085 28.4276 19.0028 28.358 19.0724C28.2885 19.1419 28.1941 19.181 28.0958 19.181H19.0277C19.0491 19.4342 19.0812 19.6802 19.1204 19.9263H28.0958C28.1946 19.9263 28.2894 19.9656 28.3593 20.0354C28.4292 20.1053 28.4684 20.2001 28.4684 20.2989C28.4684 20.3978 28.4292 20.4925 28.3593 20.5624C28.2894 20.6323 28.1946 20.6716 28.0958 20.6716H19.2559C19.3094 20.9212 19.3736 21.1672 19.4449 21.4133H28.0958C28.1946 21.4133 28.2894 21.4525 28.3593 21.5224C28.4292 21.5923 28.4684 21.6871 28.4684 21.7859C28.4684 21.8847 28.4292 21.9795 28.3593 22.0494C28.2894 22.1193 28.1946 22.1586 28.0958 22.1586H19.6945C19.7872 22.4082 19.8906 22.6578 19.9976 22.9003H28.0958C28.1946 22.9003 28.2894 22.9395 28.3593 23.0094C28.4292 23.0793 28.4684 23.1741 28.4684 23.2729C28.4684 23.3717 28.4292 23.4665 28.3593 23.5364C28.2894 23.6063 28.1946 23.6455 28.0958 23.6455H20.3578C20.7674 24.4096 21.2589 25.127 21.8234 25.7851L21.5951 29.975L25.7066 28.7911C28.485 30.1307 31.6742 30.342 34.605 29.3806C37.5358 28.4192 39.9802 26.3599 41.4252 23.6348H33.6871C33.5883 23.6348 33.4935 23.5956 33.4236 23.5257C33.3538 23.4558 33.3145 23.361 33.3145 23.2622C33.3145 23.1634 33.3538 23.0686 33.4236 22.9987C33.4935 22.9288 33.5883 22.8896 33.6871 22.8896H41.7853C41.8923 22.6471 41.9957 22.3975 42.0884 22.1479H33.6871C33.5883 22.1479 33.4935 22.1086 33.4236 22.0387C33.3538 21.9688 33.3145 21.874 33.3145 21.7752C33.3145 21.6764 33.3538 21.5816 33.4236 21.5117C33.4935 21.4418 33.5883 21.4026 33.6871 21.4026H42.3309C42.4022 21.1565 42.4664 20.9105 42.5199 20.6609H33.6871C33.5883 20.6609 33.4935 20.6216 33.4236 20.5517C33.3538 20.4818 33.3145 20.3871 33.3145 20.2882C33.3145 20.1894 33.3538 20.0946 33.4236 20.0247C33.4935 19.9549 33.5883 19.9156 33.6871 19.9156H42.6661C42.7018 19.6695 42.7338 19.4235 42.7552 19.1703H33.6871C33.5888 19.1703 33.4945 19.1312 33.4249 19.0617C33.3554 18.9922 33.3163 18.8978 33.3163 18.7995C33.3163 18.7011 33.3554 18.6068 33.4249 18.5372C33.4945 18.4677 33.5888 18.4286 33.6871 18.4286H42.7909C42.7909 18.3038 42.7909 18.1826 42.7909 18.072C42.7909 17.9615 42.7909 17.8224 42.7909 17.6976L33.6871 17.7083Z" fill="white"/>
<path d="M10.5765 15.0624C9.86331 14.8556 7.75229 14.228 7.75229 13.3222C7.75229 13.0084 8.0126 12.4771 8.97896 12.4771C10.3055 12.4771 10.3554 13.094 10.4053 13.5469L10.4481 14.064H17.7618L17.7012 13.4506C17.1948 8.2016 12.9015 6.30453 9.05384 6.30453C4.0794 6.30453 0.324498 9.53525 0.324498 13.8179C0.324498 16.5601 2.29645 18.7603 5.70546 19.8479C6.46499 20.1438 7.13182 20.3863 7.73089 20.6038C10.4053 21.5809 10.9402 21.8448 10.9402 22.7042C10.9402 23.346 10.0915 23.7739 9.29989 23.7739C8.68656 23.7739 7.63461 23.5849 7.46345 22.3226L7.3957 21.8376H0L0.0641864 22.4652C0.631166 27.9888 5.34886 29.9536 9.20718 29.9536C14.5026 29.9536 18.3502 26.698 18.3502 22.2156C18.3502 17.2162 14.2208 16.0716 10.5765 15.0624Z" fill="white"/>
<path d="M51.0282 8.09819V7.02841H43.9819V29.2405H51.4062V17.0843C51.4062 14.6916 52.5259 13.875 55.8386 13.7716H56.3842V6.30453H55.8243C53.2783 6.30453 51.859 7.19245 51.0282 8.09819Z" fill="white"/>
<path d="M69.792 6.30453H69.2286C66.6861 6.30453 65.2669 7.19245 64.436 8.08749V7.01772H57.3862V29.2405H64.814V17.0843C64.814 14.6916 65.9337 13.875 69.2429 13.7716H69.792V6.30453Z" fill="white"/>
<path d="M81.1566 6.30453C74.7379 6.30453 69.5424 11.6534 69.5424 18.1861C69.5462 21.2955 70.783 24.2765 72.9817 26.4751C75.1803 28.6738 78.1613 29.9107 81.2707 29.9144C83.5332 29.9283 85.7426 29.2296 87.5859 27.9175C89.5843 26.5001 91.1417 24.5471 92.0789 22.2834L92.4177 21.4989H84.833L84.6654 21.7093C83.8274 22.779 82.9288 23.4744 81.2707 23.4744C79.2096 23.4744 77.5871 22.3476 77.0344 20.6217H92.6138L92.7172 19.9584C92.8075 19.4404 92.8504 18.9152 92.8456 18.3894C92.8456 11.4929 87.8212 6.30453 81.1566 6.30453ZM77.1806 15.2193C77.5835 14.2779 78.6355 12.7232 81.1922 12.7232C83.749 12.7232 84.8045 14.2672 85.2074 15.2193H77.1806Z" fill="white"/>
<path d="M110.675 8.34424C109.68 7.38857 107.912 6.30453 105.009 6.30453C98.6473 6.30453 93.8512 11.3788 93.8512 18.1077C93.8512 23.995 97.681 29.9501 105.009 29.9501C106.902 29.9501 109.185 29.4045 110.675 27.9603V29.2405H118.103V7.02841H110.675V8.34424ZM105.957 22.9431C102.42 22.9431 101.279 19.7338 101.279 18.1861C101.279 16.2285 102.513 13.3151 105.915 13.3151C109.038 13.3151 110.672 15.7257 110.672 18.1077C110.675 20.0511 109.42 22.9431 105.957 22.9431Z" fill="white"/>
<path d="M127.278 0H119.85V29.2298H127.278V0Z" fill="white"/>
</g>
<defs>
<clipPath id="clip0_338_3728">
<rect width="127.278" height="30" fill="white"/>
</clipPath>
</defs>
</svg>
