<svg width="159" height="38" viewBox="0 0 159 38" fill="none" xmlns="http://www.w3.org/2000/svg">
<g clip-path="url(#clip0_338_3879)">
<path d="M53.65 15.66C51.95 15.66 50.46 15 50.32 13.09L46.52 13.21C46.52 16.87 49.52 18.87 53.65 18.87C57.24 18.87 60.06 17.26 60.06 14.03C60.06 11.55 58.6 9.89 55.39 9.34L52.49 8.81999C51.49 8.66 50.96 8.39 50.96 7.69C50.96 6.99 51.74 6.32 53.1 6.32C54.69 6.32 55.83 7.03999 55.96 8.60999L59.76 8.54C59.68 5.17 57.39 3.12 53.15 3.12C49.33 3.12 46.89 4.97 46.89 8.05C46.89 10.7 48.65 12.05 51.16 12.56L54 13C55.17 13.21 56.07 13.36 56.07 14.25C56.07 15.14 55.09 15.66 53.65 15.66Z" fill="white"/>
<path d="M65.21 18.59H69.32V6.79999H74.66V3.42999H59.94V6.79999H65.21V18.59Z" fill="white"/>
<path d="M87.8 15.22H79.8V12.6H85.8V9.26999H79.8V6.79999H87.6V3.42999H75.71V18.59H87.8V15.22Z" fill="white"/>
<path d="M100.66 15.22H93.06V3.42999H88.91V18.59H100.66V15.22Z" fill="white"/>
<path d="M119.45 3.41998L113.45 18.29V15.22H105.85V3.41998H101.7V18.59H117.49L118.63 15.66H124.63L125.77 18.59H130.18L124.08 3.41998H119.45ZM119.84 12.6L121.59 8.11998H121.69L123.44 12.6H119.84Z" fill="white"/>
<path d="M141.06 12.14C142.002 12.034 142.866 11.57 143.475 10.844C144.084 10.1179 144.39 9.18556 144.33 8.23998C144.33 5.23998 142.33 3.41998 138.33 3.41998H130.58V18.59H134.65V13.59H137.41C138.79 13.59 139.55 13.98 139.67 15.71C139.651 16.7158 139.867 17.7122 140.3 18.62H144.5C143.98 18.07 143.91 17.39 143.69 15.13C143.693 14.3962 143.427 13.6867 142.943 13.1357C142.458 12.5847 141.788 12.2305 141.06 12.14ZM137.65 10.41H134.65V6.69998H137.65C139.4 6.69998 140.28 7.34998 140.28 8.57998C140.28 9.99998 139.4 10.41 137.65 10.41Z" fill="white"/>
<path d="M153.61 9.35001L150.71 8.83C149.71 8.67 149.17 8.4 149.17 7.7C149.17 7 149.95 6.33 151.32 6.33C152.9 6.33 154.05 7.05 154.18 8.62L157.98 8.55C157.9 5.18001 155.62 3.13 151.38 3.13C147.55 3.13 145.11 4.98001 145.11 8.06001C145.11 10.71 146.86 12.06 149.38 12.57L152.18 13.05C153.35 13.26 154.26 13.41 154.26 14.3C154.26 15.19 153.33 15.65 151.89 15.65C150.19 15.65 148.7 15 148.55 13.08L144.75 13.2C144.75 16.87 147.75 18.86 151.89 18.86C155.47 18.86 158.3 17.25 158.3 14.02C158.3 11.56 156.83 9.90001 153.61 9.35001Z" fill="white"/>
<path d="M54.63 27.25L51.85 26.71C50.07 26.38 49.07 25.9 49.07 24.41C49.07 22.72 50.32 21.69 52.53 21.69C55.07 21.69 56.6 23.11 56.68 25.61L58.61 25.52C58.61 22.1 56.37 20.07 52.52 20.07C49.14 20.07 47.03 21.87 47.03 24.53C47.03 26.89 48.59 28.09 50.86 28.53L53.86 29.11C55.86 29.5 56.78 30.17 56.78 31.56C56.78 33.23 55.34 34.19 53.05 34.19C50.46 34.19 48.54 32.77 48.42 30L46.52 30.12C46.52 33.78 49.28 35.83 53.05 35.83C56.36 35.83 58.8 34.21 58.8 31.42C58.84 29 57.43 27.77 54.63 27.25Z" fill="white"/>
<path d="M67.37 20.07C62.89 20.07 59.75 23.27 59.75 27.94C59.75 32.61 62.89 35.82 67.37 35.82C71.85 35.82 75 32.61 75 28C75 23.39 71.83 20.07 67.37 20.07ZM67.37 34.07C64.06 34.07 61.92 31.69 61.92 27.98C61.92 24.27 64.07 21.89 67.37 21.89C70.67 21.89 72.81 24.28 72.81 27.98C72.81 31.68 70.69 34 67.37 34V34.07Z" fill="white"/>
<path d="M83.36 21.85C84.0222 21.813 84.6849 21.9124 85.307 22.1422C85.9292 22.3719 86.4975 22.7271 86.9766 23.1856C87.4558 23.6441 87.8356 24.1963 88.0925 24.8077C88.3494 25.4191 88.4779 26.0768 88.47 26.74L90.47 26.64C90.18 22.74 87.7 20.07 83.31 20.07C79.07 20.07 75.79 23.27 75.79 27.94C75.79 32.61 79.07 35.82 83.31 35.82C87.7 35.82 90.18 33.14 90.47 29.24L88.47 29.15C88.4738 29.8102 88.3423 30.4642 88.0834 31.0716C87.8246 31.679 87.444 32.2269 86.9651 32.6814C86.4862 33.1359 85.9192 33.4875 85.2992 33.7142C84.6791 33.941 84.0191 34.0383 83.36 34C80.25 34 78 31.67 78 27.94C78 24.21 80.24 21.85 83.36 21.85Z" fill="white"/>
<path d="M94.15 20.36H92V35.53H94.12L94.15 20.36Z" fill="white"/>
<path d="M101.47 20.36L95.21 35.53H97.28L99.09 31.07H106.09L108 35.53H110.23L103.83 20.36H101.47ZM99.74 29.41L102.49 22.67H102.59L105.39 29.41H99.74Z" fill="white"/>
<path d="M113.33 20.36H111.21V35.53H121.89V33.79H113.33V20.36Z" fill="white"/>
<path d="M32.26 18.13C33.4129 17.668 34.4624 16.9813 35.3475 16.11C36.2327 15.2388 36.9357 14.2002 37.4159 13.0547C37.896 11.9093 38.1436 10.6798 38.1443 9.43777C38.1451 8.19576 37.8988 6.96599 37.42 5.81999C36.4333 3.51005 34.578 1.68064 32.2544 0.726508C29.9308 -0.227619 27.3253 -0.22996 25 0.71999C23.8481 1.17945 22.7987 1.86279 21.9125 2.73046C21.0264 3.59814 20.3212 4.63292 19.8376 5.77493C19.354 6.91695 19.1017 8.14353 19.0952 9.3837C19.0888 10.6239 19.3283 11.853 19.8 13C20.783 15.3234 22.6428 17.1654 24.9756 18.1258C27.3085 19.0863 29.926 19.0878 32.26 18.13Z" fill="white"/>
<path d="M9.53999 37.69C10.8035 37.7312 12.0624 37.5179 13.2419 37.0627C14.4213 36.6076 15.4972 35.92 16.4056 35.0407C17.314 34.1615 18.0363 33.1085 18.5295 31.9445C19.0228 30.7805 19.277 29.5292 19.277 28.265C19.277 27.0008 19.0228 25.7495 18.5295 24.5855C18.0363 23.4215 17.314 22.3686 16.4056 21.4893C15.4972 20.6101 14.4213 19.9224 13.2419 19.4673C12.0624 19.0122 10.8035 18.7989 9.53999 18.84C8.27645 18.7989 7.01753 19.0122 5.83809 19.4673C4.65864 19.9224 3.58275 20.6101 2.67439 21.4893C1.76602 22.3686 1.04372 23.4215 0.550433 24.5855C0.0571474 25.7495 -0.197052 27.0008 -0.197052 28.265C-0.197052 29.5292 0.0571474 30.7805 0.550433 31.9445C1.04372 33.1085 1.76602 34.1615 2.67439 35.0407C3.58275 35.92 4.65864 36.6076 5.83809 37.0627C7.01753 37.5179 8.27645 37.7312 9.53999 37.69Z" fill="white"/>
<path d="M19.07 9.42001V1.01314e-05H9.54C7.01455 -0.00365637 4.58938 0.98797 2.79 2.76001C1.90683 3.63081 1.20554 4.66846 0.726872 5.81264C0.248205 6.95683 0.00170898 8.18474 0.00170898 9.42501C0.00170898 10.6653 0.248205 11.8932 0.726872 13.0374C1.20554 14.1816 1.90683 15.2192 2.79 16.09C4.5928 17.8556 7.0166 18.8431 9.54 18.84H19.07V9.42001Z" fill="white"/>
<path d="M19.07 28.27V37.69H28.61C29.8752 37.7099 31.1321 37.4823 32.31 37.02C33.4813 36.567 34.5517 35.8873 35.46 35.02C36.3622 34.1498 37.0797 33.1066 37.5698 31.9529C38.0599 30.7992 38.3125 29.5585 38.3125 28.305C38.3125 27.0515 38.0599 25.8109 37.5698 24.6571C37.0797 23.5034 36.3622 22.4603 35.46 21.59C34.5517 20.7227 33.4813 20.0431 32.31 19.59C31.1321 19.1277 29.8752 18.9001 28.61 18.92H19.07V28.27Z" fill="white"/>
</g>
<defs>
<clipPath id="clip0_338_3879">
<rect width="158.3" height="37.69" fill="white"/>
</clipPath>
</defs>
</svg>
