<svg width="86" height="40" viewBox="0 0 86 40" fill="none" xmlns="http://www.w3.org/2000/svg">
<g clip-path="url(#clip0_338_3847)">
<path d="M63.827 36.9967C63.1614 36.7721 62.995 36.1647 62.995 35.1581V24.5591C62.9995 24.5315 62.9995 24.5034 62.995 24.4759C62.995 24.3428 62.9368 24.2679 62.8286 24.2513C62.7712 24.2378 62.7114 24.2378 62.6539 24.2513H60.0582C60.0088 24.2499 59.9596 24.2588 59.9138 24.2774C59.868 24.296 59.8265 24.324 59.792 24.3594L59.7005 24.4176L57.0466 26.3311C56.9971 26.3694 56.9571 26.4186 56.9297 26.4749C56.9023 26.5312 56.8882 26.593 56.8885 26.6556V29.5424C56.8885 29.7421 56.9717 29.792 57.1381 29.6839L59.634 27.9617H59.6756V37.3128C59.8407 37.9647 60.2217 38.5416 60.7564 38.9494C61.2912 39.3573 61.9482 39.5722 62.6206 39.5591H63.0948C63.4775 39.5591 63.6606 39.3677 63.7604 38.985L64.1098 37.5624C64.1331 37.5047 64.1431 37.4426 64.1392 37.3806C64.1353 37.3185 64.1175 37.2581 64.0872 37.2039C64.0568 37.1496 64.0147 37.1028 63.964 37.067C63.9132 37.0311 63.855 37.0071 63.7937 36.9967" fill="white"/>
<path d="M85.7737 26.2895L83.1198 24.3843L83.02 24.3261C82.9894 24.2875 82.9501 24.2567 82.9052 24.2365C82.8603 24.2162 82.8112 24.207 82.7621 24.2096H80.1997C80.1422 24.1962 80.0824 24.1962 80.025 24.2096C79.9168 24.2096 79.8586 24.3011 79.8586 24.4343C79.8541 24.4618 79.8541 24.4899 79.8586 24.5174V35.158C79.8586 36.173 79.6672 36.772 79.0266 36.9966C78.9653 37.0071 78.9071 37.0311 78.8563 37.0669C78.8056 37.1028 78.7635 37.1496 78.7331 37.2038C78.7028 37.2581 78.685 37.3185 78.6811 37.3805C78.6772 37.4426 78.6872 37.5047 78.7105 37.5624L79.0349 38.985C79.0477 39.1491 79.1248 39.3016 79.2495 39.4091C79.3742 39.5166 79.5363 39.5705 79.7005 39.559H80.1747C80.8461 39.5717 81.5019 39.3566 82.0352 38.9486C82.5686 38.5407 82.948 37.964 83.1115 37.3128V27.9201L85.6073 29.6422C85.782 29.7504 85.8652 29.7088 85.8652 29.5008V26.6223C85.8655 26.5597 85.8515 26.4979 85.824 26.4416C85.7966 26.3853 85.7566 26.3361 85.7071 26.2978" fill="white"/>
<path d="M73.8602 7.02997H68.9601C68.0595 7.0386 67.1982 7.39961 66.5606 8.03564C65.923 8.67167 65.5599 9.53212 65.5491 10.4326V36.6057C65.5556 37.5083 65.9171 38.3721 66.5553 39.0104C67.1936 39.6487 68.0574 40.0101 68.9601 40.0167H73.8602C74.7614 40.0079 75.6231 39.6455 76.2596 39.0075C76.8961 38.3694 77.2564 37.5069 77.2629 36.6057V10.4326C77.2542 9.53145 76.8917 8.66976 76.2537 8.03328C75.6157 7.39679 74.7531 7.03647 73.8519 7.02997M73.9767 34.4842C74.0224 34.9366 73.8924 35.3893 73.6137 35.7486C73.3349 36.1078 72.9288 36.3462 72.4792 36.4143H70.3328C69.8817 36.3481 69.4734 36.1106 69.193 35.7511C68.9125 35.3916 68.7814 34.9379 68.8269 34.4842V12.5208C68.7812 12.0684 68.9112 11.6157 69.1899 11.2565C69.4687 10.8972 69.8749 10.6588 70.3244 10.5907H72.4792C72.9304 10.6589 73.3378 10.8984 73.6168 11.2595C73.8957 11.6206 74.0247 12.0754 73.9767 12.5291V34.4842Z" fill="white"/>
<path d="M5.0416 10.1498H7.28785C7.74651 10.1539 8.19026 10.3132 8.54679 10.6017C8.90333 10.8903 9.15164 11.2911 9.25125 11.7388C9.27417 11.8037 9.31716 11.8597 9.37399 11.8986C9.43082 11.9375 9.49856 11.9573 9.56739 11.9551H12.0632C12.0973 11.9533 12.1306 11.9442 12.161 11.9285C12.1913 11.9129 12.218 11.891 12.2392 11.8642C12.2604 11.8375 12.2757 11.8065 12.2841 11.7735C12.2925 11.7404 12.2938 11.7059 12.2879 11.6722C11.9384 8.7937 9.15141 7.05493 6.02329 7.05493C2.41265 7.05493 0 9.15144 0 11.9551C0 14.7588 1.96339 16.4227 6.17304 16.4227C9.17637 16.4227 9.23461 17.6872 9.26789 18.5691C9.26789 19.6173 8.38602 20.233 7.24626 20.233H5.0416C4.58016 20.2346 4.1324 20.0764 3.77446 19.7852C3.41652 19.4939 3.17049 19.0877 3.0782 18.6356C3.04958 18.5672 3.00084 18.5091 2.93844 18.469C2.87604 18.4288 2.80293 18.4086 2.72879 18.411H0.232945C0.198536 18.4111 0.164609 18.4191 0.133782 18.4344C0.102955 18.4497 0.0760528 18.4718 0.0551507 18.4992C0.0342486 18.5265 0.0199055 18.5583 0.0132282 18.592C0.00655087 18.6258 0.00771779 18.6606 0.0166389 18.6939C0.382695 21.5807 3.13644 23.2945 6.27288 23.2945C9.90849 23.2945 12.3128 21.8719 12.3128 18.386C12.3128 15.5408 10.2579 13.4859 6.18136 13.4859C4.40932 13.4859 2.97837 13.3528 2.97837 11.822C3.0022 11.576 3.07472 11.3372 3.19172 11.1195C3.30872 10.9018 3.46785 10.7095 3.65986 10.5539C3.85187 10.3983 4.07291 10.2824 4.31013 10.213C4.54735 10.1436 4.79599 10.1221 5.0416 10.1498Z" fill="white"/>
<path d="M39.6589 20.3161C38.9934 20.0915 38.827 19.4842 38.827 18.4775V7.87854C38.8293 7.83275 38.8221 7.78698 38.8059 7.74409C38.7897 7.70121 38.7648 7.66214 38.7327 7.62933C38.7007 7.59652 38.6623 7.57069 38.6198 7.55344C38.5773 7.5362 38.5317 7.52792 38.4859 7.52913H35.8902C35.8444 7.52792 35.7988 7.5362 35.7563 7.55344C35.7138 7.57069 35.6754 7.59652 35.6433 7.62933C35.6113 7.66214 35.5864 7.70121 35.5702 7.74409C35.554 7.78698 35.5468 7.83275 35.5491 7.87854V18.0699C35.5513 18.3454 35.4986 18.6187 35.3939 18.8736C35.2892 19.1285 35.1347 19.3599 34.9395 19.5544C34.7443 19.7489 34.5122 19.9024 34.2569 20.0061C34.0016 20.1097 33.7281 20.1614 33.4526 20.1581H30.9567C30.68 20.1614 30.4054 20.1099 30.1487 20.0065C29.892 19.9031 29.6583 19.75 29.4611 19.5558C29.2639 19.3617 29.107 19.1305 28.9996 18.8754C28.8922 18.6204 28.8364 18.3466 28.8353 18.0699V7.87854C28.8376 7.83275 28.8304 7.78698 28.8142 7.74409C28.798 7.70121 28.7731 7.66214 28.7411 7.62933C28.709 7.59652 28.6706 7.57069 28.6281 7.55344C28.5856 7.5362 28.54 7.52792 28.4942 7.52913H25.8652C25.8187 7.52673 25.7722 7.53414 25.7287 7.55085C25.6853 7.56756 25.6458 7.59322 25.6128 7.62615C25.5799 7.65909 25.5543 7.69857 25.5375 7.74205C25.5208 7.78553 25.5134 7.83203 25.5158 7.87854V16.8968C25.5158 22.213 28.7438 23.3528 30.6739 23.3528H30.782C32.837 23.3528 34.1681 22.5208 34.8003 21.015L34.9418 20.6323H35.5075C35.674 21.2835 36.0554 21.8595 36.5898 22.2671C37.1242 22.6747 37.7805 22.8901 38.4526 22.8785H38.9268C39.0897 22.8901 39.2506 22.8373 39.3751 22.7316C39.4995 22.6258 39.5775 22.4755 39.5924 22.3128L39.9418 20.8819C39.965 20.8242 39.9751 20.7621 39.9712 20.7C39.9672 20.638 39.9495 20.5776 39.9191 20.5233C39.8888 20.4691 39.8467 20.4223 39.7959 20.3864C39.7451 20.3506 39.6869 20.3266 39.6256 20.3161" fill="white"/>
<path d="M55.8985 0L53.3361 0.249584C53.2405 0.25793 53.1515 0.301905 53.0867 0.37279C53.022 0.443675 52.9863 0.536293 52.9867 0.63228V9.78369H52.4126C52.0742 8.9467 51.4842 8.23544 50.7242 7.74813C49.9641 7.26082 49.0716 7.02151 48.1697 7.06323C44.3095 7.06323 41.7471 10.1997 41.7471 15.1997C41.7471 20.1997 44.3095 23.3611 48.1697 23.3611C49.0702 23.3901 49.9583 23.1447 50.716 22.6573C51.4738 22.17 52.0655 21.4637 52.4126 20.6323H52.9867L53.3028 22.5291C53.3028 22.7205 53.4276 22.8785 53.6439 22.8785H55.8902C55.9367 22.8809 55.9832 22.8735 56.0267 22.8568C56.0701 22.8401 56.1096 22.8144 56.1426 22.7815C56.1755 22.7486 56.2011 22.7091 56.2179 22.6656C56.2346 22.6221 56.242 22.5756 56.2396 22.5291V0.407654C56.2396 0.224626 56.173 0.0332779 55.8902 0.0332779M52.9867 18.1364C52.989 18.6721 52.7812 19.1874 52.4079 19.5716C52.0346 19.9558 51.5255 20.1783 50.99 20.1913H47.0299C46.7606 20.1925 46.4937 20.1397 46.2452 20.0359C45.9966 19.9321 45.7715 19.7795 45.5829 19.5871C45.3944 19.3947 45.2464 19.1665 45.1477 18.9159C45.049 18.6653 45.0016 18.3974 45.0083 18.1281V12.1797C45.0059 11.9144 45.0572 11.6514 45.1589 11.4063C45.2606 11.1613 45.4107 10.9393 45.6002 10.7536C45.7898 10.568 46.0148 10.4225 46.2619 10.3259C46.509 10.2293 46.7731 10.1835 47.0383 10.1913H50.99C51.5174 10.1935 52.0228 10.4034 52.3965 10.7756C52.7703 11.1478 52.9823 11.6523 52.9867 12.1797V18.1364Z" fill="white"/>
<path d="M62.6373 7.56238H60.0083C59.9215 7.57068 59.841 7.61113 59.7825 7.67578C59.724 7.74043 59.6918 7.82461 59.6922 7.9118V22.5624C59.698 22.6443 59.7332 22.7214 59.7912 22.7795C59.8493 22.8375 59.9264 22.8727 60.0083 22.8785H62.6373C62.7192 22.8727 62.7963 22.8375 62.8544 22.7795C62.9124 22.7214 62.9476 22.6443 62.9534 22.5624V7.9118C62.9538 7.82461 62.9216 7.74043 62.8631 7.67578C62.8046 7.61113 62.7241 7.57068 62.6373 7.56238Z" fill="white"/>
<path d="M62.6373 0H60.0083C59.792 0 59.6922 0.191348 59.6922 0.382695V4.49251C59.6888 4.53648 59.6944 4.58068 59.7086 4.62241C59.7229 4.66415 59.7455 4.70254 59.7751 4.73524C59.8047 4.76794 59.8406 4.79427 59.8807 4.81261C59.9208 4.83095 59.9642 4.84093 60.0083 4.84193H62.6373C62.6814 4.84093 62.7248 4.83095 62.7649 4.81261C62.805 4.79427 62.8409 4.76794 62.8705 4.73524C62.9001 4.70254 62.9227 4.66415 62.937 4.62241C62.9512 4.58068 62.9568 4.53648 62.9534 4.49251V0.332779C62.9498 0.24849 62.9158 0.168365 62.8577 0.107199C62.7996 0.046033 62.7213 0.00795635 62.6373 0Z" fill="white"/>
<path d="M22.2546 20.183C22.2215 20.0715 22.1472 19.9767 22.0468 19.9179C21.9463 19.8592 21.8272 19.841 21.7138 19.8669C21.1632 20.0527 20.5889 20.1591 20.0083 20.183C19.7753 20.1632 19.5484 20.0974 19.3409 19.9895C19.1334 19.8815 18.9494 19.7336 18.7993 19.5541C18.6493 19.3747 18.5363 19.1673 18.4667 18.944C18.3972 18.7207 18.3726 18.4858 18.3943 18.2529V10.8153H22.0632C22.1069 10.8132 22.1498 10.8025 22.1894 10.7837C22.2289 10.765 22.2644 10.7387 22.2938 10.7062C22.3232 10.6737 22.3458 10.6358 22.3605 10.5946C22.3752 10.5533 22.3816 10.5096 22.3794 10.4659V7.97007C22.3798 7.88288 22.3475 7.7987 22.2891 7.73405C22.2306 7.6694 22.15 7.62895 22.0632 7.62065H18.3943V2.37107C18.3991 2.32105 18.3921 2.27061 18.374 2.22374C18.3559 2.17687 18.3272 2.13484 18.2901 2.10096C18.253 2.06709 18.2085 2.04229 18.1602 2.02853C18.1119 2.01476 18.061 2.01241 18.0116 2.02165L15.5158 2.27123C15.2912 2.27123 15.1664 2.4293 15.1664 2.62065V18.4276C15.1664 21.1148 16.8303 23.2696 19.4675 23.2696C20.5171 23.2802 21.5553 23.0527 22.5042 22.604C22.5861 22.5496 22.6507 22.473 22.6905 22.3831C22.7303 22.2931 22.7436 22.1937 22.7288 22.0965L22.2546 20.183Z" fill="white"/>
</g>
<defs>
<clipPath id="clip0_338_3847">
<rect width="85.9318" height="40" fill="white"/>
</clipPath>
</defs>
</svg>
