<svg width="664" height="96" viewBox="0 0 664 96" fill="none" xmlns="http://www.w3.org/2000/svg">
<path d="M24.48 46.944H34.464V55.872C34.464 66.624 29.088 72.768 18.72 72.768C8.352 72.768 2.976 66.624 2.976 55.872V20.928C2.976 10.176 8.352 4.032 18.72 4.032C29.088 4.032 34.464 10.176 34.464 20.928V27.456H24.48V20.256C24.48 15.456 22.368 13.632 19.008 13.632C15.648 13.632 13.536 15.456 13.536 20.256V56.544C13.536 61.344 15.648 63.072 19.008 63.072C22.368 63.072 24.48 61.344 24.48 56.544V46.944ZM50.5673 20.256V56.544C50.5673 61.344 52.6793 63.168 56.0393 63.168C59.3993 63.168 61.5113 61.344 61.5113 56.544V20.256C61.5113 15.456 59.3993 13.632 56.0393 13.632C52.6793 13.632 50.5673 15.456 50.5673 20.256ZM40.0073 55.872V20.928C40.0073 10.176 45.6713 4.032 56.0393 4.032C66.4073 4.032 72.0713 10.176 72.0713 20.928V55.872C72.0713 66.624 66.4073 72.768 56.0393 72.768C45.6713 72.768 40.0073 66.624 40.0073 55.872ZM78.9338 72V4.8H89.4938V62.4H106.87V72H78.9338ZM111.465 72V4.8H122.025V62.4H139.401V72H111.465ZM167.42 4.8L178.172 72H167.516L165.692 59.808H152.732L150.908 72H141.212L151.964 4.8H167.42ZM159.164 16.704L154.076 50.688H164.252L159.164 16.704ZM199.026 4.8C209.97 4.8 214.674 9.888 214.674 20.256V22.656C214.674 29.568 212.562 33.984 207.858 36.192C213.522 38.4 215.73 43.488 215.73 50.592V56.064C215.73 66.432 210.258 72 199.698 72H183.09V4.8H199.026ZM198.354 41.76H193.65V62.4H199.698C203.25 62.4 205.17 60.768 205.17 55.776V49.92C205.17 43.68 203.154 41.76 198.354 41.76ZM198.738 14.4H193.65V32.16H197.778C201.714 32.16 204.114 30.432 204.114 25.056V21.312C204.114 16.512 202.482 14.4 198.738 14.4ZM231.786 20.256V56.544C231.786 61.344 233.898 63.168 237.258 63.168C240.618 63.168 242.73 61.344 242.73 56.544V20.256C242.73 15.456 240.618 13.632 237.258 13.632C233.898 13.632 231.786 15.456 231.786 20.256ZM221.226 55.872V20.928C221.226 10.176 226.89 4.032 237.258 4.032C247.626 4.032 253.29 10.176 253.29 20.928V55.872C253.29 66.624 247.626 72.768 237.258 72.768C226.89 72.768 221.226 66.624 221.226 55.872ZM292.985 72H282.233C281.656 70.272 281.273 69.216 281.273 63.744V53.184C281.273 46.944 279.161 44.64 274.361 44.64H270.713V72H260.153V4.8H276.089C287.033 4.8 291.737 9.888 291.737 20.256V25.536C291.737 32.448 289.529 36.96 284.825 39.168C290.105 41.376 291.833 46.464 291.833 53.472V63.84C291.833 67.104 291.929 69.504 292.985 72ZM275.801 14.4H270.713V35.04H274.841C278.777 35.04 281.177 33.312 281.177 27.936V21.312C281.177 16.512 279.545 14.4 275.801 14.4ZM322.202 4.8L332.954 72H322.298L320.474 59.808H307.514L305.69 72H295.994L306.746 4.8H322.202ZM313.946 16.704L308.858 50.688H319.034L313.946 16.704ZM334.799 14.4V4.8H367.439V14.4H356.399V72H345.839V14.4H334.799ZM372.09 72V4.8H382.65V72H372.09ZM400.067 20.256V56.544C400.067 61.344 402.179 63.168 405.539 63.168C408.899 63.168 411.011 61.344 411.011 56.544V20.256C411.011 15.456 408.899 13.632 405.539 13.632C402.179 13.632 400.067 15.456 400.067 20.256ZM389.507 55.872V20.928C389.507 10.176 395.171 4.032 405.539 4.032C415.907 4.032 421.571 10.176 421.571 20.928V55.872C421.571 66.624 415.907 72.768 405.539 72.768C395.171 72.768 389.507 66.624 389.507 55.872ZM450.994 72L437.842 23.328V72H428.338V4.8H441.586L452.434 45.024V4.8H461.842V72H450.994Z" fill="#A3FF00"/>
<rect x="476" y="66" width="188" height="6" fill="#A3FF00"/>
</svg>
