<svg width="331" height="51" viewBox="0 0 331 51" fill="none" xmlns="http://www.w3.org/2000/svg">
<path d="M14.544 18L11.016 4.128H10.944L7.44 18H4.944L0.528 0.863999H2.76L6.168 15.096H6.24L9.792 0.863999H12.144L15.672 15.096H15.744L19.176 0.863999H21.456L16.992 18H14.544ZM30.9913 14.16L33.0313 14.424C32.4313 16.248 30.8713 18.312 27.3433 18.312C23.9113 18.312 21.5593 15.696 21.5593 11.712C21.5593 7.704 23.8633 5.088 27.3433 5.088C30.8473 5.088 33.3673 7.728 33.1273 12.192H23.5993C23.6713 14.784 25.1353 16.632 27.3433 16.632C29.6233 16.632 30.6313 15.24 30.9913 14.16ZM27.3433 6.768C25.1113 6.768 23.8153 8.544 23.6233 10.608H31.0633C30.8953 8.544 29.5993 6.768 27.3433 6.768ZM40.5589 0.623999H42.5509V18H40.5589V0.623999ZM54.3819 14.16L56.4219 14.424C55.8219 16.248 54.2619 18.312 50.7339 18.312C47.3019 18.312 44.9499 15.696 44.9499 11.712C44.9499 7.704 47.2539 5.088 50.7339 5.088C54.2379 5.088 56.7579 7.728 56.5179 12.192H46.9899C47.0619 14.784 48.5259 16.632 50.7339 16.632C53.0139 16.632 54.0219 15.24 54.3819 14.16ZM50.7339 6.768C48.5019 6.768 47.2059 8.544 47.0139 10.608H54.4539C54.2859 8.544 52.9899 6.768 50.7339 6.768ZM63.0251 16.296C63.3851 16.296 63.9851 16.296 64.2971 16.272V18.024C63.9851 18.048 63.2651 18.072 62.6411 18.072C60.3851 18.072 59.4731 17.496 59.4731 15.288V6.936H57.3851V5.376H59.4731V1.752H61.4891V5.376H64.4171V6.936H61.4891V14.784C61.4891 16.032 61.8971 16.296 63.0251 16.296ZM82.0301 5.376L77.1341 18.024C75.5261 22.2 74.3021 22.728 72.5981 22.728C71.9261 22.728 71.4941 22.656 71.2541 22.632V20.856C71.4221 20.88 71.7341 20.952 72.3341 20.952C73.5101 20.952 74.1101 20.496 74.9261 18.48L75.1661 17.88L70.0541 5.376H72.2621L76.1021 15.48H76.1741L79.8701 5.376H82.0301ZM88.6603 5.088C92.2363 5.088 94.6363 7.68 94.6363 11.688C94.6363 15.696 92.2363 18.288 88.6603 18.288C85.0843 18.288 82.6843 15.696 82.6843 11.688C82.6843 7.68 85.0843 5.088 88.6603 5.088ZM88.6603 16.632C91.0123 16.632 92.5723 14.784 92.5723 11.688C92.5723 8.616 91.0123 6.768 88.6603 6.768C86.3083 6.768 84.7243 8.616 84.7243 11.688C84.7243 14.784 86.3083 16.632 88.6603 16.632ZM105.492 16.224H105.42C104.628 17.496 103.164 18.288 101.412 18.288C98.9638 18.288 96.9238 16.872 96.9238 13.8V5.376H98.9398V13.104C98.9398 15.6 99.8998 16.608 101.94 16.608C103.692 16.608 105.396 15.312 105.396 12.408V5.376H107.412V18H105.492V16.224ZM115.181 0.623999H117.269V2.928H115.181V0.623999ZM115.229 5.376H117.221V18H115.229V5.376ZM122.024 7.176H122.096C122.888 5.88 124.376 5.088 126.104 5.088C128.552 5.088 130.592 6.528 130.592 9.6V18H128.576V10.296C128.576 7.8 127.616 6.792 125.576 6.792C123.848 6.792 122.12 8.088 122.12 10.992V18H120.128V5.376H122.024V7.176ZM143.041 16.296C143.401 16.296 144.001 16.296 144.313 16.272V18.024C144.001 18.048 143.281 18.072 142.657 18.072C140.401 18.072 139.489 17.496 139.489 15.288V6.936H137.401V5.376H139.489V1.752H141.505V5.376H144.433V6.936H141.505V14.784C141.505 16.032 141.913 16.296 143.041 16.296ZM151.379 5.088C154.955 5.088 157.355 7.68 157.355 11.688C157.355 15.696 154.955 18.288 151.379 18.288C147.803 18.288 145.403 15.696 145.403 11.688C145.403 7.68 147.803 5.088 151.379 5.088ZM151.379 16.632C153.731 16.632 155.291 14.784 155.291 11.688C155.291 8.616 153.731 6.768 151.379 6.768C149.027 6.768 147.443 8.616 147.443 11.688C147.443 14.784 149.027 16.632 151.379 16.632ZM169.338 16.296C169.698 16.296 170.298 16.296 170.61 16.272V18.024C170.298 18.048 169.578 18.072 168.954 18.072C166.698 18.072 165.786 17.496 165.786 15.288V6.936H163.698V5.376H165.786V1.752H167.802V5.376H170.73V6.936H167.802V14.784C167.802 16.032 168.21 16.296 169.338 16.296ZM174.784 7.2H174.856C175.648 5.904 177.136 5.088 178.816 5.088C181.216 5.088 183.256 6.528 183.256 9.6V18H181.24V10.296C181.24 7.8 180.28 6.792 178.24 6.792C176.56 6.792 174.784 8.28 174.784 11.16V18H172.768V0.623999H174.784V7.2ZM194.89 14.16L196.93 14.424C196.33 16.248 194.77 18.312 191.242 18.312C187.81 18.312 185.458 15.696 185.458 11.712C185.458 7.704 187.762 5.088 191.242 5.088C194.746 5.088 197.266 7.728 197.026 12.192H187.498C187.57 14.784 189.034 16.632 191.242 16.632C193.522 16.632 194.53 15.24 194.89 14.16ZM191.242 6.768C189.01 6.768 187.714 8.544 187.522 10.608H194.962C194.794 8.544 193.498 6.768 191.242 6.768ZM214.297 18L211.393 12.576H209.329V18H204.049V0.863999H213.145C217.321 0.863999 219.841 2.976 219.841 6.72C219.841 9.216 218.713 10.992 216.745 11.904L220.417 18H214.297ZM209.329 8.616H212.209C213.721 8.616 214.465 7.872 214.465 6.72C214.465 5.568 213.721 4.824 212.209 4.824H209.329V8.616ZM226.814 7.368H234.542V11.16H226.814V13.92H235.022V18H221.51V0.863999H235.022V4.824H226.814V7.368ZM249.197 18L247.733 7.128H247.637L246.221 18H239.477L235.853 0.863999H241.229L243.077 12.264H243.173L244.685 0.863999H250.637L252.149 12.264H252.245L254.093 0.863999H259.565L255.941 18H249.197ZM260.745 18V0.863999H266.025V18H260.745ZM284.469 18H278.493L273.117 7.68H273.021V18H268.221V0.863999H274.293L279.573 10.92H279.669V0.863999H284.469V18ZM286.667 0.863999H293.963C299.387 0.863999 303.251 3.288 303.251 9.432C303.251 15.576 299.387 18 293.963 18H286.667V0.863999ZM291.947 14.04H293.075C296.027 14.04 297.875 13.296 297.875 9.432C297.875 5.568 296.027 4.824 293.075 4.824H291.947V14.04ZM6.84 33.088C10.416 33.088 12.816 35.68 12.816 39.688C12.816 43.696 10.416 46.288 6.84 46.288C3.264 46.288 0.864 43.696 0.864 39.688C0.864 35.68 3.264 33.088 6.84 33.088ZM6.84 44.632C9.192 44.632 10.752 42.784 10.752 39.688C10.752 36.616 9.192 34.768 6.84 34.768C4.488 34.768 2.904 36.616 2.904 39.688C2.904 42.784 4.488 44.632 6.84 44.632ZM19.4822 30.064C18.6422 30.064 17.7782 30.208 17.7782 31.672V33.376H20.7062V34.936H17.7782V46.024H15.7622V34.936H13.6742V33.376H15.7622V31.48C15.7622 29.08 17.2502 28.336 19.1942 28.336C19.9142 28.336 20.6822 28.432 21.0422 28.504V30.16C20.7062 30.112 19.9382 30.064 19.4822 30.064ZM33.3478 33.088C36.9238 33.088 39.3238 35.68 39.3238 39.688C39.3238 43.696 36.9238 46.288 33.3478 46.288C29.7718 46.288 27.3718 43.696 27.3718 39.688C27.3718 35.68 29.7718 33.088 33.3478 33.088ZM33.3478 44.632C35.6998 44.632 37.2598 42.784 37.2598 39.688C37.2598 36.616 35.6998 34.768 33.3478 34.768C30.9958 34.768 29.4118 36.616 29.4118 39.688C29.4118 42.784 30.9958 44.632 33.3478 44.632ZM50.1793 44.224H50.1073C49.3153 45.496 47.8513 46.288 46.0993 46.288C43.6513 46.288 41.6113 44.872 41.6113 41.8V33.376H43.6273V41.104C43.6273 43.6 44.5873 44.608 46.6273 44.608C48.3793 44.608 50.0833 43.312 50.0833 40.408V33.376H52.0993V46H50.1793V44.224ZM56.7735 33.376V35.536H56.8455C57.4935 34.072 58.9575 33.088 60.8295 33.088C61.2135 33.088 61.6455 33.136 61.9095 33.208V35.152C61.6455 35.104 61.1655 35.056 60.7095 35.056C58.5255 35.056 56.8695 36.352 56.8695 39.448V46H54.8775V33.376H56.7735ZM74.8959 46.288V46.312C73.0959 46.312 71.5359 45.52 70.8399 44.2H70.7679V50.44H68.7759V33.376H70.6719V35.32H70.7439C71.4399 33.928 73.0479 33.088 74.8959 33.088C78.2319 33.088 80.5839 35.704 80.5839 39.688C80.5839 43.696 78.2319 46.288 74.8959 46.288ZM74.5599 34.768C72.2559 34.768 70.6479 36.616 70.6479 39.688C70.6479 42.784 72.2559 44.632 74.5599 44.632C76.9599 44.632 78.5199 42.784 78.5199 39.688C78.5199 36.616 76.9599 34.768 74.5599 34.768ZM91.4528 44.224H91.3808C90.5888 45.496 89.1248 46.288 87.3728 46.288C84.9248 46.288 82.8848 44.872 82.8848 41.8V33.376H84.9008V41.104C84.9008 43.6 85.8608 44.608 87.9008 44.608C89.6528 44.608 91.3568 43.312 91.3568 40.408V33.376H93.3728V46H91.4528V44.224ZM102.271 33.088C105.607 33.088 107.959 35.704 107.959 39.688C107.959 43.696 105.607 46.288 102.271 46.288C100.423 46.288 98.7909 45.424 98.1189 44.08H98.0469V46H96.1509V28.624H98.1429V35.2H98.2149C98.8869 33.928 100.471 33.088 102.271 33.088ZM101.935 44.632C104.335 44.632 105.895 42.784 105.895 39.688C105.895 36.616 104.335 34.768 101.935 34.768C99.6069 34.768 98.0229 36.616 98.0229 39.688C98.0229 42.784 99.6069 44.632 101.935 44.632ZM110.356 28.624H112.348V46H110.356V28.624ZM115.275 28.624H117.363V30.928H115.275V28.624ZM115.323 33.376H117.315V46H115.323V33.376ZM125.477 44.632C127.853 44.632 128.717 42.856 129.053 41.752L131.117 42.064C130.589 43.84 129.053 46.288 125.477 46.288C121.997 46.288 119.645 43.696 119.645 39.688C119.645 35.68 122.021 33.088 125.501 33.088C129.029 33.088 130.421 35.56 130.829 36.568L128.933 37.192C128.621 36.496 127.829 34.768 125.501 34.768C123.221 34.768 121.685 36.616 121.685 39.688C121.685 42.784 123.221 44.632 125.477 44.632ZM142.928 30.064C142.088 30.064 141.224 30.208 141.224 31.672V33.376H144.152V34.936H141.224V46.024H139.208V34.936H137.12V33.376H139.208V31.48C139.208 29.08 140.696 28.336 142.64 28.336C143.36 28.336 144.128 28.432 144.488 28.504V30.16C144.152 30.112 143.384 30.064 142.928 30.064ZM146.306 28.624H148.394V30.928H146.306V28.624ZM146.354 33.376H148.346V46H146.354V33.376ZM162.245 33.376V45.16C162.245 49.144 159.749 50.704 156.485 50.704C153.845 50.704 151.661 49.552 150.893 46.936L152.812 46.48C153.34 48.352 154.661 49.048 156.485 49.048C158.813 49.048 160.229 47.872 160.229 45.04V43.36H160.157C159.509 44.56 157.997 45.328 156.245 45.328C152.98 45.328 150.677 42.904 150.677 39.208C150.677 35.512 152.98 33.088 156.245 33.088C158.045 33.088 159.581 33.88 160.253 35.176H160.325V33.376H162.245ZM156.581 43.696C158.813 43.696 160.373 41.896 160.373 39.208C160.373 36.544 158.813 34.768 156.581 34.768C154.253 34.768 152.717 36.544 152.717 39.208C152.717 41.896 154.253 43.696 156.581 43.696ZM173.601 44.224H173.529C172.737 45.496 171.273 46.288 169.521 46.288C167.073 46.288 165.033 44.872 165.033 41.8V33.376H167.049V41.104C167.049 43.6 168.009 44.608 170.049 44.608C171.801 44.608 173.505 43.312 173.505 40.408V33.376H175.521V46H173.601V44.224ZM180.195 33.376V35.536H180.267C180.915 34.072 182.379 33.088 184.251 33.088C184.635 33.088 185.067 33.136 185.331 33.208V35.152C185.067 35.104 184.587 35.056 184.131 35.056C181.947 35.056 180.291 36.352 180.291 39.448V46H178.299V33.376H180.195ZM195.687 42.16L197.727 42.424C197.127 44.248 195.567 46.312 192.039 46.312C188.607 46.312 186.255 43.696 186.255 39.712C186.255 35.704 188.559 33.088 192.039 33.088C195.543 33.088 198.063 35.728 197.823 40.192H188.295C188.367 42.784 189.831 44.632 192.039 44.632C194.319 44.632 195.327 43.24 195.687 42.16ZM192.039 34.768C189.807 34.768 188.511 36.544 188.319 38.608H195.759C195.591 36.544 194.295 34.768 192.039 34.768ZM199.556 34.936V28.864H201.5V34.936H199.556ZM213.65 36.664L211.826 37.048C211.466 35.56 210.146 34.696 208.61 34.696C206.978 34.696 205.874 35.464 205.874 36.736C205.874 37.984 207.098 38.296 208.49 38.536L209.81 38.752C211.994 39.136 213.962 39.784 213.962 42.4C213.962 44.968 211.73 46.288 208.778 46.288C205.73 46.288 203.666 44.68 203.282 42.352L205.13 41.968C205.49 43.816 206.93 44.704 208.802 44.704C210.602 44.704 211.898 43.888 211.898 42.472C211.898 41.128 210.674 40.744 209.042 40.456L207.722 40.24C205.826 39.904 203.81 39.256 203.81 36.736C203.81 34.6 205.802 33.088 208.634 33.088C211.298 33.088 213.338 34.744 213.65 36.664ZM234.727 33.088C236.935 33.088 238.903 34.528 238.903 37.6V46H236.887V38.296C236.887 35.8 235.975 34.792 234.151 34.792C232.615 34.792 231.031 35.992 231.031 38.896V46H229.015V38.296C229.015 35.8 228.127 34.792 226.279 34.792C224.719 34.792 223.159 36.088 223.159 38.992V46H221.167V33.376H223.063V35.2H223.135C223.927 33.88 225.295 33.088 226.855 33.088C228.415 33.088 229.831 33.808 230.551 35.296C231.463 34 232.783 33.088 234.727 33.088ZM250.554 42.16L252.594 42.424C251.994 44.248 250.434 46.312 246.906 46.312C243.474 46.312 241.122 43.696 241.122 39.712C241.122 35.704 243.426 33.088 246.906 33.088C250.41 33.088 252.93 35.728 252.69 40.192H243.162C243.234 42.784 244.698 44.632 246.906 44.632C249.186 44.632 250.194 43.24 250.554 42.16ZM246.906 34.768C244.674 34.768 243.378 36.544 243.186 38.608H250.626C250.458 36.544 249.162 34.768 246.906 34.768ZM268.57 33.088C270.778 33.088 272.746 34.528 272.746 37.6V46H270.73V38.296C270.73 35.8 269.818 34.792 267.994 34.792C266.458 34.792 264.874 35.992 264.874 38.896V46H262.858V38.296C262.858 35.8 261.97 34.792 260.122 34.792C258.562 34.792 257.002 36.088 257.002 38.992V46H255.01V33.376H256.906V35.2H256.978C257.77 33.88 259.138 33.088 260.698 33.088C262.258 33.088 263.674 33.808 264.394 35.296C265.306 34 266.626 33.088 268.57 33.088ZM280.942 33.088C284.518 33.088 286.918 35.68 286.918 39.688C286.918 43.696 284.518 46.288 280.942 46.288C277.366 46.288 274.966 43.696 274.966 39.688C274.966 35.68 277.366 33.088 280.942 33.088ZM280.942 44.632C283.294 44.632 284.854 42.784 284.854 39.688C284.854 36.616 283.294 34.768 280.942 34.768C278.59 34.768 277.006 36.616 277.006 39.688C277.006 42.784 278.59 44.632 280.942 44.632ZM291.125 33.376V35.536H291.197C291.845 34.072 293.309 33.088 295.181 33.088C295.565 33.088 295.997 33.136 296.261 33.208V35.152C295.997 35.104 295.517 35.056 295.061 35.056C292.877 35.056 291.221 36.352 291.221 39.448V46H289.229V33.376H291.125ZM298.04 28.624H300.128V30.928H298.04V28.624ZM298.088 33.376H300.08V46H298.088V33.376ZM311.843 42.16L313.883 42.424C313.283 44.248 311.723 46.312 308.195 46.312C304.763 46.312 302.411 43.696 302.411 39.712C302.411 35.704 304.715 33.088 308.195 33.088C311.699 33.088 314.219 35.728 313.979 40.192H304.451C304.523 42.784 305.987 44.632 308.195 44.632C310.475 44.632 311.483 43.24 311.843 42.16ZM308.195 34.768C305.963 34.768 304.667 36.544 304.475 38.608H311.915C311.747 36.544 310.451 34.768 308.195 34.768ZM325.587 36.664L323.763 37.048C323.403 35.56 322.083 34.696 320.547 34.696C318.915 34.696 317.811 35.464 317.811 36.736C317.811 37.984 319.035 38.296 320.427 38.536L321.747 38.752C323.931 39.136 325.899 39.784 325.899 42.4C325.899 44.968 323.667 46.288 320.715 46.288C317.667 46.288 315.603 44.68 315.219 42.352L317.067 41.968C317.427 43.816 318.867 44.704 320.739 44.704C322.539 44.704 323.835 43.888 323.835 42.472C323.835 41.128 322.611 40.744 320.979 40.456L319.659 40.24C317.763 39.904 315.747 39.256 315.747 36.736C315.747 34.6 317.739 33.088 320.571 33.088C323.235 33.088 325.275 34.744 325.587 36.664ZM328.257 43.432H330.801V46H328.257V43.432Z" fill="black"/>
</svg>
