<svg width="160" height="22" viewBox="0 0 160 22" fill="none" xmlns="http://www.w3.org/2000/svg">
<path d="M2.744 8.328H11.744V10.152H2.744V16.128H12.128V18H0.584V0.863999H12.128V2.712H2.744V8.328ZM17.3323 15.432V17.568C17.3323 20.136 16.5643 21.36 14.8363 21.384V20.304C15.6523 20.256 16.0123 19.656 16.0123 18H14.7883V15.432H17.3323ZM27.7753 8.328H36.7753V10.152H27.7753V16.128H37.1593V18H25.6152V0.863999H37.1593V2.712H27.7753V8.328ZM42.3635 15.432V17.568C42.3635 20.136 41.5955 21.36 39.8675 21.384V20.304C40.6835 20.256 41.0435 19.656 41.0435 18H39.8195V15.432H42.3635ZM52.8065 8.328H61.8065V10.152H52.8065V16.128H62.1905V18H50.6465V0.863999H62.1905V2.712H52.8065V8.328ZM67.3948 15.432V17.568C67.3948 20.136 66.6268 21.36 64.8988 21.384V20.304C65.7148 20.256 66.0748 19.656 66.0748 18H64.8508V15.432H67.3948ZM77.8378 8.328H86.8378V10.152H77.8378V16.128H87.2218V18H75.6777V0.863999H87.2218V2.712H77.8378V8.328ZM92.426 15.432V17.568C92.426 20.136 91.658 21.36 89.93 21.384V20.304C90.746 20.256 91.106 19.656 91.106 18H89.882V15.432H92.426ZM112.037 11.448L116.645 11.856C116.021 15.48 113.045 18.384 108.461 18.384C103.445 18.384 99.869 15.144 99.869 9.432C99.869 3.744 103.445 0.503999 108.461 0.503999C112.853 0.503999 115.757 3.216 116.477 6.192L111.941 6.744C111.461 5.256 110.261 4.104 108.461 4.104C106.445 4.104 104.525 5.496 104.525 9.432C104.525 13.392 106.445 14.784 108.461 14.784C110.405 14.784 111.653 13.464 112.037 11.448ZM128.71 14.424H122.35L121.198 18H116.422L122.494 0.863999H128.662L134.734 18H129.862L128.71 14.424ZM127.678 11.184L125.542 4.608H125.446L123.358 11.184H127.678ZM151.646 18H146.534L140.222 6.84H140.126V18H135.974V0.863999H141.206L147.398 11.784H147.494V0.863999H151.646V18ZM155.123 12.096L154.403 4.608V0.863999H158.963V4.608L158.267 12.096H155.123ZM154.379 13.704H159.011V18H154.379V13.704Z" fill="black"/>
</svg>
