<svg width="301" height="51" viewBox="0 0 301 51" fill="none" xmlns="http://www.w3.org/2000/svg">
<path d="M1.656 18V0.863999H3.816V18H1.656ZM8.79694 7.176H8.86894C9.66094 5.88 11.1489 5.088 12.8769 5.088C15.3249 5.088 17.3649 6.528 17.3649 9.6V18H15.3489V10.296C15.3489 7.8 14.3889 6.792 12.3489 6.792C10.6209 6.792 8.89294 8.088 8.89294 10.992V18H6.90094V5.376H8.79694V7.176ZM39.8702 5.184H34.6862V18H29.4062V5.184H24.2222V0.863999H39.8702V5.184ZM51.7114 18L48.8074 12.576H46.7434V18H41.4634V0.863999H50.5594C54.7354 0.863999 57.2554 2.976 57.2554 6.72C57.2554 9.216 56.1274 10.992 54.1594 11.904L57.8314 18H51.7114ZM46.7434 8.616H49.6234C51.1354 8.616 51.8794 7.872 51.8794 6.72C51.8794 5.568 51.1354 4.824 49.6234 4.824H46.7434V8.616ZM58.9243 18V0.863999H64.2043V18H58.9243ZM77.8009 11.208L83.1529 11.616C82.5289 15.552 79.3369 18.384 74.7049 18.384C69.5929 18.384 65.9209 15.216 65.9209 9.432C65.9209 3.648 69.5929 0.48 74.7049 0.48C79.2409 0.48 82.3369 3.264 83.0569 6.528L77.7529 7.08C77.3689 5.664 76.2889 4.608 74.7049 4.608C73.1689 4.608 71.2969 5.592 71.2969 9.432C71.2969 13.272 73.1689 14.256 74.7049 14.256C76.2889 14.256 77.4649 13.2 77.8009 11.208ZM91.4016 11.376L90.0816 12.864V18H84.8016V0.863999H90.0816V6.768L94.9536 0.863999H100.858L95.0016 7.44L101.626 18H95.4096L91.4016 11.376ZM117.922 18L115.018 12.576H112.954V18H107.674V0.863999H116.77C120.946 0.863999 123.466 2.976 123.466 6.72C123.466 9.216 122.338 10.992 120.37 11.904L124.042 18H117.922ZM112.954 8.616H115.834C117.346 8.616 118.09 7.872 118.09 6.72C118.09 5.568 117.346 4.824 115.834 4.824H112.954V8.616ZM133.607 0.48C138.719 0.48 142.559 3.624 142.559 9.432C142.559 15.24 138.719 18.384 133.607 18.384C128.495 18.384 124.655 15.24 124.655 9.432C124.655 3.624 128.495 0.48 133.607 0.48ZM133.607 14.256C135.359 14.256 137.183 13.272 137.183 9.432C137.183 5.592 135.359 4.608 133.607 4.608C131.855 4.608 130.031 5.592 130.031 9.432C130.031 13.272 131.855 14.256 133.607 14.256ZM152.756 0.48C157.868 0.48 161.708 3.624 161.708 9.432C161.708 15.24 157.868 18.384 152.756 18.384C147.644 18.384 143.804 15.24 143.804 9.432C143.804 3.624 147.644 0.48 152.756 0.48ZM152.756 14.256C154.508 14.256 156.332 13.272 156.332 9.432C156.332 5.592 154.508 4.608 152.756 4.608C151.004 4.608 149.18 5.592 149.18 9.432C149.18 13.272 151.004 14.256 152.756 14.256ZM183.16 0.863999V18H178.264V6.504H178.168L175.048 18H171.448L168.328 6.504H168.232V18H163.432V0.863999H171.208L173.272 10.128H173.368L175.432 0.863999H183.16ZM190.65 13.2V16.344C190.65 20.472 189.33 22.224 185.442 22.464V20.16C186.546 20.064 187.098 19.416 187.098 18H185.418V13.2H190.65ZM216.028 5.376L211.828 18H209.596L206.476 8.112H206.404L203.284 18H201.148L196.948 5.376H199.156L202.252 15.528H202.324L205.372 5.376H207.676L210.724 15.528H210.796L213.892 5.376H216.028ZM225.991 14.16L228.031 14.424C227.431 16.248 225.871 18.312 222.343 18.312C218.911 18.312 216.559 15.696 216.559 11.712C216.559 7.704 218.863 5.088 222.343 5.088C225.847 5.088 228.367 7.728 228.127 12.192H218.599C218.671 14.784 220.135 16.632 222.343 16.632C224.623 16.632 225.631 15.24 225.991 14.16ZM222.343 6.768C220.111 6.768 218.815 8.544 218.623 10.608H226.063C225.895 8.544 224.599 6.768 222.343 6.768ZM240.119 16.296C240.479 16.296 241.079 16.296 241.391 16.272V18.024C241.079 18.048 240.359 18.072 239.735 18.072C237.479 18.072 236.567 17.496 236.567 15.288V6.936H234.479V5.376H236.567V1.752H238.583V5.376H241.511V6.936H238.583V14.784C238.583 16.032 238.991 16.296 240.119 16.296ZM252.117 16.224H252.045C251.253 17.496 249.789 18.288 248.037 18.288C245.589 18.288 243.549 16.872 243.549 13.8V5.376H245.565V13.104C245.565 15.6 246.525 16.608 248.565 16.608C250.317 16.608 252.021 15.312 252.021 12.408V5.376H254.037V18H252.117V16.224ZM258.711 5.376V7.536H258.783C259.431 6.072 260.895 5.088 262.767 5.088C263.151 5.088 263.583 5.136 263.847 5.208V7.152C263.583 7.104 263.103 7.056 262.647 7.056C260.463 7.056 258.807 8.352 258.807 11.448V18H256.815V5.376H258.711ZM267.57 7.176H267.642C268.434 5.88 269.922 5.088 271.65 5.088C274.098 5.088 276.138 6.528 276.138 9.6V18H274.122V10.296C274.122 7.8 273.162 6.792 271.122 6.792C269.394 6.792 267.666 8.088 267.666 10.992V18H265.674V5.376H267.57V7.176ZM6.696 44.632C9.072 44.632 9.936 42.856 10.272 41.752L12.336 42.064C11.808 43.84 10.272 46.288 6.696 46.288C3.216 46.288 0.864 43.696 0.864 39.688C0.864 35.68 3.24 33.088 6.72 33.088C10.248 33.088 11.64 35.56 12.048 36.568L10.152 37.192C9.84 36.496 9.048 34.768 6.72 34.768C4.44 34.768 2.904 36.616 2.904 39.688C2.904 42.784 4.44 44.632 6.696 44.632ZM19.7072 33.088C23.2832 33.088 25.6832 35.68 25.6832 39.688C25.6832 43.696 23.2832 46.288 19.7072 46.288C16.1312 46.288 13.7312 43.696 13.7312 39.688C13.7312 35.68 16.1312 33.088 19.7072 33.088ZM19.7072 44.632C22.0592 44.632 23.6192 42.784 23.6192 39.688C23.6192 36.616 22.0592 34.768 19.7072 34.768C17.3552 34.768 15.7712 36.616 15.7712 39.688C15.7712 42.784 17.3552 44.632 19.7072 44.632ZM41.5547 33.088C43.7627 33.088 45.7307 34.528 45.7307 37.6V46H43.7147V38.296C43.7147 35.8 42.8027 34.792 40.9787 34.792C39.4427 34.792 37.8587 35.992 37.8587 38.896V46H35.8427V38.296C35.8427 35.8 34.9547 34.792 33.1067 34.792C31.5467 34.792 29.9867 36.088 29.9867 38.992V46H27.9947V33.376H29.8907V35.2H29.9627C30.7547 33.88 32.1227 33.088 33.6827 33.088C35.2427 33.088 36.6587 33.808 37.3787 35.296C38.2907 34 39.6107 33.088 41.5547 33.088ZM54.6459 46.288V46.312C52.8459 46.312 51.2859 45.52 50.5899 44.2H50.5179V50.44H48.5259V33.376H50.4219V35.32H50.4939C51.1899 33.928 52.7979 33.088 54.6459 33.088C57.9819 33.088 60.3339 35.704 60.3339 39.688C60.3339 43.696 57.9819 46.288 54.6459 46.288ZM54.3099 34.768C52.0059 34.768 50.3979 36.616 50.3979 39.688C50.3979 42.784 52.0059 44.632 54.3099 44.632C56.7099 44.632 58.2699 42.784 58.2699 39.688C58.2699 36.616 56.7099 34.768 54.3099 34.768ZM71.5148 42.16L73.5547 42.424C72.9548 44.248 71.3948 46.312 67.8668 46.312C64.4348 46.312 62.0828 43.696 62.0828 39.712C62.0828 35.704 64.3867 33.088 67.8668 33.088C71.3708 33.088 73.8907 35.728 73.6508 40.192H64.1228C64.1948 42.784 65.6588 44.632 67.8668 44.632C70.1468 44.632 71.1548 43.24 71.5148 42.16ZM67.8668 34.768C65.6348 34.768 64.3388 36.544 64.1468 38.608H71.5868C71.4188 36.544 70.1228 34.768 67.8668 34.768ZM80.1579 44.296C80.5179 44.296 81.1179 44.296 81.4299 44.272V46.024C81.1179 46.048 80.3979 46.072 79.7739 46.072C77.5179 46.072 76.6059 45.496 76.6059 43.288V34.936H74.5179V33.376H76.6059V29.752H78.6219V33.376H81.5499V34.936H78.6219V42.784C78.6219 44.032 79.0299 44.296 80.1579 44.296ZM83.5639 28.624H85.6519V30.928H83.5639V28.624ZM83.6119 33.376H85.6039V46H83.6119V33.376ZM93.1423 44.296C93.5023 44.296 94.1023 44.296 94.4143 44.272V46.024C94.1023 46.048 93.3823 46.072 92.7583 46.072C90.5023 46.072 89.5903 45.496 89.5903 43.288V34.936H87.5023V33.376H89.5903V29.752H91.6063V33.376H94.5343V34.936H91.6063V42.784C91.6063 44.032 92.0143 44.296 93.1423 44.296ZM96.5483 28.624H98.6363V30.928H96.5483V28.624ZM96.5963 33.376H98.5883V46H96.5963V33.376ZM106.895 33.088C110.471 33.088 112.871 35.68 112.871 39.688C112.871 43.696 110.471 46.288 106.895 46.288C103.319 46.288 100.919 43.696 100.919 39.688C100.919 35.68 103.319 33.088 106.895 33.088ZM106.895 44.632C109.247 44.632 110.807 42.784 110.807 39.688C110.807 36.616 109.247 34.768 106.895 34.768C104.543 34.768 102.959 36.616 102.959 39.688C102.959 42.784 104.543 44.632 106.895 44.632ZM117.078 35.176H117.15C117.942 33.88 119.43 33.088 121.158 33.088C123.606 33.088 125.646 34.528 125.646 37.6V46H123.63V38.296C123.63 35.8 122.67 34.792 120.63 34.792C118.902 34.792 117.174 36.088 117.174 38.992V46H115.182V33.376H117.078V35.176ZM133.415 28.624H135.503V30.928H133.415V28.624ZM133.463 33.376H135.455V46H133.463V33.376ZM140.258 35.176H140.33C141.122 33.88 142.61 33.088 144.338 33.088C146.786 33.088 148.826 34.528 148.826 37.6V46H146.81V38.296C146.81 35.8 145.85 34.792 143.81 34.792C142.082 34.792 140.354 36.088 140.354 38.992V46H138.362V33.376H140.258V35.176ZM156.049 44.296C156.409 44.296 157.009 44.296 157.321 44.272V46.024C157.009 46.048 156.289 46.072 155.665 46.072C153.409 46.072 152.497 45.496 152.497 43.288V34.936H150.409V33.376H152.497V29.752H154.513V33.376H157.441V34.936H154.513V42.784C154.513 44.032 154.921 44.296 156.049 44.296ZM164.387 33.088C167.963 33.088 170.363 35.68 170.363 39.688C170.363 43.696 167.963 46.288 164.387 46.288C160.811 46.288 158.411 43.696 158.411 39.688C158.411 35.68 160.811 33.088 164.387 33.088ZM164.387 44.632C166.739 44.632 168.299 42.784 168.299 39.688C168.299 36.616 166.739 34.768 164.387 34.768C162.035 34.768 160.451 36.616 160.451 39.688C160.451 42.784 162.035 44.632 164.387 44.632ZM182.969 44.632C185.345 44.632 186.209 42.856 186.545 41.752L188.609 42.064C188.081 43.84 186.545 46.288 182.969 46.288C179.489 46.288 177.137 43.696 177.137 39.688C177.137 35.68 179.513 33.088 182.993 33.088C186.521 33.088 187.913 35.56 188.321 36.568L186.425 37.192C186.113 36.496 185.321 34.768 182.993 34.768C180.713 34.768 179.177 36.616 179.177 39.688C179.177 42.784 180.713 44.632 182.969 44.632ZM199.437 42.16L201.477 42.424C200.877 44.248 199.317 46.312 195.789 46.312C192.357 46.312 190.005 43.696 190.005 39.712C190.005 35.704 192.309 33.088 195.789 33.088C199.293 33.088 201.813 35.728 201.573 40.192H192.045C192.117 42.784 193.581 44.632 195.789 44.632C198.069 44.632 199.077 43.24 199.437 42.16ZM195.789 34.768C193.557 34.768 192.261 36.544 192.069 38.608H199.509C199.341 36.544 198.045 34.768 195.789 34.768ZM203.965 28.624H205.957V46H203.965V28.624ZM217.788 42.16L219.828 42.424C219.228 44.248 217.668 46.312 214.14 46.312C210.708 46.312 208.356 43.696 208.356 39.712C208.356 35.704 210.66 33.088 214.14 33.088C217.644 33.088 220.164 35.728 219.924 40.192H210.396C210.468 42.784 211.932 44.632 214.14 44.632C216.42 44.632 217.428 43.24 217.788 42.16ZM214.14 34.768C211.908 34.768 210.612 36.544 210.42 38.608H217.86C217.692 36.544 216.396 34.768 214.14 34.768ZM228.365 33.088C231.701 33.088 234.053 35.704 234.053 39.688C234.053 43.696 231.701 46.288 228.365 46.288C226.517 46.288 224.885 45.424 224.213 44.08H224.141V46H222.245V28.624H224.237V35.2H224.309C224.981 33.928 226.565 33.088 228.365 33.088ZM228.029 44.632C230.429 44.632 231.989 42.784 231.989 39.688C231.989 36.616 230.429 34.768 228.029 34.768C225.701 34.768 224.117 36.616 224.117 39.688C224.117 42.784 225.701 44.632 228.029 44.632ZM238.274 33.376V35.536H238.346C238.994 34.072 240.458 33.088 242.33 33.088C242.714 33.088 243.146 33.136 243.41 33.208V35.152C243.146 35.104 242.666 35.056 242.21 35.056C240.026 35.056 238.37 36.352 238.37 39.448V46H236.378V33.376H238.274ZM255.153 46H253.185C253.017 45.808 252.873 45.16 252.849 44.224C251.889 45.784 249.873 46.288 248.361 46.288C246.153 46.288 244.329 44.848 244.329 42.568C244.329 39.784 246.561 38.92 249.657 38.56C252.225 38.248 252.801 37.912 252.801 37.024C252.801 35.704 251.985 34.768 249.921 34.768C248.553 34.768 247.161 35.368 246.657 37.12L244.809 36.688C245.385 34.288 247.473 33.088 249.993 33.088C253.473 33.088 254.817 34.792 254.817 36.976V43.096C254.817 44.584 254.865 45.352 255.153 46ZM252.801 40.984V39.256C252.393 39.712 250.857 39.904 249.465 40.096C248.097 40.288 246.369 40.912 246.369 42.568C246.369 43.912 247.305 44.656 248.745 44.656C250.425 44.656 252.801 43.816 252.801 40.984ZM262.197 44.296C262.557 44.296 263.157 44.296 263.469 44.272V46.024C263.157 46.048 262.437 46.072 261.813 46.072C259.557 46.072 258.645 45.496 258.645 43.288V34.936H256.557V33.376H258.645V29.752H260.661V33.376H263.589V34.936H260.661V42.784C260.661 44.032 261.069 44.296 262.197 44.296ZM265.603 28.624H267.691V30.928H265.603V28.624ZM265.651 33.376H267.643V46H265.651V33.376ZM275.949 33.088C279.525 33.088 281.925 35.68 281.925 39.688C281.925 43.696 279.525 46.288 275.949 46.288C272.373 46.288 269.973 43.696 269.973 39.688C269.973 35.68 272.373 33.088 275.949 33.088ZM275.949 44.632C278.301 44.632 279.861 42.784 279.861 39.688C279.861 36.616 278.301 34.768 275.949 34.768C273.597 34.768 272.013 36.616 272.013 39.688C272.013 42.784 273.597 44.632 275.949 44.632ZM286.133 35.176H286.205C286.997 33.88 288.485 33.088 290.213 33.088C292.661 33.088 294.701 34.528 294.701 37.6V46H292.685V38.296C292.685 35.8 291.725 34.792 289.685 34.792C287.957 34.792 286.229 36.088 286.229 38.992V46H284.237V33.376H286.133V35.176ZM297.671 43.432H300.215V46H297.671V43.432Z" fill="black"/>
</svg>
