<svg width="355" height="79" viewBox="0 0 355 79" fill="none" xmlns="http://www.w3.org/2000/svg">
<path d="M1.224 0.864487H9.672C13.752 0.864487 16.152 3.00049 16.152 6.64849C16.152 10.2725 13.752 12.4085 9.672 12.4085H5.784V18.0005H1.224V0.864487ZM5.784 8.90449H8.856C10.608 8.90449 11.496 8.04049 11.496 6.64849C11.496 5.23249 10.608 4.36849 8.856 4.36849H5.784V8.90449ZM17.9349 18.0005V0.864487H22.5189V14.2565H31.1829V18.0005H17.9349ZM43.8349 14.4245H37.4749L36.3229 18.0005H31.5469L37.6189 0.864487H43.7869L49.8589 18.0005H44.9869L43.8349 14.4245ZM42.8029 11.1845L40.6669 4.60849H40.5709L38.4829 11.1845H42.8029ZM64.0288 0.864487L57.9088 11.6165V18.0005H53.3488V11.6165L47.2288 0.864487H52.2208L55.6768 7.65649L59.1328 0.864487H64.0288ZM75.8364 18.0005L72.6204 12.2165H69.9324V18.0005H65.3724V0.864487H74.1564C78.2364 0.864487 80.6364 2.97649 80.6364 6.55249C80.6364 9.07249 79.4604 10.8725 77.3004 11.6885L81.1404 18.0005H75.8364ZM69.9324 8.73649H73.3884C75.1164 8.73649 76.0044 7.89649 76.0044 6.55249C76.0044 5.20849 75.1164 4.36849 73.3884 4.36849H69.9324V8.73649ZM90.7847 0.480488C95.8247 0.480488 99.4967 3.72049 99.4967 9.43249C99.4967 15.1685 95.8247 18.3845 90.7847 18.3845C85.7207 18.3845 82.0487 15.1685 82.0487 9.43249C82.0487 3.72049 85.7207 0.480488 90.7847 0.480488ZM90.7847 14.7845C92.9687 14.7845 94.8647 13.3925 94.8647 9.43249C94.8647 5.49649 92.9687 4.10449 90.7847 4.10449C88.6007 4.10449 86.7047 5.49649 86.7047 9.43249C86.7047 13.3925 88.6007 14.7845 90.7847 14.7845ZM109.746 0.480488C114.786 0.480488 118.458 3.72049 118.458 9.43249C118.458 15.1685 114.786 18.3845 109.746 18.3845C104.682 18.3845 101.01 15.1685 101.01 9.43249C101.01 3.72049 104.682 0.480488 109.746 0.480488ZM109.746 14.7845C111.93 14.7845 113.826 13.3925 113.826 9.43249C113.826 5.49649 111.93 4.10449 109.746 4.10449C107.562 4.10449 105.666 5.49649 105.666 9.43249C105.666 13.3925 107.562 14.7845 109.746 14.7845ZM139.411 0.864487V18.0005H135.163V6.00049H135.067L131.491 18.0005H128.275L124.699 6.00049H124.603V18.0005H120.451V0.864487H127.147L129.907 11.2325H130.003L132.739 0.864487H139.411ZM147.08 0.624487H149.168V2.92849H147.08V0.624487ZM147.128 5.37649H149.12V18.0005H147.128V5.37649ZM161.314 8.66449L159.49 9.04849C159.13 7.56049 157.81 6.69649 156.274 6.69649C154.642 6.69649 153.538 7.46449 153.538 8.73649C153.538 9.98449 154.762 10.2965 156.154 10.5365L157.474 10.7525C159.658 11.1365 161.626 11.7845 161.626 14.4005C161.626 16.9685 159.394 18.2885 156.442 18.2885C153.394 18.2885 151.33 16.6805 150.946 14.3525L152.794 13.9685C153.154 15.8165 154.594 16.7045 156.466 16.7045C158.266 16.7045 159.562 15.8885 159.562 14.4725C159.562 13.1285 158.338 12.7445 156.706 12.4565L155.386 12.2405C153.49 11.9045 151.474 11.2565 151.474 8.73649C151.474 6.60049 153.466 5.08849 156.298 5.08849C158.962 5.08849 161.002 6.74449 161.314 8.66449ZM178.935 18.0005H176.967C176.799 17.8085 176.655 17.1605 176.631 16.2245C175.671 17.7845 173.655 18.2885 172.143 18.2885C169.935 18.2885 168.111 16.8485 168.111 14.5685C168.111 11.7845 170.343 10.9205 173.439 10.5605C176.007 10.2485 176.583 9.91249 176.583 9.02449C176.583 7.70449 175.767 6.76849 173.703 6.76849C172.335 6.76849 170.943 7.36849 170.439 9.12049L168.591 8.68849C169.167 6.28849 171.255 5.08849 173.775 5.08849C177.255 5.08849 178.599 6.79249 178.599 8.97649V15.0965C178.599 16.5845 178.647 17.3525 178.935 18.0005ZM176.583 12.9845V11.2565C176.175 11.7125 174.639 11.9045 173.247 12.0965C171.879 12.2885 170.151 12.9125 170.151 14.5685C170.151 15.9125 171.087 16.6565 172.527 16.6565C174.207 16.6565 176.583 15.8165 176.583 12.9845ZM188.448 7.20049H188.52C189.312 5.90449 190.8 5.08849 192.48 5.08849C194.88 5.08849 196.92 6.52849 196.92 9.60049V18.0005H194.904V10.2965C194.904 7.80049 193.944 6.79249 191.904 6.79249C190.224 6.79249 188.448 8.28049 188.448 11.1605V18.0005H186.432V0.624487H188.448V7.20049ZM205.098 5.08849C208.674 5.08849 211.074 7.68049 211.074 11.6885C211.074 15.6965 208.674 18.2885 205.098 18.2885C201.522 18.2885 199.122 15.6965 199.122 11.6885C199.122 7.68049 201.522 5.08849 205.098 5.08849ZM205.098 16.6325C207.45 16.6325 209.01 14.7845 209.01 11.6885C209.01 8.61649 207.45 6.76849 205.098 6.76849C202.746 6.76849 201.162 8.61649 201.162 11.6885C201.162 14.7845 202.746 16.6325 205.098 16.6325ZM226.945 5.08849C229.153 5.08849 231.121 6.52849 231.121 9.60049V18.0005H229.105V10.2965C229.105 7.80049 228.193 6.79249 226.369 6.79249C224.833 6.79249 223.249 7.99249 223.249 10.8965V18.0005H221.233V10.2965C221.233 7.80049 220.345 6.79249 218.497 6.79249C216.937 6.79249 215.377 8.08849 215.377 10.9925V18.0005H213.385V5.37649H215.281V7.20049H215.353C216.145 5.88049 217.513 5.08849 219.073 5.08849C220.633 5.08849 222.049 5.80849 222.769 7.29649C223.681 6.00049 225.001 5.08849 226.945 5.08849ZM242.773 14.1605L244.813 14.4245C244.213 16.2485 242.653 18.3125 239.125 18.3125C235.693 18.3125 233.341 15.6965 233.341 11.7125C233.341 7.70449 235.645 5.08849 239.125 5.08849C242.629 5.08849 245.149 7.72849 244.909 12.1925H235.381C235.453 14.7845 236.917 16.6325 239.125 16.6325C241.405 16.6325 242.413 15.2405 242.773 14.1605ZM239.125 6.76849C236.893 6.76849 235.597 8.54449 235.405 10.6085H242.845C242.677 8.54449 241.381 6.76849 239.125 6.76849ZM257.068 2.06449C256.228 2.06449 255.364 2.20849 255.364 3.67249V5.37649H258.292V6.93649H255.364V18.0245H253.348V6.93649H251.26V5.37649H253.348V3.48049C253.348 1.08049 254.836 0.336487 256.78 0.336487C257.5 0.336487 258.268 0.432487 258.628 0.504488V2.16049C258.292 2.11249 257.524 2.06449 257.068 2.06449ZM265.145 5.08849C268.721 5.08849 271.121 7.68049 271.121 11.6885C271.121 15.6965 268.721 18.2885 265.145 18.2885C261.569 18.2885 259.169 15.6965 259.169 11.6885C259.169 7.68049 261.569 5.08849 265.145 5.08849ZM265.145 16.6325C267.497 16.6325 269.057 14.7845 269.057 11.6885C269.057 8.61649 267.497 6.76849 265.145 6.76849C262.793 6.76849 261.209 8.61649 261.209 11.6885C261.209 14.7845 262.793 16.6325 265.145 16.6325ZM275.328 5.37649V7.53649H275.4C276.048 6.07249 277.512 5.08849 279.384 5.08849C279.768 5.08849 280.2 5.13649 280.464 5.20849V7.15249C280.2 7.10449 279.72 7.05649 279.264 7.05649C277.08 7.05649 275.424 8.35249 275.424 11.4485V18.0005H273.432V5.37649H275.328ZM289.323 13.0325V18.0005H287.331V0.624487H289.323V10.7285L294.963 5.37649H297.531L292.347 10.2245L298.131 18.0005H295.707L290.955 11.5445L289.323 13.0325ZM299.423 0.624487H301.511V2.92849H299.423V0.624487ZM299.471 5.37649H301.463V18.0005H299.471V5.37649ZM309.482 5.08849C311.282 5.08849 312.842 5.92849 313.514 7.20049H313.586V0.624487H315.602V18.0005H313.682V16.0805H313.61C312.962 17.4245 311.33 18.2885 309.482 18.2885C306.146 18.2885 303.794 15.6965 303.794 11.6885C303.794 7.68049 306.146 5.08849 309.482 5.08849ZM309.818 16.6325C312.122 16.6325 313.73 14.7845 313.73 11.6885C313.73 8.61649 312.122 6.76849 309.818 6.76849C307.418 6.76849 305.834 8.61649 305.834 11.6885C305.834 14.7845 307.418 16.6325 309.818 16.6325ZM327.697 8.66449L325.873 9.04849C325.513 7.56049 324.193 6.69649 322.657 6.69649C321.025 6.69649 319.921 7.46449 319.921 8.73649C319.921 9.98449 321.145 10.2965 322.537 10.5365L323.857 10.7525C326.041 11.1365 328.009 11.7845 328.009 14.4005C328.009 16.9685 325.777 18.2885 322.825 18.2885C319.777 18.2885 317.713 16.6805 317.329 14.3525L319.177 13.9685C319.537 15.8165 320.977 16.7045 322.849 16.7045C324.649 16.7045 325.945 15.8885 325.945 14.4725C325.945 13.1285 324.721 12.7445 323.089 12.4565L321.769 12.2405C319.873 11.9045 317.857 11.2565 317.857 8.73649C317.857 6.60049 319.849 5.08849 322.681 5.08849C325.345 5.08849 327.385 6.74449 327.697 8.66449ZM339.845 16.2965C340.205 16.2965 340.805 16.2965 341.117 16.2725V18.0245C340.805 18.0485 340.085 18.0725 339.461 18.0725C337.205 18.0725 336.293 17.4965 336.293 15.2885V6.93649H334.205V5.37649H336.293V1.75249H338.309V5.37649H341.237V6.93649H338.309V14.7845C338.309 16.0325 338.717 16.2965 339.845 16.2965ZM348.184 5.08849C351.76 5.08849 354.16 7.68049 354.16 11.6885C354.16 15.6965 351.76 18.2885 348.184 18.2885C344.608 18.2885 342.208 15.6965 342.208 11.6885C342.208 7.68049 344.608 5.08849 348.184 5.08849ZM348.184 16.6325C350.536 16.6325 352.096 14.7845 352.096 11.6885C352.096 8.61649 350.536 6.76849 348.184 6.76849C345.832 6.76849 344.248 8.61649 344.248 11.6885C344.248 14.7845 345.832 16.6325 348.184 16.6325ZM6.072 44.2965C6.432 44.2965 7.032 44.2965 7.344 44.2725V46.0245C7.032 46.0485 6.312 46.0725 5.688 46.0725C3.432 46.0725 2.52 45.4965 2.52 43.2885V34.9365H0.432V33.3765H2.52V29.7525H4.536V33.3765H7.464V34.9365H4.536V42.7845C4.536 44.0325 4.944 44.2965 6.072 44.2965ZM11.4219 33.3765V35.5365H11.4939C12.1419 34.0725 13.6059 33.0885 15.4779 33.0885C15.8619 33.0885 16.2939 33.1365 16.5579 33.2085V35.1525C16.2939 35.1045 15.8139 35.0565 15.3579 35.0565C13.1739 35.0565 11.5179 36.3525 11.5179 39.4485V46.0005H9.52594V33.3765H11.4219ZM29.2489 33.3765L24.3529 46.0245C22.7449 50.2005 21.5209 50.7285 19.8169 50.7285C19.1449 50.7285 18.7129 50.6565 18.4729 50.6325V48.8565C18.6409 48.8805 18.9529 48.9525 19.5529 48.9525C20.7289 48.9525 21.3289 48.4965 22.1449 46.4805L22.3849 45.8805L17.2729 33.3765H19.4809L23.3209 43.4805H23.3929L27.0889 33.3765H29.2489ZM32.4416 43.4325V45.5685C32.4416 48.1365 31.6736 49.3605 29.9456 49.3845V48.3045C30.7616 48.2565 31.1216 47.6565 31.1216 46.0005H29.8976V43.4325H32.4416ZM49.4366 42.1605L51.4766 42.4245C50.8766 44.2485 49.3166 46.3125 45.7886 46.3125C42.3566 46.3125 40.0046 43.6965 40.0046 39.7125C40.0046 35.7045 42.3086 33.0885 45.7886 33.0885C49.2926 33.0885 51.8126 35.7285 51.5726 40.1925H42.0446C42.1166 42.7845 43.5806 44.6325 45.7886 44.6325C48.0686 44.6325 49.0766 43.2405 49.4366 42.1605ZM45.7886 34.7685C43.5566 34.7685 42.2606 36.5445 42.0686 38.6085H49.5086C49.3406 36.5445 48.0446 34.7685 45.7886 34.7685ZM60.7562 46.0005L57.3482 41.0565L53.8682 46.0005H51.5882L56.1482 39.5685L51.8282 33.3765H54.1802L57.3962 38.0565L60.5882 33.3765H62.8922L58.5722 39.5205L63.1562 46.0005H60.7562ZM70.8178 46.2885V46.3125C69.0178 46.3125 67.4578 45.5205 66.7618 44.2005H66.6898V50.4405H64.6978V33.3765H66.5938V35.3205H66.6658C67.3618 33.9285 68.9698 33.0885 70.8178 33.0885C74.1538 33.0885 76.5058 35.7045 76.5058 39.6885C76.5058 43.6965 74.1538 46.2885 70.8178 46.2885ZM70.4818 34.7685C68.1778 34.7685 66.5698 36.6165 66.5698 39.6885C66.5698 42.7845 68.1778 44.6325 70.4818 44.6325C72.8818 44.6325 74.4418 42.7845 74.4418 39.6885C74.4418 36.6165 72.8818 34.7685 70.4818 34.7685ZM78.9026 28.6245H80.8946V46.0005H78.9026V28.6245ZM89.2697 33.0885C92.8457 33.0885 95.2457 35.6805 95.2457 39.6885C95.2457 43.6965 92.8457 46.2885 89.2697 46.2885C85.6937 46.2885 83.2937 43.6965 83.2937 39.6885C83.2937 35.6805 85.6937 33.0885 89.2697 33.0885ZM89.2697 44.6325C91.6217 44.6325 93.1817 42.7845 93.1817 39.6885C93.1817 36.6165 91.6217 34.7685 89.2697 34.7685C86.9177 34.7685 85.3337 36.6165 85.3337 39.6885C85.3337 42.7845 86.9177 44.6325 89.2697 44.6325ZM99.4532 33.3765V35.5365H99.5252C100.173 34.0725 101.637 33.0885 103.509 33.0885C103.893 33.0885 104.325 33.1365 104.589 33.2085V35.1525C104.325 35.1045 103.845 35.0565 103.389 35.0565C101.205 35.0565 99.5492 36.3525 99.5492 39.4485V46.0005H97.5572V33.3765H99.4532ZM114.944 42.1605L116.984 42.4245C116.384 44.2485 114.824 46.3125 111.296 46.3125C107.864 46.3125 105.512 43.6965 105.512 39.7125C105.512 35.7045 107.816 33.0885 111.296 33.0885C114.8 33.0885 117.32 35.7285 117.08 40.1925H107.552C107.624 42.7845 109.088 44.6325 111.296 44.6325C113.576 44.6325 114.584 43.2405 114.944 42.1605ZM111.296 34.7685C109.064 34.7685 107.768 36.5445 107.576 38.6085H115.016C114.848 36.5445 113.552 34.7685 111.296 34.7685ZM122.137 43.4325V45.5685C122.137 48.1365 121.369 49.3605 119.641 49.3845V48.3045C120.457 48.2565 120.817 47.6565 120.817 46.0005H119.593V43.4325H122.137ZM140.38 46.0005H138.412C138.244 45.8085 138.1 45.1605 138.076 44.2245C137.116 45.7845 135.1 46.2885 133.588 46.2885C131.38 46.2885 129.556 44.8485 129.556 42.5685C129.556 39.7845 131.788 38.9205 134.884 38.5605C137.452 38.2485 138.028 37.9125 138.028 37.0245C138.028 35.7045 137.212 34.7685 135.148 34.7685C133.78 34.7685 132.388 35.3685 131.884 37.1205L130.036 36.6885C130.612 34.2885 132.7 33.0885 135.22 33.0885C138.7 33.0885 140.044 34.7925 140.044 36.9765V43.0965C140.044 44.5845 140.092 45.3525 140.38 46.0005ZM138.028 40.9845V39.2565C137.62 39.7125 136.084 39.9045 134.692 40.0965C133.324 40.2885 131.596 40.9125 131.596 42.5685C131.596 43.9125 132.532 44.6565 133.972 44.6565C135.652 44.6565 138.028 43.8165 138.028 40.9845ZM144.758 35.1765H144.83C145.622 33.8805 147.11 33.0885 148.838 33.0885C151.286 33.0885 153.326 34.5285 153.326 37.6005V46.0005H151.31V38.2965C151.31 35.8005 150.35 34.7925 148.31 34.7925C146.582 34.7925 144.854 36.0885 144.854 38.9925V46.0005H142.862V33.3765H144.758V35.1765ZM161.216 33.0885C163.016 33.0885 164.576 33.9285 165.248 35.2005H165.32V28.6245H167.336V46.0005H165.416V44.0805H165.344C164.696 45.4245 163.064 46.2885 161.216 46.2885C157.88 46.2885 155.528 43.6965 155.528 39.6885C155.528 35.6805 157.88 33.0885 161.216 33.0885ZM161.552 44.6325C163.856 44.6325 165.464 42.7845 165.464 39.6885C165.464 36.6165 163.856 34.7685 161.552 34.7685C159.152 34.7685 157.568 36.6165 157.568 39.6885C157.568 42.7845 159.152 44.6325 161.552 44.6325ZM177.078 33.3765V35.5365H177.15C177.798 34.0725 179.262 33.0885 181.134 33.0885C181.518 33.0885 181.95 33.1365 182.214 33.2085V35.1525C181.95 35.1045 181.47 35.0565 181.014 35.0565C178.83 35.0565 177.174 36.3525 177.174 39.4485V46.0005H175.182V33.3765H177.078ZM192.569 42.1605L194.609 42.4245C194.009 44.2485 192.449 46.3125 188.921 46.3125C185.489 46.3125 183.137 43.6965 183.137 39.7125C183.137 35.7045 185.441 33.0885 188.921 33.0885C192.425 33.0885 194.945 35.7285 194.705 40.1925H185.177C185.249 42.7845 186.713 44.6325 188.921 44.6325C191.201 44.6325 192.209 43.2405 192.569 42.1605ZM188.921 34.7685C186.689 34.7685 185.393 36.5445 185.201 38.6085H192.641C192.473 36.5445 191.177 34.7685 188.921 34.7685ZM207.13 46.0005H205.162C204.994 45.8085 204.85 45.1605 204.826 44.2245C203.866 45.7845 201.85 46.2885 200.338 46.2885C198.13 46.2885 196.306 44.8485 196.306 42.5685C196.306 39.7845 198.538 38.9205 201.634 38.5605C204.202 38.2485 204.778 37.9125 204.778 37.0245C204.778 35.7045 203.962 34.7685 201.898 34.7685C200.53 34.7685 199.138 35.3685 198.634 37.1205L196.786 36.6885C197.362 34.2885 199.45 33.0885 201.97 33.0885C205.45 33.0885 206.794 34.7925 206.794 36.9765V43.0965C206.794 44.5845 206.842 45.3525 207.13 46.0005ZM204.778 40.9845V39.2565C204.37 39.7125 202.834 39.9045 201.442 40.0965C200.074 40.2885 198.346 40.9125 198.346 42.5685C198.346 43.9125 199.282 44.6565 200.722 44.6565C202.402 44.6565 204.778 43.8165 204.778 40.9845ZM214.868 44.6325C217.244 44.6325 218.108 42.8565 218.444 41.7525L220.508 42.0645C219.98 43.8405 218.444 46.2885 214.868 46.2885C211.388 46.2885 209.036 43.6965 209.036 39.6885C209.036 35.6805 211.412 33.0885 214.892 33.0885C218.42 33.0885 219.812 35.5605 220.22 36.5685L218.324 37.1925C218.012 36.4965 217.22 34.7685 214.892 34.7685C212.612 34.7685 211.076 36.6165 211.076 39.6885C211.076 42.7845 212.612 44.6325 214.868 44.6325ZM227.111 44.2965C227.471 44.2965 228.071 44.2965 228.383 44.2725V46.0245C228.071 46.0485 227.351 46.0725 226.727 46.0725C224.471 46.0725 223.559 45.4965 223.559 43.2885V34.9365H221.471V33.3765H223.559V29.7525H225.575V33.3765H228.503V34.9365H225.575V42.7845C225.575 44.0325 225.983 44.2965 227.111 44.2965ZM240.236 44.2965C240.596 44.2965 241.196 44.2965 241.508 44.2725V46.0245C241.196 46.0485 240.476 46.0725 239.852 46.0725C237.596 46.0725 236.684 45.4965 236.684 43.2885V34.9365H234.596V33.3765H236.684V29.7525H238.7V33.3765H241.628V34.9365H238.7V42.7845C238.7 44.0325 239.108 44.2965 240.236 44.2965ZM248.574 33.0885C252.15 33.0885 254.55 35.6805 254.55 39.6885C254.55 43.6965 252.15 46.2885 248.574 46.2885C244.998 46.2885 242.598 43.6965 242.598 39.6885C242.598 35.6805 244.998 33.0885 248.574 33.0885ZM248.574 44.6325C250.926 44.6325 252.486 42.7845 252.486 39.6885C252.486 36.6165 250.926 34.7685 248.574 34.7685C246.222 34.7685 244.638 36.6165 244.638 39.6885C244.638 42.7845 246.222 44.6325 248.574 44.6325ZM267.613 46.0005H265.357L260.557 33.3765H262.765L266.485 43.6965H266.557L270.349 33.3765H272.509L267.613 46.0005ZM283.747 46.0005H281.779C281.611 45.8085 281.467 45.1605 281.443 44.2245C280.483 45.7845 278.467 46.2885 276.955 46.2885C274.747 46.2885 272.923 44.8485 272.923 42.5685C272.923 39.7845 275.155 38.9205 278.251 38.5605C280.819 38.2485 281.395 37.9125 281.395 37.0245C281.395 35.7045 280.579 34.7685 278.515 34.7685C277.147 34.7685 275.755 35.3685 275.251 37.1205L273.403 36.6885C273.979 34.2885 276.067 33.0885 278.587 33.0885C282.067 33.0885 283.411 34.7925 283.411 36.9765V43.0965C283.411 44.5845 283.459 45.3525 283.747 46.0005ZM281.395 40.9845V39.2565C280.987 39.7125 279.451 39.9045 278.059 40.0965C276.691 40.2885 274.963 40.9125 274.963 42.5685C274.963 43.9125 275.899 44.6565 277.339 44.6565C279.019 44.6565 281.395 43.8165 281.395 40.9845ZM288.125 33.3765V35.5365H288.197C288.845 34.0725 290.309 33.0885 292.181 33.0885C292.565 33.0885 292.997 33.1365 293.261 33.2085V35.1525C292.997 35.1045 292.517 35.0565 292.061 35.0565C289.877 35.0565 288.221 36.3525 288.221 39.4485V46.0005H286.229V33.3765H288.125ZM295.04 28.6245H297.128V30.9285H295.04V28.6245ZM295.088 33.3765H297.08V46.0005H295.088V33.3765ZM305.387 33.0885C308.963 33.0885 311.363 35.6805 311.363 39.6885C311.363 43.6965 308.963 46.2885 305.387 46.2885C301.811 46.2885 299.411 43.6965 299.411 39.6885C299.411 35.6805 301.811 33.0885 305.387 33.0885ZM305.387 44.6325C307.739 44.6325 309.299 42.7845 309.299 39.6885C309.299 36.6165 307.739 34.7685 305.387 34.7685C303.035 34.7685 301.451 36.6165 301.451 39.6885C301.451 42.7845 303.035 44.6325 305.387 44.6325ZM322.218 44.2245H322.146C321.354 45.4965 319.89 46.2885 318.138 46.2885C315.69 46.2885 313.65 44.8725 313.65 41.8005V33.3765H315.666V41.1045C315.666 43.6005 316.626 44.6085 318.666 44.6085C320.418 44.6085 322.122 43.3125 322.122 40.4085V33.3765H324.138V46.0005H322.218V44.2245ZM336.205 36.6645L334.381 37.0485C334.021 35.5605 332.701 34.6965 331.165 34.6965C329.533 34.6965 328.429 35.4645 328.429 36.7365C328.429 37.9845 329.653 38.2965 331.045 38.5365L332.365 38.7525C334.549 39.1365 336.517 39.7845 336.517 42.4005C336.517 44.9685 334.285 46.2885 331.333 46.2885C328.285 46.2885 326.221 44.6805 325.837 42.3525L327.685 41.9685C328.045 43.8165 329.485 44.7045 331.357 44.7045C333.157 44.7045 334.453 43.8885 334.453 42.4725C334.453 41.1285 333.229 40.7445 331.597 40.4565L330.277 40.2405C328.381 39.9045 326.365 39.2565 326.365 36.7365C326.365 34.6005 328.357 33.0885 331.189 33.0885C333.853 33.0885 335.893 34.7445 336.205 36.6645ZM1.392 56.6245H3.48V58.9285H1.392V56.6245ZM1.44 61.3765H3.432V74.0005H1.44V61.3765ZM8.23444 63.1765H8.30644C9.09844 61.8805 10.5864 61.0885 12.3144 61.0885C14.7624 61.0885 16.8024 62.5285 16.8024 65.6005V74.0005H14.7864V66.2965C14.7864 63.8005 13.8264 62.7925 11.7864 62.7925C10.0584 62.7925 8.33044 64.0885 8.33044 66.9925V74.0005H6.33844V61.3765H8.23444V63.1765ZM24.0251 72.2965C24.3851 72.2965 24.9851 72.2965 25.2971 72.2725V74.0245C24.9851 74.0485 24.2651 74.0725 23.6411 74.0725C21.3851 74.0725 20.4731 73.4965 20.4731 71.2885V62.9365H18.3851V61.3765H20.4731V57.7525H22.4891V61.3765H25.4171V62.9365H22.4891V70.7845C22.4891 72.0325 22.8971 72.2965 24.0251 72.2965ZM35.8194 70.1605L37.8594 70.4245C37.2594 72.2485 35.6994 74.3125 32.1714 74.3125C28.7394 74.3125 26.3874 71.6965 26.3874 67.7125C26.3874 63.7045 28.6914 61.0885 32.1714 61.0885C35.6754 61.0885 38.1954 63.7285 37.9554 68.1925H28.4274C28.4994 70.7845 29.9634 72.6325 32.1714 72.6325C34.4514 72.6325 35.4594 71.2405 35.8194 70.1605ZM32.1714 62.7685C29.9394 62.7685 28.6434 64.5445 28.4514 66.6085H35.8914C35.7234 64.5445 34.4274 62.7685 32.1714 62.7685ZM42.1719 61.3765V63.5365H42.2439C42.8919 62.0725 44.3559 61.0885 46.2279 61.0885C46.6119 61.0885 47.0439 61.1365 47.3079 61.2085V63.1525C47.0439 63.1045 46.5639 63.0565 46.1079 63.0565C43.9239 63.0565 42.2679 64.3525 42.2679 67.4485V74.0005H40.2759V61.3765H42.1719ZM57.6632 70.1605L59.7032 70.4245C59.1032 72.2485 57.5432 74.3125 54.0152 74.3125C50.5832 74.3125 48.2312 71.6965 48.2312 67.7125C48.2312 63.7045 50.5352 61.0885 54.0152 61.0885C57.5192 61.0885 60.0392 63.7285 59.7992 68.1925H50.2712C50.3432 70.7845 51.8072 72.6325 54.0152 72.6325C56.2952 72.6325 57.3032 71.2405 57.6632 70.1605ZM54.0152 62.7685C51.7832 62.7685 50.4872 64.5445 50.2952 66.6085H57.7352C57.5672 64.5445 56.2712 62.7685 54.0152 62.7685ZM71.4077 64.6645L69.5837 65.0485C69.2237 63.5605 67.9037 62.6965 66.3677 62.6965C64.7357 62.6965 63.6317 63.4645 63.6317 64.7365C63.6317 65.9845 64.8557 66.2965 66.2477 66.5365L67.5677 66.7525C69.7517 67.1365 71.7197 67.7845 71.7197 70.4005C71.7197 72.9685 69.4877 74.2885 66.5357 74.2885C63.4877 74.2885 61.4237 72.6805 61.0397 70.3525L62.8877 69.9685C63.2477 71.8165 64.6877 72.7045 66.5597 72.7045C68.3597 72.7045 69.6557 71.8885 69.6557 70.4725C69.6557 69.1285 68.4317 68.7445 66.7997 68.4565L65.4797 68.2405C63.5837 67.9045 61.5677 67.2565 61.5677 64.7365C61.5677 62.6005 63.5597 61.0885 66.3917 61.0885C69.0557 61.0885 71.0957 62.7445 71.4077 64.6645ZM78.447 72.2965C78.807 72.2965 79.407 72.2965 79.719 72.2725V74.0245C79.407 74.0485 78.687 74.0725 78.063 74.0725C75.807 74.0725 74.895 73.4965 74.895 71.2885V62.9365H72.807V61.3765H74.895V57.7525H76.911V61.3765H79.839V62.9365H76.911V70.7845C76.911 72.0325 77.319 72.2965 78.447 72.2965ZM81.8529 56.6245H83.9409V58.9285H81.8529V56.6245ZM81.9009 61.3765H83.8929V74.0005H81.9009V61.3765ZM88.6954 63.1765H88.7674C89.5594 61.8805 91.0474 61.0885 92.7754 61.0885C95.2234 61.0885 97.2634 62.5285 97.2634 65.6005V74.0005H95.2474V66.2965C95.2474 63.8005 94.2874 62.7925 92.2474 62.7925C90.5194 62.7925 88.7914 64.0885 88.7914 66.9925V74.0005H86.7994V61.3765H88.6954V63.1765ZM111.034 61.3765V73.1605C111.034 77.1445 108.538 78.7045 105.274 78.7045C102.634 78.7045 100.45 77.5525 99.6816 74.9365L101.602 74.4805C102.13 76.3525 103.45 77.0485 105.274 77.0485C107.602 77.0485 109.018 75.8725 109.018 73.0405V71.3605H108.946C108.298 72.5605 106.786 73.3285 105.034 73.3285C101.77 73.3285 99.4656 70.9045 99.4656 67.2085C99.4656 63.5125 101.77 61.0885 105.034 61.0885C106.834 61.0885 108.37 61.8805 109.042 63.1765H109.114V61.3765H111.034ZM105.37 71.6965C107.602 71.6965 109.162 69.8965 109.162 67.2085C109.162 64.5445 107.602 62.7685 105.37 62.7685C103.042 62.7685 101.506 64.5445 101.506 67.2085C101.506 69.8965 103.042 71.6965 105.37 71.6965ZM123.517 72.2965C123.877 72.2965 124.477 72.2965 124.789 72.2725V74.0245C124.477 74.0485 123.757 74.0725 123.133 74.0725C120.877 74.0725 119.965 73.4965 119.965 71.2885V62.9365H117.877V61.3765H119.965V57.7525H121.981V61.3765H124.909V62.9365H121.981V70.7845C121.981 72.0325 122.389 72.2965 123.517 72.2965ZM128.963 63.2005H129.035C129.827 61.9045 131.315 61.0885 132.995 61.0885C135.395 61.0885 137.435 62.5285 137.435 65.6005V74.0005H135.419V66.2965C135.419 63.8005 134.459 62.7925 132.419 62.7925C130.739 62.7925 128.963 64.2805 128.963 67.1605V74.0005H126.947V56.6245H128.963V63.2005ZM140.165 56.6245H142.253V58.9285H140.165V56.6245ZM140.213 61.3765H142.205V74.0005H140.213V61.3765ZM147.008 63.1765H147.08C147.872 61.8805 149.36 61.0885 151.088 61.0885C153.536 61.0885 155.576 62.5285 155.576 65.6005V74.0005H153.56V66.2965C153.56 63.8005 152.6 62.7925 150.56 62.7925C148.832 62.7925 147.104 64.0885 147.104 66.9925V74.0005H145.112V61.3765H147.008V63.1765ZM169.346 61.3765V73.1605C169.346 77.1445 166.85 78.7045 163.586 78.7045C160.946 78.7045 158.762 77.5525 157.994 74.9365L159.914 74.4805C160.442 76.3525 161.762 77.0485 163.586 77.0485C165.914 77.0485 167.33 75.8725 167.33 73.0405V71.3605H167.258C166.61 72.5605 165.098 73.3285 163.346 73.3285C160.082 73.3285 157.778 70.9045 157.778 67.2085C157.778 63.5125 160.082 61.0885 163.346 61.0885C165.146 61.0885 166.682 61.8805 167.354 63.1765H167.426V61.3765H169.346ZM163.682 71.6965C165.914 71.6965 167.474 69.8965 167.474 67.2085C167.474 64.5445 165.914 62.7685 163.682 62.7685C161.354 62.7685 159.818 64.5445 159.818 67.2085C159.818 69.8965 161.354 71.6965 163.682 71.6965ZM181.447 64.6645L179.623 65.0485C179.263 63.5605 177.943 62.6965 176.407 62.6965C174.775 62.6965 173.671 63.4645 173.671 64.7365C173.671 65.9845 174.895 66.2965 176.287 66.5365L177.607 66.7525C179.791 67.1365 181.759 67.7845 181.759 70.4005C181.759 72.9685 179.527 74.2885 176.575 74.2885C173.527 74.2885 171.463 72.6805 171.079 70.3525L172.927 69.9685C173.287 71.8165 174.727 72.7045 176.599 72.7045C178.399 72.7045 179.695 71.8885 179.695 70.4725C179.695 69.1285 178.471 68.7445 176.839 68.4565L175.519 68.2405C173.623 67.9045 171.607 67.2565 171.607 64.7365C171.607 62.6005 173.599 61.0885 176.431 61.0885C179.095 61.0885 181.135 62.7445 181.447 64.6645ZM184.116 71.4325H186.66V74.0005H184.116V71.4325Z" fill="black"/>
</svg>
