<svg width="375" height="135" viewBox="0 0 375 135" fill="none" xmlns="http://www.w3.org/2000/svg">
<path d="M1.104 0.863999H8.4C13.824 0.863999 17.688 3.288 17.688 9.432C17.688 15.576 13.824 18 8.4 18H1.104V0.863999ZM6.384 14.04H7.512C10.464 14.04 12.312 13.296 12.312 9.432C12.312 5.568 10.464 4.824 7.512 4.824H6.384V14.04ZM19.4087 18V0.863999H24.6887V18H19.4087ZM36.9413 18L34.2533 12.864L31.5653 18H25.7812L31.2773 9.072L26.2133 0.863999H32.1413L34.3973 5.256L36.6533 0.863999H42.4373L37.3733 9.072L42.8693 18H36.9413ZM43.9712 18V0.863999H49.2512V18H43.9712ZM56.7748 0.623999H58.8628V2.928H56.7748V0.623999ZM56.8228 5.376H58.8148V18H56.8228V5.376ZM71.0093 8.664L69.1853 9.048C68.8253 7.56 67.5053 6.696 65.9693 6.696C64.3373 6.696 63.2333 7.464 63.2333 8.736C63.2333 9.984 64.4573 10.296 65.8493 10.536L67.1693 10.752C69.3533 11.136 71.3213 11.784 71.3213 14.4C71.3213 16.968 69.0893 18.288 66.1373 18.288C63.0893 18.288 61.0253 16.68 60.6413 14.352L62.4893 13.968C62.8493 15.816 64.2893 16.704 66.1613 16.704C67.9613 16.704 69.2573 15.888 69.2573 14.472C69.2573 13.128 68.0333 12.744 66.4013 12.456L65.0813 12.24C63.1853 11.904 61.1693 11.256 61.1693 8.736C61.1693 6.6 63.1613 5.088 65.9933 5.088C68.6573 5.088 70.6973 6.744 71.0093 8.664ZM88.6299 18H86.6619C86.4939 17.808 86.3499 17.16 86.3259 16.224C85.3659 17.784 83.3499 18.288 81.8379 18.288C79.6299 18.288 77.8059 16.848 77.8059 14.568C77.8059 11.784 80.0379 10.92 83.1339 10.56C85.7019 10.248 86.2779 9.912 86.2779 9.024C86.2779 7.704 85.4619 6.768 83.3979 6.768C82.0299 6.768 80.6379 7.368 80.1339 9.12L78.2859 8.688C78.8619 6.288 80.9499 5.088 83.4699 5.088C86.9499 5.088 88.2939 6.792 88.2939 8.976V15.096C88.2939 16.584 88.3419 17.352 88.6299 18ZM86.2779 12.984V11.256C85.8699 11.712 84.3339 11.904 82.9419 12.096C81.5739 12.288 79.8459 12.912 79.8459 14.568C79.8459 15.912 80.7819 16.656 82.2219 16.656C83.9019 16.656 86.2779 15.816 86.2779 12.984ZM97.2319 5.088C100.568 5.088 102.92 7.704 102.92 11.688C102.92 15.696 100.568 18.288 97.2319 18.288C95.3839 18.288 93.7519 17.424 93.0799 16.08H93.0079V18H91.1119V0.623999H93.1039V7.2H93.1759C93.8479 5.928 95.4319 5.088 97.2319 5.088ZM96.8959 16.632C99.2959 16.632 100.856 14.784 100.856 11.688C100.856 8.616 99.2959 6.768 96.8959 6.768C94.5679 6.768 92.9839 8.616 92.9839 11.688C92.9839 14.784 94.5679 16.632 96.8959 16.632ZM110.645 5.088C114.221 5.088 116.621 7.68 116.621 11.688C116.621 15.696 114.221 18.288 110.645 18.288C107.069 18.288 104.669 15.696 104.669 11.688C104.669 7.68 107.069 5.088 110.645 5.088ZM110.645 16.632C112.997 16.632 114.557 14.784 114.557 11.688C114.557 8.616 112.997 6.768 110.645 6.768C108.293 6.768 106.709 8.616 106.709 11.688C106.709 14.784 108.293 16.632 110.645 16.632ZM127.476 16.224H127.404C126.612 17.496 125.148 18.288 123.396 18.288C120.948 18.288 118.908 16.872 118.908 13.8V5.376H120.924V13.104C120.924 15.6 121.884 16.608 123.924 16.608C125.676 16.608 127.38 15.312 127.38 12.408V5.376H129.396V18H127.476V16.224ZM136.806 16.296C137.166 16.296 137.766 16.296 138.078 16.272V18.024C137.766 18.048 137.046 18.072 136.422 18.072C134.166 18.072 133.254 17.496 133.254 15.288V6.936H131.166V5.376H133.254V1.752H135.27V5.376H138.198V6.936H135.27V14.784C135.27 16.032 135.678 16.296 136.806 16.296ZM151.419 5.088C154.755 5.088 157.107 7.704 157.107 11.688C157.107 15.696 154.755 18.288 151.419 18.288C149.571 18.288 147.939 17.424 147.267 16.08H147.195V18H145.299V0.623999H147.291V7.2H147.363C148.035 5.928 149.619 5.088 151.419 5.088ZM151.083 16.632C153.483 16.632 155.043 14.784 155.043 11.688C155.043 8.616 153.483 6.768 151.083 6.768C148.755 6.768 147.171 8.616 147.171 11.688C147.171 14.784 148.755 16.632 151.083 16.632ZM168.288 14.16L170.328 14.424C169.728 16.248 168.168 18.312 164.64 18.312C161.208 18.312 158.856 15.696 158.856 11.712C158.856 7.704 161.16 5.088 164.64 5.088C168.144 5.088 170.664 7.728 170.424 12.192H160.896C160.968 14.784 162.432 16.632 164.64 16.632C166.92 16.632 167.928 15.24 168.288 14.16ZM164.64 6.768C162.408 6.768 161.112 8.544 160.92 10.608H168.36C168.192 8.544 166.896 6.768 164.64 6.768ZM182.849 18H180.881C180.713 17.808 180.569 17.16 180.545 16.224C179.585 17.784 177.569 18.288 176.057 18.288C173.849 18.288 172.025 16.848 172.025 14.568C172.025 11.784 174.257 10.92 177.353 10.56C179.921 10.248 180.497 9.912 180.497 9.024C180.497 7.704 179.681 6.768 177.617 6.768C176.249 6.768 174.857 7.368 174.353 9.12L172.505 8.688C173.081 6.288 175.169 5.088 177.689 5.088C181.169 5.088 182.513 6.792 182.513 8.976V15.096C182.513 16.584 182.561 17.352 182.849 18ZM180.497 12.984V11.256C180.089 11.712 178.553 11.904 177.161 12.096C175.793 12.288 174.065 12.912 174.065 14.568C174.065 15.912 175.001 16.656 176.441 16.656C178.121 16.656 180.497 15.816 180.497 12.984ZM193.875 16.224H193.803C193.011 17.496 191.547 18.288 189.795 18.288C187.347 18.288 185.307 16.872 185.307 13.8V5.376H187.323V13.104C187.323 15.6 188.283 16.608 190.323 16.608C192.075 16.608 193.779 15.312 193.779 12.408V5.376H195.795V18H193.875V16.224ZM203.205 16.296C203.565 16.296 204.165 16.296 204.477 16.272V18.024C204.165 18.048 203.445 18.072 202.821 18.072C200.565 18.072 199.653 17.496 199.653 15.288V6.936H197.565V5.376H199.653V1.752H201.669V5.376H204.597V6.936H201.669V14.784C201.669 16.032 202.077 16.296 203.205 16.296ZM217.171 5.376L212.275 18.024C210.667 22.2 209.443 22.728 207.739 22.728C207.067 22.728 206.635 22.656 206.395 22.632V20.856C206.563 20.88 206.875 20.952 207.475 20.952C208.651 20.952 209.251 20.496 210.067 18.48L210.307 17.88L205.195 5.376H207.403L211.243 15.48H211.315L215.011 5.376H217.171ZM220.364 15.432V17.568C220.364 20.136 219.596 21.36 217.868 21.384V20.304C218.684 20.256 219.044 19.656 219.044 18H217.82V15.432H220.364ZM228.575 0.623999H230.567V18H228.575V0.623999ZM233.494 0.623999H235.582V2.928H233.494V0.623999ZM233.542 5.376H235.534V18H233.542V5.376ZM243.24 2.064C242.4 2.064 241.536 2.208 241.536 3.672V5.376H244.464V6.936H241.536V18.024H239.52V6.936H237.432V5.376H239.52V3.48C239.52 1.08 241.008 0.335999 242.952 0.335999C243.672 0.335999 244.44 0.431999 244.8 0.503999V2.16C244.464 2.112 243.696 2.064 243.24 2.064ZM254.773 14.16L256.813 14.424C256.213 16.248 254.653 18.312 251.125 18.312C247.693 18.312 245.341 15.696 245.341 11.712C245.341 7.704 247.645 5.088 251.125 5.088C254.629 5.088 257.149 7.728 256.909 12.192H247.381C247.453 14.784 248.917 16.632 251.125 16.632C253.405 16.632 254.413 15.24 254.773 14.16ZM251.125 6.768C248.893 6.768 247.597 8.544 247.405 10.608H254.845C254.677 8.544 253.381 6.768 251.125 6.768ZM268.517 8.664L266.693 9.048C266.333 7.56 265.013 6.696 263.477 6.696C261.845 6.696 260.741 7.464 260.741 8.736C260.741 9.984 261.965 10.296 263.357 10.536L264.677 10.752C266.861 11.136 268.829 11.784 268.829 14.4C268.829 16.968 266.597 18.288 263.645 18.288C260.597 18.288 258.533 16.68 258.149 14.352L259.997 13.968C260.357 15.816 261.797 16.704 263.669 16.704C265.469 16.704 266.765 15.888 266.765 14.472C266.765 13.128 265.541 12.744 263.909 12.456L262.589 12.24C260.693 11.904 258.677 11.256 258.677 8.736C258.677 6.6 260.669 5.088 263.501 5.088C266.165 5.088 268.205 6.744 268.517 8.664ZM275.556 16.296C275.916 16.296 276.516 16.296 276.828 16.272V18.024C276.516 18.048 275.796 18.072 275.172 18.072C272.916 18.072 272.004 17.496 272.004 15.288V6.936H269.916V5.376H272.004V1.752H274.02V5.376H276.948V6.936H274.02V14.784C274.02 16.032 274.428 16.296 275.556 16.296ZM289.522 5.376L284.626 18.024C283.018 22.2 281.794 22.728 280.09 22.728C279.418 22.728 278.986 22.656 278.746 22.632V20.856C278.914 20.88 279.226 20.952 279.826 20.952C281.002 20.952 281.602 20.496 282.418 18.48L282.658 17.88L277.546 5.376H279.754L283.594 15.48H283.666L287.362 5.376H289.522ZM291.246 0.623999H293.238V18H291.246V0.623999ZM305.069 14.16L307.109 14.424C306.509 16.248 304.949 18.312 301.421 18.312C297.989 18.312 295.637 15.696 295.637 11.712C295.637 7.704 297.941 5.088 301.421 5.088C304.925 5.088 307.445 7.728 307.205 12.192H297.677C297.749 14.784 299.213 16.632 301.421 16.632C303.701 16.632 304.709 15.24 305.069 14.16ZM301.421 6.768C299.189 6.768 297.893 8.544 297.701 10.608H305.141C304.973 8.544 303.677 6.768 301.421 6.768ZM312.262 15.432V17.568C312.262 20.136 311.494 21.36 309.766 21.384V20.304C310.582 20.256 310.942 19.656 310.942 18H309.718V15.432H312.262ZM19.176 33.376L14.976 46H12.744L9.624 36.112H9.552L6.432 46H4.296L0.096 33.376H2.304L5.4 43.528H5.472L8.52 33.376H10.824L13.872 43.528H13.944L17.04 33.376H19.176ZM25.6838 33.088C29.2598 33.088 31.6598 35.68 31.6598 39.688C31.6598 43.696 29.2598 46.288 25.6838 46.288C22.1078 46.288 19.7078 43.696 19.7078 39.688C19.7078 35.68 22.1078 33.088 25.6838 33.088ZM25.6838 44.632C28.0358 44.632 29.5958 42.784 29.5958 39.688C29.5958 36.616 28.0358 34.768 25.6838 34.768C23.3318 34.768 21.7478 36.616 21.7478 39.688C21.7478 42.784 23.3318 44.632 25.6838 44.632ZM47.5312 33.088C49.7393 33.088 51.7073 34.528 51.7073 37.6V46H49.6913V38.296C49.6913 35.8 48.7793 34.792 46.9553 34.792C45.4193 34.792 43.8353 35.992 43.8353 38.896V46H41.8193V38.296C41.8193 35.8 40.9313 34.792 39.0833 34.792C37.5233 34.792 35.9633 36.088 35.9633 38.992V46H33.9713V33.376H35.8673V35.2H35.9393C36.7313 33.88 38.0993 33.088 39.6593 33.088C41.2193 33.088 42.6353 33.808 43.3553 35.296C44.2673 34 45.5873 33.088 47.5312 33.088ZM63.3585 42.16L65.3985 42.424C64.7985 44.248 63.2385 46.312 59.7105 46.312C56.2785 46.312 53.9265 43.696 53.9265 39.712C53.9265 35.704 56.2305 33.088 59.7105 33.088C63.2145 33.088 65.7345 35.728 65.4945 40.192H55.9665C56.0385 42.784 57.5025 44.632 59.7105 44.632C61.9905 44.632 62.9985 43.24 63.3585 42.16ZM59.7105 34.768C57.4785 34.768 56.1825 36.544 55.9905 38.608H63.4305C63.2625 36.544 61.9665 34.768 59.7105 34.768ZM69.711 35.176H69.783C70.575 33.88 72.063 33.088 73.791 33.088C76.239 33.088 78.279 34.528 78.279 37.6V46H76.263V38.296C76.263 35.8 75.303 34.792 73.263 34.792C71.535 34.792 69.807 36.088 69.807 38.992V46H67.815V33.376H69.711V35.176ZM80.5873 34.936V28.864H82.5313V34.936H80.5873ZM94.6811 36.664L92.8571 37.048C92.4971 35.56 91.1771 34.696 89.6411 34.696C88.0091 34.696 86.9051 35.464 86.9051 36.736C86.9051 37.984 88.1291 38.296 89.5211 38.536L90.8411 38.752C93.0251 39.136 94.9931 39.784 94.9931 42.4C94.9931 44.968 92.7611 46.288 89.8091 46.288C86.7611 46.288 84.6971 44.68 84.3131 42.352L86.1611 41.968C86.5211 43.816 87.9611 44.704 89.8331 44.704C91.6331 44.704 92.9291 43.888 92.9291 42.472C92.9291 41.128 91.7051 40.744 90.0731 40.456L88.7531 40.24C86.8571 39.904 84.8411 39.256 84.8411 36.736C84.8411 34.6 86.8331 33.088 89.6651 33.088C92.3291 33.088 94.3691 34.744 94.6811 36.664ZM102.15 28.624H104.238V30.928H102.15V28.624ZM102.198 33.376H104.19V46H102.198V33.376ZM116.384 36.664L114.56 37.048C114.2 35.56 112.88 34.696 111.344 34.696C109.712 34.696 108.608 35.464 108.608 36.736C108.608 37.984 109.832 38.296 111.224 38.536L112.544 38.752C114.728 39.136 116.696 39.784 116.696 42.4C116.696 44.968 114.464 46.288 111.512 46.288C108.464 46.288 106.4 44.68 106.016 42.352L107.864 41.968C108.224 43.816 109.664 44.704 111.536 44.704C113.336 44.704 114.632 43.888 114.632 42.472C114.632 41.128 113.408 40.744 111.776 40.456L110.456 40.24C108.56 39.904 106.544 39.256 106.544 36.736C106.544 34.6 108.536 33.088 111.368 33.088C114.032 33.088 116.072 34.744 116.384 36.664ZM128.15 36.664L126.326 37.048C125.966 35.56 124.646 34.696 123.11 34.696C121.478 34.696 120.374 35.464 120.374 36.736C120.374 37.984 121.598 38.296 122.99 38.536L124.31 38.752C126.494 39.136 128.462 39.784 128.462 42.4C128.462 44.968 126.23 46.288 123.278 46.288C120.23 46.288 118.166 44.68 117.782 42.352L119.63 41.968C119.99 43.816 121.43 44.704 123.302 44.704C125.102 44.704 126.398 43.888 126.398 42.472C126.398 41.128 125.174 40.744 123.542 40.456L122.222 40.24C120.326 39.904 118.31 39.256 118.31 36.736C118.31 34.6 120.302 33.088 123.134 33.088C125.798 33.088 127.838 34.744 128.15 36.664ZM139.172 44.224H139.1C138.308 45.496 136.844 46.288 135.092 46.288C132.644 46.288 130.604 44.872 130.604 41.8V33.376H132.62V41.104C132.62 43.6 133.58 44.608 135.62 44.608C137.372 44.608 139.076 43.312 139.076 40.408V33.376H141.092V46H139.172V44.224ZM152.726 42.16L154.766 42.424C154.166 44.248 152.606 46.312 149.078 46.312C145.646 46.312 143.294 43.696 143.294 39.712C143.294 35.704 145.598 33.088 149.078 33.088C152.582 33.088 155.102 35.728 154.862 40.192H145.334C145.406 42.784 146.87 44.632 149.078 44.632C151.358 44.632 152.366 43.24 152.726 42.16ZM149.078 34.768C146.846 34.768 145.55 36.544 145.358 38.608H152.798C152.63 36.544 151.334 34.768 149.078 34.768ZM166.47 36.664L164.646 37.048C164.286 35.56 162.966 34.696 161.43 34.696C159.798 34.696 158.694 35.464 158.694 36.736C158.694 37.984 159.918 38.296 161.31 38.536L162.63 38.752C164.814 39.136 166.782 39.784 166.782 42.4C166.782 44.968 164.55 46.288 161.598 46.288C158.55 46.288 156.486 44.68 156.102 42.352L157.95 41.968C158.31 43.816 159.75 44.704 161.622 44.704C163.422 44.704 164.718 43.888 164.718 42.472C164.718 41.128 163.494 40.744 161.862 40.456L160.542 40.24C158.646 39.904 156.63 39.256 156.63 36.736C156.63 34.6 158.622 33.088 161.454 33.088C164.118 33.088 166.158 34.744 166.47 36.664ZM178.619 44.296C178.979 44.296 179.579 44.296 179.891 44.272V46.024C179.579 46.048 178.859 46.072 178.235 46.072C175.979 46.072 175.067 45.496 175.067 43.288V34.936H172.979V33.376H175.067V29.752H177.083V33.376H180.011V34.936H177.083V42.784C177.083 44.032 177.491 44.296 178.619 44.296ZM186.957 33.088C190.533 33.088 192.933 35.68 192.933 39.688C192.933 43.696 190.533 46.288 186.957 46.288C183.381 46.288 180.981 43.696 180.981 39.688C180.981 35.68 183.381 33.088 186.957 33.088ZM186.957 44.632C189.309 44.632 190.869 42.784 190.869 39.688C190.869 36.616 189.309 34.768 186.957 34.768C184.605 34.768 183.021 36.616 183.021 39.688C183.021 42.784 184.605 44.632 186.957 44.632ZM205.396 33.088C207.196 33.088 208.756 33.928 209.428 35.2H209.5V28.624H211.516V46H209.596V44.08H209.524C208.876 45.424 207.244 46.288 205.396 46.288C202.06 46.288 199.708 43.696 199.708 39.688C199.708 35.68 202.06 33.088 205.396 33.088ZM205.732 44.632C208.036 44.632 209.644 42.784 209.644 39.688C209.644 36.616 208.036 34.768 205.732 34.768C203.332 34.768 201.748 36.616 201.748 39.688C201.748 42.784 203.332 44.632 205.732 44.632ZM214.275 28.624H216.363V30.928H214.275V28.624ZM214.323 33.376H216.315V46H214.323V33.376ZM228.509 36.664L226.685 37.048C226.325 35.56 225.005 34.696 223.469 34.696C221.837 34.696 220.733 35.464 220.733 36.736C220.733 37.984 221.957 38.296 223.349 38.536L224.669 38.752C226.853 39.136 228.821 39.784 228.821 42.4C228.821 44.968 226.589 46.288 223.637 46.288C220.589 46.288 218.525 44.68 218.141 42.352L219.989 41.968C220.349 43.816 221.789 44.704 223.661 44.704C225.461 44.704 226.757 43.888 226.757 42.472C226.757 41.128 225.533 40.744 223.901 40.456L222.581 40.24C220.685 39.904 218.669 39.256 218.669 36.736C218.669 34.6 220.661 33.088 223.493 33.088C226.157 33.088 228.197 34.744 228.509 36.664ZM236.243 44.632C238.619 44.632 239.483 42.856 239.819 41.752L241.883 42.064C241.355 43.84 239.819 46.288 236.243 46.288C232.763 46.288 230.411 43.696 230.411 39.688C230.411 35.68 232.787 33.088 236.267 33.088C239.795 33.088 241.187 35.56 241.595 36.568L239.699 37.192C239.387 36.496 238.595 34.768 236.267 34.768C233.987 34.768 232.451 36.616 232.451 39.688C232.451 42.784 233.987 44.632 236.243 44.632ZM249.254 33.088C252.83 33.088 255.23 35.68 255.23 39.688C255.23 43.696 252.83 46.288 249.254 46.288C245.678 46.288 243.278 43.696 243.278 39.688C243.278 35.68 245.678 33.088 249.254 33.088ZM249.254 44.632C251.606 44.632 253.166 42.784 253.166 39.688C253.166 36.616 251.606 34.768 249.254 34.768C246.902 34.768 245.318 36.616 245.318 39.688C245.318 42.784 246.902 44.632 249.254 44.632ZM262.832 46H260.576L255.776 33.376H257.984L261.704 43.696H261.776L265.568 33.376H267.728L262.832 46ZM277.718 42.16L279.758 42.424C279.158 44.248 277.598 46.312 274.07 46.312C270.638 46.312 268.286 43.696 268.286 39.712C268.286 35.704 270.59 33.088 274.07 33.088C277.574 33.088 280.094 35.728 279.854 40.192H270.326C270.398 42.784 271.862 44.632 274.07 44.632C276.35 44.632 277.358 43.24 277.718 42.16ZM274.07 34.768C271.838 34.768 270.542 36.544 270.35 38.608H277.79C277.622 36.544 276.326 34.768 274.07 34.768ZM284.07 33.376V35.536H284.142C284.79 34.072 286.254 33.088 288.126 33.088C288.51 33.088 288.942 33.136 289.206 33.208V35.152C288.942 35.104 288.462 35.056 288.006 35.056C285.822 35.056 284.166 36.352 284.166 39.448V46H282.174V33.376H284.07ZM309.633 33.088C311.841 33.088 313.809 34.528 313.809 37.6V46H311.793V38.296C311.793 35.8 310.881 34.792 309.057 34.792C307.521 34.792 305.937 35.992 305.937 38.896V46H303.921V38.296C303.921 35.8 303.033 34.792 301.185 34.792C299.625 34.792 298.065 36.088 298.065 38.992V46H296.073V33.376H297.969V35.2H298.041C298.833 33.88 300.201 33.088 301.761 33.088C303.321 33.088 304.737 33.808 305.457 35.296C306.369 34 307.689 33.088 309.633 33.088ZM322.004 33.088C325.58 33.088 327.98 35.68 327.98 39.688C327.98 43.696 325.58 46.288 322.004 46.288C318.428 46.288 316.028 43.696 316.028 39.688C316.028 35.68 318.428 33.088 322.004 33.088ZM322.004 44.632C324.356 44.632 325.916 42.784 325.916 39.688C325.916 36.616 324.356 34.768 322.004 34.768C319.652 34.768 318.068 36.616 318.068 39.688C318.068 42.784 319.652 44.632 322.004 44.632ZM332.188 33.376V35.536H332.26C332.908 34.072 334.372 33.088 336.244 33.088C336.628 33.088 337.06 33.136 337.324 33.208V35.152C337.06 35.104 336.58 35.056 336.124 35.056C333.94 35.056 332.284 36.352 332.284 39.448V46H330.292V33.376H332.188ZM347.679 42.16L349.719 42.424C349.119 44.248 347.559 46.312 344.031 46.312C340.599 46.312 338.247 43.696 338.247 39.712C338.247 35.704 340.551 33.088 344.031 33.088C347.535 33.088 350.055 35.728 349.815 40.192H340.287C340.359 42.784 341.823 44.632 344.031 44.632C346.311 44.632 347.319 43.24 347.679 42.16ZM344.031 34.768C341.799 34.768 340.503 36.544 340.311 38.608H347.751C347.583 36.544 346.287 34.768 344.031 34.768ZM11.544 74H9.576C9.408 73.808 9.264 73.16 9.24 72.224C8.28 73.784 6.264 74.288 4.752 74.288C2.544 74.288 0.72 72.848 0.72 70.568C0.72 67.784 2.952 66.92 6.048 66.56C8.616 66.248 9.192 65.912 9.192 65.024C9.192 63.704 8.376 62.768 6.312 62.768C4.944 62.768 3.552 63.368 3.048 65.12L1.2 64.688C1.776 62.288 3.864 61.088 6.384 61.088C9.864 61.088 11.208 62.792 11.208 64.976V71.096C11.208 72.584 11.256 73.352 11.544 74ZM9.192 68.984V67.256C8.784 67.712 7.248 67.904 5.856 68.096C4.488 68.288 2.76 68.912 2.76 70.568C2.76 71.912 3.696 72.656 5.136 72.656C6.816 72.656 9.192 71.816 9.192 68.984ZM20.1459 61.088C23.4819 61.088 25.8339 63.704 25.8339 67.688C25.8339 71.696 23.4819 74.288 20.1459 74.288C18.2979 74.288 16.6659 73.424 15.9939 72.08H15.9219V74H14.0259V56.624H16.0179V63.2H16.0899C16.7619 61.928 18.3459 61.088 20.1459 61.088ZM19.8099 72.632C22.2099 72.632 23.7699 70.784 23.7699 67.688C23.7699 64.616 22.2099 62.768 19.8099 62.768C17.4819 62.768 15.8979 64.616 15.8979 67.688C15.8979 70.784 17.4819 72.632 19.8099 72.632ZM33.5588 61.088C37.1348 61.088 39.5348 63.68 39.5348 67.688C39.5348 71.696 37.1348 74.288 33.5588 74.288C29.9828 74.288 27.5828 71.696 27.5828 67.688C27.5828 63.68 29.9828 61.088 33.5588 61.088ZM33.5588 72.632C35.9108 72.632 37.4708 70.784 37.4708 67.688C37.4708 64.616 35.9108 62.768 33.5588 62.768C31.2068 62.768 29.6228 64.616 29.6228 67.688C29.6228 70.784 31.2068 72.632 33.5588 72.632ZM50.3903 72.224H50.3183C49.5263 73.496 48.0623 74.288 46.3103 74.288C43.8623 74.288 41.8223 72.872 41.8223 69.8V61.376H43.8383V69.104C43.8383 71.6 44.7983 72.608 46.8383 72.608C48.5903 72.608 50.2943 71.312 50.2943 68.408V61.376H52.3103V74H50.3903V72.224ZM59.7204 72.296C60.0804 72.296 60.6804 72.296 60.9924 72.272V74.024C60.6804 74.048 59.9604 74.072 59.3364 74.072C57.0804 74.072 56.1684 73.496 56.1684 71.288V62.936H54.0804V61.376H56.1684V57.752H58.1844V61.376H61.1124V62.936H58.1844V70.784C58.1844 72.032 58.5924 72.296 59.7204 72.296ZM85.9494 61.376L81.7494 74H79.5174L76.3974 64.112H76.3254L73.2054 74H71.0694L66.8694 61.376H69.0774L72.1734 71.528H72.2454L75.2934 61.376H77.5974L80.6454 71.528H80.7174L83.8134 61.376H85.9494ZM92.4572 61.088C96.0332 61.088 98.4332 63.68 98.4332 67.688C98.4332 71.696 96.0332 74.288 92.4572 74.288C88.8812 74.288 86.4812 71.696 86.4812 67.688C86.4812 63.68 88.8812 61.088 92.4572 61.088ZM92.4572 72.632C94.8092 72.632 96.3692 70.784 96.3692 67.688C96.3692 64.616 94.8092 62.768 92.4572 62.768C90.1052 62.768 88.5212 64.616 88.5212 67.688C88.5212 70.784 90.1052 72.632 92.4572 72.632ZM114.305 61.088C116.513 61.088 118.481 62.528 118.481 65.6V74H116.465V66.296C116.465 63.8 115.553 62.792 113.729 62.792C112.193 62.792 110.609 63.992 110.609 66.896V74H108.593V66.296C108.593 63.8 107.705 62.792 105.857 62.792C104.297 62.792 102.737 64.088 102.737 66.992V74H100.745V61.376H102.641V63.2H102.713C103.505 61.88 104.873 61.088 106.433 61.088C107.993 61.088 109.409 61.808 110.129 63.296C111.041 62 112.361 61.088 114.305 61.088ZM130.132 70.16L132.172 70.424C131.572 72.248 130.012 74.312 126.484 74.312C123.052 74.312 120.7 71.696 120.7 67.712C120.7 63.704 123.004 61.088 126.484 61.088C129.988 61.088 132.508 63.728 132.268 68.192H122.74C122.812 70.784 124.276 72.632 126.484 72.632C128.764 72.632 129.772 71.24 130.132 70.16ZM126.484 62.768C124.252 62.768 122.956 64.544 122.764 66.608H130.204C130.036 64.544 128.74 62.768 126.484 62.768ZM136.484 63.176H136.556C137.348 61.88 138.836 61.088 140.564 61.088C143.012 61.088 145.052 62.528 145.052 65.6V74H143.036V66.296C143.036 63.8 142.076 62.792 140.036 62.792C138.308 62.792 136.58 64.088 136.58 66.992V74H134.588V61.376H136.484V63.176ZM147.361 62.936V56.864H149.305V62.936H147.361ZM161.455 64.664L159.631 65.048C159.271 63.56 157.951 62.696 156.415 62.696C154.783 62.696 153.679 63.464 153.679 64.736C153.679 65.984 154.903 66.296 156.295 66.536L157.615 66.752C159.799 67.136 161.767 67.784 161.767 70.4C161.767 72.968 159.535 74.288 156.583 74.288C153.535 74.288 151.471 72.68 151.087 70.352L152.935 69.968C153.295 71.816 154.735 72.704 156.607 72.704C158.407 72.704 159.703 71.888 159.703 70.472C159.703 69.128 158.479 68.744 156.847 68.456L155.527 68.24C153.631 67.904 151.615 67.256 151.615 64.736C151.615 62.6 153.607 61.088 156.439 61.088C159.103 61.088 161.143 62.744 161.455 64.664ZM177.827 70.16L179.867 70.424C179.267 72.248 177.707 74.312 174.179 74.312C170.747 74.312 168.395 71.696 168.395 67.712C168.395 63.704 170.699 61.088 174.179 61.088C177.683 61.088 180.203 63.728 179.963 68.192H170.435C170.507 70.784 171.971 72.632 174.179 72.632C176.459 72.632 177.467 71.24 177.827 70.16ZM174.179 62.768C171.947 62.768 170.651 64.544 170.459 66.608H177.899C177.731 64.544 176.435 62.768 174.179 62.768ZM189.147 74L185.739 69.056L182.259 74H179.979L184.539 67.568L180.219 61.376H182.571L185.787 66.056L188.979 61.376H191.283L186.963 67.52L191.547 74H189.147ZM199.208 74.288V74.312C197.408 74.312 195.848 73.52 195.152 72.2H195.08V78.44H193.088V61.376H194.984V63.32H195.056C195.752 61.928 197.36 61.088 199.208 61.088C202.544 61.088 204.896 63.704 204.896 67.688C204.896 71.696 202.544 74.288 199.208 74.288ZM198.872 62.768C196.568 62.768 194.96 64.616 194.96 67.688C194.96 70.784 196.568 72.632 198.872 72.632C201.272 72.632 202.832 70.784 202.832 67.688C202.832 64.616 201.272 62.768 198.872 62.768ZM216.077 70.16L218.117 70.424C217.517 72.248 215.957 74.312 212.429 74.312C208.997 74.312 206.645 71.696 206.645 67.712C206.645 63.704 208.949 61.088 212.429 61.088C215.933 61.088 218.453 63.728 218.213 68.192H208.685C208.757 70.784 210.221 72.632 212.429 72.632C214.709 72.632 215.717 71.24 216.077 70.16ZM212.429 62.768C210.197 62.768 208.901 64.544 208.709 66.608H216.149C215.981 64.544 214.685 62.768 212.429 62.768ZM222.43 61.376V63.536H222.502C223.15 62.072 224.614 61.088 226.486 61.088C226.87 61.088 227.302 61.136 227.566 61.208V63.152C227.302 63.104 226.822 63.056 226.366 63.056C224.182 63.056 222.526 64.352 222.526 67.448V74H220.534V61.376H222.43ZM229.345 56.624H231.433V58.928H229.345V56.624ZM229.393 61.376H231.385V74H229.393V61.376ZM243.148 70.16L245.188 70.424C244.588 72.248 243.028 74.312 239.5 74.312C236.068 74.312 233.716 71.696 233.716 67.712C233.716 63.704 236.02 61.088 239.5 61.088C243.004 61.088 245.524 63.728 245.284 68.192H235.756C235.828 70.784 237.292 72.632 239.5 72.632C241.78 72.632 242.788 71.24 243.148 70.16ZM239.5 62.768C237.268 62.768 235.972 64.544 235.78 66.608H243.22C243.052 64.544 241.756 62.768 239.5 62.768ZM249.5 63.176H249.572C250.364 61.88 251.852 61.088 253.58 61.088C256.028 61.088 258.068 62.528 258.068 65.6V74H256.052V66.296C256.052 63.8 255.092 62.792 253.052 62.792C251.324 62.792 249.596 64.088 249.596 66.992V74H247.604V61.376H249.5V63.176ZM266.102 72.632C268.478 72.632 269.342 70.856 269.678 69.752L271.742 70.064C271.214 71.84 269.678 74.288 266.102 74.288C262.622 74.288 260.27 71.696 260.27 67.688C260.27 63.68 262.646 61.088 266.126 61.088C269.654 61.088 271.046 63.56 271.454 64.568L269.558 65.192C269.246 64.496 268.454 62.768 266.126 62.768C263.846 62.768 262.31 64.616 262.31 67.688C262.31 70.784 263.846 72.632 266.102 72.632ZM282.569 70.16L284.609 70.424C284.009 72.248 282.449 74.312 278.921 74.312C275.489 74.312 273.137 71.696 273.137 67.712C273.137 63.704 275.441 61.088 278.921 61.088C282.425 61.088 284.945 63.728 284.705 68.192H275.177C275.249 70.784 276.713 72.632 278.921 72.632C281.201 72.632 282.209 71.24 282.569 70.16ZM278.921 62.768C276.689 62.768 275.393 64.544 275.201 66.608H282.641C282.473 64.544 281.177 62.768 278.921 62.768ZM296.314 64.664L294.49 65.048C294.13 63.56 292.81 62.696 291.274 62.696C289.642 62.696 288.538 63.464 288.538 64.736C288.538 65.984 289.762 66.296 291.154 66.536L292.474 66.752C294.658 67.136 296.626 67.784 296.626 70.4C296.626 72.968 294.394 74.288 291.442 74.288C288.394 74.288 286.33 72.68 285.946 70.352L287.794 69.968C288.154 71.816 289.594 72.704 291.466 72.704C293.266 72.704 294.562 71.888 294.562 70.472C294.562 69.128 293.338 68.744 291.706 68.456L290.386 68.24C288.49 67.904 286.474 67.256 286.474 64.736C286.474 62.6 288.466 61.088 291.298 61.088C293.962 61.088 296.002 62.744 296.314 64.664ZM303.783 56.624H305.871V58.928H303.783V56.624ZM303.831 61.376H305.823V74H303.831V61.376ZM310.625 63.176H310.697C311.489 61.88 312.977 61.088 314.705 61.088C317.153 61.088 319.193 62.528 319.193 65.6V74H317.177V66.296C317.177 63.8 316.217 62.792 314.177 62.792C312.449 62.792 310.721 64.088 310.721 66.992V74H308.729V61.376H310.625V63.176ZM332.122 61.088C333.922 61.088 335.482 61.928 336.154 63.2H336.226V56.624H338.242V74H336.322V72.08H336.25C335.602 73.424 333.97 74.288 332.122 74.288C328.786 74.288 326.434 71.696 326.434 67.688C326.434 63.68 328.786 61.088 332.122 61.088ZM332.458 72.632C334.762 72.632 336.37 70.784 336.37 67.688C336.37 64.616 334.762 62.768 332.458 62.768C330.058 62.768 328.474 64.616 328.474 67.688C328.474 70.784 330.058 72.632 332.458 72.632ZM351.153 74H349.185C349.017 73.808 348.873 73.16 348.849 72.224C347.889 73.784 345.873 74.288 344.361 74.288C342.153 74.288 340.329 72.848 340.329 70.568C340.329 67.784 342.561 66.92 345.657 66.56C348.225 66.248 348.801 65.912 348.801 65.024C348.801 63.704 347.985 62.768 345.921 62.768C344.553 62.768 343.161 63.368 342.657 65.12L340.809 64.688C341.385 62.288 343.473 61.088 345.993 61.088C349.473 61.088 350.817 62.792 350.817 64.976V71.096C350.817 72.584 350.865 73.352 351.153 74ZM348.801 68.984V67.256C348.393 67.712 346.857 67.904 345.465 68.096C344.097 68.288 342.369 68.912 342.369 70.568C342.369 71.912 343.305 72.656 344.745 72.656C346.425 72.656 348.801 71.816 348.801 68.984ZM353.587 56.624H355.675V58.928H353.587V56.624ZM353.635 61.376H355.627V74H353.635V61.376ZM358.606 56.624H360.598V74H358.606V56.624ZM374.085 61.376L369.189 74.024C367.581 78.2 366.357 78.728 364.653 78.728C363.981 78.728 363.549 78.656 363.309 78.632V76.856C363.477 76.88 363.789 76.952 364.389 76.952C365.565 76.952 366.165 76.496 366.981 74.48L367.221 73.88L362.109 61.376H364.317L368.157 71.48H368.229L371.925 61.376H374.085ZM1.512 84.624H3.504V102H1.512V84.624ZM6.43106 84.624H8.51906V86.928H6.43106V84.624ZM6.47906 89.376H8.47106V102H6.47906V89.376ZM16.1775 86.064C15.3375 86.064 14.4735 86.208 14.4735 87.672V89.376H17.4015V90.936H14.4735V102.024H12.4575V90.936H10.3695V89.376H12.4575V87.48C12.4575 85.08 13.9455 84.336 15.8895 84.336C16.6095 84.336 17.3775 84.432 17.7375 84.504V86.16C17.4015 86.112 16.6335 86.064 16.1775 86.064ZM27.7101 98.16L29.7501 98.424C29.1501 100.248 27.5901 102.312 24.0621 102.312C20.6301 102.312 18.2781 99.696 18.2781 95.712C18.2781 91.704 20.5821 89.088 24.0621 89.088C27.5661 89.088 30.0861 91.728 29.8461 96.192H20.3181C20.3901 98.784 21.8541 100.632 24.0621 100.632C26.3421 100.632 27.3501 99.24 27.7101 98.16ZM24.0621 90.768C21.8301 90.768 20.5341 92.544 20.3421 94.608H27.7821C27.6141 92.544 26.3181 90.768 24.0621 90.768ZM46.4936 92.664L44.6696 93.048C44.3096 91.56 42.9896 90.696 41.4536 90.696C39.8216 90.696 38.7176 91.464 38.7176 92.736C38.7176 93.984 39.9416 94.296 41.3336 94.536L42.6536 94.752C44.8376 95.136 46.8056 95.784 46.8056 98.4C46.8056 100.968 44.5736 102.288 41.6216 102.288C38.5736 102.288 36.5096 100.68 36.1256 98.352L37.9736 97.968C38.3336 99.816 39.7736 100.704 41.6456 100.704C43.4456 100.704 44.7416 99.888 44.7416 98.472C44.7416 97.128 43.5176 96.744 41.8856 96.456L40.5656 96.24C38.6696 95.904 36.6536 95.256 36.6536 92.736C36.6536 90.6 38.6456 89.088 41.4776 89.088C44.1416 89.088 46.1816 90.744 46.4936 92.664ZM54.3713 89.088C57.9473 89.088 60.3473 91.68 60.3473 95.688C60.3473 99.696 57.9473 102.288 54.3713 102.288C50.7953 102.288 48.3953 99.696 48.3953 95.688C48.3953 91.68 50.7953 89.088 54.3713 89.088ZM54.3713 100.632C56.7233 100.632 58.2833 98.784 58.2833 95.688C58.2833 92.616 56.7233 90.768 54.3713 90.768C52.0193 90.768 50.4353 92.616 50.4353 95.688C50.4353 98.784 52.0193 100.632 54.3713 100.632ZM85.4338 89.376L81.2338 102H79.0018L75.8818 92.112H75.8098L72.6898 102H70.5538L66.3538 89.376H68.5618L71.6578 99.528H71.7298L74.7778 89.376H77.0818L80.1298 99.528H80.2018L83.2978 89.376H85.4338ZM95.3976 98.16L97.4376 98.424C96.8376 100.248 95.2776 102.312 91.7496 102.312C88.3176 102.312 85.9656 99.696 85.9656 95.712C85.9656 91.704 88.2696 89.088 91.7496 89.088C95.2536 89.088 97.7736 91.728 97.5336 96.192H88.0056C88.0776 98.784 89.5416 100.632 91.7496 100.632C94.0296 100.632 95.0376 99.24 95.3976 98.16ZM91.7496 90.768C89.5176 90.768 88.2216 92.544 88.0296 94.608H95.4696C95.3016 92.544 94.0056 90.768 91.7496 90.768ZM110.149 100.632C112.525 100.632 113.389 98.856 113.725 97.752L115.789 98.064C115.261 99.84 113.725 102.288 110.149 102.288C106.669 102.288 104.317 99.696 104.317 95.688C104.317 91.68 106.693 89.088 110.173 89.088C113.701 89.088 115.093 91.56 115.501 92.568L113.605 93.192C113.293 92.496 112.501 90.768 110.173 90.768C107.893 90.768 106.357 92.616 106.357 95.688C106.357 98.784 107.893 100.632 110.149 100.632ZM127.864 102H125.896C125.728 101.808 125.584 101.16 125.56 100.224C124.6 101.784 122.584 102.288 121.072 102.288C118.864 102.288 117.04 100.848 117.04 98.568C117.04 95.784 119.272 94.92 122.368 94.56C124.936 94.248 125.512 93.912 125.512 93.024C125.512 91.704 124.696 90.768 122.632 90.768C121.264 90.768 119.872 91.368 119.368 93.12L117.52 92.688C118.096 90.288 120.184 89.088 122.704 89.088C126.184 89.088 127.528 90.792 127.528 92.976V99.096C127.528 100.584 127.576 101.352 127.864 102ZM125.512 96.984V95.256C125.104 95.712 123.568 95.904 122.176 96.096C120.808 96.288 119.08 96.912 119.08 98.568C119.08 99.912 120.016 100.656 121.456 100.656C123.136 100.656 125.512 99.816 125.512 96.984ZM132.242 91.176H132.314C133.106 89.88 134.594 89.088 136.322 89.088C138.77 89.088 140.81 90.528 140.81 93.6V102H138.794V94.296C138.794 91.8 137.834 90.792 135.794 90.792C134.066 90.792 132.338 92.088 132.338 94.992V102H130.346V89.376H132.242V91.176ZM157.484 98.16L159.523 98.424C158.924 100.248 157.364 102.312 153.836 102.312C150.404 102.312 148.052 99.696 148.052 95.712C148.052 91.704 150.355 89.088 153.836 89.088C157.34 89.088 159.859 91.728 159.62 96.192H150.092C150.164 98.784 151.628 100.632 153.836 100.632C156.116 100.632 157.124 99.24 157.484 98.16ZM153.836 90.768C151.604 90.768 150.308 92.544 150.116 94.608H157.556C157.388 92.544 156.092 90.768 153.836 90.768ZM175.5 89.088C177.708 89.088 179.676 90.528 179.676 93.6V102H177.66V94.296C177.66 91.8 176.748 90.792 174.924 90.792C173.388 90.792 171.804 91.992 171.804 94.896V102H169.788V94.296C169.788 91.8 168.9 90.792 167.052 90.792C165.492 90.792 163.932 92.088 163.932 94.992V102H161.94V89.376H163.836V91.2H163.908C164.7 89.88 166.068 89.088 167.628 89.088C169.188 89.088 170.604 89.808 171.324 91.296C172.236 90 173.556 89.088 175.5 89.088ZM188.591 102.288V102.312C186.791 102.312 185.231 101.52 184.535 100.2H184.463V106.44H182.471V89.376H184.367V91.32H184.439C185.135 89.928 186.743 89.088 188.591 89.088C191.927 89.088 194.279 91.704 194.279 95.688C194.279 99.696 191.927 102.288 188.591 102.288ZM188.255 90.768C185.951 90.768 184.343 92.616 184.343 95.688C184.343 98.784 185.951 100.632 188.255 100.632C190.655 100.632 192.215 98.784 192.215 95.688C192.215 92.616 190.655 90.768 188.255 90.768ZM202.004 89.088C205.58 89.088 207.98 91.68 207.98 95.688C207.98 99.696 205.58 102.288 202.004 102.288C198.428 102.288 196.028 99.696 196.028 95.688C196.028 91.68 198.428 89.088 202.004 89.088ZM202.004 100.632C204.356 100.632 205.916 98.784 205.916 95.688C205.916 92.616 204.356 90.768 202.004 90.768C199.652 90.768 198.068 92.616 198.068 95.688C198.068 98.784 199.652 100.632 202.004 100.632ZM227.606 89.376L223.406 102H221.174L218.054 92.112H217.982L214.862 102H212.726L208.526 89.376H210.734L213.83 99.528H213.902L216.95 89.376H219.254L222.302 99.528H222.374L225.47 89.376H227.606ZM237.569 98.16L239.609 98.424C239.009 100.248 237.449 102.312 233.921 102.312C230.489 102.312 228.137 99.696 228.137 95.712C228.137 91.704 230.441 89.088 233.921 89.088C237.425 89.088 239.945 91.728 239.705 96.192H230.177C230.249 98.784 231.713 100.632 233.921 100.632C236.201 100.632 237.209 99.24 237.569 98.16ZM233.921 90.768C231.689 90.768 230.393 92.544 230.201 94.608H237.641C237.473 92.544 236.177 90.768 233.921 90.768ZM243.922 89.376V91.536H243.994C244.642 90.072 246.106 89.088 247.978 89.088C248.362 89.088 248.794 89.136 249.058 89.208V91.152C248.794 91.104 248.314 91.056 247.858 91.056C245.674 91.056 244.018 92.352 244.018 95.448V102H242.026V89.376H243.922ZM264.78 98.16L266.82 98.424C266.22 100.248 264.66 102.312 261.132 102.312C257.7 102.312 255.348 99.696 255.348 95.712C255.348 91.704 257.652 89.088 261.132 89.088C264.636 89.088 267.156 91.728 266.916 96.192H257.388C257.46 98.784 258.924 100.632 261.132 100.632C263.412 100.632 264.42 99.24 264.78 98.16ZM261.132 90.768C258.9 90.768 257.604 92.544 257.412 94.608H264.852C264.684 92.544 263.388 90.768 261.132 90.768ZM279.341 102H277.373C277.205 101.808 277.061 101.16 277.037 100.224C276.077 101.784 274.061 102.288 272.549 102.288C270.341 102.288 268.517 100.848 268.517 98.568C268.517 95.784 270.749 94.92 273.845 94.56C276.413 94.248 276.989 93.912 276.989 93.024C276.989 91.704 276.173 90.768 274.109 90.768C272.741 90.768 271.349 91.368 270.845 93.12L268.997 92.688C269.573 90.288 271.661 89.088 274.181 89.088C277.661 89.088 279.005 90.792 279.005 92.976V99.096C279.005 100.584 279.053 101.352 279.341 102ZM276.989 96.984V95.256C276.581 95.712 275.045 95.904 273.653 96.096C272.285 96.288 270.557 96.912 270.557 98.568C270.557 99.912 271.493 100.656 272.933 100.656C274.613 100.656 276.989 99.816 276.989 96.984ZM287.079 100.632C289.455 100.632 290.319 98.856 290.655 97.752L292.719 98.064C292.191 99.84 290.655 102.288 287.079 102.288C283.599 102.288 281.247 99.696 281.247 95.688C281.247 91.68 283.623 89.088 287.103 89.088C290.631 89.088 292.023 91.56 292.431 92.568L290.535 93.192C290.223 92.496 289.431 90.768 287.103 90.768C284.823 90.768 283.287 92.616 283.287 95.688C283.287 98.784 284.823 100.632 287.079 100.632ZM296.682 91.2H296.754C297.546 89.904 299.034 89.088 300.714 89.088C303.114 89.088 305.154 90.528 305.154 93.6V102H303.138V94.296C303.138 91.8 302.178 90.792 300.138 90.792C298.458 90.792 296.682 92.28 296.682 95.16V102H294.666V84.624H296.682V91.2ZM318.371 89.088C321.947 89.088 324.347 91.68 324.347 95.688C324.347 99.696 321.947 102.288 318.371 102.288C314.795 102.288 312.395 99.696 312.395 95.688C312.395 91.68 314.795 89.088 318.371 89.088ZM318.371 100.632C320.723 100.632 322.283 98.784 322.283 95.688C322.283 92.616 320.723 90.768 318.371 90.768C316.019 90.768 314.435 92.616 314.435 95.688C314.435 98.784 316.019 100.632 318.371 100.632ZM330.845 100.296C331.205 100.296 331.805 100.296 332.117 100.272V102.024C331.805 102.048 331.085 102.072 330.461 102.072C328.205 102.072 327.293 101.496 327.293 99.288V90.936H325.205V89.376H327.293V85.752H329.309V89.376H332.237V90.936H329.309V98.784C329.309 100.032 329.717 100.296 330.845 100.296ZM336.291 91.2H336.363C337.155 89.904 338.643 89.088 340.323 89.088C342.723 89.088 344.763 90.528 344.763 93.6V102H342.747V94.296C342.747 91.8 341.787 90.792 339.747 90.792C338.067 90.792 336.291 92.28 336.291 95.16V102H334.275V84.624H336.291V91.2ZM356.398 98.16L358.438 98.424C357.838 100.248 356.278 102.312 352.75 102.312C349.318 102.312 346.966 99.696 346.966 95.712C346.966 91.704 349.27 89.088 352.75 89.088C356.254 89.088 358.774 91.728 358.534 96.192H349.006C349.078 98.784 350.542 100.632 352.75 100.632C355.03 100.632 356.038 99.24 356.398 98.16ZM352.75 90.768C350.518 90.768 349.222 92.544 349.03 94.608H356.47C356.302 92.544 355.006 90.768 352.75 90.768ZM362.75 89.376V91.536H362.822C363.47 90.072 364.934 89.088 366.806 89.088C367.19 89.088 367.622 89.136 367.886 89.208V91.152C367.622 91.104 367.142 91.056 366.686 91.056C364.502 91.056 362.846 92.352 362.846 95.448V102H360.854V89.376H362.75ZM368.71 99.432H371.254V102H368.71V99.432ZM1.584 130V112.864H3.744V128.128H13.176V130H1.584ZM23.7023 126.16L25.7422 126.424C25.1423 128.248 23.5823 130.312 20.0543 130.312C16.6223 130.312 14.2703 127.696 14.2703 123.712C14.2703 119.704 16.5742 117.088 20.0543 117.088C23.5583 117.088 26.0782 119.728 25.8383 124.192H16.3103C16.3823 126.784 17.8463 128.632 20.0543 128.632C22.3343 128.632 23.3423 127.24 23.7023 126.16ZM20.0543 118.768C17.8223 118.768 16.5263 120.544 16.3343 122.608H23.7743C23.6063 120.544 22.3103 118.768 20.0543 118.768ZM32.3454 128.296C32.7054 128.296 33.3054 128.296 33.6174 128.272V130.024C33.3054 130.048 32.5854 130.072 31.9614 130.072C29.7054 130.072 28.7934 129.496 28.7934 127.288V118.936H26.7054V117.376H28.7934V113.752H30.8094V117.376H33.7374V118.936H30.8094V126.784C30.8094 128.032 31.2174 128.296 32.3454 128.296ZM35.7514 118.936V112.864H37.6954V118.936H35.7514ZM49.8452 120.664L48.0212 121.048C47.6612 119.56 46.3412 118.696 44.8052 118.696C43.1732 118.696 42.0692 119.464 42.0692 120.736C42.0692 121.984 43.2932 122.296 44.6852 122.536L46.0052 122.752C48.1892 123.136 50.1572 123.784 50.1572 126.4C50.1572 128.968 47.9252 130.288 44.9732 130.288C41.9252 130.288 39.8612 128.68 39.4772 126.352L41.3252 125.968C41.6852 127.816 43.1252 128.704 44.9972 128.704C46.7972 128.704 48.0932 127.888 48.0932 126.472C48.0932 125.128 46.8692 124.744 45.2372 124.456L43.9172 124.24C42.0212 123.904 40.0052 123.256 40.0052 120.736C40.0052 118.6 41.9972 117.088 44.8292 117.088C47.4932 117.088 49.5332 118.744 49.8452 120.664ZM68.3539 117.376V129.16C68.3539 133.144 65.8579 134.704 62.5939 134.704C59.9539 134.704 57.7699 133.552 57.0019 130.936L58.9219 130.48C59.4499 132.352 60.7699 133.048 62.5939 133.048C64.9219 133.048 66.3379 131.872 66.3379 129.04V127.36H66.2659C65.6179 128.56 64.1059 129.328 62.3539 129.328C59.0899 129.328 56.7859 126.904 56.7859 123.208C56.7859 119.512 59.0899 117.088 62.3539 117.088C64.1539 117.088 65.6899 117.88 66.3619 119.176H66.4339V117.376H68.3539ZM62.6899 127.696C64.9219 127.696 66.4819 125.896 66.4819 123.208C66.4819 120.544 64.9219 118.768 62.6899 118.768C60.3619 118.768 58.8259 120.544 58.8259 123.208C58.8259 125.896 60.3619 127.696 62.6899 127.696ZM76.5666 117.088C80.1426 117.088 82.5426 119.68 82.5426 123.688C82.5426 127.696 80.1426 130.288 76.5666 130.288C72.9906 130.288 70.5906 127.696 70.5906 123.688C70.5906 119.68 72.9906 117.088 76.5666 117.088ZM76.5666 128.632C78.9186 128.632 80.4786 126.784 80.4786 123.688C80.4786 120.616 78.9186 118.768 76.5666 118.768C74.2146 118.768 72.6306 120.616 72.6306 123.688C72.6306 126.784 74.2146 128.632 76.5666 128.632ZM87.5901 127.432V129.568C87.5901 132.136 86.8221 133.36 85.0941 133.384V132.304C85.9101 132.256 86.2701 131.656 86.2701 130H85.0461V127.432H87.5901ZM106.721 117.376V129.16C106.721 133.144 104.225 134.704 100.961 134.704C98.3211 134.704 96.1371 133.552 95.3691 130.936L97.2891 130.48C97.8171 132.352 99.1371 133.048 100.961 133.048C103.289 133.048 104.705 131.872 104.705 129.04V127.36H104.633C103.985 128.56 102.473 129.328 100.721 129.328C97.4571 129.328 95.1531 126.904 95.1531 123.208C95.1531 119.512 97.4571 117.088 100.721 117.088C102.521 117.088 104.057 117.88 104.729 119.176H104.801V117.376H106.721ZM101.057 127.696C103.289 127.696 104.849 125.896 104.849 123.208C104.849 120.544 103.289 118.768 101.057 118.768C98.7291 118.768 97.1931 120.544 97.1931 123.208C97.1931 125.896 98.7291 127.696 101.057 127.696ZM109.486 112.624H111.574V114.928H109.486V112.624ZM109.534 117.376H111.526V130H109.534V117.376ZM116.328 117.376V119.536H116.4C117.048 118.072 118.512 117.088 120.384 117.088C120.768 117.088 121.2 117.136 121.464 117.208V119.152C121.2 119.104 120.72 119.056 120.264 119.056C118.08 119.056 116.424 120.352 116.424 123.448V130H114.432V117.376H116.328ZM123.364 112.624H125.356V130H123.364V112.624ZM129.171 125.416L128.835 117.784V112.864H130.995V117.784L130.659 125.416H129.171ZM128.619 127.432H131.187V130H128.619V127.432Z" fill="black"/>
</svg>
