<svg width="324" height="19" viewBox="0 0 324 19" fill="none" xmlns="http://www.w3.org/2000/svg">
<path d="M17.048 0.863999V18H14.96V4.032H14.888L9.656 18H7.904L2.648 4.032H2.576V18H0.56V0.863999H3.68L8.792 14.832H8.864L13.976 0.863999H17.048ZM30.2081 18H28.2401C28.0721 17.808 27.9281 17.16 27.9041 16.224C26.9441 17.784 24.9281 18.288 23.4161 18.288C21.2081 18.288 19.3841 16.848 19.3841 14.568C19.3841 11.784 21.6161 10.92 24.7121 10.56C27.2801 10.248 27.8561 9.912 27.8561 9.024C27.8561 7.704 27.0401 6.768 24.9761 6.768C23.6081 6.768 22.2161 7.368 21.7121 9.12L19.8641 8.688C20.4401 6.288 22.5281 5.088 25.0481 5.088C28.5281 5.088 29.8721 6.792 29.8721 8.976V15.096C29.8721 16.584 29.9201 17.352 30.2081 18ZM27.8561 12.984V11.256C27.4481 11.712 25.9121 11.904 24.5201 12.096C23.1521 12.288 21.4241 12.912 21.4241 14.568C21.4241 15.912 22.3601 16.656 23.8001 16.656C25.4801 16.656 27.8561 15.816 27.8561 12.984ZM34.682 13.032V18H32.69V0.623999H34.682V10.728L40.322 5.376H42.89L37.706 10.224L43.49 18H41.066L36.314 11.544L34.682 13.032ZM52.6085 14.16L54.6485 14.424C54.0485 16.248 52.4885 18.312 48.9605 18.312C45.5285 18.312 43.1765 15.696 43.1765 11.712C43.1765 7.704 45.4805 5.088 48.9605 5.088C52.4645 5.088 54.9845 7.728 54.7445 12.192H45.2165C45.2885 14.784 46.7525 16.632 48.9605 16.632C51.2405 16.632 52.2485 15.24 52.6085 14.16ZM48.9605 6.768C46.7285 6.768 45.4325 8.544 45.2405 10.608H52.6805C52.5125 8.544 51.2165 6.768 48.9605 6.768ZM73.0001 13.032H65.1521L63.2561 18H60.9281L67.7681 0.863999H70.4321L77.2721 18H74.9201L73.0001 13.032ZM72.2801 11.184L69.0881 2.904H69.0161L65.8481 11.184H72.2801ZM96.4736 5.592L94.3136 5.784C93.8576 3.432 92.1056 2.304 89.8976 2.304C87.4976 2.304 86.0336 3.528 86.0336 5.232C86.0336 6.744 87.2336 7.368 88.9136 7.752L92.0816 8.496C94.5776 9.072 96.8816 9.936 96.8816 13.392C96.8816 16.68 94.0256 18.384 90.4256 18.384C86.4656 18.384 83.8976 16.416 83.2496 12.768L85.4096 12.528C85.8896 15.6 88.0256 16.584 90.4736 16.584C92.9216 16.584 94.6736 15.408 94.6736 13.44C94.6736 11.544 93.2816 10.944 91.4336 10.488L88.2176 9.72C85.9136 9.168 83.8256 8.232 83.8256 5.256C83.8256 2.4 86.3696 0.503999 89.9216 0.503999C93.4736 0.503999 95.7296 2.376 96.4736 5.592ZM104.579 16.632C106.955 16.632 107.819 14.856 108.155 13.752L110.219 14.064C109.691 15.84 108.155 18.288 104.579 18.288C101.099 18.288 98.7468 15.696 98.7468 11.688C98.7468 7.68 101.123 5.088 104.603 5.088C108.131 5.088 109.523 7.56 109.931 8.568L108.035 9.192C107.723 8.496 106.931 6.768 104.603 6.768C102.323 6.768 100.787 8.616 100.787 11.688C100.787 14.784 102.323 16.632 104.579 16.632ZM114.086 7.176H114.158C114.95 5.88 116.438 5.088 118.166 5.088C120.614 5.088 122.654 6.528 122.654 9.6V18H120.638V10.296C120.638 7.8 119.678 6.792 117.638 6.792C115.91 6.792 114.182 8.088 114.182 10.992V18H112.19V5.376H114.086V7.176ZM134.288 14.16L136.328 14.424C135.728 16.248 134.168 18.312 130.64 18.312C127.208 18.312 124.856 15.696 124.856 11.712C124.856 7.704 127.16 5.088 130.64 5.088C134.144 5.088 136.664 7.728 136.424 12.192H126.896C126.968 14.784 128.432 16.632 130.64 16.632C132.92 16.632 133.928 15.24 134.288 14.16ZM130.64 6.768C128.408 6.768 127.112 8.544 126.92 10.608H134.36C134.192 8.544 132.896 6.768 130.64 6.768ZM148.584 2.064C147.744 2.064 146.88 2.208 146.88 3.672V5.376H149.808V6.936H146.88V18.024H144.864V6.936H142.776V5.376H144.864V3.48C144.864 1.08 146.352 0.335999 148.296 0.335999C149.016 0.335999 149.784 0.431999 150.144 0.503999V2.16C149.808 2.112 149.04 2.064 148.584 2.064ZM153.906 5.376V7.536H153.978C154.626 6.072 156.09 5.088 157.962 5.088C158.346 5.088 158.778 5.136 159.042 5.208V7.152C158.778 7.104 158.298 7.056 157.842 7.056C155.658 7.056 154.002 8.352 154.002 11.448V18H152.01V5.376H153.906ZM165.942 5.088C169.518 5.088 171.918 7.68 171.918 11.688C171.918 15.696 169.518 18.288 165.942 18.288C162.366 18.288 159.966 15.696 159.966 11.688C159.966 7.68 162.366 5.088 165.942 5.088ZM165.942 16.632C168.294 16.632 169.854 14.784 169.854 11.688C169.854 8.616 168.294 6.768 165.942 6.768C163.59 6.768 162.006 8.616 162.006 11.688C162.006 14.784 163.59 16.632 165.942 16.632ZM187.789 5.088C189.997 5.088 191.965 6.528 191.965 9.6V18H189.949V10.296C189.949 7.8 189.037 6.792 187.213 6.792C185.677 6.792 184.093 7.992 184.093 10.896V18H182.077V10.296C182.077 7.8 181.189 6.792 179.341 6.792C177.781 6.792 176.221 8.088 176.221 10.992V18H174.229V5.376H176.125V7.2H176.197C176.989 5.88 178.357 5.088 179.917 5.088C181.477 5.088 182.893 5.808 183.613 7.296C184.525 6 185.845 5.088 187.789 5.088ZM204.431 16.296C204.791 16.296 205.391 16.296 205.703 16.272V18.024C205.391 18.048 204.671 18.072 204.047 18.072C201.791 18.072 200.879 17.496 200.879 15.288V6.936H198.791V5.376H200.879V1.752H202.895V5.376H205.823V6.936H202.895V14.784C202.895 16.032 203.303 16.296 204.431 16.296ZM209.877 7.2H209.949C210.741 5.904 212.229 5.088 213.909 5.088C216.309 5.088 218.349 6.528 218.349 9.6V18H216.333V10.296C216.333 7.8 215.373 6.792 213.333 6.792C211.653 6.792 209.877 8.28 209.877 11.16V18H207.861V0.623999H209.877V7.2ZM229.984 14.16L232.023 14.424C231.424 16.248 229.864 18.312 226.336 18.312C222.904 18.312 220.552 15.696 220.552 11.712C220.552 7.704 222.855 5.088 226.336 5.088C229.84 5.088 232.359 7.728 232.12 12.192H222.592C222.664 14.784 224.128 16.632 226.336 16.632C228.616 16.632 229.624 15.24 229.984 14.16ZM226.336 6.768C224.104 6.768 222.808 8.544 222.616 10.608H230.056C229.888 8.544 228.592 6.768 226.336 6.768ZM253.039 0.863999V12.024C253.039 16.152 250.207 18.384 246.319 18.384C242.455 18.384 239.599 16.152 239.599 12.024V0.863999H241.759V11.736C241.759 15.12 243.487 16.512 246.319 16.512C249.175 16.512 250.879 15.12 250.879 11.736V0.863999H253.039ZM257.992 7.176H258.064C258.856 5.88 260.344 5.088 262.072 5.088C264.52 5.088 266.56 6.528 266.56 9.6V18H264.544V10.296C264.544 7.8 263.584 6.792 261.544 6.792C259.816 6.792 258.088 8.088 258.088 10.992V18H256.096V5.376H257.992V7.176ZM278.626 8.664L276.802 9.048C276.442 7.56 275.122 6.696 273.586 6.696C271.954 6.696 270.85 7.464 270.85 8.736C270.85 9.984 272.074 10.296 273.466 10.536L274.786 10.752C276.97 11.136 278.938 11.784 278.938 14.4C278.938 16.968 276.706 18.288 273.754 18.288C270.706 18.288 268.642 16.68 268.258 14.352L270.106 13.968C270.466 15.816 271.906 16.704 273.778 16.704C275.578 16.704 276.874 15.888 276.874 14.472C276.874 13.128 275.65 12.744 274.018 12.456L272.698 12.24C270.802 11.904 268.786 11.256 268.786 8.736C268.786 6.6 270.778 5.088 273.61 5.088C276.274 5.088 278.314 6.744 278.626 8.664ZM289.96 14.16L292 14.424C291.4 16.248 289.84 18.312 286.312 18.312C282.88 18.312 280.528 15.696 280.528 11.712C280.528 7.704 282.832 5.088 286.312 5.088C289.816 5.088 292.336 7.728 292.096 12.192H282.568C282.64 14.784 284.104 16.632 286.312 16.632C288.592 16.632 289.6 15.24 289.96 14.16ZM286.312 6.768C284.08 6.768 282.784 8.544 282.592 10.608H290.032C289.864 8.544 288.568 6.768 286.312 6.768ZM303.273 14.16L305.313 14.424C304.713 16.248 303.153 18.312 299.625 18.312C296.193 18.312 293.841 15.696 293.841 11.712C293.841 7.704 296.145 5.088 299.625 5.088C303.129 5.088 305.649 7.728 305.409 12.192H295.881C295.953 14.784 297.417 16.632 299.625 16.632C301.905 16.632 302.913 15.24 303.273 14.16ZM299.625 6.768C297.393 6.768 296.097 8.544 295.905 10.608H303.345C303.177 8.544 301.881 6.768 299.625 6.768ZM309.625 7.176H309.697C310.489 5.88 311.977 5.088 313.705 5.088C316.153 5.088 318.193 6.528 318.193 9.6V18H316.177V10.296C316.177 7.8 315.217 6.792 313.177 6.792C311.449 6.792 309.721 8.088 309.721 10.992V18H307.729V5.376H309.625V7.176ZM321.163 15.432H323.707V18H321.163V15.432Z" fill="black"/>
</svg>
