<svg width="378" height="79" viewBox="0 0 378 79" fill="none" xmlns="http://www.w3.org/2000/svg">
<path d="M1.656 18V0.863999H3.816V18H1.656ZM8.79694 7.176H8.86894C9.66094 5.88 11.1489 5.088 12.8769 5.088C15.3249 5.088 17.3649 6.528 17.3649 9.6V18H15.3489V10.296C15.3489 7.8 14.3889 6.792 12.3489 6.792C10.6209 6.792 8.89294 8.088 8.89294 10.992V18H6.90094V5.376H8.79694V7.176ZM37.1582 18L35.6942 7.128H35.5982L34.1822 18H27.4382L23.8142 0.863999H29.1902L31.0382 12.264H31.1342L32.6462 0.863999H38.5982L40.1102 12.264H40.2062L42.0542 0.863999H47.5262L43.9022 18H37.1582ZM58.3879 14.784H52.5319L51.5959 18H46.0759L51.9319 0.863999H59.1319L64.9879 18H59.3719L58.3879 14.784ZM57.3079 11.184L55.4839 5.112H55.3879L53.5879 11.184H57.3079ZM82.2504 18H76.2744L70.8984 7.68H70.8024V18H66.0024V0.863999H72.0744L77.3544 10.92H77.4504V0.863999H82.2504V18ZM84.4478 0.863999H91.7438C97.1678 0.863999 101.032 3.288 101.032 9.432C101.032 15.576 97.1678 18 91.7438 18H84.4478V0.863999ZM89.7278 14.04H90.8558C93.8078 14.04 95.6558 13.296 95.6558 9.432C95.6558 5.568 93.8078 4.824 90.8558 4.824H89.7278V14.04ZM108.056 7.368H115.784V11.16H108.056V13.92H116.264V18H102.752V0.863999H116.264V4.824H108.056V7.368ZM128.375 18L125.471 12.576H123.407V18H118.127V0.863999H127.223C131.399 0.863999 133.919 2.976 133.919 6.72C133.919 9.216 132.791 10.992 130.823 11.904L134.495 18H128.375ZM123.407 8.616H126.287C127.799 8.616 128.543 7.872 128.543 6.72C128.543 5.568 127.799 4.824 126.287 4.824H123.407V8.616ZM138.66 15.432V17.568C138.66 20.136 137.892 21.36 136.164 21.384V20.304C136.98 20.256 137.34 19.656 137.34 18H136.116V15.432H138.66ZM164.535 5.376L160.335 18H158.103L154.983 8.112H154.911L151.791 18H149.655L145.455 5.376H147.663L150.759 15.528H150.831L153.879 5.376H156.183L159.231 15.528H159.303L162.399 5.376H164.535ZM174.499 14.16L176.539 14.424C175.939 16.248 174.379 18.312 170.851 18.312C167.419 18.312 165.067 15.696 165.067 11.712C165.067 7.704 167.371 5.088 170.851 5.088C174.355 5.088 176.875 7.728 176.635 12.192H167.107C167.179 14.784 168.643 16.632 170.851 16.632C173.131 16.632 174.139 15.24 174.499 14.16ZM170.851 6.768C168.619 6.768 167.323 8.544 167.131 10.608H174.571C174.403 8.544 173.107 6.768 170.851 6.768ZM184.067 0.623999H186.059V18H184.067V0.623999ZM197.89 14.16L199.93 14.424C199.33 16.248 197.77 18.312 194.242 18.312C190.81 18.312 188.458 15.696 188.458 11.712C188.458 7.704 190.762 5.088 194.242 5.088C197.746 5.088 200.266 7.728 200.026 12.192H190.498C190.57 14.784 192.034 16.632 194.242 16.632C196.522 16.632 197.53 15.24 197.89 14.16ZM194.242 6.768C192.01 6.768 190.714 8.544 190.522 10.608H197.962C197.794 8.544 196.498 6.768 194.242 6.768ZM206.533 16.296C206.893 16.296 207.493 16.296 207.805 16.272V18.024C207.493 18.048 206.773 18.072 206.149 18.072C203.893 18.072 202.981 17.496 202.981 15.288V6.936H200.893V5.376H202.981V1.752H204.997V5.376H207.925V6.936H204.997V14.784C204.997 16.032 205.405 16.296 206.533 16.296ZM221.146 18.288V18.312C219.346 18.312 217.786 17.52 217.09 16.2H217.018V22.44H215.026V5.376H216.922V7.32H216.994C217.69 5.928 219.298 5.088 221.146 5.088C224.482 5.088 226.834 7.704 226.834 11.688C226.834 15.696 224.482 18.288 221.146 18.288ZM220.81 6.768C218.506 6.768 216.898 8.616 216.898 11.688C216.898 14.784 218.506 16.632 220.81 16.632C223.21 16.632 224.77 14.784 224.77 11.688C224.77 8.616 223.21 6.768 220.81 6.768ZM238.015 14.16L240.055 14.424C239.455 16.248 237.895 18.312 234.367 18.312C230.935 18.312 228.583 15.696 228.583 11.712C228.583 7.704 230.887 5.088 234.367 5.088C237.871 5.088 240.391 7.728 240.151 12.192H230.623C230.695 14.784 232.159 16.632 234.367 16.632C236.647 16.632 237.655 15.24 238.015 14.16ZM234.367 6.768C232.135 6.768 230.839 8.544 230.647 10.608H238.087C237.919 8.544 236.623 6.768 234.367 6.768ZM247.871 5.088C251.447 5.088 253.847 7.68 253.847 11.688C253.847 15.696 251.447 18.288 247.871 18.288C244.295 18.288 241.895 15.696 241.895 11.688C241.895 7.68 244.295 5.088 247.871 5.088ZM247.871 16.632C250.223 16.632 251.783 14.784 251.783 11.688C251.783 8.616 250.223 6.768 247.871 6.768C245.519 6.768 243.935 8.616 243.935 11.688C243.935 14.784 245.519 16.632 247.871 16.632ZM262.279 18.288V18.312C260.479 18.312 258.919 17.52 258.223 16.2H258.151V22.44H256.159V5.376H258.055V7.32H258.127C258.823 5.928 260.431 5.088 262.279 5.088C265.615 5.088 267.967 7.704 267.967 11.688C267.967 15.696 265.615 18.288 262.279 18.288ZM261.943 6.768C259.639 6.768 258.031 8.616 258.031 11.688C258.031 14.784 259.639 16.632 261.943 16.632C264.343 16.632 265.903 14.784 265.903 11.688C265.903 8.616 264.343 6.768 261.943 6.768ZM270.364 0.623999H272.356V18H270.364V0.623999ZM284.187 14.16L286.227 14.424C285.627 16.248 284.067 18.312 280.539 18.312C277.107 18.312 274.755 15.696 274.755 11.712C274.755 7.704 277.059 5.088 280.539 5.088C284.043 5.088 286.563 7.728 286.323 12.192H276.795C276.867 14.784 278.331 16.632 280.539 16.632C282.819 16.632 283.827 15.24 284.187 14.16ZM280.539 6.768C278.307 6.768 277.011 8.544 276.819 10.608H284.259C284.091 8.544 282.795 6.768 280.539 6.768ZM299.802 5.088C303.138 5.088 305.49 7.704 305.49 11.688C305.49 15.696 303.138 18.288 299.802 18.288C297.954 18.288 296.322 17.424 295.65 16.08H295.578V18H293.682V0.623999H295.674V7.2H295.746C296.418 5.928 298.002 5.088 299.802 5.088ZM299.466 16.632C301.866 16.632 303.426 14.784 303.426 11.688C303.426 8.616 301.866 6.768 299.466 6.768C297.138 6.768 295.554 8.616 295.554 11.688C295.554 14.784 297.138 16.632 299.466 16.632ZM316.671 14.16L318.711 14.424C318.111 16.248 316.551 18.312 313.023 18.312C309.591 18.312 307.239 15.696 307.239 11.712C307.239 7.704 309.543 5.088 313.023 5.088C316.527 5.088 319.047 7.728 318.807 12.192H309.279C309.351 14.784 310.815 16.632 313.023 16.632C315.303 16.632 316.311 15.24 316.671 14.16ZM313.023 6.768C310.791 6.768 309.495 8.544 309.303 10.608H316.743C316.575 8.544 315.279 6.768 313.023 6.768ZM331.567 5.088C335.143 5.088 337.543 7.68 337.543 11.688C337.543 15.696 335.143 18.288 331.567 18.288C327.991 18.288 325.591 15.696 325.591 11.688C325.591 7.68 327.991 5.088 331.567 5.088ZM331.567 16.632C333.919 16.632 335.479 14.784 335.479 11.688C335.479 8.616 333.919 6.768 331.567 6.768C329.215 6.768 327.631 8.616 327.631 11.688C327.631 14.784 329.215 16.632 331.567 16.632ZM345.974 18.288V18.312C344.174 18.312 342.614 17.52 341.918 16.2H341.846V22.44H339.854V5.376H341.75V7.32H341.822C342.518 5.928 344.126 5.088 345.974 5.088C349.31 5.088 351.662 7.704 351.662 11.688C351.662 15.696 349.31 18.288 345.974 18.288ZM345.638 6.768C343.334 6.768 341.726 8.616 341.726 11.688C341.726 14.784 343.334 16.632 345.638 16.632C348.038 16.632 349.598 14.784 349.598 11.688C349.598 8.616 348.038 6.768 345.638 6.768ZM362.843 14.16L364.883 14.424C364.283 16.248 362.723 18.312 359.195 18.312C355.763 18.312 353.411 15.696 353.411 11.712C353.411 7.704 355.715 5.088 359.195 5.088C362.699 5.088 365.219 7.728 364.979 12.192H355.451C355.523 14.784 356.987 16.632 359.195 16.632C361.475 16.632 362.483 15.24 362.843 14.16ZM359.195 6.768C356.963 6.768 355.667 8.544 355.475 10.608H362.915C362.747 8.544 361.451 6.768 359.195 6.768ZM369.195 7.176H369.267C370.059 5.88 371.547 5.088 373.275 5.088C375.723 5.088 377.763 6.528 377.763 9.6V18H375.747V10.296C375.747 7.8 374.787 6.792 372.747 6.792C371.019 6.792 369.291 8.088 369.291 10.992V18H367.299V5.376H369.195V7.176ZM6.072 44.296C6.432 44.296 7.032 44.296 7.344 44.272V46.024C7.032 46.048 6.312 46.072 5.688 46.072C3.432 46.072 2.52 45.496 2.52 43.288V34.936H0.432V33.376H2.52V29.752H4.536V33.376H7.464V34.936H4.536V42.784C4.536 44.032 4.944 44.296 6.072 44.296ZM14.4103 33.088C17.9863 33.088 20.3863 35.68 20.3863 39.688C20.3863 43.696 17.9863 46.288 14.4103 46.288C10.8343 46.288 8.43431 43.696 8.43431 39.688C8.43431 35.68 10.8343 33.088 14.4103 33.088ZM14.4103 44.632C16.7623 44.632 18.3223 42.784 18.3223 39.688C18.3223 36.616 16.7623 34.768 14.4103 34.768C12.0583 34.768 10.4743 36.616 10.4743 39.688C10.4743 42.784 12.0583 44.632 14.4103 44.632ZM32.3689 44.296C32.7289 44.296 33.3289 44.296 33.6409 44.272V46.024C33.3289 46.048 32.6089 46.072 31.9849 46.072C29.7289 46.072 28.8169 45.496 28.8169 43.288V34.936H26.7289V33.376H28.8169V29.752H30.8329V33.376H33.7609V34.936H30.8329V42.784C30.8329 44.032 31.2409 44.296 32.3689 44.296ZM37.8148 35.2H37.8868C38.6788 33.904 40.1668 33.088 41.8468 33.088C44.2468 33.088 46.2868 34.528 46.2868 37.6V46H44.2708V38.296C44.2708 35.8 43.3108 34.792 41.2708 34.792C39.5908 34.792 37.8148 36.28 37.8148 39.16V46H35.7988V28.624H37.8148V35.2ZM57.921 42.16L59.961 42.424C59.361 44.248 57.801 46.312 54.273 46.312C50.841 46.312 48.489 43.696 48.489 39.712C48.489 35.704 50.793 33.088 54.273 33.088C57.777 33.088 60.297 35.728 60.057 40.192H50.529C50.601 42.784 52.065 44.632 54.273 44.632C56.553 44.632 57.561 43.24 57.921 42.16ZM54.273 34.768C52.041 34.768 50.745 36.544 50.553 38.608H57.993C57.825 36.544 56.529 34.768 54.273 34.768ZM75.9606 44.224H75.8886C75.0966 45.496 73.6326 46.288 71.8806 46.288C69.4326 46.288 67.3926 44.872 67.3926 41.8V33.376H69.4086V41.104C69.4086 43.6 70.3686 44.608 72.4086 44.608C74.1606 44.608 75.8646 43.312 75.8646 40.408V33.376H77.8806V46H75.9606V44.224ZM82.5548 35.176H82.6268C83.4188 33.88 84.9068 33.088 86.6348 33.088C89.0828 33.088 91.1228 34.528 91.1228 37.6V46H89.1068V38.296C89.1068 35.8 88.1468 34.792 86.1068 34.792C84.3788 34.792 82.6508 36.088 82.6508 38.992V46H80.6588V33.376H82.5548V35.176ZM95.8929 41.032V46H93.9009V28.624H95.8929V38.728L101.533 33.376H104.101L98.9169 38.224L104.701 46H102.277L97.5249 39.544L95.8929 41.032ZM107.938 35.176H108.01C108.802 33.88 110.29 33.088 112.018 33.088C114.466 33.088 116.506 34.528 116.506 37.6V46H114.49V38.296C114.49 35.8 113.53 34.792 111.49 34.792C109.762 34.792 108.034 36.088 108.034 38.992V46H106.042V33.376H107.938V35.176ZM124.684 33.088C128.26 33.088 130.66 35.68 130.66 39.688C130.66 43.696 128.26 46.288 124.684 46.288C121.108 46.288 118.708 43.696 118.708 39.688C118.708 35.68 121.108 33.088 124.684 33.088ZM124.684 44.632C127.036 44.632 128.596 42.784 128.596 39.688C128.596 36.616 127.036 34.768 124.684 34.768C122.332 34.768 120.748 36.616 120.748 39.688C120.748 42.784 122.332 44.632 124.684 44.632ZM150.285 33.376L146.085 46H143.853L140.733 36.112H140.661L137.541 46H135.405L131.205 33.376H133.413L136.509 43.528H136.581L139.629 33.376H141.933L144.981 43.528H145.053L148.149 33.376H150.285ZM153.711 35.176H153.783C154.575 33.88 156.063 33.088 157.791 33.088C160.239 33.088 162.279 34.528 162.279 37.6V46H160.263V38.296C160.263 35.8 159.303 34.792 157.263 34.792C155.535 34.792 153.807 36.088 153.807 38.992V46H151.815V33.376H153.711V35.176ZM187.832 33.376L183.632 46H181.4L178.28 36.112H178.208L175.088 46H172.952L168.752 33.376H170.96L174.056 43.528H174.128L177.176 33.376H179.48L182.528 43.528H182.6L185.696 33.376H187.832ZM191.354 35.2H191.426C192.218 33.904 193.706 33.088 195.386 33.088C197.786 33.088 199.826 34.528 199.826 37.6V46H197.81V38.296C197.81 35.8 196.85 34.792 194.81 34.792C193.13 34.792 191.354 36.28 191.354 39.16V46H189.338V28.624H191.354V35.2ZM202.556 28.624H204.644V30.928H202.556V28.624ZM202.604 33.376H204.596V46H202.604V33.376ZM207.575 28.624H209.567V46H207.575V28.624ZM221.398 42.16L223.438 42.424C222.838 44.248 221.278 46.312 217.75 46.312C214.318 46.312 211.966 43.696 211.966 39.712C211.966 35.704 214.27 33.088 217.75 33.088C221.254 33.088 223.774 35.728 223.534 40.192H214.006C214.078 42.784 215.542 44.632 217.75 44.632C220.03 44.632 221.038 43.24 221.398 42.16ZM217.75 34.768C215.518 34.768 214.222 36.544 214.03 38.608H221.47C221.302 36.544 220.006 34.768 217.75 34.768ZM239.749 42.16L241.789 42.424C241.189 44.248 239.629 46.312 236.101 46.312C232.669 46.312 230.317 43.696 230.317 39.712C230.317 35.704 232.621 33.088 236.101 33.088C239.605 33.088 242.125 35.728 241.885 40.192H232.357C232.429 42.784 233.893 44.632 236.101 44.632C238.381 44.632 239.389 43.24 239.749 42.16ZM236.101 34.768C233.869 34.768 232.573 36.544 232.381 38.608H239.821C239.653 36.544 238.357 34.768 236.101 34.768ZM251.069 46L247.661 41.056L244.181 46H241.901L246.461 39.568L242.141 33.376H244.493L247.709 38.056L250.901 33.376H253.205L248.885 39.52L253.469 46H251.069ZM261.13 46.288V46.312C259.33 46.312 257.77 45.52 257.074 44.2H257.002V50.44H255.01V33.376H256.906V35.32H256.978C257.674 33.928 259.282 33.088 261.13 33.088C264.466 33.088 266.818 35.704 266.818 39.688C266.818 43.696 264.466 46.288 261.13 46.288ZM260.794 34.768C258.49 34.768 256.882 36.616 256.882 39.688C256.882 42.784 258.49 44.632 260.794 44.632C263.194 44.632 264.754 42.784 264.754 39.688C264.754 36.616 263.194 34.768 260.794 34.768ZM269.215 28.624H271.207V46H269.215V28.624ZM279.582 33.088C283.158 33.088 285.558 35.68 285.558 39.688C285.558 43.696 283.158 46.288 279.582 46.288C276.006 46.288 273.606 43.696 273.606 39.688C273.606 35.68 276.006 33.088 279.582 33.088ZM279.582 44.632C281.934 44.632 283.494 42.784 283.494 39.688C283.494 36.616 281.934 34.768 279.582 34.768C277.23 34.768 275.646 36.616 275.646 39.688C275.646 42.784 277.23 44.632 279.582 44.632ZM289.766 33.376V35.536H289.838C290.486 34.072 291.95 33.088 293.822 33.088C294.206 33.088 294.638 33.136 294.902 33.208V35.152C294.638 35.104 294.158 35.056 293.702 35.056C291.518 35.056 289.862 36.352 289.862 39.448V46H287.87V33.376H289.766ZM296.681 28.624H298.769V30.928H296.681V28.624ZM296.729 33.376H298.721V46H296.729V33.376ZM303.524 35.176H303.596C304.388 33.88 305.876 33.088 307.604 33.088C310.052 33.088 312.092 34.528 312.092 37.6V46H310.076V38.296C310.076 35.8 309.116 34.792 307.076 34.792C305.348 34.792 303.62 36.088 303.62 38.992V46H301.628V33.376H303.524V35.176ZM325.862 33.376V45.16C325.862 49.144 323.366 50.704 320.102 50.704C317.462 50.704 315.278 49.552 314.51 46.936L316.43 46.48C316.958 48.352 318.278 49.048 320.102 49.048C322.43 49.048 323.846 47.872 323.846 45.04V43.36H323.774C323.126 44.56 321.614 45.328 319.862 45.328C316.598 45.328 314.294 42.904 314.294 39.208C314.294 35.512 316.598 33.088 319.862 33.088C321.662 33.088 323.198 33.88 323.87 35.176H323.942V33.376H325.862ZM320.198 43.696C322.43 43.696 323.99 41.896 323.99 39.208C323.99 36.544 322.43 34.768 320.198 34.768C317.87 34.768 316.334 36.544 316.334 39.208C316.334 41.896 317.87 43.696 320.198 43.696ZM338.345 44.296C338.705 44.296 339.305 44.296 339.617 44.272V46.024C339.305 46.048 338.585 46.072 337.961 46.072C335.705 46.072 334.793 45.496 334.793 43.288V34.936H332.705V33.376H334.793V29.752H336.809V33.376H339.737V34.936H336.809V42.784C336.809 44.032 337.217 44.296 338.345 44.296ZM343.791 35.2H343.863C344.655 33.904 346.143 33.088 347.823 33.088C350.223 33.088 352.263 34.528 352.263 37.6V46H350.247V38.296C350.247 35.8 349.287 34.792 347.247 34.792C345.567 34.792 343.791 36.28 343.791 39.16V46H341.775V28.624H343.791V35.2ZM363.898 42.16L365.938 42.424C365.338 44.248 363.778 46.312 360.25 46.312C356.818 46.312 354.466 43.696 354.466 39.712C354.466 35.704 356.77 33.088 360.25 33.088C363.754 33.088 366.274 35.728 366.034 40.192H356.506C356.578 42.784 358.042 44.632 360.25 44.632C362.53 44.632 363.538 43.24 363.898 42.16ZM360.25 34.768C358.018 34.768 356.722 36.544 356.53 38.608H363.97C363.802 36.544 362.506 34.768 360.25 34.768ZM3.336 63.176H3.408C4.2 61.88 5.688 61.088 7.416 61.088C9.864 61.088 11.904 62.528 11.904 65.6V74H9.888V66.296C9.888 63.8 8.928 62.792 6.888 62.792C5.16 62.792 3.432 64.088 3.432 66.992V74H1.44V61.376H3.336V63.176ZM23.5382 70.16L25.5782 70.424C24.9782 72.248 23.4182 74.312 19.8902 74.312C16.4582 74.312 14.1062 71.696 14.1062 67.712C14.1062 63.704 16.4102 61.088 19.8902 61.088C23.3942 61.088 25.9142 63.728 25.6742 68.192H16.1462C16.2182 70.784 17.6822 72.632 19.8902 72.632C22.1702 72.632 23.1782 71.24 23.5382 70.16ZM19.8902 62.768C17.6582 62.768 16.3622 64.544 16.1702 66.608H23.6102C23.4422 64.544 22.1462 62.768 19.8902 62.768ZM45.3088 61.376L41.1088 74H38.8768L35.7568 64.112H35.6848L32.5648 74H30.4288L26.2288 61.376H28.4368L31.5328 71.528H31.6048L34.6528 61.376H36.9568L40.0048 71.528H40.0768L43.1728 61.376H45.3088ZM57.2775 61.088C60.8535 61.088 63.2535 63.68 63.2535 67.688C63.2535 71.696 60.8535 74.288 57.2775 74.288C53.7015 74.288 51.3015 71.696 51.3015 67.688C51.3015 63.68 53.7015 61.088 57.2775 61.088ZM57.2775 72.632C59.6295 72.632 61.1895 70.784 61.1895 67.688C61.1895 64.616 59.6295 62.768 57.2775 62.768C54.9255 62.768 53.3415 64.616 53.3415 67.688C53.3415 70.784 54.9255 72.632 57.2775 72.632ZM67.461 61.376V63.536H67.533C68.181 62.072 69.645 61.088 71.517 61.088C71.901 61.088 72.333 61.136 72.597 61.208V63.152C72.333 63.104 71.853 63.056 71.397 63.056C69.213 63.056 67.557 64.352 67.557 67.448V74H65.565V61.376H67.461ZM84.5754 61.088C86.3754 61.088 87.9354 61.928 88.6074 63.2H88.6794V56.624H90.6954V74H88.7754V72.08H88.7034C88.0554 73.424 86.4234 74.288 84.5754 74.288C81.2394 74.288 78.8874 71.696 78.8874 67.688C78.8874 63.68 81.2394 61.088 84.5754 61.088ZM84.9114 72.632C87.2154 72.632 88.8234 70.784 88.8234 67.688C88.8234 64.616 87.2154 62.768 84.9114 62.768C82.5114 62.768 80.9274 64.616 80.9274 67.688C80.9274 70.784 82.5114 72.632 84.9114 72.632ZM102.359 70.16L104.398 70.424C103.799 72.248 102.239 74.312 98.7105 74.312C95.2785 74.312 92.9265 71.696 92.9265 67.712C92.9265 63.704 95.2305 61.088 98.7105 61.088C102.215 61.088 104.734 63.728 104.495 68.192H94.9665C95.0385 70.784 96.5025 72.632 98.7105 72.632C100.991 72.632 101.999 71.24 102.359 70.16ZM98.7105 62.768C96.4785 62.768 95.1825 64.544 94.9905 66.608H102.431C102.263 64.544 100.967 62.768 98.7105 62.768ZM115.671 70.16L117.711 70.424C117.111 72.248 115.551 74.312 112.023 74.312C108.591 74.312 106.239 71.696 106.239 67.712C106.239 63.704 108.543 61.088 112.023 61.088C115.527 61.088 118.047 63.728 117.807 68.192H108.279C108.351 70.784 109.815 72.632 112.023 72.632C114.303 72.632 115.311 71.24 115.671 70.16ZM112.023 62.768C109.791 62.768 108.495 64.544 108.303 66.608H115.743C115.575 64.544 114.279 62.768 112.023 62.768ZM126.248 74.288V74.312C124.448 74.312 122.888 73.52 122.192 72.2H122.12V78.44H120.128V61.376H122.024V63.32H122.096C122.792 61.928 124.4 61.088 126.248 61.088C129.584 61.088 131.936 63.704 131.936 67.688C131.936 71.696 129.584 74.288 126.248 74.288ZM125.912 62.768C123.608 62.768 122 64.616 122 67.688C122 70.784 123.608 72.632 125.912 72.632C128.312 72.632 129.872 70.784 129.872 67.688C129.872 64.616 128.312 62.768 125.912 62.768ZM152.859 61.088C155.067 61.088 157.035 62.528 157.035 65.6V74H155.019V66.296C155.019 63.8 154.107 62.792 152.283 62.792C150.747 62.792 149.163 63.992 149.163 66.896V74H147.147V66.296C147.147 63.8 146.259 62.792 144.411 62.792C142.851 62.792 141.291 64.088 141.291 66.992V74H139.299V61.376H141.195V63.2H141.267C142.059 61.88 143.427 61.088 144.987 61.088C146.547 61.088 147.963 61.808 148.683 63.296C149.595 62 150.915 61.088 152.859 61.088ZM168.687 70.16L170.727 70.424C170.127 72.248 168.567 74.312 165.039 74.312C161.607 74.312 159.255 71.696 159.255 67.712C159.255 63.704 161.559 61.088 165.039 61.088C168.543 61.088 171.063 63.728 170.823 68.192H161.295C161.367 70.784 162.831 72.632 165.039 72.632C167.319 72.632 168.327 71.24 168.687 70.16ZM165.039 62.768C162.807 62.768 161.511 64.544 161.319 66.608H168.759C168.591 64.544 167.295 62.768 165.039 62.768ZM183.247 74H181.279C181.111 73.808 180.967 73.16 180.943 72.224C179.983 73.784 177.967 74.288 176.455 74.288C174.247 74.288 172.423 72.848 172.423 70.568C172.423 67.784 174.655 66.92 177.751 66.56C180.319 66.248 180.895 65.912 180.895 65.024C180.895 63.704 180.079 62.768 178.015 62.768C176.647 62.768 175.255 63.368 174.751 65.12L172.903 64.688C173.479 62.288 175.567 61.088 178.087 61.088C181.567 61.088 182.911 62.792 182.911 64.976V71.096C182.911 72.584 182.959 73.352 183.247 74ZM180.895 68.984V67.256C180.487 67.712 178.951 67.904 177.559 68.096C176.191 68.288 174.463 68.912 174.463 70.568C174.463 71.912 175.399 72.656 176.839 72.656C178.519 72.656 180.895 71.816 180.895 68.984ZM187.625 63.176H187.697C188.489 61.88 189.977 61.088 191.705 61.088C194.153 61.088 196.193 62.528 196.193 65.6V74H194.177V66.296C194.177 63.8 193.217 62.792 191.177 62.792C189.449 62.792 187.721 64.088 187.721 66.992V74H185.729V61.376H187.625V63.176ZM198.923 56.624H201.011V58.928H198.923V56.624ZM198.971 61.376H200.963V74H198.971V61.376ZM205.766 63.176H205.838C206.63 61.88 208.118 61.088 209.846 61.088C212.294 61.088 214.334 62.528 214.334 65.6V74H212.318V66.296C212.318 63.8 211.358 62.792 209.318 62.792C207.59 62.792 205.862 64.088 205.862 66.992V74H203.87V61.376H205.766V63.176ZM228.104 61.376V73.16C228.104 77.144 225.608 78.704 222.344 78.704C219.704 78.704 217.52 77.552 216.752 74.936L218.672 74.48C219.2 76.352 220.52 77.048 222.344 77.048C224.672 77.048 226.088 75.872 226.088 73.04V71.36H226.016C225.368 72.56 223.856 73.328 222.104 73.328C218.84 73.328 216.536 70.904 216.536 67.208C216.536 63.512 218.84 61.088 222.104 61.088C223.904 61.088 225.44 61.88 226.112 63.176H226.184V61.376H228.104ZM222.44 71.696C224.672 71.696 226.232 69.896 226.232 67.208C226.232 64.544 224.672 62.768 222.44 62.768C220.112 62.768 218.576 64.544 218.576 67.208C218.576 69.896 220.112 71.696 222.44 71.696ZM241.356 61.088C244.932 61.088 247.332 63.68 247.332 67.688C247.332 71.696 244.932 74.288 241.356 74.288C237.78 74.288 235.38 71.696 235.38 67.688C235.38 63.68 237.78 61.088 241.356 61.088ZM241.356 72.632C243.708 72.632 245.268 70.784 245.268 67.688C245.268 64.616 243.708 62.768 241.356 62.768C239.004 62.768 237.42 64.616 237.42 67.688C237.42 70.784 239.004 72.632 241.356 72.632ZM253.998 58.064C253.158 58.064 252.294 58.208 252.294 59.672V61.376H255.222V62.936H252.294V74.024H250.278V62.936H248.19V61.376H250.278V59.48C250.278 57.08 251.766 56.336 253.71 56.336C254.43 56.336 255.198 56.432 255.558 56.504V58.16C255.222 58.112 254.454 58.064 253.998 58.064ZM262.535 56.624H264.527V74H262.535V56.624ZM267.455 56.624H269.543V58.928H267.455V56.624ZM267.503 61.376H269.495V74H267.503V61.376ZM277.201 58.064C276.361 58.064 275.497 58.208 275.497 59.672V61.376H278.425V62.936H275.497V74.024H273.481V62.936H271.393V61.376H273.481V59.48C273.481 57.08 274.969 56.336 276.913 56.336C277.633 56.336 278.401 56.432 278.761 56.504V58.16C278.425 58.112 277.657 58.064 277.201 58.064ZM288.734 70.16L290.773 70.424C290.174 72.248 288.614 74.312 285.086 74.312C281.654 74.312 279.302 71.696 279.302 67.712C279.302 63.704 281.605 61.088 285.086 61.088C288.59 61.088 291.109 63.728 290.87 68.192H281.342C281.414 70.784 282.878 72.632 285.086 72.632C287.366 72.632 288.374 71.24 288.734 70.16ZM285.086 62.768C282.854 62.768 281.558 64.544 281.366 66.608H288.806C288.638 64.544 287.342 62.768 285.086 62.768ZM293.382 71.432H295.926V74H293.382V71.432Z" fill="black"/>
</svg>
