<svg width="14" height="17" viewBox="0 0 14 17" fill="none" xmlns="http://www.w3.org/2000/svg">
<path d="M11.9089 3.20862C11.0442 2.64667 10.42 1.74756 10.2253 0.699436C10.1832 0.472981 10.1601 0.239922 10.1601 0.00146484H7.40013L7.39571 11.0254C7.3493 12.2599 6.32984 13.2507 5.08007 13.2507C4.69164 13.2507 4.32589 13.1539 4.00386 12.9851C3.26538 12.5977 2.76001 11.8263 2.76001 10.9385C2.76001 9.66347 3.80084 8.62613 5.08007 8.62613C5.31887 8.62613 5.54795 8.6654 5.76463 8.73305V5.92486C5.54039 5.89443 5.31254 5.8754 5.08007 5.8754C2.27886 5.8754 0 8.14671 0 10.9385C0 12.6514 0.85869 14.1672 2.16872 15.0838C2.99388 15.6612 3.99758 16.0015 5.08007 16.0015C7.88127 16.0015 10.1601 13.7303 10.1601 10.9385V5.3484C11.2426 6.12276 12.5689 6.57907 14 6.57907V3.82834C13.2291 3.82834 12.5111 3.59993 11.9089 3.20862Z" fill="white"/>
</svg>
