<svg width="21" height="15" viewBox="0 0 21 15" fill="none" xmlns="http://www.w3.org/2000/svg">
<path d="M20.5624 2.18737C20.3218 1.32828 19.6102 0.650556 18.7049 0.418283C17.0679 0.001465 10.5 0.00146484 10.5 0.00146484C10.5 0.00146484 3.93541 0.001465 2.2951 0.418283C1.3931 0.647374 0.681515 1.3251 0.437639 2.18737C0 3.74646 0 7.00146 0 7.00146C0 7.00146 0 10.2565 0.437639 11.8156C0.678174 12.6746 1.38976 13.3524 2.2951 13.5846C3.93541 14.0015 10.5 14.0015 10.5 14.0015C10.5 14.0015 17.0679 14.0015 18.7049 13.5846C19.6069 13.3556 20.3185 12.6778 20.5624 11.8156C21 10.2565 21 7.00146 21 7.00146C21 7.00146 21 3.74646 20.5624 2.18737Z" fill="white"/>
<path d="M8.40201 10.0019L13.8575 7.00146L8.40201 4.00101V10.0019Z" fill="black"/>
</svg>
